%TF.GenerationSoftware,KiCad,Pcbnew,5.1.9-73d0e3b20d~88~ubuntu20.04.1*%
%TF.CreationDate,2021-02-21T12:43:02+01:00*%
%TF.ProjectId,input-board,696e7075-742d-4626-9f61-72642e6b6963,rev?*%
%TF.SameCoordinates,Original*%
%TF.FileFunction,Soldermask,Bot*%
%TF.FilePolarity,Negative*%
%FSLAX46Y46*%
G04 Gerber Fmt 4.6, Leading zero omitted, Abs format (unit mm)*
G04 Created by KiCad (PCBNEW 5.1.9-73d0e3b20d~88~ubuntu20.04.1) date 2021-02-21 12:43:02*
%MOMM*%
%LPD*%
G01*
G04 APERTURE LIST*
%ADD10O,0.800000X1.300000*%
%ADD11C,1.524000*%
%ADD12O,3.000000X1.500000*%
%ADD13O,1.500000X3.000000*%
%ADD14O,1.700000X1.700000*%
%ADD15R,1.700000X1.700000*%
G04 APERTURE END LIST*
D10*
%TO.C,J1*%
X102000000Y-28250000D03*
X100750000Y-28250000D03*
X99500000Y-28250000D03*
G36*
G01*
X97850000Y-28700000D02*
X97850000Y-27800000D01*
G75*
G02*
X98050000Y-27600000I200000J0D01*
G01*
X98450000Y-27600000D01*
G75*
G02*
X98650000Y-27800000I0J-200000D01*
G01*
X98650000Y-28700000D01*
G75*
G02*
X98450000Y-28900000I-200000J0D01*
G01*
X98050000Y-28900000D01*
G75*
G02*
X97850000Y-28700000I0J200000D01*
G01*
G37*
%TD*%
D11*
%TO.C,SW3*%
X137600000Y-27000000D03*
D12*
X145000000Y-34400000D03*
X145000000Y-25600000D03*
D13*
X140250000Y-31700000D03*
X149750000Y-31800000D03*
%TD*%
D11*
%TO.C,SW1*%
X92600000Y-27000000D03*
D12*
X100000000Y-34400000D03*
X100000000Y-25600000D03*
D13*
X95250000Y-31700000D03*
X104750000Y-31800000D03*
%TD*%
%TO.C,J2*%
G36*
G01*
X165225000Y-28700000D02*
X165225000Y-27800000D01*
G75*
G02*
X165425000Y-27600000I200000J0D01*
G01*
X165825000Y-27600000D01*
G75*
G02*
X166025000Y-27800000I0J-200000D01*
G01*
X166025000Y-28700000D01*
G75*
G02*
X165825000Y-28900000I-200000J0D01*
G01*
X165425000Y-28900000D01*
G75*
G02*
X165225000Y-28700000I0J200000D01*
G01*
G37*
D10*
X166875000Y-28250000D03*
X168125000Y-28250000D03*
X169375000Y-28250000D03*
%TD*%
%TO.C,J12*%
X146750000Y-43000000D03*
X145500000Y-43000000D03*
X144250000Y-43000000D03*
G36*
G01*
X142600000Y-43450000D02*
X142600000Y-42550000D01*
G75*
G02*
X142800000Y-42350000I200000J0D01*
G01*
X143200000Y-42350000D01*
G75*
G02*
X143400000Y-42550000I0J-200000D01*
G01*
X143400000Y-43450000D01*
G75*
G02*
X143200000Y-43650000I-200000J0D01*
G01*
X142800000Y-43650000D01*
G75*
G02*
X142600000Y-43450000I0J200000D01*
G01*
G37*
%TD*%
D11*
%TO.C,SW4*%
X160100000Y-27000000D03*
D12*
X167500000Y-34400000D03*
X167500000Y-25600000D03*
D13*
X162750000Y-31700000D03*
X172250000Y-31800000D03*
%TD*%
D11*
%TO.C,SW2*%
X115100000Y-27000000D03*
D12*
X122500000Y-34400000D03*
X122500000Y-25600000D03*
D13*
X117750000Y-31700000D03*
X127250000Y-31800000D03*
%TD*%
D14*
%TO.C,J9*%
X142500000Y-32580000D03*
X142500000Y-30040000D03*
D15*
X142500000Y-27500000D03*
%TD*%
D14*
%TO.C,J8*%
X124750000Y-27420000D03*
X124750000Y-29960000D03*
D15*
X124750000Y-32500000D03*
%TD*%
%TO.C,J3*%
X130000000Y-23500000D03*
D14*
X132540000Y-23500000D03*
X135080000Y-23500000D03*
X137620000Y-23500000D03*
%TD*%
M02*
