M48
; DRILL file {KiCad (5.1.9)-1} date 02/22/21 13:59:36
; FORMAT={-:-/ absolute / inch / decimal}
; #@! TF.CreationDate,2021-02-22T13:59:36+01:00
; #@! TF.GenerationSoftware,Kicad,Pcbnew,(5.1.9)-1
; #@! TF.FileFunction,Plated,1,2,PTH
FMAT,2
INCH
T1C0.0079
T2C0.0157
T3C0.0197
T4C0.0276
T5C0.0300
T6C0.0394
%
G90
G05
T1
X3.6024Y-1.1516
X3.6516Y-1.1516
X3.6909Y-0.9449
X3.7008Y-1.1516
X3.75Y-0.8957
X3.75Y-0.9449
X3.75Y-1.0039
X3.75Y-1.0531
X3.75Y-1.1024
X3.75Y-1.1516
X3.8091Y-0.8957
X3.8091Y-0.9449
X3.8091Y-1.0039
X3.8386Y-1.4272
X3.8386Y-1.4764
X3.8681Y-0.8465
X3.8681Y-0.8957
X3.8681Y-0.9449
X3.878Y-1.1713
X3.878Y-1.2205
X3.9272Y-0.8465
X3.9272Y-0.8957
X3.9272Y-0.9449
X3.937Y-1.4764
X3.9469Y-1.1713
X3.9469Y-1.2205
X3.9862Y-0.8465
X3.9862Y-0.8957
X3.9862Y-0.9449
X4.0157Y-1.2205
X4.0354Y-1.378
X4.0354Y-1.4764
X4.0453Y-0.8465
X4.0453Y-0.8957
X4.0453Y-0.9449
X4.1043Y-0.8465
X4.1043Y-0.8957
X4.1043Y-0.9449
X4.1043Y-0.9941
X4.124Y-1.4567
X4.1634Y-0.8465
X4.1634Y-0.8957
X4.1634Y-0.9449
X4.1634Y-0.9941
X4.2028Y-1.1122
X4.2028Y-1.3878
X4.2224Y-0.8465
X4.2224Y-0.8957
X4.2224Y-0.9449
X4.2224Y-1.2894
X4.2323Y-1.4469
X4.252Y-1.1024
X4.2618Y-1.4862
X4.2815Y-0.8465
X4.2815Y-0.8957
X4.2815Y-0.9449
X4.2815Y-1.25
X4.311Y-1.4469
X4.3406Y-0.8465
X4.3406Y-0.8957
X4.3406Y-0.9449
X4.3504Y-1.5945
X4.3504Y-1.6634
X4.3504Y-1.7323
X4.3504Y-1.8012
X4.3701Y-1.1024
X4.3701Y-1.25
X4.3701Y-1.3878
X4.3996Y-0.8465
X4.3996Y-0.9449
X4.3996Y-1.0236
X4.4193Y-1.1024
X4.4193Y-1.25
X4.4193Y-1.3878
X4.4291Y-1.1909
X4.4291Y-1.6634
X4.4291Y-1.7323
X4.4291Y-1.8012
X4.4587Y-0.8465
X4.4587Y-0.8957
X4.4587Y-0.9449
X4.4685Y-1.2598
X4.5079Y-1.6634
X4.5079Y-1.7323
X4.5079Y-1.8012
X4.5177Y-0.8465
X4.5177Y-0.8957
X4.5177Y-0.9449
X4.5669Y-1.1319
X4.5768Y-0.8465
X4.5768Y-0.8957
X4.5768Y-0.9449
X4.6161Y-1.4075
X4.626Y-1.0827
X4.626Y-1.1319
X4.626Y-1.7126
X4.626Y-1.7618
X4.6358Y-0.8465
X4.6358Y-0.8957
X4.6358Y-0.9449
X4.6457Y-1.5945
X4.6654Y-1.5551
X4.6654Y-1.7618
X4.6752Y-1.378
X4.685Y-1.0827
X4.685Y-1.1319
X4.6949Y-0.8465
X4.6949Y-0.8957
X4.6949Y-0.9449
X4.6969Y-1.1791
X4.6969Y-1.4449
X4.7244Y-1.0138
X4.7244Y-1.4272
X4.7539Y-0.8465
X4.7539Y-0.8957
X4.7539Y-0.9449
X4.7539Y-1.5945
X4.7638Y-1.0827
X4.7638Y-1.1319
X4.7638Y-1.1811
X4.7638Y-1.2303
X4.7638Y-1.2795
X4.813Y-1.2795
X4.813Y-1.5945
X4.8228Y-1.122
X4.872Y-1.565
X4.8917Y-1.5453
X4.9114Y-1.5256
X4.9114Y-1.8602
X4.9311Y-0.8465
X4.9311Y-0.8957
X4.9311Y-0.9449
X4.9311Y-1.5059
X4.9508Y-1.4862
X4.9606Y-1.4075
X4.9606Y-1.4469
X4.9606Y-1.8602
X4.9902Y-0.8465
X4.9902Y-0.8957
X4.9902Y-0.9449
X5.0098Y-1.3583
X5.0098Y-1.4075
X5.0098Y-1.4469
X5.0098Y-1.8602
X5.0295Y-1.0335
X5.0295Y-1.7224
X5.0591Y-1.3583
X5.0591Y-1.4075
X5.0591Y-1.8209
X5.0591Y-1.8602
X5.0689Y-1.0728
X5.0886Y-1.2756
X5.1083Y-1.0728
X5.1475Y-1.278
X5.1575Y-1.0138
X5.1673Y-1.3386
X5.1673Y-1.4862
X5.1673Y-1.6831
X5.187Y-1.6043
X5.2067Y-1.5354
X5.2067Y-1.5748
X5.2165Y-1.0138
X5.2203Y-1.3363
X5.2264Y-1.5157
X5.2264Y-1.6929
X5.2559Y-1.5846
X5.2756Y-1.3484
X5.2854Y-1.4764
X5.2953Y-1.0236
X5.2953Y-1.3287
X5.3051Y-1.5945
X5.315Y-1.1713
X5.3337Y-1.2195
X5.3346Y-1.3287
X5.3346Y-1.4961
X5.3445Y-1.0039
X5.3543Y-1.3484
X5.3575Y-1.4748
X5.3642Y-1.5846
X5.3839Y-1.3681
X5.4035Y-1.2598
X5.4331Y-1.3386
X5.4721Y-1.5948
X5.4724Y-1.1614
X5.4724Y-1.7421
X5.4921Y-1.0433
X5.4921Y-1.1122
X5.5118Y-1.3386
X5.5217Y-0.8465
X5.5217Y-0.8957
X5.5217Y-0.9547
X5.561Y-1.4272
X5.5807Y-0.8465
X5.5807Y-0.8957
X5.5807Y-0.9547
X5.6004Y-1.8209
X5.6102Y-1.4272
X5.6301Y-1.5553
X5.6398Y-0.8465
X5.6398Y-0.9547
X5.6988Y-1.1713
X5.6988Y-1.2205
X5.6988Y-1.8209
X5.7087Y-1.2894
X5.748Y-1.1713
X5.748Y-1.2205
X5.748Y-1.2894
X5.7677Y-1.8209
X5.7904Y-1.5551
X5.7972Y-0.9547
X5.7972Y-1.2598
X5.8169Y-0.8465
X5.8169Y-0.8957
X5.8169Y-1.6831
X5.8268Y-0.9843
X5.8268Y-1.0335
X5.8268Y-1.122
X5.8268Y-1.1811
X5.8268Y-1.3189
X5.8563Y-1.6142
X5.876Y-0.8465
X5.876Y-0.8957
X5.8858Y-0.9843
X5.8858Y-1.0335
X5.8858Y-1.122
X5.8957Y-1.6142
X5.9055Y-1.5039
X5.9213Y-1.4646
X5.935Y-0.8957
X5.935Y-0.9843
X5.935Y-1.0335
X5.935Y-1.122
X5.935Y-1.4075
X5.935Y-1.6142
X5.9547Y-1.5354
X5.9646Y-1.4646
X5.9646Y-1.6929
X5.9646Y-1.752
X5.9941Y-0.8957
X6.0236Y-1.6929
X6.0433Y-1.752
X6.0531Y-0.8957
X6.0531Y-0.9547
X6.0531Y-1.063
X6.0531Y-1.2106
X6.0531Y-1.1811
X6.0925Y-1.378
X6.0945Y-1.3071
X6.1024Y-1.0433
X6.1024Y-1.1811
X6.1024Y-1.6535
X6.1122Y-0.8957
X6.1122Y-0.9449
X6.122Y-1.5157
X6.1417Y-1.6929
X6.1516Y-1.0433
X6.1516Y-1.1811
X6.1516Y-1.3189
X6.1516Y-1.4862
X6.1713Y-0.8957
X6.1713Y-0.9449
X6.2008Y-1.3976
X6.2008Y-1.4862
X6.2205Y-1.6535
X6.2205Y-1.6929
X6.2205Y-1.752
X6.2205Y-1.8209
X6.2303Y-0.8957
X6.2303Y-0.9449
X6.2894Y-0.8957
X6.2894Y-0.9449
X6.2992Y-1.3976
X6.2992Y-1.4961
X6.3484Y-0.8465
X6.3484Y-0.8957
X6.3484Y-0.9449
X6.3583Y-1.3484
X6.3681Y-1.1417
X6.3976Y-1.4961
X6.4075Y-0.8465
X6.4075Y-0.8957
X6.4075Y-0.9449
X6.4075Y-0.9941
X6.4075Y-1.4567
X6.4173Y-1.1024
X6.4173Y-1.1417
X6.4665Y-0.8465
X6.4665Y-0.8957
X6.4665Y-0.9449
X6.4665Y-0.9941
X6.4961Y-1.3484
X6.4961Y-1.4961
X6.5157Y-1.2205
X6.5256Y-0.8465
X6.5256Y-0.8957
X6.5256Y-0.9449
X6.5846Y-0.8465
X6.5846Y-0.8957
X6.5846Y-0.9449
X6.5945Y-1.2205
X6.5945Y-1.4961
X6.6437Y-0.8465
X6.6437Y-0.8957
X6.6437Y-0.9449
X6.6732Y-1.2205
X6.6929Y-1.5059
X6.7028Y-1.437
X6.7028Y-0.8957
X6.7028Y-0.9449
X6.7224Y-0.9941
X6.7421Y-1.0433
X6.7618Y-0.8957
X6.7618Y-0.9449
X6.7618Y-1.0925
X6.7815Y-0.9941
X6.7815Y-1.1417
X6.7913Y-1.378
X6.8012Y-1.0433
X6.8209Y-0.9449
X6.8209Y-1.0925
X6.8406Y-0.9941
X6.8406Y-1.1417
X6.8602Y-1.0433
X6.8799Y-1.0925
X6.8996Y-1.1417
T2
X4.4985Y-1.5645
X4.5965Y-1.3386
X4.6457Y-1.4469
X5.2165Y-1.1811
X5.9941Y-1.0827
X6.1417Y-1.752
T3
X3.8681Y-1.1122
X3.9173Y-1.1122
X3.9665Y-1.1122
X4.0157Y-1.1122
X5.6299Y-1.6929
X5.6791Y-1.6929
X5.7283Y-1.6929
X5.7776Y-1.6929
X6.5207Y-1.1122
X6.5699Y-1.1122
X6.6191Y-1.1122
X6.6683Y-1.1122
T5
X3.6457Y-1.063
X4.5315Y-1.063
X5.4173Y-1.063
X6.3031Y-1.063
T6
X4.9114Y-1.0795
X4.9114Y-1.1795
X4.9114Y-1.2795
X5.1181Y-0.9252
X5.2181Y-0.9252
X5.3181Y-0.9252
X5.4181Y-0.9252
X5.6102Y-1.0827
X5.6102Y-1.1827
X5.6102Y-1.2827
T4
G00X3.75Y-1.2776
M15
G01X3.75Y-1.2185
M16
G05
G00X3.9075Y-1.0079
M15
G01X3.9665Y-1.0079
M16
G05
G00X3.9075Y-1.3543
M15
G01X3.9665Y-1.3543
M16
G05
G00X4.124Y-1.2815
M15
G01X4.124Y-1.2224
M16
G05
G00X4.6358Y-1.2776
M15
G01X4.6358Y-1.2185
M16
G05
G00X4.7933Y-1.0079
M15
G01X4.8524Y-1.0079
M16
G05
G00X4.7933Y-1.3543
M15
G01X4.8524Y-1.3543
M16
G05
G00X5.0098Y-1.2815
M15
G01X5.0098Y-1.2224
M16
G05
G00X5.5217Y-1.2776
M15
G01X5.5217Y-1.2185
M16
G05
G00X5.6791Y-1.0079
M15
G01X5.7382Y-1.0079
M16
G05
G00X5.6791Y-1.3543
M15
G01X5.7382Y-1.3543
M16
G05
G00X5.8957Y-1.2815
M15
G01X5.8957Y-1.2224
M16
G05
G00X6.4075Y-1.2776
M15
G01X6.4075Y-1.2185
M16
G05
G00X6.565Y-1.0079
M15
G01X6.624Y-1.0079
M16
G05
G00X6.565Y-1.3543
M15
G01X6.624Y-1.3543
M16
G05
G00X6.7815Y-1.2815
M15
G01X6.7815Y-1.2224
M16
G05
T0
M30
