%TF.GenerationSoftware,KiCad,Pcbnew,5.1.9-73d0e3b20d~88~ubuntu20.04.1*%
%TF.CreationDate,2021-02-21T12:43:02+01:00*%
%TF.ProjectId,input-board,696e7075-742d-4626-9f61-72642e6b6963,rev?*%
%TF.SameCoordinates,Original*%
%TF.FileFunction,Copper,L2,Bot*%
%TF.FilePolarity,Positive*%
%FSLAX46Y46*%
G04 Gerber Fmt 4.6, Leading zero omitted, Abs format (unit mm)*
G04 Created by KiCad (PCBNEW 5.1.9-73d0e3b20d~88~ubuntu20.04.1) date 2021-02-21 12:43:02*
%MOMM*%
%LPD*%
G01*
G04 APERTURE LIST*
%TA.AperFunction,ComponentPad*%
%ADD10O,0.800000X1.300000*%
%TD*%
%TA.AperFunction,ComponentPad*%
%ADD11C,1.524000*%
%TD*%
%TA.AperFunction,ComponentPad*%
%ADD12O,3.000000X1.500000*%
%TD*%
%TA.AperFunction,ComponentPad*%
%ADD13O,1.500000X3.000000*%
%TD*%
%TA.AperFunction,ComponentPad*%
%ADD14O,1.700000X1.700000*%
%TD*%
%TA.AperFunction,ComponentPad*%
%ADD15R,1.700000X1.700000*%
%TD*%
%TA.AperFunction,ViaPad*%
%ADD16C,0.500000*%
%TD*%
%TA.AperFunction,ViaPad*%
%ADD17C,0.800000*%
%TD*%
%TA.AperFunction,Conductor*%
%ADD18C,0.200000*%
%TD*%
%TA.AperFunction,Conductor*%
%ADD19C,0.750000*%
%TD*%
%TA.AperFunction,Conductor*%
%ADD20C,0.500000*%
%TD*%
%TA.AperFunction,Conductor*%
%ADD21C,0.300000*%
%TD*%
%TA.AperFunction,Conductor*%
%ADD22C,0.100000*%
%TD*%
G04 APERTURE END LIST*
D10*
%TO.P,J1,4*%
%TO.N,Net-(J1-Pad4)*%
X102000000Y-28250000D03*
%TO.P,J1,3*%
%TO.N,Net-(J1-Pad3)*%
X100750000Y-28250000D03*
%TO.P,J1,2*%
%TO.N,Net-(J1-Pad2)*%
X99500000Y-28250000D03*
%TO.P,J1,1*%
%TO.N,GND*%
%TA.AperFunction,ComponentPad*%
G36*
G01*
X97850000Y-28700000D02*
X97850000Y-27800000D01*
G75*
G02*
X98050000Y-27600000I200000J0D01*
G01*
X98450000Y-27600000D01*
G75*
G02*
X98650000Y-27800000I0J-200000D01*
G01*
X98650000Y-28700000D01*
G75*
G02*
X98450000Y-28900000I-200000J0D01*
G01*
X98050000Y-28900000D01*
G75*
G02*
X97850000Y-28700000I0J200000D01*
G01*
G37*
%TD.AperFunction*%
%TD*%
D11*
%TO.P,SW3,5*%
%TO.N,GND*%
X137600000Y-27000000D03*
D12*
%TO.P,SW3,3*%
X145000000Y-34400000D03*
%TO.P,SW3,4*%
%TO.N,MDLED3*%
X145000000Y-25600000D03*
D13*
%TO.P,SW3,2*%
%TO.N,MDBT3*%
X140250000Y-31700000D03*
%TO.P,SW3,1*%
%TO.N,GND*%
X149750000Y-31800000D03*
%TD*%
D11*
%TO.P,SW1,5*%
%TO.N,GND*%
X92600000Y-27000000D03*
D12*
%TO.P,SW1,3*%
X100000000Y-34400000D03*
%TO.P,SW1,4*%
%TO.N,MDLED1*%
X100000000Y-25600000D03*
D13*
%TO.P,SW1,2*%
%TO.N,GND*%
X95250000Y-31700000D03*
%TO.P,SW1,1*%
%TO.N,MDBT1*%
X104750000Y-31800000D03*
%TD*%
%TO.P,J2,1*%
%TO.N,GND*%
%TA.AperFunction,ComponentPad*%
G36*
G01*
X165225000Y-28700000D02*
X165225000Y-27800000D01*
G75*
G02*
X165425000Y-27600000I200000J0D01*
G01*
X165825000Y-27600000D01*
G75*
G02*
X166025000Y-27800000I0J-200000D01*
G01*
X166025000Y-28700000D01*
G75*
G02*
X165825000Y-28900000I-200000J0D01*
G01*
X165425000Y-28900000D01*
G75*
G02*
X165225000Y-28700000I0J200000D01*
G01*
G37*
%TD.AperFunction*%
D10*
%TO.P,J2,2*%
%TO.N,Net-(J2-Pad2)*%
X166875000Y-28250000D03*
%TO.P,J2,3*%
%TO.N,Net-(J2-Pad3)*%
X168125000Y-28250000D03*
%TO.P,J2,4*%
%TO.N,Net-(J2-Pad4)*%
X169375000Y-28250000D03*
%TD*%
%TO.P,J12,4*%
%TO.N,GND*%
X146750000Y-43000000D03*
%TO.P,J12,3*%
%TO.N,CANL*%
X145500000Y-43000000D03*
%TO.P,J12,2*%
%TO.N,CANH*%
X144250000Y-43000000D03*
%TO.P,J12,1*%
%TO.N,Net-(D9-Pad2)*%
%TA.AperFunction,ComponentPad*%
G36*
G01*
X142600000Y-43450000D02*
X142600000Y-42550000D01*
G75*
G02*
X142800000Y-42350000I200000J0D01*
G01*
X143200000Y-42350000D01*
G75*
G02*
X143400000Y-42550000I0J-200000D01*
G01*
X143400000Y-43450000D01*
G75*
G02*
X143200000Y-43650000I-200000J0D01*
G01*
X142800000Y-43650000D01*
G75*
G02*
X142600000Y-43450000I0J200000D01*
G01*
G37*
%TD.AperFunction*%
%TD*%
D11*
%TO.P,SW4,5*%
%TO.N,GND*%
X160100000Y-27000000D03*
D12*
%TO.P,SW4,3*%
X167500000Y-34400000D03*
%TO.P,SW4,4*%
%TO.N,MDLED4*%
X167500000Y-25600000D03*
D13*
%TO.P,SW4,2*%
%TO.N,MDBT4*%
X162750000Y-31700000D03*
%TO.P,SW4,1*%
%TO.N,GND*%
X172250000Y-31800000D03*
%TD*%
D11*
%TO.P,SW2,5*%
%TO.N,GND*%
X115100000Y-27000000D03*
D12*
%TO.P,SW2,3*%
X122500000Y-34400000D03*
%TO.P,SW2,4*%
%TO.N,MDLED2*%
X122500000Y-25600000D03*
D13*
%TO.P,SW2,2*%
%TO.N,GND*%
X117750000Y-31700000D03*
%TO.P,SW2,1*%
%TO.N,MDBT2*%
X127250000Y-31800000D03*
%TD*%
D14*
%TO.P,J9,3*%
%TO.N,GND*%
X142500000Y-32580000D03*
%TO.P,J9,2*%
%TO.N,Net-(J9-Pad2)*%
X142500000Y-30040000D03*
D15*
%TO.P,J9,1*%
%TO.N,+3V3*%
X142500000Y-27500000D03*
%TD*%
D14*
%TO.P,J8,3*%
%TO.N,GND*%
X124750000Y-27420000D03*
%TO.P,J8,2*%
%TO.N,Net-(J8-Pad2)*%
X124750000Y-29960000D03*
D15*
%TO.P,J8,1*%
%TO.N,+3V3*%
X124750000Y-32500000D03*
%TD*%
%TO.P,J3,1*%
%TO.N,GND*%
X130000000Y-23500000D03*
D14*
%TO.P,J3,2*%
%TO.N,SWCLK*%
X132540000Y-23500000D03*
%TO.P,J3,3*%
%TO.N,SWDIO*%
X135080000Y-23500000D03*
%TO.P,J3,4*%
%TO.N,+3V3*%
X137620000Y-23500000D03*
%TD*%
D16*
%TO.N,RAW_BREMSE*%
X135475000Y-30975000D03*
X134250000Y-37500000D03*
%TO.N,GND*%
X104250000Y-25250000D03*
X105750000Y-25250000D03*
X95250000Y-26750000D03*
X96750000Y-25500000D03*
X95250000Y-28000000D03*
X95250000Y-25500000D03*
X153750000Y-22750000D03*
X164250000Y-22750000D03*
X156750000Y-22750000D03*
X158250000Y-22750000D03*
X159750000Y-22750000D03*
X155250000Y-22750000D03*
X161250000Y-22750000D03*
X162750000Y-22750000D03*
X164250000Y-24000000D03*
X156750000Y-24000000D03*
X158250000Y-24000000D03*
X159750000Y-24000000D03*
X155250000Y-24000000D03*
X161250000Y-24000000D03*
X162750000Y-24000000D03*
X167250000Y-22750000D03*
X168750000Y-22750000D03*
X170250000Y-22750000D03*
X165750000Y-22750000D03*
X171750000Y-22750000D03*
X167250000Y-24000000D03*
X168750000Y-24000000D03*
X170250000Y-24000000D03*
X165750000Y-24000000D03*
X171750000Y-24000000D03*
X173250000Y-24000000D03*
X172250000Y-25250000D03*
X173750000Y-25250000D03*
X170750000Y-25250000D03*
X172750000Y-26500000D03*
X174250000Y-26500000D03*
X171250000Y-26500000D03*
X173250000Y-27750000D03*
X174750000Y-27750000D03*
X171750000Y-27750000D03*
X173750000Y-29000000D03*
X175250000Y-29000000D03*
X172250000Y-29000000D03*
X120750000Y-24000000D03*
X114750000Y-22750000D03*
X126750000Y-22750000D03*
X126750000Y-24000000D03*
X125250000Y-22750000D03*
X117750000Y-22750000D03*
X119250000Y-22750000D03*
X116250000Y-24000000D03*
X113250000Y-24000000D03*
X110250000Y-22750000D03*
X111750000Y-24000000D03*
X117750000Y-24000000D03*
X116250000Y-22750000D03*
X114750000Y-24000000D03*
X125250000Y-24000000D03*
X110250000Y-24000000D03*
X119250000Y-24000000D03*
X113250000Y-22750000D03*
X96750000Y-22750000D03*
X98250000Y-22750000D03*
X96750000Y-24000000D03*
X95250000Y-24000000D03*
X104250000Y-24000000D03*
X93750000Y-24000000D03*
X101250000Y-24000000D03*
X99750000Y-24000000D03*
X102750000Y-22750000D03*
X105750000Y-22750000D03*
X108750000Y-24000000D03*
X107250000Y-22750000D03*
X101250000Y-22750000D03*
X102750000Y-24000000D03*
X98250000Y-24000000D03*
X104250000Y-22750000D03*
X95250000Y-22750000D03*
X108750000Y-22750000D03*
X99750000Y-22750000D03*
X107250000Y-24000000D03*
X105750000Y-24000000D03*
X140250000Y-22750000D03*
X140250000Y-24250000D03*
X164250000Y-21500000D03*
X141750000Y-21500000D03*
X165750000Y-21500000D03*
X168750000Y-21500000D03*
X167250000Y-21500000D03*
X140250000Y-21500000D03*
X161250000Y-21500000D03*
X147750000Y-21500000D03*
X149250000Y-21500000D03*
X162750000Y-21500000D03*
X143250000Y-21500000D03*
X104250000Y-21500000D03*
X105750000Y-21500000D03*
X113250000Y-21500000D03*
X108750000Y-21500000D03*
X107250000Y-21500000D03*
X126750000Y-21500000D03*
X114750000Y-21500000D03*
X111750000Y-21500000D03*
X119250000Y-21500000D03*
X116250000Y-21500000D03*
X125250000Y-21500000D03*
X110250000Y-21500000D03*
X117750000Y-21500000D03*
X120750000Y-21500000D03*
X98250000Y-21500000D03*
X99750000Y-21500000D03*
X102750000Y-21500000D03*
X101250000Y-21500000D03*
X147750000Y-22750000D03*
X162750000Y-25250000D03*
X164250000Y-25250000D03*
X133500000Y-40250000D03*
X132250000Y-40000000D03*
X134750000Y-40500000D03*
X127750000Y-43750000D03*
X153750000Y-27000000D03*
X153750000Y-30750000D03*
X108000000Y-28250000D03*
X108750000Y-31750000D03*
X109500000Y-36750000D03*
X111000000Y-28000000D03*
X112250000Y-28000000D03*
X111000000Y-31750000D03*
X112250000Y-31750000D03*
X111000000Y-35250000D03*
X112250000Y-35250000D03*
X155000000Y-30000000D03*
X156250000Y-30000000D03*
X155000000Y-26500000D03*
X156250000Y-26500000D03*
X155000000Y-33500000D03*
X156250000Y-33500000D03*
X120750000Y-40500000D03*
X122250000Y-40500000D03*
X118000000Y-40500000D03*
X118500000Y-39500000D03*
X141250000Y-36250000D03*
X142500000Y-36250000D03*
X138000000Y-34000000D03*
X128500000Y-34500000D03*
X131250000Y-34000000D03*
X131000000Y-25750000D03*
X132500000Y-25750000D03*
X127750000Y-26250000D03*
X128750000Y-27250000D03*
X129750000Y-27250000D03*
X128500000Y-46250000D03*
X128500000Y-47250000D03*
X127250000Y-47250000D03*
X126000000Y-47250000D03*
X118500000Y-44750000D03*
X117500000Y-44750000D03*
X117500000Y-43500000D03*
X117250000Y-35750000D03*
X118750000Y-35000000D03*
X98500000Y-29750000D03*
X100250000Y-29750000D03*
X98500000Y-31000000D03*
X131250000Y-42750000D03*
X142250000Y-46250000D03*
X144750000Y-46250000D03*
X146500000Y-46250000D03*
X165500000Y-31000000D03*
X167500000Y-31000000D03*
X169500000Y-31000000D03*
X137250000Y-32000000D03*
X140000000Y-34000000D03*
X149750000Y-41000000D03*
X148750000Y-41000000D03*
X150750000Y-41000000D03*
X163000000Y-28000000D03*
X163000000Y-29000000D03*
X161750000Y-29000000D03*
X100250000Y-31000000D03*
X102000000Y-31000000D03*
X114500000Y-42250000D03*
X112500000Y-42250000D03*
X112500000Y-44000000D03*
X114500000Y-44000000D03*
X110500000Y-44000000D03*
X110500000Y-42250000D03*
X112500000Y-45750000D03*
X110500000Y-45750000D03*
X139500000Y-26500000D03*
X141750000Y-24250000D03*
X143250000Y-24250000D03*
X141750000Y-22750000D03*
X134500000Y-26000000D03*
X135750000Y-25500000D03*
X135000000Y-29750000D03*
X129250000Y-32400000D03*
X121000000Y-31250000D03*
X122250000Y-32500000D03*
X145000000Y-30000000D03*
X145000000Y-28500000D03*
X146500000Y-28500000D03*
X146500000Y-30000000D03*
X146500000Y-31250000D03*
X145000000Y-31250000D03*
X148000000Y-28500000D03*
X149500000Y-28500000D03*
X150750000Y-28500000D03*
X148000000Y-26250000D03*
X149500000Y-26250000D03*
X150750000Y-26250000D03*
X148000000Y-25000000D03*
X149500000Y-25000000D03*
X150750000Y-25000000D03*
X149250000Y-22750000D03*
X150750000Y-22750000D03*
X152250000Y-22750000D03*
X95250000Y-29250000D03*
X94000000Y-29250000D03*
X92750000Y-29250000D03*
X91500000Y-29250000D03*
X157500000Y-37750000D03*
X160000000Y-38000000D03*
X162500000Y-38000000D03*
X165000000Y-38000000D03*
X167500000Y-38000000D03*
X170000000Y-38250000D03*
X172500000Y-35000000D03*
X157500000Y-35500000D03*
X160000000Y-35500000D03*
X165000000Y-34250000D03*
X102500000Y-37500000D03*
X100000000Y-37500000D03*
X97500000Y-37500000D03*
X102500000Y-35000000D03*
X110500000Y-40500000D03*
X114500000Y-45750000D03*
X117500000Y-27500000D03*
X119000000Y-27500000D03*
X117500000Y-28750000D03*
X119000000Y-28750000D03*
X116000000Y-28750000D03*
X121000000Y-27500000D03*
X121000000Y-28750000D03*
X121000000Y-30000000D03*
X121000000Y-32500000D03*
X126000000Y-35750000D03*
X127250000Y-35750000D03*
X127250000Y-36750000D03*
X126000000Y-36750000D03*
X156250000Y-37750000D03*
X161500000Y-34250000D03*
X106750000Y-28250000D03*
X107000000Y-31750000D03*
X106750000Y-35250000D03*
X107500000Y-36750000D03*
X113500000Y-32000000D03*
X120750000Y-22750000D03*
X124750000Y-47250000D03*
X151500000Y-43000000D03*
X151500000Y-44500000D03*
X153500000Y-44500000D03*
X155000000Y-42000000D03*
X156000000Y-43000000D03*
X153000000Y-43000000D03*
X155500000Y-38500000D03*
X147750000Y-42750000D03*
X158000000Y-42000000D03*
X158000000Y-43000000D03*
X158000000Y-44500000D03*
X158000000Y-46250000D03*
%TO.N,RAW_GAS*%
X131750000Y-40750000D03*
X130747619Y-32461034D03*
D17*
%TO.N,+5V*%
X114262500Y-39737500D03*
X156000000Y-44500000D03*
D16*
%TO.N,BTN1*%
X124750000Y-38750000D03*
X108250000Y-37750000D03*
%TO.N,BTN2*%
X125250000Y-38250000D03*
X112500000Y-30250000D03*
X119300010Y-29949990D03*
X119300014Y-36699986D03*
%TO.N,BTN3*%
X111750000Y-26000000D03*
X120000000Y-36250000D03*
X125750000Y-37750000D03*
X120000000Y-25750000D03*
%TO.N,BTN4*%
X136750000Y-34750000D03*
X147250000Y-24250000D03*
X153750000Y-24250000D03*
X147250002Y-32250000D03*
D17*
%TO.N,+3V3*%
X118000000Y-36750000D03*
X116750000Y-34000000D03*
D16*
X128500000Y-35750000D03*
D17*
X132500000Y-30000000D03*
D16*
X127250000Y-34500000D03*
D17*
X152250000Y-27500000D03*
D16*
%TO.N,BTN5*%
X148000000Y-34250000D03*
X136081389Y-37459306D03*
X153750004Y-30000000D03*
X148000000Y-30000000D03*
%TO.N,BTN6*%
X153750000Y-35750000D03*
X135500000Y-37999988D03*
%TO.N,CANH*%
X143003761Y-39503761D03*
X147075062Y-39500000D03*
%TO.N,SWCLK*%
X131250000Y-37750000D03*
X132596595Y-33943191D03*
%TO.N,Net-(J9-Pad2)*%
X139000000Y-29500000D03*
%TO.N,MDLED1*%
X124250000Y-39250000D03*
X97500000Y-36250000D03*
%TO.N,MDBT1*%
X123750000Y-39750000D03*
X104750000Y-36999982D03*
%TO.N,MDLED2*%
X134500000Y-33750000D03*
X122500000Y-28500000D03*
%TO.N,MDBT2*%
X134000000Y-34250000D03*
%TO.N,MDLED3*%
X135500000Y-33750000D03*
X139500000Y-28250000D03*
%TO.N,MDBT3*%
X136000000Y-34250000D03*
%TO.N,MDLED4*%
X136250000Y-40250000D03*
X170249996Y-36500000D03*
%TO.N,MDBT4*%
X162750000Y-37000000D03*
X138991000Y-40509000D03*
%TO.N,CAN_TX*%
X132250000Y-39000000D03*
X151250000Y-39500000D03*
%TO.N,CAN_RX*%
X132750000Y-38500000D03*
X151000000Y-36500000D03*
%TO.N,Net-(U2-Pad5)*%
X132750000Y-43000000D03*
X139000000Y-44250000D03*
%TD*%
D18*
%TO.N,RAW_BREMSE*%
X135000000Y-34250000D02*
X134250000Y-35000000D01*
X134250000Y-35000000D02*
X134250000Y-37500000D01*
X135000000Y-31450000D02*
X135000000Y-34250000D01*
X135475000Y-30975000D02*
X135000000Y-31450000D01*
%TO.N,RAW_GAS*%
X130747619Y-39747619D02*
X130747619Y-32461034D01*
X131750000Y-40750000D02*
X130747619Y-39747619D01*
D19*
%TO.N,+5V*%
X116300001Y-41775001D02*
X153275001Y-41775001D01*
X114262500Y-39737500D02*
X116300001Y-41775001D01*
X153275001Y-41775001D02*
X156000000Y-44500000D01*
D18*
%TO.N,BTN1*%
X124750000Y-38750000D02*
X123750000Y-37750000D01*
X123750000Y-37750000D02*
X108250000Y-37750000D01*
%TO.N,BTN2*%
X112500000Y-30250000D02*
X112800010Y-29949990D01*
X112800010Y-29949990D02*
X119300010Y-29949990D01*
X119850028Y-37250000D02*
X119300014Y-36699986D01*
X125250000Y-38250000D02*
X124250000Y-37250000D01*
X124250000Y-37250000D02*
X119850028Y-37250000D01*
%TO.N,BTN3*%
X124750000Y-36750000D02*
X125750000Y-37750000D01*
X120500000Y-36750000D02*
X124750000Y-36750000D01*
X120000000Y-36250000D02*
X120500000Y-36750000D01*
X111750000Y-26000000D02*
X112000000Y-25750000D01*
X112000000Y-25750000D02*
X120000000Y-25750000D01*
%TO.N,BTN4*%
X147250000Y-24250000D02*
X153750000Y-24250000D01*
X136750000Y-34750000D02*
X142000000Y-34750000D01*
X142000000Y-34750000D02*
X144500000Y-32250000D01*
X144500000Y-32250000D02*
X147250002Y-32250000D01*
D20*
%TO.N,+3V3*%
X118000000Y-35250000D02*
X116750000Y-34000000D01*
X118000000Y-36750000D02*
X118000000Y-35250000D01*
D21*
X128500000Y-35750000D02*
X127825000Y-35075000D01*
D19*
X142500000Y-27500000D02*
X152104000Y-27500000D01*
X152104000Y-27500000D02*
X152177000Y-27427000D01*
D20*
X124750000Y-32500000D02*
X125250000Y-32500000D01*
D19*
X137620000Y-24880000D02*
X137620000Y-23500000D01*
D21*
X127825000Y-35075000D02*
X127250000Y-34500000D01*
D19*
X140125000Y-25125000D02*
X137375000Y-25125000D01*
X142500000Y-27500000D02*
X140125000Y-25125000D01*
X137375000Y-25125000D02*
X137620000Y-24880000D01*
X132500000Y-30000000D02*
X137375000Y-25125000D01*
D18*
%TO.N,BTN5*%
X148000000Y-34250000D02*
X144790694Y-37459306D01*
X144790694Y-37459306D02*
X136081389Y-37459306D01*
X153750004Y-30000000D02*
X148000000Y-30000000D01*
%TO.N,BTN6*%
X145000012Y-37999988D02*
X135500000Y-37999988D01*
X147250000Y-35750000D02*
X145000012Y-37999988D01*
X153750000Y-35750000D02*
X147250000Y-35750000D01*
D21*
%TO.N,CANH*%
X143003761Y-39503761D02*
X147071301Y-39503761D01*
X147071301Y-39503761D02*
X147075062Y-39500000D01*
D18*
%TO.N,SWCLK*%
X131250000Y-35289786D02*
X132596595Y-33943191D01*
X131250000Y-37750000D02*
X131250000Y-35289786D01*
D21*
%TO.N,Net-(J9-Pad2)*%
X141960000Y-29500000D02*
X142500000Y-30040000D01*
X139000000Y-29500000D02*
X141960000Y-29500000D01*
D18*
%TO.N,MDLED1*%
X105750000Y-36250000D02*
X97500000Y-36250000D01*
X107750000Y-38250000D02*
X105750000Y-36250000D01*
X123250000Y-38250000D02*
X107750000Y-38250000D01*
X124250000Y-39250000D02*
X123250000Y-38250000D01*
%TO.N,MDBT1*%
X105749982Y-36999982D02*
X104750000Y-36999982D01*
X107500000Y-38750000D02*
X105749982Y-36999982D01*
X122750000Y-38750000D02*
X107500000Y-38750000D01*
X123750000Y-39750000D02*
X122750000Y-38750000D01*
%TO.N,MDLED2*%
X129499999Y-28749999D02*
X134500000Y-33750000D01*
X122749999Y-28749999D02*
X129499999Y-28749999D01*
X122500000Y-28500000D02*
X122749999Y-28749999D01*
%TO.N,MDBT2*%
X131550000Y-31800000D02*
X127250000Y-31800000D01*
X134000000Y-34250000D02*
X131550000Y-31800000D01*
%TO.N,MDLED3*%
X135500000Y-32250000D02*
X135500000Y-32750000D01*
X139500000Y-28250000D02*
X135500000Y-32250000D01*
X135500000Y-33750000D02*
X135500000Y-32750000D01*
%TO.N,MDBT3*%
X138550000Y-31700000D02*
X140250000Y-31700000D01*
X136000000Y-34250000D02*
X138550000Y-31700000D01*
%TO.N,MDLED4*%
X152496237Y-40003763D02*
X156000000Y-36500000D01*
X156000000Y-36500000D02*
X170249996Y-36500000D01*
X136250000Y-40250000D02*
X136500009Y-39999991D01*
X136500009Y-39999991D02*
X141240001Y-39999991D01*
X141240001Y-39999991D02*
X141243773Y-40003763D01*
X141243773Y-40003763D02*
X152496237Y-40003763D01*
%TO.N,MDBT4*%
X139000000Y-40500000D02*
X138991000Y-40509000D01*
X152750000Y-40500000D02*
X139000000Y-40500000D01*
X156250000Y-37000000D02*
X152750000Y-40500000D01*
X162750000Y-37000000D02*
X156250000Y-37000000D01*
%TO.N,CAN_TX*%
X132250000Y-39000000D02*
X139500000Y-39000000D01*
X139500000Y-39000000D02*
X142500000Y-39000000D01*
X150750000Y-39000000D02*
X151250000Y-39500000D01*
X142500000Y-39000000D02*
X150750000Y-39000000D01*
%TO.N,CAN_RX*%
X132750000Y-38500000D02*
X142250000Y-38500000D01*
X149000000Y-38500000D02*
X148500000Y-38500000D01*
X151000000Y-36500000D02*
X149000000Y-38500000D01*
X142250000Y-38500000D02*
X148500000Y-38500000D01*
%TO.N,Net-(U2-Pad5)*%
X137750000Y-43000000D02*
X139000000Y-44250000D01*
X132750000Y-43000000D02*
X137750000Y-43000000D01*
%TD*%
%TO.N,GND*%
X168717108Y-20755149D02*
X169913386Y-20993103D01*
X171068376Y-21385168D01*
X172162310Y-21924637D01*
X173176470Y-22602276D01*
X174093505Y-23406495D01*
X174897721Y-24323526D01*
X175575360Y-25337687D01*
X176114829Y-26431619D01*
X176506897Y-27586614D01*
X176744851Y-28782890D01*
X176824625Y-30000000D01*
X176744851Y-31217110D01*
X176506897Y-32413386D01*
X176114829Y-33568381D01*
X175575360Y-34662313D01*
X174897721Y-35676474D01*
X174093505Y-36593505D01*
X173176470Y-37397724D01*
X172162310Y-38075363D01*
X171068376Y-38614832D01*
X169913386Y-39006897D01*
X168717108Y-39244851D01*
X167494275Y-39325000D01*
X159491411Y-39325000D01*
X159483415Y-39325788D01*
X159477157Y-39325744D01*
X159474726Y-39325983D01*
X159280629Y-39346384D01*
X159265130Y-39349566D01*
X159249512Y-39352545D01*
X159247173Y-39353251D01*
X159060735Y-39410963D01*
X159046127Y-39417104D01*
X159031407Y-39423051D01*
X159029250Y-39424198D01*
X158857573Y-39517023D01*
X158844444Y-39525879D01*
X158831150Y-39534578D01*
X158829257Y-39536123D01*
X158678880Y-39660526D01*
X158667722Y-39671763D01*
X158656371Y-39682878D01*
X158654814Y-39684761D01*
X158531464Y-39836003D01*
X158522718Y-39849166D01*
X158513725Y-39862301D01*
X158512563Y-39864450D01*
X158420938Y-40036773D01*
X158414902Y-40051417D01*
X158408646Y-40066015D01*
X158407923Y-40068349D01*
X158351514Y-40255186D01*
X158348433Y-40270746D01*
X158345135Y-40286260D01*
X158344880Y-40288689D01*
X158325835Y-40482923D01*
X158325835Y-40482944D01*
X158325001Y-40491411D01*
X158325000Y-46241439D01*
X158289419Y-46604316D01*
X158186521Y-46945134D01*
X158019380Y-47259478D01*
X157794371Y-47535365D01*
X157520059Y-47762297D01*
X157206890Y-47931626D01*
X156866796Y-48036903D01*
X156504489Y-48074983D01*
X156499671Y-48075000D01*
X111008561Y-48075000D01*
X110645684Y-48039419D01*
X110304866Y-47936521D01*
X109990522Y-47769380D01*
X109714635Y-47544371D01*
X109487703Y-47270059D01*
X109318374Y-46956890D01*
X109213097Y-46616796D01*
X109175017Y-46254489D01*
X109175000Y-46249671D01*
X109175000Y-42950754D01*
X132250000Y-42950754D01*
X132250000Y-43049246D01*
X132269215Y-43145845D01*
X132306906Y-43236839D01*
X132361625Y-43318731D01*
X132431269Y-43388375D01*
X132513161Y-43443094D01*
X132604155Y-43480785D01*
X132700754Y-43500000D01*
X132799246Y-43500000D01*
X132895845Y-43480785D01*
X132986839Y-43443094D01*
X133068731Y-43388375D01*
X133107106Y-43350000D01*
X137605027Y-43350000D01*
X138500000Y-44244974D01*
X138500000Y-44299246D01*
X138519215Y-44395845D01*
X138556906Y-44486839D01*
X138611625Y-44568731D01*
X138681269Y-44638375D01*
X138763161Y-44693094D01*
X138854155Y-44730785D01*
X138950754Y-44750000D01*
X139049246Y-44750000D01*
X139145845Y-44730785D01*
X139236839Y-44693094D01*
X139318731Y-44638375D01*
X139388375Y-44568731D01*
X139443094Y-44486839D01*
X139480785Y-44395845D01*
X139500000Y-44299246D01*
X139500000Y-44200754D01*
X139480785Y-44104155D01*
X139443094Y-44013161D01*
X139388375Y-43931269D01*
X139318731Y-43861625D01*
X139236839Y-43806906D01*
X139145845Y-43769215D01*
X139049246Y-43750000D01*
X138994974Y-43750000D01*
X138009653Y-42764680D01*
X137998685Y-42751315D01*
X137945390Y-42707578D01*
X137884587Y-42675078D01*
X137818612Y-42655065D01*
X137767189Y-42650000D01*
X137767188Y-42650000D01*
X137750000Y-42648307D01*
X137732812Y-42650000D01*
X133107106Y-42650000D01*
X133068731Y-42611625D01*
X132986839Y-42556906D01*
X132895845Y-42519215D01*
X132799246Y-42500000D01*
X132700754Y-42500000D01*
X132604155Y-42519215D01*
X132513161Y-42556906D01*
X132431269Y-42611625D01*
X132361625Y-42681269D01*
X132306906Y-42763161D01*
X132269215Y-42854155D01*
X132250000Y-42950754D01*
X109175000Y-42950754D01*
X109175000Y-40491411D01*
X109174212Y-40483415D01*
X109174256Y-40477157D01*
X109174017Y-40474726D01*
X109153616Y-40280629D01*
X109150434Y-40265130D01*
X109147455Y-40249512D01*
X109146749Y-40247173D01*
X109089037Y-40060735D01*
X109082896Y-40046127D01*
X109076949Y-40031407D01*
X109075802Y-40029250D01*
X108982977Y-39857573D01*
X108974121Y-39844444D01*
X108965422Y-39831150D01*
X108963877Y-39829257D01*
X108839474Y-39678880D01*
X108828237Y-39667722D01*
X108817122Y-39656371D01*
X108815239Y-39654814D01*
X108663997Y-39531464D01*
X108650834Y-39522718D01*
X108637699Y-39513725D01*
X108635550Y-39512563D01*
X108463227Y-39420938D01*
X108448583Y-39414902D01*
X108433985Y-39408646D01*
X108431651Y-39407923D01*
X108244814Y-39351514D01*
X108229254Y-39348433D01*
X108213740Y-39345135D01*
X108211311Y-39344880D01*
X108017077Y-39325835D01*
X108017067Y-39325835D01*
X108008589Y-39325000D01*
X100005725Y-39325000D01*
X98782890Y-39244851D01*
X97586614Y-39006897D01*
X96431619Y-38614829D01*
X95337687Y-38075360D01*
X94323526Y-37397721D01*
X93406495Y-36593505D01*
X93062062Y-36200754D01*
X97000000Y-36200754D01*
X97000000Y-36299246D01*
X97019215Y-36395845D01*
X97056906Y-36486839D01*
X97111625Y-36568731D01*
X97181269Y-36638375D01*
X97263161Y-36693094D01*
X97354155Y-36730785D01*
X97450754Y-36750000D01*
X97549246Y-36750000D01*
X97645845Y-36730785D01*
X97736839Y-36693094D01*
X97818731Y-36638375D01*
X97857106Y-36600000D01*
X104448640Y-36600000D01*
X104431269Y-36611607D01*
X104361625Y-36681251D01*
X104306906Y-36763143D01*
X104269215Y-36854137D01*
X104250000Y-36950736D01*
X104250000Y-37049228D01*
X104269215Y-37145827D01*
X104306906Y-37236821D01*
X104361625Y-37318713D01*
X104431269Y-37388357D01*
X104513161Y-37443076D01*
X104604155Y-37480767D01*
X104700754Y-37499982D01*
X104799246Y-37499982D01*
X104895845Y-37480767D01*
X104986839Y-37443076D01*
X105068731Y-37388357D01*
X105107106Y-37349982D01*
X105605009Y-37349982D01*
X107240355Y-38985330D01*
X107251315Y-38998685D01*
X107304610Y-39042422D01*
X107365413Y-39074922D01*
X107406878Y-39087500D01*
X107431387Y-39094935D01*
X107499999Y-39101693D01*
X107517188Y-39100000D01*
X114135639Y-39100000D01*
X114072902Y-39112479D01*
X113954610Y-39161478D01*
X113848149Y-39232612D01*
X113757612Y-39323149D01*
X113686478Y-39429610D01*
X113637479Y-39547902D01*
X113612500Y-39673481D01*
X113612500Y-39801519D01*
X113637479Y-39927098D01*
X113686478Y-40045390D01*
X113757612Y-40151851D01*
X113848149Y-40242388D01*
X113954610Y-40313522D01*
X113954661Y-40313543D01*
X115836352Y-42195236D01*
X115855921Y-42219081D01*
X115879766Y-42238650D01*
X115879770Y-42238654D01*
X115951089Y-42297184D01*
X116009125Y-42328205D01*
X116059667Y-42355220D01*
X116177480Y-42390958D01*
X116269297Y-42400001D01*
X116269299Y-42400001D01*
X116300001Y-42403025D01*
X116330703Y-42400001D01*
X142376260Y-42400001D01*
X142357461Y-42461973D01*
X142348791Y-42550000D01*
X142348791Y-43450000D01*
X142357461Y-43538027D01*
X142383137Y-43622670D01*
X142424833Y-43700678D01*
X142480947Y-43769053D01*
X142549322Y-43825167D01*
X142627330Y-43866863D01*
X142711973Y-43892539D01*
X142800000Y-43901209D01*
X143200000Y-43901209D01*
X143288027Y-43892539D01*
X143372670Y-43866863D01*
X143450678Y-43825167D01*
X143519053Y-43769053D01*
X143575167Y-43700678D01*
X143616863Y-43622670D01*
X143642539Y-43538027D01*
X143646359Y-43499242D01*
X143646573Y-43499948D01*
X143706930Y-43612868D01*
X143788158Y-43711843D01*
X143887133Y-43793070D01*
X144000053Y-43853427D01*
X144122579Y-43890595D01*
X144250000Y-43903145D01*
X144377422Y-43890595D01*
X144499948Y-43853427D01*
X144612868Y-43793070D01*
X144711843Y-43711843D01*
X144793070Y-43612868D01*
X144853427Y-43499948D01*
X144875000Y-43428832D01*
X144896573Y-43499948D01*
X144956930Y-43612868D01*
X145038158Y-43711843D01*
X145137133Y-43793070D01*
X145250053Y-43853427D01*
X145372579Y-43890595D01*
X145500000Y-43903145D01*
X145627422Y-43890595D01*
X145749948Y-43853427D01*
X145862868Y-43793070D01*
X145961843Y-43711843D01*
X146043070Y-43612868D01*
X146060406Y-43580434D01*
X146124090Y-43692407D01*
X146222426Y-43806015D01*
X146341036Y-43898256D01*
X146486891Y-43952335D01*
X146600000Y-43895295D01*
X146600000Y-43150000D01*
X146900000Y-43150000D01*
X146900000Y-43895295D01*
X147013109Y-43952335D01*
X147158964Y-43898256D01*
X147277574Y-43806015D01*
X147375910Y-43692407D01*
X147450193Y-43561797D01*
X147497568Y-43419205D01*
X147516214Y-43270110D01*
X147422427Y-43150000D01*
X146900000Y-43150000D01*
X146600000Y-43150000D01*
X146580000Y-43150000D01*
X146580000Y-42850000D01*
X146600000Y-42850000D01*
X146600000Y-42830000D01*
X146900000Y-42830000D01*
X146900000Y-42850000D01*
X147422427Y-42850000D01*
X147516214Y-42729890D01*
X147497568Y-42580795D01*
X147450193Y-42438203D01*
X147428466Y-42400001D01*
X153016119Y-42400001D01*
X155423958Y-44807842D01*
X155423978Y-44807890D01*
X155495112Y-44914351D01*
X155585649Y-45004888D01*
X155692110Y-45076022D01*
X155810402Y-45125021D01*
X155935981Y-45150000D01*
X156064019Y-45150000D01*
X156189598Y-45125021D01*
X156307890Y-45076022D01*
X156414351Y-45004888D01*
X156504888Y-44914351D01*
X156576022Y-44807890D01*
X156625021Y-44689598D01*
X156650000Y-44564019D01*
X156650000Y-44435981D01*
X156625021Y-44310402D01*
X156576022Y-44192110D01*
X156504888Y-44085649D01*
X156414351Y-43995112D01*
X156307890Y-43923978D01*
X156307842Y-43923958D01*
X153738659Y-41354777D01*
X153719081Y-41330921D01*
X153623912Y-41252818D01*
X153515335Y-41194782D01*
X153397522Y-41159044D01*
X153305705Y-41150001D01*
X153305695Y-41150001D01*
X153275001Y-41146978D01*
X153244307Y-41150001D01*
X132051332Y-41150001D01*
X132068731Y-41138375D01*
X132138375Y-41068731D01*
X132193094Y-40986839D01*
X132230785Y-40895845D01*
X132250000Y-40799246D01*
X132250000Y-40700754D01*
X132230785Y-40604155D01*
X132193094Y-40513161D01*
X132138375Y-40431269D01*
X132068731Y-40361625D01*
X131986839Y-40306906D01*
X131895845Y-40269215D01*
X131799246Y-40250000D01*
X131744974Y-40250000D01*
X131097619Y-39602646D01*
X131097619Y-38950754D01*
X131750000Y-38950754D01*
X131750000Y-39049246D01*
X131769215Y-39145845D01*
X131806906Y-39236839D01*
X131861625Y-39318731D01*
X131931269Y-39388375D01*
X132013161Y-39443094D01*
X132104155Y-39480785D01*
X132200754Y-39500000D01*
X132299246Y-39500000D01*
X132395845Y-39480785D01*
X132486839Y-39443094D01*
X132568731Y-39388375D01*
X132607106Y-39350000D01*
X142526255Y-39350000D01*
X142522976Y-39357916D01*
X142503761Y-39454515D01*
X142503761Y-39553007D01*
X142522976Y-39649606D01*
X142524698Y-39653763D01*
X141295486Y-39653763D01*
X141257190Y-39649991D01*
X141257189Y-39649991D01*
X141240001Y-39648298D01*
X141222813Y-39649991D01*
X136517197Y-39649991D01*
X136500008Y-39648298D01*
X136431396Y-39655056D01*
X136411443Y-39661109D01*
X136365422Y-39675069D01*
X136304619Y-39707569D01*
X136252915Y-39750000D01*
X136200754Y-39750000D01*
X136104155Y-39769215D01*
X136013161Y-39806906D01*
X135931269Y-39861625D01*
X135861625Y-39931269D01*
X135806906Y-40013161D01*
X135769215Y-40104155D01*
X135750000Y-40200754D01*
X135750000Y-40299246D01*
X135769215Y-40395845D01*
X135806906Y-40486839D01*
X135861625Y-40568731D01*
X135931269Y-40638375D01*
X136013161Y-40693094D01*
X136104155Y-40730785D01*
X136200754Y-40750000D01*
X136299246Y-40750000D01*
X136395845Y-40730785D01*
X136486839Y-40693094D01*
X136568731Y-40638375D01*
X136638375Y-40568731D01*
X136693094Y-40486839D01*
X136730785Y-40395845D01*
X136739906Y-40349991D01*
X138515668Y-40349991D01*
X138510215Y-40363155D01*
X138491000Y-40459754D01*
X138491000Y-40558246D01*
X138510215Y-40654845D01*
X138547906Y-40745839D01*
X138602625Y-40827731D01*
X138672269Y-40897375D01*
X138754161Y-40952094D01*
X138845155Y-40989785D01*
X138941754Y-41009000D01*
X139040246Y-41009000D01*
X139136845Y-40989785D01*
X139227839Y-40952094D01*
X139309731Y-40897375D01*
X139357106Y-40850000D01*
X152732812Y-40850000D01*
X152750000Y-40851693D01*
X152767188Y-40850000D01*
X152767189Y-40850000D01*
X152818612Y-40844935D01*
X152884587Y-40824922D01*
X152945390Y-40792422D01*
X152998685Y-40748685D01*
X153009654Y-40735320D01*
X156394975Y-37350000D01*
X162392894Y-37350000D01*
X162431269Y-37388375D01*
X162513161Y-37443094D01*
X162604155Y-37480785D01*
X162700754Y-37500000D01*
X162799246Y-37500000D01*
X162895845Y-37480785D01*
X162986839Y-37443094D01*
X163068731Y-37388375D01*
X163138375Y-37318731D01*
X163193094Y-37236839D01*
X163230785Y-37145845D01*
X163250000Y-37049246D01*
X163250000Y-36950754D01*
X163230785Y-36854155D01*
X163229064Y-36850000D01*
X169892890Y-36850000D01*
X169931265Y-36888375D01*
X170013157Y-36943094D01*
X170104151Y-36980785D01*
X170200750Y-37000000D01*
X170299242Y-37000000D01*
X170395841Y-36980785D01*
X170486835Y-36943094D01*
X170568727Y-36888375D01*
X170638371Y-36818731D01*
X170693090Y-36736839D01*
X170730781Y-36645845D01*
X170749996Y-36549246D01*
X170749996Y-36450754D01*
X170730781Y-36354155D01*
X170693090Y-36263161D01*
X170638371Y-36181269D01*
X170568727Y-36111625D01*
X170486835Y-36056906D01*
X170395841Y-36019215D01*
X170299242Y-36000000D01*
X170200750Y-36000000D01*
X170104151Y-36019215D01*
X170013157Y-36056906D01*
X169931265Y-36111625D01*
X169892890Y-36150000D01*
X156017188Y-36150000D01*
X155999999Y-36148307D01*
X155931387Y-36155065D01*
X155911374Y-36161136D01*
X155865413Y-36175078D01*
X155804610Y-36207578D01*
X155751315Y-36251315D01*
X155740356Y-36264669D01*
X152351264Y-39653763D01*
X151727505Y-39653763D01*
X151730785Y-39645845D01*
X151750000Y-39549246D01*
X151750000Y-39450754D01*
X151730785Y-39354155D01*
X151693094Y-39263161D01*
X151638375Y-39181269D01*
X151568731Y-39111625D01*
X151486839Y-39056906D01*
X151395845Y-39019215D01*
X151299246Y-39000000D01*
X151244973Y-39000000D01*
X151009653Y-38764680D01*
X150998685Y-38751315D01*
X150945390Y-38707578D01*
X150884587Y-38675078D01*
X150818612Y-38655065D01*
X150767189Y-38650000D01*
X150767188Y-38650000D01*
X150750000Y-38648307D01*
X150732812Y-38650000D01*
X149344973Y-38650000D01*
X150994975Y-37000000D01*
X151049246Y-37000000D01*
X151145845Y-36980785D01*
X151236839Y-36943094D01*
X151318731Y-36888375D01*
X151388375Y-36818731D01*
X151443094Y-36736839D01*
X151480785Y-36645845D01*
X151500000Y-36549246D01*
X151500000Y-36450754D01*
X151480785Y-36354155D01*
X151443094Y-36263161D01*
X151388375Y-36181269D01*
X151318731Y-36111625D01*
X151301333Y-36100000D01*
X153392894Y-36100000D01*
X153431269Y-36138375D01*
X153513161Y-36193094D01*
X153604155Y-36230785D01*
X153700754Y-36250000D01*
X153799246Y-36250000D01*
X153895845Y-36230785D01*
X153986839Y-36193094D01*
X154068731Y-36138375D01*
X154138375Y-36068731D01*
X154193094Y-35986839D01*
X154230785Y-35895845D01*
X154250000Y-35799246D01*
X154250000Y-35700754D01*
X154230785Y-35604155D01*
X154193094Y-35513161D01*
X154138375Y-35431269D01*
X154068731Y-35361625D01*
X153986839Y-35306906D01*
X153895845Y-35269215D01*
X153799246Y-35250000D01*
X153700754Y-35250000D01*
X153604155Y-35269215D01*
X153513161Y-35306906D01*
X153431269Y-35361625D01*
X153392894Y-35400000D01*
X147344974Y-35400000D01*
X147994974Y-34750000D01*
X148049246Y-34750000D01*
X148145845Y-34730785D01*
X148175204Y-34718624D01*
X165697156Y-34718624D01*
X165752047Y-34886406D01*
X165866116Y-35071751D01*
X166014152Y-35231281D01*
X166190466Y-35358865D01*
X166388283Y-35449600D01*
X166600000Y-35500000D01*
X167350000Y-35500000D01*
X167350000Y-34550000D01*
X167650000Y-34550000D01*
X167650000Y-35500000D01*
X168400000Y-35500000D01*
X168611717Y-35449600D01*
X168809534Y-35358865D01*
X168985848Y-35231281D01*
X169133884Y-35071751D01*
X169247953Y-34886406D01*
X169302844Y-34718624D01*
X169251327Y-34550000D01*
X167650000Y-34550000D01*
X167350000Y-34550000D01*
X165748673Y-34550000D01*
X165697156Y-34718624D01*
X148175204Y-34718624D01*
X148236839Y-34693094D01*
X148318731Y-34638375D01*
X148388375Y-34568731D01*
X148443094Y-34486839D01*
X148480785Y-34395845D01*
X148500000Y-34299246D01*
X148500000Y-34200754D01*
X148480785Y-34104155D01*
X148471350Y-34081376D01*
X165697156Y-34081376D01*
X165748673Y-34250000D01*
X167350000Y-34250000D01*
X167350000Y-33300000D01*
X167650000Y-33300000D01*
X167650000Y-34250000D01*
X169251327Y-34250000D01*
X169302844Y-34081376D01*
X169247953Y-33913594D01*
X169133884Y-33728249D01*
X168985848Y-33568719D01*
X168809534Y-33441135D01*
X168611717Y-33350400D01*
X168400000Y-33300000D01*
X167650000Y-33300000D01*
X167350000Y-33300000D01*
X166600000Y-33300000D01*
X166388283Y-33350400D01*
X166190466Y-33441135D01*
X166014152Y-33568719D01*
X165866116Y-33728249D01*
X165752047Y-33913594D01*
X165697156Y-34081376D01*
X148471350Y-34081376D01*
X148443094Y-34013161D01*
X148388375Y-33931269D01*
X148318731Y-33861625D01*
X148236839Y-33806906D01*
X148145845Y-33769215D01*
X148049246Y-33750000D01*
X147950754Y-33750000D01*
X147854155Y-33769215D01*
X147763161Y-33806906D01*
X147681269Y-33861625D01*
X147611625Y-33931269D01*
X147556906Y-34013161D01*
X147519215Y-34104155D01*
X147500000Y-34200754D01*
X147500000Y-34255026D01*
X144645721Y-37109306D01*
X136438495Y-37109306D01*
X136400120Y-37070931D01*
X136318228Y-37016212D01*
X136227234Y-36978521D01*
X136130635Y-36959306D01*
X136032143Y-36959306D01*
X135935544Y-36978521D01*
X135844550Y-37016212D01*
X135762658Y-37070931D01*
X135693014Y-37140575D01*
X135638295Y-37222467D01*
X135600604Y-37313461D01*
X135581389Y-37410060D01*
X135581389Y-37506382D01*
X135549246Y-37499988D01*
X135450754Y-37499988D01*
X135354155Y-37519203D01*
X135263161Y-37556894D01*
X135181269Y-37611613D01*
X135111625Y-37681257D01*
X135056906Y-37763149D01*
X135019215Y-37854143D01*
X135000000Y-37950742D01*
X135000000Y-38049234D01*
X135019215Y-38145833D01*
X135020941Y-38150000D01*
X133107106Y-38150000D01*
X133068731Y-38111625D01*
X132986839Y-38056906D01*
X132895845Y-38019215D01*
X132799246Y-38000000D01*
X132700754Y-38000000D01*
X132604155Y-38019215D01*
X132513161Y-38056906D01*
X132431269Y-38111625D01*
X132361625Y-38181269D01*
X132306906Y-38263161D01*
X132269215Y-38354155D01*
X132250000Y-38450754D01*
X132250000Y-38500000D01*
X132200754Y-38500000D01*
X132104155Y-38519215D01*
X132013161Y-38556906D01*
X131931269Y-38611625D01*
X131861625Y-38681269D01*
X131806906Y-38763161D01*
X131769215Y-38854155D01*
X131750000Y-38950754D01*
X131097619Y-38950754D01*
X131097619Y-38228078D01*
X131104155Y-38230785D01*
X131200754Y-38250000D01*
X131299246Y-38250000D01*
X131395845Y-38230785D01*
X131486839Y-38193094D01*
X131568731Y-38138375D01*
X131638375Y-38068731D01*
X131693094Y-37986839D01*
X131730785Y-37895845D01*
X131750000Y-37799246D01*
X131750000Y-37700754D01*
X131730785Y-37604155D01*
X131693094Y-37513161D01*
X131638375Y-37431269D01*
X131600000Y-37392894D01*
X131600000Y-35434759D01*
X132591569Y-34443191D01*
X132645841Y-34443191D01*
X132742440Y-34423976D01*
X132833434Y-34386285D01*
X132915326Y-34331566D01*
X132984970Y-34261922D01*
X133039689Y-34180030D01*
X133077380Y-34089036D01*
X133096595Y-33992437D01*
X133096595Y-33893945D01*
X133083590Y-33828564D01*
X133500000Y-34244975D01*
X133500000Y-34299246D01*
X133519215Y-34395845D01*
X133556906Y-34486839D01*
X133611625Y-34568731D01*
X133681269Y-34638375D01*
X133763161Y-34693094D01*
X133854155Y-34730785D01*
X133950754Y-34750000D01*
X134002919Y-34750000D01*
X134001315Y-34751316D01*
X133957578Y-34804611D01*
X133925078Y-34865414D01*
X133909820Y-34915713D01*
X133905065Y-34931389D01*
X133898307Y-35000000D01*
X133900000Y-35017188D01*
X133900001Y-37142893D01*
X133861625Y-37181269D01*
X133806906Y-37263161D01*
X133769215Y-37354155D01*
X133750000Y-37450754D01*
X133750000Y-37549246D01*
X133769215Y-37645845D01*
X133806906Y-37736839D01*
X133861625Y-37818731D01*
X133931269Y-37888375D01*
X134013161Y-37943094D01*
X134104155Y-37980785D01*
X134200754Y-38000000D01*
X134299246Y-38000000D01*
X134395845Y-37980785D01*
X134486839Y-37943094D01*
X134568731Y-37888375D01*
X134638375Y-37818731D01*
X134693094Y-37736839D01*
X134730785Y-37645845D01*
X134750000Y-37549246D01*
X134750000Y-37450754D01*
X134730785Y-37354155D01*
X134693094Y-37263161D01*
X134638375Y-37181269D01*
X134600000Y-37142894D01*
X134600000Y-35144973D01*
X135235330Y-34509645D01*
X135248685Y-34498685D01*
X135292422Y-34445390D01*
X135324922Y-34384587D01*
X135344935Y-34318612D01*
X135346843Y-34299246D01*
X135351693Y-34250001D01*
X135350000Y-34232812D01*
X135350000Y-34229064D01*
X135354155Y-34230785D01*
X135450754Y-34250000D01*
X135500000Y-34250000D01*
X135500000Y-34299246D01*
X135519215Y-34395845D01*
X135556906Y-34486839D01*
X135611625Y-34568731D01*
X135681269Y-34638375D01*
X135763161Y-34693094D01*
X135854155Y-34730785D01*
X135950754Y-34750000D01*
X136049246Y-34750000D01*
X136145845Y-34730785D01*
X136236839Y-34693094D01*
X136253775Y-34681778D01*
X136250000Y-34700754D01*
X136250000Y-34799246D01*
X136269215Y-34895845D01*
X136306906Y-34986839D01*
X136361625Y-35068731D01*
X136431269Y-35138375D01*
X136513161Y-35193094D01*
X136604155Y-35230785D01*
X136700754Y-35250000D01*
X136799246Y-35250000D01*
X136895845Y-35230785D01*
X136986839Y-35193094D01*
X137068731Y-35138375D01*
X137107106Y-35100000D01*
X141982812Y-35100000D01*
X142000000Y-35101693D01*
X142017188Y-35100000D01*
X142017189Y-35100000D01*
X142068612Y-35094935D01*
X142134587Y-35074922D01*
X142195390Y-35042422D01*
X142248685Y-34998685D01*
X142259654Y-34985319D01*
X142526349Y-34718624D01*
X143197156Y-34718624D01*
X143252047Y-34886406D01*
X143366116Y-35071751D01*
X143514152Y-35231281D01*
X143690466Y-35358865D01*
X143888283Y-35449600D01*
X144100000Y-35500000D01*
X144850000Y-35500000D01*
X144850000Y-34550000D01*
X145150000Y-34550000D01*
X145150000Y-35500000D01*
X145900000Y-35500000D01*
X146111717Y-35449600D01*
X146309534Y-35358865D01*
X146485848Y-35231281D01*
X146633884Y-35071751D01*
X146747953Y-34886406D01*
X146802844Y-34718624D01*
X146751327Y-34550000D01*
X145150000Y-34550000D01*
X144850000Y-34550000D01*
X143248673Y-34550000D01*
X143197156Y-34718624D01*
X142526349Y-34718624D01*
X143213473Y-34031500D01*
X143197156Y-34081376D01*
X143248673Y-34250000D01*
X144850000Y-34250000D01*
X144850000Y-33300000D01*
X145150000Y-33300000D01*
X145150000Y-34250000D01*
X146751327Y-34250000D01*
X146802844Y-34081376D01*
X146747953Y-33913594D01*
X146633884Y-33728249D01*
X146485848Y-33568719D01*
X146309534Y-33441135D01*
X146111717Y-33350400D01*
X145900000Y-33300000D01*
X145150000Y-33300000D01*
X144850000Y-33300000D01*
X144100000Y-33300000D01*
X143896539Y-33348435D01*
X144644974Y-32600000D01*
X146892896Y-32600000D01*
X146931271Y-32638375D01*
X147013163Y-32693094D01*
X147104157Y-32730785D01*
X147200756Y-32750000D01*
X147299248Y-32750000D01*
X147395847Y-32730785D01*
X147486841Y-32693094D01*
X147568733Y-32638375D01*
X147638377Y-32568731D01*
X147693096Y-32486839D01*
X147730787Y-32395845D01*
X147750002Y-32299246D01*
X147750002Y-32200754D01*
X147730787Y-32104155D01*
X147693096Y-32013161D01*
X147650893Y-31950000D01*
X148650000Y-31950000D01*
X148650000Y-32700000D01*
X148700400Y-32911717D01*
X148791135Y-33109534D01*
X148918719Y-33285848D01*
X149078249Y-33433884D01*
X149263594Y-33547953D01*
X149431376Y-33602844D01*
X149600000Y-33551327D01*
X149600000Y-31950000D01*
X149900000Y-31950000D01*
X149900000Y-33551327D01*
X150068624Y-33602844D01*
X150236406Y-33547953D01*
X150421751Y-33433884D01*
X150581281Y-33285848D01*
X150708865Y-33109534D01*
X150799600Y-32911717D01*
X150850000Y-32700000D01*
X150850000Y-31950000D01*
X149900000Y-31950000D01*
X149600000Y-31950000D01*
X148650000Y-31950000D01*
X147650893Y-31950000D01*
X147638377Y-31931269D01*
X147568733Y-31861625D01*
X147486841Y-31806906D01*
X147395847Y-31769215D01*
X147299248Y-31750000D01*
X147200756Y-31750000D01*
X147104157Y-31769215D01*
X147013163Y-31806906D01*
X146931271Y-31861625D01*
X146892896Y-31900000D01*
X144517189Y-31900000D01*
X144500000Y-31898307D01*
X144482811Y-31900000D01*
X144431388Y-31905065D01*
X144365413Y-31925078D01*
X144304610Y-31957578D01*
X144251315Y-32001315D01*
X144240351Y-32014675D01*
X143700000Y-32555026D01*
X143700000Y-32429998D01*
X143602342Y-32429998D01*
X143652465Y-32245598D01*
X143644029Y-32217767D01*
X143551379Y-32001538D01*
X143418325Y-31807539D01*
X143249980Y-31643225D01*
X143052814Y-31514911D01*
X142834403Y-31427528D01*
X142650000Y-31476905D01*
X142650000Y-32430000D01*
X142670000Y-32430000D01*
X142670000Y-32730000D01*
X142650000Y-32730000D01*
X142650000Y-32750000D01*
X142350000Y-32750000D01*
X142350000Y-32730000D01*
X141397659Y-32730000D01*
X141347535Y-32914402D01*
X141355971Y-32942233D01*
X141448621Y-33158462D01*
X141581675Y-33352461D01*
X141750020Y-33516775D01*
X141947186Y-33645089D01*
X142165597Y-33732472D01*
X142349998Y-33683096D01*
X142349998Y-33780000D01*
X142475027Y-33780000D01*
X141855027Y-34400000D01*
X137107106Y-34400000D01*
X137068731Y-34361625D01*
X136986839Y-34306906D01*
X136895845Y-34269215D01*
X136799246Y-34250000D01*
X136700754Y-34250000D01*
X136604155Y-34269215D01*
X136513161Y-34306906D01*
X136496225Y-34318222D01*
X136500000Y-34299246D01*
X136500000Y-34244973D01*
X138694975Y-32050000D01*
X139250001Y-32050000D01*
X139250001Y-32499120D01*
X139264471Y-32646034D01*
X139321652Y-32834535D01*
X139414509Y-33008258D01*
X139539473Y-33160528D01*
X139691743Y-33285492D01*
X139865466Y-33378349D01*
X140053967Y-33435530D01*
X140250000Y-33454838D01*
X140446034Y-33435530D01*
X140634535Y-33378349D01*
X140808258Y-33285492D01*
X140960528Y-33160528D01*
X141085492Y-33008258D01*
X141178349Y-32834535D01*
X141235530Y-32646034D01*
X141250000Y-32499120D01*
X141250000Y-32245598D01*
X141347535Y-32245598D01*
X141397659Y-32430000D01*
X142350000Y-32430000D01*
X142350000Y-31476905D01*
X142165597Y-31427528D01*
X141947186Y-31514911D01*
X141750020Y-31643225D01*
X141581675Y-31807539D01*
X141448621Y-32001538D01*
X141355971Y-32217767D01*
X141347535Y-32245598D01*
X141250000Y-32245598D01*
X141250000Y-30900880D01*
X141235530Y-30753966D01*
X141178349Y-30565465D01*
X141085492Y-30391742D01*
X140960528Y-30239472D01*
X140808258Y-30114508D01*
X140634534Y-30021651D01*
X140446033Y-29964470D01*
X140250000Y-29945162D01*
X140053966Y-29964470D01*
X139865465Y-30021651D01*
X139691742Y-30114508D01*
X139539472Y-30239472D01*
X139414508Y-30391742D01*
X139321651Y-30565466D01*
X139264470Y-30753967D01*
X139250000Y-30900881D01*
X139250000Y-31350000D01*
X138567189Y-31350000D01*
X138550000Y-31348307D01*
X138532811Y-31350000D01*
X138481388Y-31355065D01*
X138415413Y-31375078D01*
X138354610Y-31407578D01*
X138301315Y-31451315D01*
X138290355Y-31464670D01*
X136005027Y-33750000D01*
X136000000Y-33750000D01*
X136000000Y-33700754D01*
X135980785Y-33604155D01*
X135943094Y-33513161D01*
X135888375Y-33431269D01*
X135850000Y-33392894D01*
X135850000Y-32394973D01*
X138542621Y-29702353D01*
X138556906Y-29736839D01*
X138611625Y-29818731D01*
X138681269Y-29888375D01*
X138763161Y-29943094D01*
X138854155Y-29980785D01*
X138950754Y-30000000D01*
X139049246Y-30000000D01*
X139145845Y-29980785D01*
X139236839Y-29943094D01*
X139301333Y-29900000D01*
X141406297Y-29900000D01*
X141400000Y-29931659D01*
X141400000Y-30148341D01*
X141442273Y-30360858D01*
X141525193Y-30561045D01*
X141645575Y-30741209D01*
X141798791Y-30894425D01*
X141978955Y-31014807D01*
X142179142Y-31097727D01*
X142391659Y-31140000D01*
X142608341Y-31140000D01*
X142820858Y-31097727D01*
X143021045Y-31014807D01*
X143201209Y-30894425D01*
X143354425Y-30741209D01*
X143474807Y-30561045D01*
X143557727Y-30360858D01*
X143600000Y-30148341D01*
X143600000Y-29950754D01*
X147500000Y-29950754D01*
X147500000Y-30049246D01*
X147519215Y-30145845D01*
X147556906Y-30236839D01*
X147611625Y-30318731D01*
X147681269Y-30388375D01*
X147763161Y-30443094D01*
X147854155Y-30480785D01*
X147950754Y-30500000D01*
X148049246Y-30500000D01*
X148145845Y-30480785D01*
X148236839Y-30443094D01*
X148318731Y-30388375D01*
X148357106Y-30350000D01*
X148892779Y-30350000D01*
X148791135Y-30490466D01*
X148700400Y-30688283D01*
X148650000Y-30900000D01*
X148650000Y-31650000D01*
X149600000Y-31650000D01*
X149600000Y-31630000D01*
X149900000Y-31630000D01*
X149900000Y-31650000D01*
X150850000Y-31650000D01*
X150850000Y-30900881D01*
X161750000Y-30900881D01*
X161750001Y-32499120D01*
X161764471Y-32646034D01*
X161821652Y-32834535D01*
X161914509Y-33008258D01*
X162039473Y-33160528D01*
X162191743Y-33285492D01*
X162365466Y-33378349D01*
X162553967Y-33435530D01*
X162750000Y-33454838D01*
X162946034Y-33435530D01*
X163134535Y-33378349D01*
X163308258Y-33285492D01*
X163460528Y-33160528D01*
X163585492Y-33008258D01*
X163678349Y-32834535D01*
X163735530Y-32646034D01*
X163750000Y-32499120D01*
X163750000Y-31950000D01*
X171150000Y-31950000D01*
X171150000Y-32700000D01*
X171200400Y-32911717D01*
X171291135Y-33109534D01*
X171418719Y-33285848D01*
X171578249Y-33433884D01*
X171763594Y-33547953D01*
X171931376Y-33602844D01*
X172100000Y-33551327D01*
X172100000Y-31950000D01*
X172400000Y-31950000D01*
X172400000Y-33551327D01*
X172568624Y-33602844D01*
X172736406Y-33547953D01*
X172921751Y-33433884D01*
X173081281Y-33285848D01*
X173208865Y-33109534D01*
X173299600Y-32911717D01*
X173350000Y-32700000D01*
X173350000Y-31950000D01*
X172400000Y-31950000D01*
X172100000Y-31950000D01*
X171150000Y-31950000D01*
X163750000Y-31950000D01*
X163750000Y-30900880D01*
X163749914Y-30900000D01*
X171150000Y-30900000D01*
X171150000Y-31650000D01*
X172100000Y-31650000D01*
X172100000Y-30048673D01*
X172400000Y-30048673D01*
X172400000Y-31650000D01*
X173350000Y-31650000D01*
X173350000Y-30900000D01*
X173299600Y-30688283D01*
X173208865Y-30490466D01*
X173081281Y-30314152D01*
X172921751Y-30166116D01*
X172736406Y-30052047D01*
X172568624Y-29997156D01*
X172400000Y-30048673D01*
X172100000Y-30048673D01*
X171931376Y-29997156D01*
X171763594Y-30052047D01*
X171578249Y-30166116D01*
X171418719Y-30314152D01*
X171291135Y-30490466D01*
X171200400Y-30688283D01*
X171150000Y-30900000D01*
X163749914Y-30900000D01*
X163735530Y-30753966D01*
X163678349Y-30565465D01*
X163585492Y-30391742D01*
X163460528Y-30239472D01*
X163308258Y-30114508D01*
X163134534Y-30021651D01*
X162946033Y-29964470D01*
X162750000Y-29945162D01*
X162553966Y-29964470D01*
X162365465Y-30021651D01*
X162191742Y-30114508D01*
X162039472Y-30239472D01*
X161914508Y-30391742D01*
X161821651Y-30565466D01*
X161764470Y-30753967D01*
X161750000Y-30900881D01*
X150850000Y-30900881D01*
X150850000Y-30900000D01*
X150799600Y-30688283D01*
X150708865Y-30490466D01*
X150607221Y-30350000D01*
X153392898Y-30350000D01*
X153431273Y-30388375D01*
X153513165Y-30443094D01*
X153604159Y-30480785D01*
X153700758Y-30500000D01*
X153799250Y-30500000D01*
X153895849Y-30480785D01*
X153986843Y-30443094D01*
X154068735Y-30388375D01*
X154138379Y-30318731D01*
X154193098Y-30236839D01*
X154230789Y-30145845D01*
X154250004Y-30049246D01*
X154250004Y-29950754D01*
X154230789Y-29854155D01*
X154193098Y-29763161D01*
X154138379Y-29681269D01*
X154068735Y-29611625D01*
X153986843Y-29556906D01*
X153895849Y-29519215D01*
X153799250Y-29500000D01*
X153700758Y-29500000D01*
X153604159Y-29519215D01*
X153513165Y-29556906D01*
X153431273Y-29611625D01*
X153392898Y-29650000D01*
X148357106Y-29650000D01*
X148318731Y-29611625D01*
X148236839Y-29556906D01*
X148145845Y-29519215D01*
X148049246Y-29500000D01*
X147950754Y-29500000D01*
X147854155Y-29519215D01*
X147763161Y-29556906D01*
X147681269Y-29611625D01*
X147611625Y-29681269D01*
X147556906Y-29763161D01*
X147519215Y-29854155D01*
X147500000Y-29950754D01*
X143600000Y-29950754D01*
X143600000Y-29931659D01*
X143557727Y-29719142D01*
X143474807Y-29518955D01*
X143354425Y-29338791D01*
X143201209Y-29185575D01*
X143021045Y-29065193D01*
X142820858Y-28982273D01*
X142608341Y-28940000D01*
X142391659Y-28940000D01*
X142179142Y-28982273D01*
X141978955Y-29065193D01*
X141926863Y-29100000D01*
X139301333Y-29100000D01*
X139236839Y-29056906D01*
X139202353Y-29042622D01*
X139344975Y-28900000D01*
X164873306Y-28900000D01*
X164880064Y-28968612D01*
X164900077Y-29034587D01*
X164932577Y-29095391D01*
X164976315Y-29148685D01*
X165029609Y-29192423D01*
X165090413Y-29224923D01*
X165156388Y-29244936D01*
X165225000Y-29251694D01*
X165387500Y-29250000D01*
X165475000Y-29162500D01*
X165475000Y-28400000D01*
X164962500Y-28400000D01*
X164875000Y-28487500D01*
X164873306Y-28900000D01*
X139344975Y-28900000D01*
X139494975Y-28750000D01*
X139549246Y-28750000D01*
X139645845Y-28730785D01*
X139736839Y-28693094D01*
X139818731Y-28638375D01*
X139888375Y-28568731D01*
X139943094Y-28486839D01*
X139980785Y-28395845D01*
X140000000Y-28299246D01*
X140000000Y-28200754D01*
X139980785Y-28104155D01*
X139943094Y-28013161D01*
X139888375Y-27931269D01*
X139818731Y-27861625D01*
X139736839Y-27806906D01*
X139645845Y-27769215D01*
X139549246Y-27750000D01*
X139450754Y-27750000D01*
X139354155Y-27769215D01*
X139263161Y-27806906D01*
X139181269Y-27861625D01*
X139111625Y-27931269D01*
X139056906Y-28013161D01*
X139019215Y-28104155D01*
X139000000Y-28200754D01*
X139000000Y-28255025D01*
X135350000Y-31905027D01*
X135350000Y-31594973D01*
X135469974Y-31475000D01*
X135524246Y-31475000D01*
X135620845Y-31455785D01*
X135711839Y-31418094D01*
X135793731Y-31363375D01*
X135863375Y-31293731D01*
X135918094Y-31211839D01*
X135955785Y-31120845D01*
X135975000Y-31024246D01*
X135975000Y-30925754D01*
X135955785Y-30829155D01*
X135918094Y-30738161D01*
X135863375Y-30656269D01*
X135793731Y-30586625D01*
X135711839Y-30531906D01*
X135620845Y-30494215D01*
X135524246Y-30475000D01*
X135425754Y-30475000D01*
X135329155Y-30494215D01*
X135238161Y-30531906D01*
X135156269Y-30586625D01*
X135086625Y-30656269D01*
X135031906Y-30738161D01*
X134994215Y-30829155D01*
X134975000Y-30925754D01*
X134975000Y-30980026D01*
X134764676Y-31190351D01*
X134751315Y-31201316D01*
X134707578Y-31254611D01*
X134675078Y-31315414D01*
X134658043Y-31371571D01*
X134655065Y-31381389D01*
X134648307Y-31450000D01*
X134650000Y-31467188D01*
X134650001Y-33270936D01*
X134645845Y-33269215D01*
X134549246Y-33250000D01*
X134494975Y-33250000D01*
X131180955Y-29935981D01*
X131850000Y-29935981D01*
X131850000Y-30064019D01*
X131874979Y-30189598D01*
X131923978Y-30307890D01*
X131995112Y-30414351D01*
X132085649Y-30504888D01*
X132192110Y-30576022D01*
X132310402Y-30625021D01*
X132435981Y-30650000D01*
X132564019Y-30650000D01*
X132689598Y-30625021D01*
X132807890Y-30576022D01*
X132914351Y-30504888D01*
X133004888Y-30414351D01*
X133076022Y-30307890D01*
X133076043Y-30307839D01*
X135557346Y-27826536D01*
X136985596Y-27826536D01*
X137070518Y-27983965D01*
X137272654Y-28068356D01*
X137487370Y-28111690D01*
X137706414Y-28112302D01*
X137921368Y-28070169D01*
X138123972Y-27986910D01*
X138129482Y-27983965D01*
X138214404Y-27826536D01*
X137600000Y-27212132D01*
X136985596Y-27826536D01*
X135557346Y-27826536D01*
X136488287Y-26895596D01*
X136487698Y-27106414D01*
X136529831Y-27321368D01*
X136613090Y-27523972D01*
X136616035Y-27529482D01*
X136773464Y-27614404D01*
X137387868Y-27000000D01*
X137812132Y-27000000D01*
X138426536Y-27614404D01*
X138583965Y-27529482D01*
X138668356Y-27327346D01*
X138711690Y-27112630D01*
X138712302Y-26893586D01*
X138670169Y-26678632D01*
X138586910Y-26476028D01*
X138583965Y-26470518D01*
X138426536Y-26385596D01*
X137812132Y-27000000D01*
X137387868Y-27000000D01*
X137373726Y-26985858D01*
X137585858Y-26773726D01*
X137600000Y-26787868D01*
X138214404Y-26173464D01*
X138129482Y-26016035D01*
X137927346Y-25931644D01*
X137712630Y-25888310D01*
X137496178Y-25887705D01*
X137633883Y-25750000D01*
X139866118Y-25750000D01*
X141398791Y-27282674D01*
X141398791Y-28350000D01*
X141403618Y-28399008D01*
X141417913Y-28446134D01*
X141441127Y-28489564D01*
X141472368Y-28527632D01*
X141510436Y-28558873D01*
X141553866Y-28582087D01*
X141600992Y-28596382D01*
X141650000Y-28601209D01*
X143350000Y-28601209D01*
X143399008Y-28596382D01*
X143446134Y-28582087D01*
X143489564Y-28558873D01*
X143527632Y-28527632D01*
X143558873Y-28489564D01*
X143582087Y-28446134D01*
X143596382Y-28399008D01*
X143601209Y-28350000D01*
X143601209Y-28125000D01*
X152060351Y-28125000D01*
X152060402Y-28125021D01*
X152185981Y-28150000D01*
X152314019Y-28150000D01*
X152439598Y-28125021D01*
X152557890Y-28076022D01*
X152664351Y-28004888D01*
X152754888Y-27914351D01*
X152813563Y-27826536D01*
X159485596Y-27826536D01*
X159570518Y-27983965D01*
X159772654Y-28068356D01*
X159987370Y-28111690D01*
X160206414Y-28112302D01*
X160421368Y-28070169D01*
X160623972Y-27986910D01*
X160629482Y-27983965D01*
X160714404Y-27826536D01*
X160100000Y-27212132D01*
X159485596Y-27826536D01*
X152813563Y-27826536D01*
X152826022Y-27807890D01*
X152875021Y-27689598D01*
X152900000Y-27564019D01*
X152900000Y-27435981D01*
X152875021Y-27310402D01*
X152826022Y-27192110D01*
X152768763Y-27106414D01*
X158987698Y-27106414D01*
X159029831Y-27321368D01*
X159113090Y-27523972D01*
X159116035Y-27529482D01*
X159273464Y-27614404D01*
X159887868Y-27000000D01*
X160312132Y-27000000D01*
X160926536Y-27614404D01*
X160953238Y-27600000D01*
X164873306Y-27600000D01*
X164875000Y-28012500D01*
X164962500Y-28100000D01*
X165475000Y-28100000D01*
X165475000Y-27337500D01*
X165775000Y-27337500D01*
X165775000Y-28100000D01*
X165795000Y-28100000D01*
X165795000Y-28400000D01*
X165775000Y-28400000D01*
X165775000Y-29162500D01*
X165862500Y-29250000D01*
X166025000Y-29251694D01*
X166093612Y-29244936D01*
X166159587Y-29224923D01*
X166220391Y-29192423D01*
X166273685Y-29148685D01*
X166317423Y-29095391D01*
X166349923Y-29034587D01*
X166369936Y-28968612D01*
X166375163Y-28915546D01*
X166413158Y-28961843D01*
X166512133Y-29043070D01*
X166625053Y-29103427D01*
X166747579Y-29140595D01*
X166875000Y-29153145D01*
X167002422Y-29140595D01*
X167124948Y-29103427D01*
X167237868Y-29043070D01*
X167336843Y-28961843D01*
X167418070Y-28862868D01*
X167478427Y-28749948D01*
X167500000Y-28678832D01*
X167521573Y-28749948D01*
X167581930Y-28862868D01*
X167663158Y-28961843D01*
X167762133Y-29043070D01*
X167875053Y-29103427D01*
X167997579Y-29140595D01*
X168125000Y-29153145D01*
X168252422Y-29140595D01*
X168374948Y-29103427D01*
X168487868Y-29043070D01*
X168586843Y-28961843D01*
X168668070Y-28862868D01*
X168728427Y-28749948D01*
X168750000Y-28678832D01*
X168771573Y-28749948D01*
X168831930Y-28862868D01*
X168913158Y-28961843D01*
X169012133Y-29043070D01*
X169125053Y-29103427D01*
X169247579Y-29140595D01*
X169375000Y-29153145D01*
X169502422Y-29140595D01*
X169624948Y-29103427D01*
X169737868Y-29043070D01*
X169836843Y-28961843D01*
X169918070Y-28862868D01*
X169978427Y-28749948D01*
X170015595Y-28627422D01*
X170025000Y-28531932D01*
X170025000Y-27968068D01*
X170015595Y-27872578D01*
X169978427Y-27750052D01*
X169918070Y-27637132D01*
X169836843Y-27538157D01*
X169737867Y-27456930D01*
X169624947Y-27396573D01*
X169502421Y-27359405D01*
X169375000Y-27346855D01*
X169247578Y-27359405D01*
X169125052Y-27396573D01*
X169012132Y-27456930D01*
X168913157Y-27538157D01*
X168831930Y-27637133D01*
X168771573Y-27750053D01*
X168750000Y-27821169D01*
X168728427Y-27750052D01*
X168668070Y-27637132D01*
X168586843Y-27538157D01*
X168487867Y-27456930D01*
X168374947Y-27396573D01*
X168252421Y-27359405D01*
X168125000Y-27346855D01*
X167997578Y-27359405D01*
X167875052Y-27396573D01*
X167762132Y-27456930D01*
X167663157Y-27538157D01*
X167581930Y-27637133D01*
X167521573Y-27750053D01*
X167500000Y-27821169D01*
X167478427Y-27750052D01*
X167418070Y-27637132D01*
X167336843Y-27538157D01*
X167237867Y-27456930D01*
X167124947Y-27396573D01*
X167002421Y-27359405D01*
X166875000Y-27346855D01*
X166747578Y-27359405D01*
X166625052Y-27396573D01*
X166512132Y-27456930D01*
X166413157Y-27538157D01*
X166375163Y-27584453D01*
X166369936Y-27531388D01*
X166349923Y-27465413D01*
X166317423Y-27404609D01*
X166273685Y-27351315D01*
X166220391Y-27307577D01*
X166159587Y-27275077D01*
X166093612Y-27255064D01*
X166025000Y-27248306D01*
X165862500Y-27250000D01*
X165775000Y-27337500D01*
X165475000Y-27337500D01*
X165387500Y-27250000D01*
X165225000Y-27248306D01*
X165156388Y-27255064D01*
X165090413Y-27275077D01*
X165029609Y-27307577D01*
X164976315Y-27351315D01*
X164932577Y-27404609D01*
X164900077Y-27465413D01*
X164880064Y-27531388D01*
X164873306Y-27600000D01*
X160953238Y-27600000D01*
X161083965Y-27529482D01*
X161168356Y-27327346D01*
X161211690Y-27112630D01*
X161212302Y-26893586D01*
X161170169Y-26678632D01*
X161086910Y-26476028D01*
X161083965Y-26470518D01*
X160926536Y-26385596D01*
X160312132Y-27000000D01*
X159887868Y-27000000D01*
X159273464Y-26385596D01*
X159116035Y-26470518D01*
X159031644Y-26672654D01*
X158988310Y-26887370D01*
X158987698Y-27106414D01*
X152768763Y-27106414D01*
X152754888Y-27085649D01*
X152664351Y-26995112D01*
X152557890Y-26923978D01*
X152540464Y-26916760D01*
X152525912Y-26904817D01*
X152417335Y-26846782D01*
X152299522Y-26811044D01*
X152177000Y-26798976D01*
X152054479Y-26811044D01*
X151936666Y-26846782D01*
X151883873Y-26875000D01*
X143601209Y-26875000D01*
X143601209Y-26650000D01*
X143596382Y-26600992D01*
X143582087Y-26553866D01*
X143558873Y-26510436D01*
X143527632Y-26472368D01*
X143489564Y-26441127D01*
X143446134Y-26417913D01*
X143399008Y-26403618D01*
X143350000Y-26398791D01*
X142282674Y-26398791D01*
X141483883Y-25600000D01*
X143245162Y-25600000D01*
X143264470Y-25796034D01*
X143321651Y-25984535D01*
X143414508Y-26158258D01*
X143539472Y-26310528D01*
X143691742Y-26435492D01*
X143865465Y-26528349D01*
X144053966Y-26585530D01*
X144200880Y-26600000D01*
X145799120Y-26600000D01*
X145946034Y-26585530D01*
X146134535Y-26528349D01*
X146308258Y-26435492D01*
X146460528Y-26310528D01*
X146573012Y-26173464D01*
X159485596Y-26173464D01*
X160100000Y-26787868D01*
X160714404Y-26173464D01*
X160629482Y-26016035D01*
X160427346Y-25931644D01*
X160212630Y-25888310D01*
X159993586Y-25887698D01*
X159778632Y-25929831D01*
X159576028Y-26013090D01*
X159570518Y-26016035D01*
X159485596Y-26173464D01*
X146573012Y-26173464D01*
X146585492Y-26158258D01*
X146678349Y-25984535D01*
X146735530Y-25796034D01*
X146754838Y-25600000D01*
X165745162Y-25600000D01*
X165764470Y-25796034D01*
X165821651Y-25984535D01*
X165914508Y-26158258D01*
X166039472Y-26310528D01*
X166191742Y-26435492D01*
X166365465Y-26528349D01*
X166553966Y-26585530D01*
X166700880Y-26600000D01*
X168299120Y-26600000D01*
X168446034Y-26585530D01*
X168634535Y-26528349D01*
X168808258Y-26435492D01*
X168960528Y-26310528D01*
X169085492Y-26158258D01*
X169178349Y-25984535D01*
X169235530Y-25796034D01*
X169254838Y-25600000D01*
X169235530Y-25403966D01*
X169178349Y-25215465D01*
X169085492Y-25041742D01*
X168960528Y-24889472D01*
X168808258Y-24764508D01*
X168634535Y-24671651D01*
X168446034Y-24614470D01*
X168299120Y-24600000D01*
X166700880Y-24600000D01*
X166553966Y-24614470D01*
X166365465Y-24671651D01*
X166191742Y-24764508D01*
X166039472Y-24889472D01*
X165914508Y-25041742D01*
X165821651Y-25215465D01*
X165764470Y-25403966D01*
X165745162Y-25600000D01*
X146754838Y-25600000D01*
X146735530Y-25403966D01*
X146678349Y-25215465D01*
X146585492Y-25041742D01*
X146460528Y-24889472D01*
X146308258Y-24764508D01*
X146134535Y-24671651D01*
X145946034Y-24614470D01*
X145799120Y-24600000D01*
X144200880Y-24600000D01*
X144053966Y-24614470D01*
X143865465Y-24671651D01*
X143691742Y-24764508D01*
X143539472Y-24889472D01*
X143414508Y-25041742D01*
X143321651Y-25215465D01*
X143264470Y-25403966D01*
X143245162Y-25600000D01*
X141483883Y-25600000D01*
X140588658Y-24704776D01*
X140569080Y-24680920D01*
X140473911Y-24602817D01*
X140365334Y-24544781D01*
X140247521Y-24509043D01*
X140155704Y-24500000D01*
X140155694Y-24500000D01*
X140125000Y-24496977D01*
X140094306Y-24500000D01*
X138245000Y-24500000D01*
X138245000Y-24405346D01*
X138321209Y-24354425D01*
X138474425Y-24201209D01*
X138474729Y-24200754D01*
X146750000Y-24200754D01*
X146750000Y-24299246D01*
X146769215Y-24395845D01*
X146806906Y-24486839D01*
X146861625Y-24568731D01*
X146931269Y-24638375D01*
X147013161Y-24693094D01*
X147104155Y-24730785D01*
X147200754Y-24750000D01*
X147299246Y-24750000D01*
X147395845Y-24730785D01*
X147486839Y-24693094D01*
X147568731Y-24638375D01*
X147607106Y-24600000D01*
X153392894Y-24600000D01*
X153431269Y-24638375D01*
X153513161Y-24693094D01*
X153604155Y-24730785D01*
X153700754Y-24750000D01*
X153799246Y-24750000D01*
X153895845Y-24730785D01*
X153986839Y-24693094D01*
X154068731Y-24638375D01*
X154138375Y-24568731D01*
X154193094Y-24486839D01*
X154230785Y-24395845D01*
X154250000Y-24299246D01*
X154250000Y-24200754D01*
X154230785Y-24104155D01*
X154193094Y-24013161D01*
X154138375Y-23931269D01*
X154068731Y-23861625D01*
X153986839Y-23806906D01*
X153895845Y-23769215D01*
X153799246Y-23750000D01*
X153700754Y-23750000D01*
X153604155Y-23769215D01*
X153513161Y-23806906D01*
X153431269Y-23861625D01*
X153392894Y-23900000D01*
X147607106Y-23900000D01*
X147568731Y-23861625D01*
X147486839Y-23806906D01*
X147395845Y-23769215D01*
X147299246Y-23750000D01*
X147200754Y-23750000D01*
X147104155Y-23769215D01*
X147013161Y-23806906D01*
X146931269Y-23861625D01*
X146861625Y-23931269D01*
X146806906Y-24013161D01*
X146769215Y-24104155D01*
X146750000Y-24200754D01*
X138474729Y-24200754D01*
X138594807Y-24021045D01*
X138677727Y-23820858D01*
X138720000Y-23608341D01*
X138720000Y-23391659D01*
X138677727Y-23179142D01*
X138594807Y-22978955D01*
X138474425Y-22798791D01*
X138321209Y-22645575D01*
X138141045Y-22525193D01*
X137940858Y-22442273D01*
X137728341Y-22400000D01*
X137511659Y-22400000D01*
X137299142Y-22442273D01*
X137098955Y-22525193D01*
X136918791Y-22645575D01*
X136765575Y-22798791D01*
X136645193Y-22978955D01*
X136562273Y-23179142D01*
X136520000Y-23391659D01*
X136520000Y-23608341D01*
X136562273Y-23820858D01*
X136645193Y-24021045D01*
X136765575Y-24201209D01*
X136918791Y-24354425D01*
X136995000Y-24405347D01*
X136995000Y-24621118D01*
X136954776Y-24661342D01*
X136930920Y-24680920D01*
X136911347Y-24704770D01*
X132192161Y-29423957D01*
X132192110Y-29423978D01*
X132085649Y-29495112D01*
X131995112Y-29585649D01*
X131923978Y-29692110D01*
X131874979Y-29810402D01*
X131850000Y-29935981D01*
X131180955Y-29935981D01*
X129759653Y-28514680D01*
X129748684Y-28501314D01*
X129695389Y-28457577D01*
X129634586Y-28425077D01*
X129568611Y-28405064D01*
X129517188Y-28399999D01*
X129517187Y-28399999D01*
X129499999Y-28398306D01*
X129482811Y-28399999D01*
X125433562Y-28399999D01*
X125499980Y-28356775D01*
X125668325Y-28192461D01*
X125801379Y-27998462D01*
X125894029Y-27782233D01*
X125902465Y-27754402D01*
X125852341Y-27570000D01*
X124900000Y-27570000D01*
X124900000Y-27590000D01*
X124600000Y-27590000D01*
X124600000Y-27570000D01*
X123647659Y-27570000D01*
X123597535Y-27754402D01*
X123605971Y-27782233D01*
X123698621Y-27998462D01*
X123831675Y-28192461D01*
X124000020Y-28356775D01*
X124066438Y-28399999D01*
X122989904Y-28399999D01*
X122980785Y-28354155D01*
X122943094Y-28263161D01*
X122888375Y-28181269D01*
X122818731Y-28111625D01*
X122736839Y-28056906D01*
X122645845Y-28019215D01*
X122549246Y-28000000D01*
X122450754Y-28000000D01*
X122354155Y-28019215D01*
X122263161Y-28056906D01*
X122181269Y-28111625D01*
X122111625Y-28181269D01*
X122056906Y-28263161D01*
X122019215Y-28354155D01*
X122000000Y-28450754D01*
X122000000Y-28549246D01*
X122019215Y-28645845D01*
X122056906Y-28736839D01*
X122111625Y-28818731D01*
X122181269Y-28888375D01*
X122263161Y-28943094D01*
X122354155Y-28980785D01*
X122450754Y-29000000D01*
X122502918Y-29000000D01*
X122554609Y-29042421D01*
X122615412Y-29074921D01*
X122681387Y-29094934D01*
X122749999Y-29101692D01*
X122767188Y-29099999D01*
X124057136Y-29099999D01*
X124048791Y-29105575D01*
X123895575Y-29258791D01*
X123775193Y-29438955D01*
X123692273Y-29639142D01*
X123650000Y-29851659D01*
X123650000Y-30068341D01*
X123692273Y-30280858D01*
X123775193Y-30481045D01*
X123895575Y-30661209D01*
X124048791Y-30814425D01*
X124228955Y-30934807D01*
X124429142Y-31017727D01*
X124641659Y-31060000D01*
X124858341Y-31060000D01*
X125070858Y-31017727D01*
X125271045Y-30934807D01*
X125451209Y-30814425D01*
X125604425Y-30661209D01*
X125724807Y-30481045D01*
X125807727Y-30280858D01*
X125850000Y-30068341D01*
X125850000Y-29851659D01*
X125807727Y-29639142D01*
X125724807Y-29438955D01*
X125604425Y-29258791D01*
X125451209Y-29105575D01*
X125442864Y-29099999D01*
X129355026Y-29099999D01*
X134000000Y-33744975D01*
X134000000Y-33750000D01*
X133994975Y-33750000D01*
X131809653Y-31564680D01*
X131798685Y-31551315D01*
X131745390Y-31507578D01*
X131684587Y-31475078D01*
X131618612Y-31455065D01*
X131567189Y-31450000D01*
X131567188Y-31450000D01*
X131550000Y-31448307D01*
X131532812Y-31450000D01*
X128250000Y-31450000D01*
X128250000Y-31000880D01*
X128235530Y-30853966D01*
X128178349Y-30665465D01*
X128085492Y-30491742D01*
X127960528Y-30339472D01*
X127808258Y-30214508D01*
X127634534Y-30121651D01*
X127446033Y-30064470D01*
X127250000Y-30045162D01*
X127053966Y-30064470D01*
X126865465Y-30121651D01*
X126691742Y-30214508D01*
X126539472Y-30339472D01*
X126414508Y-30491742D01*
X126321651Y-30665466D01*
X126264470Y-30853967D01*
X126250000Y-31000881D01*
X126250001Y-32599120D01*
X126264471Y-32746034D01*
X126321652Y-32934535D01*
X126414509Y-33108258D01*
X126539473Y-33260528D01*
X126691743Y-33385492D01*
X126865466Y-33478349D01*
X127053967Y-33535530D01*
X127250000Y-33554838D01*
X127446034Y-33535530D01*
X127634535Y-33478349D01*
X127808258Y-33385492D01*
X127960528Y-33260528D01*
X128085492Y-33108258D01*
X128178349Y-32934535D01*
X128235530Y-32746034D01*
X128250000Y-32599120D01*
X128250000Y-32150000D01*
X130354101Y-32150000D01*
X130304525Y-32224195D01*
X130266834Y-32315189D01*
X130247619Y-32411788D01*
X130247619Y-32510280D01*
X130266834Y-32606879D01*
X130304525Y-32697873D01*
X130359244Y-32779765D01*
X130397620Y-32818141D01*
X130397619Y-39730431D01*
X130395926Y-39747619D01*
X130397619Y-39764807D01*
X130402684Y-39816230D01*
X130422697Y-39882205D01*
X130455197Y-39943008D01*
X130498934Y-39996303D01*
X130512295Y-40007268D01*
X131250000Y-40744974D01*
X131250000Y-40799246D01*
X131269215Y-40895845D01*
X131306906Y-40986839D01*
X131361625Y-41068731D01*
X131431269Y-41138375D01*
X131448668Y-41150001D01*
X116558885Y-41150001D01*
X114838543Y-39429661D01*
X114838522Y-39429610D01*
X114767388Y-39323149D01*
X114676851Y-39232612D01*
X114570390Y-39161478D01*
X114452098Y-39112479D01*
X114389361Y-39100000D01*
X122605027Y-39100000D01*
X123250000Y-39744974D01*
X123250000Y-39799246D01*
X123269215Y-39895845D01*
X123306906Y-39986839D01*
X123361625Y-40068731D01*
X123431269Y-40138375D01*
X123513161Y-40193094D01*
X123604155Y-40230785D01*
X123700754Y-40250000D01*
X123799246Y-40250000D01*
X123895845Y-40230785D01*
X123986839Y-40193094D01*
X124068731Y-40138375D01*
X124138375Y-40068731D01*
X124193094Y-39986839D01*
X124230785Y-39895845D01*
X124250000Y-39799246D01*
X124250000Y-39750000D01*
X124299246Y-39750000D01*
X124395845Y-39730785D01*
X124486839Y-39693094D01*
X124568731Y-39638375D01*
X124638375Y-39568731D01*
X124693094Y-39486839D01*
X124730785Y-39395845D01*
X124750000Y-39299246D01*
X124750000Y-39250000D01*
X124799246Y-39250000D01*
X124895845Y-39230785D01*
X124986839Y-39193094D01*
X125068731Y-39138375D01*
X125138375Y-39068731D01*
X125193094Y-38986839D01*
X125230785Y-38895845D01*
X125250000Y-38799246D01*
X125250000Y-38750000D01*
X125299246Y-38750000D01*
X125395845Y-38730785D01*
X125486839Y-38693094D01*
X125568731Y-38638375D01*
X125638375Y-38568731D01*
X125693094Y-38486839D01*
X125730785Y-38395845D01*
X125750000Y-38299246D01*
X125750000Y-38250000D01*
X125799246Y-38250000D01*
X125895845Y-38230785D01*
X125986839Y-38193094D01*
X126068731Y-38138375D01*
X126138375Y-38068731D01*
X126193094Y-37986839D01*
X126230785Y-37895845D01*
X126250000Y-37799246D01*
X126250000Y-37700754D01*
X126230785Y-37604155D01*
X126193094Y-37513161D01*
X126138375Y-37431269D01*
X126068731Y-37361625D01*
X125986839Y-37306906D01*
X125895845Y-37269215D01*
X125799246Y-37250000D01*
X125744974Y-37250000D01*
X125009653Y-36514680D01*
X124998685Y-36501315D01*
X124945390Y-36457578D01*
X124884587Y-36425078D01*
X124818612Y-36405065D01*
X124767189Y-36400000D01*
X124767188Y-36400000D01*
X124750000Y-36398307D01*
X124732812Y-36400000D01*
X120644974Y-36400000D01*
X120500000Y-36255026D01*
X120500000Y-36200754D01*
X120480785Y-36104155D01*
X120443094Y-36013161D01*
X120388375Y-35931269D01*
X120318731Y-35861625D01*
X120236839Y-35806906D01*
X120145845Y-35769215D01*
X120049246Y-35750000D01*
X119950754Y-35750000D01*
X119854155Y-35769215D01*
X119763161Y-35806906D01*
X119681269Y-35861625D01*
X119611625Y-35931269D01*
X119556906Y-36013161D01*
X119519215Y-36104155D01*
X119500000Y-36200754D01*
X119500000Y-36241627D01*
X119445859Y-36219201D01*
X119349260Y-36199986D01*
X119250768Y-36199986D01*
X119154169Y-36219201D01*
X119063175Y-36256892D01*
X118981283Y-36311611D01*
X118911639Y-36381255D01*
X118856920Y-36463147D01*
X118819229Y-36554141D01*
X118800014Y-36650740D01*
X118800014Y-36749232D01*
X118819229Y-36845831D01*
X118856920Y-36936825D01*
X118911639Y-37018717D01*
X118981283Y-37088361D01*
X119063175Y-37143080D01*
X119154169Y-37180771D01*
X119250768Y-37199986D01*
X119305040Y-37199986D01*
X119505053Y-37400000D01*
X118064019Y-37400000D01*
X118189598Y-37375021D01*
X118307890Y-37326022D01*
X118414351Y-37254888D01*
X118504888Y-37164351D01*
X118576022Y-37057890D01*
X118625021Y-36939598D01*
X118650000Y-36814019D01*
X118650000Y-36685981D01*
X118625021Y-36560402D01*
X118576022Y-36442110D01*
X118504888Y-36335649D01*
X118500000Y-36330761D01*
X118500000Y-35274560D01*
X118502419Y-35250000D01*
X118492765Y-35151983D01*
X118475460Y-35094935D01*
X118464175Y-35057733D01*
X118417746Y-34970871D01*
X118355264Y-34894736D01*
X118336181Y-34879075D01*
X118175730Y-34718624D01*
X120697156Y-34718624D01*
X120752047Y-34886406D01*
X120866116Y-35071751D01*
X121014152Y-35231281D01*
X121190466Y-35358865D01*
X121388283Y-35449600D01*
X121600000Y-35500000D01*
X122350000Y-35500000D01*
X122350000Y-34550000D01*
X122650000Y-34550000D01*
X122650000Y-35500000D01*
X123400000Y-35500000D01*
X123611717Y-35449600D01*
X123809534Y-35358865D01*
X123985848Y-35231281D01*
X124133884Y-35071751D01*
X124247953Y-34886406D01*
X124302844Y-34718624D01*
X124251327Y-34550000D01*
X122650000Y-34550000D01*
X122350000Y-34550000D01*
X120748673Y-34550000D01*
X120697156Y-34718624D01*
X118175730Y-34718624D01*
X117907860Y-34450754D01*
X126750000Y-34450754D01*
X126750000Y-34549246D01*
X126769215Y-34645845D01*
X126806906Y-34736839D01*
X126861625Y-34818731D01*
X126931269Y-34888375D01*
X127013161Y-34943094D01*
X127104155Y-34980785D01*
X127180233Y-34995918D01*
X127556049Y-35371735D01*
X127556054Y-35371739D01*
X128004082Y-35819768D01*
X128019215Y-35895845D01*
X128056906Y-35986839D01*
X128111625Y-36068731D01*
X128181269Y-36138375D01*
X128263161Y-36193094D01*
X128354155Y-36230785D01*
X128450754Y-36250000D01*
X128549246Y-36250000D01*
X128645845Y-36230785D01*
X128736839Y-36193094D01*
X128818731Y-36138375D01*
X128888375Y-36068731D01*
X128943094Y-35986839D01*
X128980785Y-35895845D01*
X129000000Y-35799246D01*
X129000000Y-35700754D01*
X128980785Y-35604155D01*
X128943094Y-35513161D01*
X128888375Y-35431269D01*
X128818731Y-35361625D01*
X128736839Y-35306906D01*
X128645845Y-35269215D01*
X128569768Y-35254082D01*
X128121739Y-34806054D01*
X128121735Y-34806049D01*
X127745918Y-34430233D01*
X127730785Y-34354155D01*
X127693094Y-34263161D01*
X127638375Y-34181269D01*
X127568731Y-34111625D01*
X127486839Y-34056906D01*
X127395845Y-34019215D01*
X127299246Y-34000000D01*
X127200754Y-34000000D01*
X127104155Y-34019215D01*
X127013161Y-34056906D01*
X126931269Y-34111625D01*
X126861625Y-34181269D01*
X126806906Y-34263161D01*
X126769215Y-34354155D01*
X126750000Y-34450754D01*
X117907860Y-34450754D01*
X117538482Y-34081376D01*
X120697156Y-34081376D01*
X120748673Y-34250000D01*
X122350000Y-34250000D01*
X122350000Y-33300000D01*
X122650000Y-33300000D01*
X122650000Y-34250000D01*
X124251327Y-34250000D01*
X124302844Y-34081376D01*
X124247953Y-33913594D01*
X124133884Y-33728249D01*
X124015997Y-33601209D01*
X125600000Y-33601209D01*
X125649008Y-33596382D01*
X125696134Y-33582087D01*
X125739564Y-33558873D01*
X125777632Y-33527632D01*
X125808873Y-33489564D01*
X125832087Y-33446134D01*
X125846382Y-33399008D01*
X125851209Y-33350000D01*
X125851209Y-31650000D01*
X125846382Y-31600992D01*
X125832087Y-31553866D01*
X125808873Y-31510436D01*
X125777632Y-31472368D01*
X125739564Y-31441127D01*
X125696134Y-31417913D01*
X125649008Y-31403618D01*
X125600000Y-31398791D01*
X123900000Y-31398791D01*
X123850992Y-31403618D01*
X123803866Y-31417913D01*
X123760436Y-31441127D01*
X123722368Y-31472368D01*
X123691127Y-31510436D01*
X123667913Y-31553866D01*
X123653618Y-31600992D01*
X123648791Y-31650000D01*
X123648791Y-33350000D01*
X123650586Y-33368229D01*
X123611717Y-33350400D01*
X123400000Y-33300000D01*
X122650000Y-33300000D01*
X122350000Y-33300000D01*
X121600000Y-33300000D01*
X121388283Y-33350400D01*
X121190466Y-33441135D01*
X121014152Y-33568719D01*
X120866116Y-33728249D01*
X120752047Y-33913594D01*
X120697156Y-34081376D01*
X117538482Y-34081376D01*
X117400000Y-33942895D01*
X117400000Y-33935981D01*
X117375021Y-33810402D01*
X117326022Y-33692110D01*
X117254888Y-33585649D01*
X117164351Y-33495112D01*
X117057890Y-33423978D01*
X116939598Y-33374979D01*
X116814019Y-33350000D01*
X116685981Y-33350000D01*
X116560402Y-33374979D01*
X116442110Y-33423978D01*
X116335649Y-33495112D01*
X116245112Y-33585649D01*
X116173978Y-33692110D01*
X116124979Y-33810402D01*
X116100000Y-33935981D01*
X116100000Y-34064019D01*
X116124979Y-34189598D01*
X116173978Y-34307890D01*
X116245112Y-34414351D01*
X116335649Y-34504888D01*
X116442110Y-34576022D01*
X116560402Y-34625021D01*
X116685981Y-34650000D01*
X116692895Y-34650000D01*
X117500001Y-35457107D01*
X117500000Y-36330761D01*
X117495112Y-36335649D01*
X117423978Y-36442110D01*
X117374979Y-36560402D01*
X117350000Y-36685981D01*
X117350000Y-36814019D01*
X117374979Y-36939598D01*
X117423978Y-37057890D01*
X117495112Y-37164351D01*
X117585649Y-37254888D01*
X117692110Y-37326022D01*
X117810402Y-37375021D01*
X117935981Y-37400000D01*
X108607106Y-37400000D01*
X108568731Y-37361625D01*
X108486839Y-37306906D01*
X108395845Y-37269215D01*
X108299246Y-37250000D01*
X108200754Y-37250000D01*
X108104155Y-37269215D01*
X108013161Y-37306906D01*
X107931269Y-37361625D01*
X107861625Y-37431269D01*
X107806906Y-37513161D01*
X107769215Y-37604155D01*
X107750000Y-37700754D01*
X107750000Y-37755025D01*
X106009653Y-36014680D01*
X105998685Y-36001315D01*
X105945390Y-35957578D01*
X105884587Y-35925078D01*
X105818612Y-35905065D01*
X105767189Y-35900000D01*
X105767188Y-35900000D01*
X105750000Y-35898307D01*
X105732812Y-35900000D01*
X97857106Y-35900000D01*
X97818731Y-35861625D01*
X97736839Y-35806906D01*
X97645845Y-35769215D01*
X97549246Y-35750000D01*
X97450754Y-35750000D01*
X97354155Y-35769215D01*
X97263161Y-35806906D01*
X97181269Y-35861625D01*
X97111625Y-35931269D01*
X97056906Y-36013161D01*
X97019215Y-36104155D01*
X97000000Y-36200754D01*
X93062062Y-36200754D01*
X92602276Y-35676470D01*
X91962265Y-34718624D01*
X98197156Y-34718624D01*
X98252047Y-34886406D01*
X98366116Y-35071751D01*
X98514152Y-35231281D01*
X98690466Y-35358865D01*
X98888283Y-35449600D01*
X99100000Y-35500000D01*
X99850000Y-35500000D01*
X99850000Y-34550000D01*
X100150000Y-34550000D01*
X100150000Y-35500000D01*
X100900000Y-35500000D01*
X101111717Y-35449600D01*
X101309534Y-35358865D01*
X101485848Y-35231281D01*
X101633884Y-35071751D01*
X101747953Y-34886406D01*
X101802844Y-34718624D01*
X101751327Y-34550000D01*
X100150000Y-34550000D01*
X99850000Y-34550000D01*
X98248673Y-34550000D01*
X98197156Y-34718624D01*
X91962265Y-34718624D01*
X91924637Y-34662310D01*
X91638152Y-34081376D01*
X98197156Y-34081376D01*
X98248673Y-34250000D01*
X99850000Y-34250000D01*
X99850000Y-33300000D01*
X100150000Y-33300000D01*
X100150000Y-34250000D01*
X101751327Y-34250000D01*
X101802844Y-34081376D01*
X101747953Y-33913594D01*
X101633884Y-33728249D01*
X101485848Y-33568719D01*
X101309534Y-33441135D01*
X101111717Y-33350400D01*
X100900000Y-33300000D01*
X100150000Y-33300000D01*
X99850000Y-33300000D01*
X99100000Y-33300000D01*
X98888283Y-33350400D01*
X98690466Y-33441135D01*
X98514152Y-33568719D01*
X98366116Y-33728249D01*
X98252047Y-33913594D01*
X98197156Y-34081376D01*
X91638152Y-34081376D01*
X91385168Y-33568376D01*
X90993103Y-32413386D01*
X90881039Y-31850000D01*
X94150000Y-31850000D01*
X94150000Y-32600000D01*
X94200400Y-32811717D01*
X94291135Y-33009534D01*
X94418719Y-33185848D01*
X94578249Y-33333884D01*
X94763594Y-33447953D01*
X94931376Y-33502844D01*
X95100000Y-33451327D01*
X95100000Y-31850000D01*
X95400000Y-31850000D01*
X95400000Y-33451327D01*
X95568624Y-33502844D01*
X95736406Y-33447953D01*
X95921751Y-33333884D01*
X96081281Y-33185848D01*
X96208865Y-33009534D01*
X96299600Y-32811717D01*
X96350000Y-32600000D01*
X96350000Y-31850000D01*
X95400000Y-31850000D01*
X95100000Y-31850000D01*
X94150000Y-31850000D01*
X90881039Y-31850000D01*
X90755149Y-31217108D01*
X90727811Y-30800000D01*
X94150000Y-30800000D01*
X94150000Y-31550000D01*
X95100000Y-31550000D01*
X95100000Y-29948673D01*
X95400000Y-29948673D01*
X95400000Y-31550000D01*
X96350000Y-31550000D01*
X96350000Y-31000881D01*
X103750000Y-31000881D01*
X103750001Y-32599120D01*
X103764471Y-32746034D01*
X103821652Y-32934535D01*
X103914509Y-33108258D01*
X104039473Y-33260528D01*
X104191743Y-33385492D01*
X104365466Y-33478349D01*
X104553967Y-33535530D01*
X104750000Y-33554838D01*
X104946034Y-33535530D01*
X105134535Y-33478349D01*
X105308258Y-33385492D01*
X105460528Y-33260528D01*
X105585492Y-33108258D01*
X105678349Y-32934535D01*
X105735530Y-32746034D01*
X105750000Y-32599120D01*
X105750000Y-31850000D01*
X116650000Y-31850000D01*
X116650000Y-32600000D01*
X116700400Y-32811717D01*
X116791135Y-33009534D01*
X116918719Y-33185848D01*
X117078249Y-33333884D01*
X117263594Y-33447953D01*
X117431376Y-33502844D01*
X117600000Y-33451327D01*
X117600000Y-31850000D01*
X117900000Y-31850000D01*
X117900000Y-33451327D01*
X118068624Y-33502844D01*
X118236406Y-33447953D01*
X118421751Y-33333884D01*
X118581281Y-33185848D01*
X118708865Y-33009534D01*
X118799600Y-32811717D01*
X118850000Y-32600000D01*
X118850000Y-31850000D01*
X117900000Y-31850000D01*
X117600000Y-31850000D01*
X116650000Y-31850000D01*
X105750000Y-31850000D01*
X105750000Y-31000880D01*
X105735530Y-30853966D01*
X105678349Y-30665465D01*
X105585492Y-30491742D01*
X105460528Y-30339472D01*
X105308258Y-30214508D01*
X105282526Y-30200754D01*
X112000000Y-30200754D01*
X112000000Y-30299246D01*
X112019215Y-30395845D01*
X112056906Y-30486839D01*
X112111625Y-30568731D01*
X112181269Y-30638375D01*
X112263161Y-30693094D01*
X112354155Y-30730785D01*
X112450754Y-30750000D01*
X112549246Y-30750000D01*
X112645845Y-30730785D01*
X112736839Y-30693094D01*
X112818731Y-30638375D01*
X112888375Y-30568731D01*
X112943094Y-30486839D01*
X112980785Y-30395845D01*
X112999852Y-30299990D01*
X116856605Y-30299990D01*
X116791135Y-30390466D01*
X116700400Y-30588283D01*
X116650000Y-30800000D01*
X116650000Y-31550000D01*
X117600000Y-31550000D01*
X117600000Y-31530000D01*
X117900000Y-31530000D01*
X117900000Y-31550000D01*
X118850000Y-31550000D01*
X118850000Y-30800000D01*
X118799600Y-30588283D01*
X118708865Y-30390466D01*
X118643395Y-30299990D01*
X118942904Y-30299990D01*
X118981279Y-30338365D01*
X119063171Y-30393084D01*
X119154165Y-30430775D01*
X119250764Y-30449990D01*
X119349256Y-30449990D01*
X119445855Y-30430775D01*
X119536849Y-30393084D01*
X119618741Y-30338365D01*
X119688385Y-30268721D01*
X119743104Y-30186829D01*
X119780795Y-30095835D01*
X119800010Y-29999236D01*
X119800010Y-29900744D01*
X119780795Y-29804145D01*
X119743104Y-29713151D01*
X119688385Y-29631259D01*
X119618741Y-29561615D01*
X119536849Y-29506896D01*
X119445855Y-29469205D01*
X119349256Y-29449990D01*
X119250764Y-29449990D01*
X119154165Y-29469205D01*
X119063171Y-29506896D01*
X118981279Y-29561615D01*
X118942904Y-29599990D01*
X112817198Y-29599990D01*
X112800009Y-29598297D01*
X112731397Y-29605055D01*
X112711384Y-29611126D01*
X112665423Y-29625068D01*
X112604620Y-29657568D01*
X112551325Y-29701305D01*
X112540365Y-29714660D01*
X112505025Y-29750000D01*
X112450754Y-29750000D01*
X112354155Y-29769215D01*
X112263161Y-29806906D01*
X112181269Y-29861625D01*
X112111625Y-29931269D01*
X112056906Y-30013161D01*
X112019215Y-30104155D01*
X112000000Y-30200754D01*
X105282526Y-30200754D01*
X105134534Y-30121651D01*
X104946033Y-30064470D01*
X104750000Y-30045162D01*
X104553966Y-30064470D01*
X104365465Y-30121651D01*
X104191742Y-30214508D01*
X104039472Y-30339472D01*
X103914508Y-30491742D01*
X103821651Y-30665466D01*
X103764470Y-30853967D01*
X103750000Y-31000881D01*
X96350000Y-31000881D01*
X96350000Y-30800000D01*
X96299600Y-30588283D01*
X96208865Y-30390466D01*
X96081281Y-30214152D01*
X95921751Y-30066116D01*
X95736406Y-29952047D01*
X95568624Y-29897156D01*
X95400000Y-29948673D01*
X95100000Y-29948673D01*
X94931376Y-29897156D01*
X94763594Y-29952047D01*
X94578249Y-30066116D01*
X94418719Y-30214152D01*
X94291135Y-30390466D01*
X94200400Y-30588283D01*
X94150000Y-30800000D01*
X90727811Y-30800000D01*
X90675375Y-30000000D01*
X90747473Y-28900000D01*
X97498306Y-28900000D01*
X97505064Y-28968612D01*
X97525077Y-29034587D01*
X97557577Y-29095391D01*
X97601315Y-29148685D01*
X97654609Y-29192423D01*
X97715413Y-29224923D01*
X97781388Y-29244936D01*
X97850000Y-29251694D01*
X98012500Y-29250000D01*
X98100000Y-29162500D01*
X98100000Y-28400000D01*
X97587500Y-28400000D01*
X97500000Y-28487500D01*
X97498306Y-28900000D01*
X90747473Y-28900000D01*
X90755149Y-28782892D01*
X90945379Y-27826536D01*
X91985596Y-27826536D01*
X92070518Y-27983965D01*
X92272654Y-28068356D01*
X92487370Y-28111690D01*
X92706414Y-28112302D01*
X92921368Y-28070169D01*
X93123972Y-27986910D01*
X93129482Y-27983965D01*
X93214404Y-27826536D01*
X92600000Y-27212132D01*
X91985596Y-27826536D01*
X90945379Y-27826536D01*
X90993103Y-27586614D01*
X91156108Y-27106414D01*
X91487698Y-27106414D01*
X91529831Y-27321368D01*
X91613090Y-27523972D01*
X91616035Y-27529482D01*
X91773464Y-27614404D01*
X92387868Y-27000000D01*
X92812132Y-27000000D01*
X93426536Y-27614404D01*
X93453238Y-27600000D01*
X97498306Y-27600000D01*
X97500000Y-28012500D01*
X97587500Y-28100000D01*
X98100000Y-28100000D01*
X98100000Y-27337500D01*
X98400000Y-27337500D01*
X98400000Y-28100000D01*
X98420000Y-28100000D01*
X98420000Y-28400000D01*
X98400000Y-28400000D01*
X98400000Y-29162500D01*
X98487500Y-29250000D01*
X98650000Y-29251694D01*
X98718612Y-29244936D01*
X98784587Y-29224923D01*
X98845391Y-29192423D01*
X98898685Y-29148685D01*
X98942423Y-29095391D01*
X98974923Y-29034587D01*
X98994936Y-28968612D01*
X99000163Y-28915546D01*
X99038158Y-28961843D01*
X99137133Y-29043070D01*
X99250053Y-29103427D01*
X99372579Y-29140595D01*
X99500000Y-29153145D01*
X99627422Y-29140595D01*
X99749948Y-29103427D01*
X99862868Y-29043070D01*
X99961843Y-28961843D01*
X100043070Y-28862868D01*
X100103427Y-28749948D01*
X100125000Y-28678832D01*
X100146573Y-28749948D01*
X100206930Y-28862868D01*
X100288158Y-28961843D01*
X100387133Y-29043070D01*
X100500053Y-29103427D01*
X100622579Y-29140595D01*
X100750000Y-29153145D01*
X100877422Y-29140595D01*
X100999948Y-29103427D01*
X101112868Y-29043070D01*
X101211843Y-28961843D01*
X101293070Y-28862868D01*
X101353427Y-28749948D01*
X101375000Y-28678832D01*
X101396573Y-28749948D01*
X101456930Y-28862868D01*
X101538158Y-28961843D01*
X101637133Y-29043070D01*
X101750053Y-29103427D01*
X101872579Y-29140595D01*
X102000000Y-29153145D01*
X102127422Y-29140595D01*
X102249948Y-29103427D01*
X102362868Y-29043070D01*
X102461843Y-28961843D01*
X102543070Y-28862868D01*
X102603427Y-28749948D01*
X102640595Y-28627422D01*
X102650000Y-28531932D01*
X102650000Y-27968068D01*
X102640595Y-27872578D01*
X102626629Y-27826536D01*
X114485596Y-27826536D01*
X114570518Y-27983965D01*
X114772654Y-28068356D01*
X114987370Y-28111690D01*
X115206414Y-28112302D01*
X115421368Y-28070169D01*
X115623972Y-27986910D01*
X115629482Y-27983965D01*
X115714404Y-27826536D01*
X115100000Y-27212132D01*
X114485596Y-27826536D01*
X102626629Y-27826536D01*
X102603427Y-27750052D01*
X102543070Y-27637132D01*
X102461843Y-27538157D01*
X102362867Y-27456930D01*
X102249947Y-27396573D01*
X102127421Y-27359405D01*
X102000000Y-27346855D01*
X101872578Y-27359405D01*
X101750052Y-27396573D01*
X101637132Y-27456930D01*
X101538157Y-27538157D01*
X101456930Y-27637133D01*
X101396573Y-27750053D01*
X101375000Y-27821169D01*
X101353427Y-27750052D01*
X101293070Y-27637132D01*
X101211843Y-27538157D01*
X101112867Y-27456930D01*
X100999947Y-27396573D01*
X100877421Y-27359405D01*
X100750000Y-27346855D01*
X100622578Y-27359405D01*
X100500052Y-27396573D01*
X100387132Y-27456930D01*
X100288157Y-27538157D01*
X100206930Y-27637133D01*
X100146573Y-27750053D01*
X100125000Y-27821169D01*
X100103427Y-27750052D01*
X100043070Y-27637132D01*
X99961843Y-27538157D01*
X99862867Y-27456930D01*
X99749947Y-27396573D01*
X99627421Y-27359405D01*
X99500000Y-27346855D01*
X99372578Y-27359405D01*
X99250052Y-27396573D01*
X99137132Y-27456930D01*
X99038157Y-27538157D01*
X99000163Y-27584453D01*
X98994936Y-27531388D01*
X98974923Y-27465413D01*
X98942423Y-27404609D01*
X98898685Y-27351315D01*
X98845391Y-27307577D01*
X98784587Y-27275077D01*
X98718612Y-27255064D01*
X98650000Y-27248306D01*
X98487500Y-27250000D01*
X98400000Y-27337500D01*
X98100000Y-27337500D01*
X98012500Y-27250000D01*
X97850000Y-27248306D01*
X97781388Y-27255064D01*
X97715413Y-27275077D01*
X97654609Y-27307577D01*
X97601315Y-27351315D01*
X97557577Y-27404609D01*
X97525077Y-27465413D01*
X97505064Y-27531388D01*
X97498306Y-27600000D01*
X93453238Y-27600000D01*
X93583965Y-27529482D01*
X93668356Y-27327346D01*
X93711690Y-27112630D01*
X93711707Y-27106414D01*
X113987698Y-27106414D01*
X114029831Y-27321368D01*
X114113090Y-27523972D01*
X114116035Y-27529482D01*
X114273464Y-27614404D01*
X114887868Y-27000000D01*
X115312132Y-27000000D01*
X115926536Y-27614404D01*
X116083965Y-27529482D01*
X116168356Y-27327346D01*
X116211690Y-27112630D01*
X116211765Y-27085598D01*
X123597535Y-27085598D01*
X123647659Y-27270000D01*
X124600000Y-27270000D01*
X124600000Y-26316905D01*
X124900000Y-26316905D01*
X124900000Y-27270000D01*
X125852341Y-27270000D01*
X125902465Y-27085598D01*
X125894029Y-27057767D01*
X125801379Y-26841538D01*
X125668325Y-26647539D01*
X125499980Y-26483225D01*
X125302814Y-26354911D01*
X125084403Y-26267528D01*
X124900000Y-26316905D01*
X124600000Y-26316905D01*
X124415597Y-26267528D01*
X124197186Y-26354911D01*
X124000020Y-26483225D01*
X123831675Y-26647539D01*
X123698621Y-26841538D01*
X123605971Y-27057767D01*
X123597535Y-27085598D01*
X116211765Y-27085598D01*
X116212302Y-26893586D01*
X116170169Y-26678632D01*
X116086910Y-26476028D01*
X116083965Y-26470518D01*
X115926536Y-26385596D01*
X115312132Y-27000000D01*
X114887868Y-27000000D01*
X114273464Y-26385596D01*
X114116035Y-26470518D01*
X114031644Y-26672654D01*
X113988310Y-26887370D01*
X113987698Y-27106414D01*
X93711707Y-27106414D01*
X93712302Y-26893586D01*
X93670169Y-26678632D01*
X93586910Y-26476028D01*
X93583965Y-26470518D01*
X93426536Y-26385596D01*
X92812132Y-27000000D01*
X92387868Y-27000000D01*
X91773464Y-26385596D01*
X91616035Y-26470518D01*
X91531644Y-26672654D01*
X91488310Y-26887370D01*
X91487698Y-27106414D01*
X91156108Y-27106414D01*
X91385168Y-26431624D01*
X91512478Y-26173464D01*
X91985596Y-26173464D01*
X92600000Y-26787868D01*
X93214404Y-26173464D01*
X93129482Y-26016035D01*
X92927346Y-25931644D01*
X92712630Y-25888310D01*
X92493586Y-25887698D01*
X92278632Y-25929831D01*
X92076028Y-26013090D01*
X92070518Y-26016035D01*
X91985596Y-26173464D01*
X91512478Y-26173464D01*
X91795279Y-25600000D01*
X98245162Y-25600000D01*
X98264470Y-25796034D01*
X98321651Y-25984535D01*
X98414508Y-26158258D01*
X98539472Y-26310528D01*
X98691742Y-26435492D01*
X98865465Y-26528349D01*
X99053966Y-26585530D01*
X99200880Y-26600000D01*
X100799120Y-26600000D01*
X100946034Y-26585530D01*
X101134535Y-26528349D01*
X101308258Y-26435492D01*
X101460528Y-26310528D01*
X101585492Y-26158258D01*
X101678349Y-25984535D01*
X101688596Y-25950754D01*
X111250000Y-25950754D01*
X111250000Y-26049246D01*
X111269215Y-26145845D01*
X111306906Y-26236839D01*
X111361625Y-26318731D01*
X111431269Y-26388375D01*
X111513161Y-26443094D01*
X111604155Y-26480785D01*
X111700754Y-26500000D01*
X111799246Y-26500000D01*
X111895845Y-26480785D01*
X111986839Y-26443094D01*
X112068731Y-26388375D01*
X112138375Y-26318731D01*
X112193094Y-26236839D01*
X112230785Y-26145845D01*
X112239904Y-26100000D01*
X114525225Y-26100000D01*
X114485596Y-26173464D01*
X115100000Y-26787868D01*
X115714404Y-26173464D01*
X115674775Y-26100000D01*
X119642894Y-26100000D01*
X119681269Y-26138375D01*
X119763161Y-26193094D01*
X119854155Y-26230785D01*
X119950754Y-26250000D01*
X120049246Y-26250000D01*
X120145845Y-26230785D01*
X120236839Y-26193094D01*
X120318731Y-26138375D01*
X120388375Y-26068731D01*
X120443094Y-25986839D01*
X120480785Y-25895845D01*
X120500000Y-25799246D01*
X120500000Y-25700754D01*
X120480785Y-25604155D01*
X120479064Y-25600000D01*
X120745162Y-25600000D01*
X120764470Y-25796034D01*
X120821651Y-25984535D01*
X120914508Y-26158258D01*
X121039472Y-26310528D01*
X121191742Y-26435492D01*
X121365465Y-26528349D01*
X121553966Y-26585530D01*
X121700880Y-26600000D01*
X123299120Y-26600000D01*
X123446034Y-26585530D01*
X123634535Y-26528349D01*
X123808258Y-26435492D01*
X123960528Y-26310528D01*
X124085492Y-26158258D01*
X124178349Y-25984535D01*
X124235530Y-25796034D01*
X124254838Y-25600000D01*
X124235530Y-25403966D01*
X124178349Y-25215465D01*
X124085492Y-25041742D01*
X123960528Y-24889472D01*
X123808258Y-24764508D01*
X123634535Y-24671651D01*
X123446034Y-24614470D01*
X123299120Y-24600000D01*
X121700880Y-24600000D01*
X121553966Y-24614470D01*
X121365465Y-24671651D01*
X121191742Y-24764508D01*
X121039472Y-24889472D01*
X120914508Y-25041742D01*
X120821651Y-25215465D01*
X120764470Y-25403966D01*
X120745162Y-25600000D01*
X120479064Y-25600000D01*
X120443094Y-25513161D01*
X120388375Y-25431269D01*
X120318731Y-25361625D01*
X120236839Y-25306906D01*
X120145845Y-25269215D01*
X120049246Y-25250000D01*
X119950754Y-25250000D01*
X119854155Y-25269215D01*
X119763161Y-25306906D01*
X119681269Y-25361625D01*
X119642894Y-25400000D01*
X112017185Y-25400000D01*
X111999999Y-25398307D01*
X111982813Y-25400000D01*
X111982811Y-25400000D01*
X111931388Y-25405065D01*
X111865413Y-25425078D01*
X111804610Y-25457578D01*
X111752917Y-25500000D01*
X111700754Y-25500000D01*
X111604155Y-25519215D01*
X111513161Y-25556906D01*
X111431269Y-25611625D01*
X111361625Y-25681269D01*
X111306906Y-25763161D01*
X111269215Y-25854155D01*
X111250000Y-25950754D01*
X101688596Y-25950754D01*
X101735530Y-25796034D01*
X101754838Y-25600000D01*
X101735530Y-25403966D01*
X101678349Y-25215465D01*
X101585492Y-25041742D01*
X101460528Y-24889472D01*
X101308258Y-24764508D01*
X101134535Y-24671651D01*
X100946034Y-24614470D01*
X100799120Y-24600000D01*
X99200880Y-24600000D01*
X99053966Y-24614470D01*
X98865465Y-24671651D01*
X98691742Y-24764508D01*
X98539472Y-24889472D01*
X98414508Y-25041742D01*
X98321651Y-25215465D01*
X98264470Y-25403966D01*
X98245162Y-25600000D01*
X91795279Y-25600000D01*
X91924637Y-25337690D01*
X92584589Y-24350000D01*
X128798306Y-24350000D01*
X128805064Y-24418612D01*
X128825077Y-24484587D01*
X128857577Y-24545391D01*
X128901315Y-24598685D01*
X128954609Y-24642423D01*
X129015413Y-24674923D01*
X129081388Y-24694936D01*
X129150000Y-24701694D01*
X129762500Y-24700000D01*
X129850000Y-24612500D01*
X129850000Y-23650000D01*
X130150000Y-23650000D01*
X130150000Y-24612500D01*
X130237500Y-24700000D01*
X130850000Y-24701694D01*
X130918612Y-24694936D01*
X130984587Y-24674923D01*
X131045391Y-24642423D01*
X131098685Y-24598685D01*
X131142423Y-24545391D01*
X131174923Y-24484587D01*
X131194936Y-24418612D01*
X131201694Y-24350000D01*
X131200000Y-23737500D01*
X131112500Y-23650000D01*
X130150000Y-23650000D01*
X129850000Y-23650000D01*
X128887500Y-23650000D01*
X128800000Y-23737500D01*
X128798306Y-24350000D01*
X92584589Y-24350000D01*
X92602276Y-24323530D01*
X93406495Y-23406495D01*
X93423412Y-23391659D01*
X131440000Y-23391659D01*
X131440000Y-23608341D01*
X131482273Y-23820858D01*
X131565193Y-24021045D01*
X131685575Y-24201209D01*
X131838791Y-24354425D01*
X132018955Y-24474807D01*
X132219142Y-24557727D01*
X132431659Y-24600000D01*
X132648341Y-24600000D01*
X132860858Y-24557727D01*
X133061045Y-24474807D01*
X133241209Y-24354425D01*
X133394425Y-24201209D01*
X133514807Y-24021045D01*
X133597727Y-23820858D01*
X133640000Y-23608341D01*
X133640000Y-23391659D01*
X133980000Y-23391659D01*
X133980000Y-23608341D01*
X134022273Y-23820858D01*
X134105193Y-24021045D01*
X134225575Y-24201209D01*
X134378791Y-24354425D01*
X134558955Y-24474807D01*
X134759142Y-24557727D01*
X134971659Y-24600000D01*
X135188341Y-24600000D01*
X135400858Y-24557727D01*
X135601045Y-24474807D01*
X135781209Y-24354425D01*
X135934425Y-24201209D01*
X136054807Y-24021045D01*
X136137727Y-23820858D01*
X136180000Y-23608341D01*
X136180000Y-23391659D01*
X136137727Y-23179142D01*
X136054807Y-22978955D01*
X135934425Y-22798791D01*
X135781209Y-22645575D01*
X135601045Y-22525193D01*
X135400858Y-22442273D01*
X135188341Y-22400000D01*
X134971659Y-22400000D01*
X134759142Y-22442273D01*
X134558955Y-22525193D01*
X134378791Y-22645575D01*
X134225575Y-22798791D01*
X134105193Y-22978955D01*
X134022273Y-23179142D01*
X133980000Y-23391659D01*
X133640000Y-23391659D01*
X133597727Y-23179142D01*
X133514807Y-22978955D01*
X133394425Y-22798791D01*
X133241209Y-22645575D01*
X133061045Y-22525193D01*
X132860858Y-22442273D01*
X132648341Y-22400000D01*
X132431659Y-22400000D01*
X132219142Y-22442273D01*
X132018955Y-22525193D01*
X131838791Y-22645575D01*
X131685575Y-22798791D01*
X131565193Y-22978955D01*
X131482273Y-23179142D01*
X131440000Y-23391659D01*
X93423412Y-23391659D01*
X94269110Y-22650000D01*
X128798306Y-22650000D01*
X128800000Y-23262500D01*
X128887500Y-23350000D01*
X129850000Y-23350000D01*
X129850000Y-22387500D01*
X130150000Y-22387500D01*
X130150000Y-23350000D01*
X131112500Y-23350000D01*
X131200000Y-23262500D01*
X131201694Y-22650000D01*
X131194936Y-22581388D01*
X131174923Y-22515413D01*
X131142423Y-22454609D01*
X131098685Y-22401315D01*
X131045391Y-22357577D01*
X130984587Y-22325077D01*
X130918612Y-22305064D01*
X130850000Y-22298306D01*
X130237500Y-22300000D01*
X130150000Y-22387500D01*
X129850000Y-22387500D01*
X129762500Y-22300000D01*
X129150000Y-22298306D01*
X129081388Y-22305064D01*
X129015413Y-22325077D01*
X128954609Y-22357577D01*
X128901315Y-22401315D01*
X128857577Y-22454609D01*
X128825077Y-22515413D01*
X128805064Y-22581388D01*
X128798306Y-22650000D01*
X94269110Y-22650000D01*
X94323526Y-22602279D01*
X95337687Y-21924640D01*
X96431619Y-21385171D01*
X97586614Y-20993103D01*
X98782890Y-20755149D01*
X100005725Y-20675000D01*
X167494275Y-20675000D01*
X168717108Y-20755149D01*
%TA.AperFunction,Conductor*%
D22*
G36*
X168717108Y-20755149D02*
G01*
X169913386Y-20993103D01*
X171068376Y-21385168D01*
X172162310Y-21924637D01*
X173176470Y-22602276D01*
X174093505Y-23406495D01*
X174897721Y-24323526D01*
X175575360Y-25337687D01*
X176114829Y-26431619D01*
X176506897Y-27586614D01*
X176744851Y-28782890D01*
X176824625Y-30000000D01*
X176744851Y-31217110D01*
X176506897Y-32413386D01*
X176114829Y-33568381D01*
X175575360Y-34662313D01*
X174897721Y-35676474D01*
X174093505Y-36593505D01*
X173176470Y-37397724D01*
X172162310Y-38075363D01*
X171068376Y-38614832D01*
X169913386Y-39006897D01*
X168717108Y-39244851D01*
X167494275Y-39325000D01*
X159491411Y-39325000D01*
X159483415Y-39325788D01*
X159477157Y-39325744D01*
X159474726Y-39325983D01*
X159280629Y-39346384D01*
X159265130Y-39349566D01*
X159249512Y-39352545D01*
X159247173Y-39353251D01*
X159060735Y-39410963D01*
X159046127Y-39417104D01*
X159031407Y-39423051D01*
X159029250Y-39424198D01*
X158857573Y-39517023D01*
X158844444Y-39525879D01*
X158831150Y-39534578D01*
X158829257Y-39536123D01*
X158678880Y-39660526D01*
X158667722Y-39671763D01*
X158656371Y-39682878D01*
X158654814Y-39684761D01*
X158531464Y-39836003D01*
X158522718Y-39849166D01*
X158513725Y-39862301D01*
X158512563Y-39864450D01*
X158420938Y-40036773D01*
X158414902Y-40051417D01*
X158408646Y-40066015D01*
X158407923Y-40068349D01*
X158351514Y-40255186D01*
X158348433Y-40270746D01*
X158345135Y-40286260D01*
X158344880Y-40288689D01*
X158325835Y-40482923D01*
X158325835Y-40482944D01*
X158325001Y-40491411D01*
X158325000Y-46241439D01*
X158289419Y-46604316D01*
X158186521Y-46945134D01*
X158019380Y-47259478D01*
X157794371Y-47535365D01*
X157520059Y-47762297D01*
X157206890Y-47931626D01*
X156866796Y-48036903D01*
X156504489Y-48074983D01*
X156499671Y-48075000D01*
X111008561Y-48075000D01*
X110645684Y-48039419D01*
X110304866Y-47936521D01*
X109990522Y-47769380D01*
X109714635Y-47544371D01*
X109487703Y-47270059D01*
X109318374Y-46956890D01*
X109213097Y-46616796D01*
X109175017Y-46254489D01*
X109175000Y-46249671D01*
X109175000Y-42950754D01*
X132250000Y-42950754D01*
X132250000Y-43049246D01*
X132269215Y-43145845D01*
X132306906Y-43236839D01*
X132361625Y-43318731D01*
X132431269Y-43388375D01*
X132513161Y-43443094D01*
X132604155Y-43480785D01*
X132700754Y-43500000D01*
X132799246Y-43500000D01*
X132895845Y-43480785D01*
X132986839Y-43443094D01*
X133068731Y-43388375D01*
X133107106Y-43350000D01*
X137605027Y-43350000D01*
X138500000Y-44244974D01*
X138500000Y-44299246D01*
X138519215Y-44395845D01*
X138556906Y-44486839D01*
X138611625Y-44568731D01*
X138681269Y-44638375D01*
X138763161Y-44693094D01*
X138854155Y-44730785D01*
X138950754Y-44750000D01*
X139049246Y-44750000D01*
X139145845Y-44730785D01*
X139236839Y-44693094D01*
X139318731Y-44638375D01*
X139388375Y-44568731D01*
X139443094Y-44486839D01*
X139480785Y-44395845D01*
X139500000Y-44299246D01*
X139500000Y-44200754D01*
X139480785Y-44104155D01*
X139443094Y-44013161D01*
X139388375Y-43931269D01*
X139318731Y-43861625D01*
X139236839Y-43806906D01*
X139145845Y-43769215D01*
X139049246Y-43750000D01*
X138994974Y-43750000D01*
X138009653Y-42764680D01*
X137998685Y-42751315D01*
X137945390Y-42707578D01*
X137884587Y-42675078D01*
X137818612Y-42655065D01*
X137767189Y-42650000D01*
X137767188Y-42650000D01*
X137750000Y-42648307D01*
X137732812Y-42650000D01*
X133107106Y-42650000D01*
X133068731Y-42611625D01*
X132986839Y-42556906D01*
X132895845Y-42519215D01*
X132799246Y-42500000D01*
X132700754Y-42500000D01*
X132604155Y-42519215D01*
X132513161Y-42556906D01*
X132431269Y-42611625D01*
X132361625Y-42681269D01*
X132306906Y-42763161D01*
X132269215Y-42854155D01*
X132250000Y-42950754D01*
X109175000Y-42950754D01*
X109175000Y-40491411D01*
X109174212Y-40483415D01*
X109174256Y-40477157D01*
X109174017Y-40474726D01*
X109153616Y-40280629D01*
X109150434Y-40265130D01*
X109147455Y-40249512D01*
X109146749Y-40247173D01*
X109089037Y-40060735D01*
X109082896Y-40046127D01*
X109076949Y-40031407D01*
X109075802Y-40029250D01*
X108982977Y-39857573D01*
X108974121Y-39844444D01*
X108965422Y-39831150D01*
X108963877Y-39829257D01*
X108839474Y-39678880D01*
X108828237Y-39667722D01*
X108817122Y-39656371D01*
X108815239Y-39654814D01*
X108663997Y-39531464D01*
X108650834Y-39522718D01*
X108637699Y-39513725D01*
X108635550Y-39512563D01*
X108463227Y-39420938D01*
X108448583Y-39414902D01*
X108433985Y-39408646D01*
X108431651Y-39407923D01*
X108244814Y-39351514D01*
X108229254Y-39348433D01*
X108213740Y-39345135D01*
X108211311Y-39344880D01*
X108017077Y-39325835D01*
X108017067Y-39325835D01*
X108008589Y-39325000D01*
X100005725Y-39325000D01*
X98782890Y-39244851D01*
X97586614Y-39006897D01*
X96431619Y-38614829D01*
X95337687Y-38075360D01*
X94323526Y-37397721D01*
X93406495Y-36593505D01*
X93062062Y-36200754D01*
X97000000Y-36200754D01*
X97000000Y-36299246D01*
X97019215Y-36395845D01*
X97056906Y-36486839D01*
X97111625Y-36568731D01*
X97181269Y-36638375D01*
X97263161Y-36693094D01*
X97354155Y-36730785D01*
X97450754Y-36750000D01*
X97549246Y-36750000D01*
X97645845Y-36730785D01*
X97736839Y-36693094D01*
X97818731Y-36638375D01*
X97857106Y-36600000D01*
X104448640Y-36600000D01*
X104431269Y-36611607D01*
X104361625Y-36681251D01*
X104306906Y-36763143D01*
X104269215Y-36854137D01*
X104250000Y-36950736D01*
X104250000Y-37049228D01*
X104269215Y-37145827D01*
X104306906Y-37236821D01*
X104361625Y-37318713D01*
X104431269Y-37388357D01*
X104513161Y-37443076D01*
X104604155Y-37480767D01*
X104700754Y-37499982D01*
X104799246Y-37499982D01*
X104895845Y-37480767D01*
X104986839Y-37443076D01*
X105068731Y-37388357D01*
X105107106Y-37349982D01*
X105605009Y-37349982D01*
X107240355Y-38985330D01*
X107251315Y-38998685D01*
X107304610Y-39042422D01*
X107365413Y-39074922D01*
X107406878Y-39087500D01*
X107431387Y-39094935D01*
X107499999Y-39101693D01*
X107517188Y-39100000D01*
X114135639Y-39100000D01*
X114072902Y-39112479D01*
X113954610Y-39161478D01*
X113848149Y-39232612D01*
X113757612Y-39323149D01*
X113686478Y-39429610D01*
X113637479Y-39547902D01*
X113612500Y-39673481D01*
X113612500Y-39801519D01*
X113637479Y-39927098D01*
X113686478Y-40045390D01*
X113757612Y-40151851D01*
X113848149Y-40242388D01*
X113954610Y-40313522D01*
X113954661Y-40313543D01*
X115836352Y-42195236D01*
X115855921Y-42219081D01*
X115879766Y-42238650D01*
X115879770Y-42238654D01*
X115951089Y-42297184D01*
X116009125Y-42328205D01*
X116059667Y-42355220D01*
X116177480Y-42390958D01*
X116269297Y-42400001D01*
X116269299Y-42400001D01*
X116300001Y-42403025D01*
X116330703Y-42400001D01*
X142376260Y-42400001D01*
X142357461Y-42461973D01*
X142348791Y-42550000D01*
X142348791Y-43450000D01*
X142357461Y-43538027D01*
X142383137Y-43622670D01*
X142424833Y-43700678D01*
X142480947Y-43769053D01*
X142549322Y-43825167D01*
X142627330Y-43866863D01*
X142711973Y-43892539D01*
X142800000Y-43901209D01*
X143200000Y-43901209D01*
X143288027Y-43892539D01*
X143372670Y-43866863D01*
X143450678Y-43825167D01*
X143519053Y-43769053D01*
X143575167Y-43700678D01*
X143616863Y-43622670D01*
X143642539Y-43538027D01*
X143646359Y-43499242D01*
X143646573Y-43499948D01*
X143706930Y-43612868D01*
X143788158Y-43711843D01*
X143887133Y-43793070D01*
X144000053Y-43853427D01*
X144122579Y-43890595D01*
X144250000Y-43903145D01*
X144377422Y-43890595D01*
X144499948Y-43853427D01*
X144612868Y-43793070D01*
X144711843Y-43711843D01*
X144793070Y-43612868D01*
X144853427Y-43499948D01*
X144875000Y-43428832D01*
X144896573Y-43499948D01*
X144956930Y-43612868D01*
X145038158Y-43711843D01*
X145137133Y-43793070D01*
X145250053Y-43853427D01*
X145372579Y-43890595D01*
X145500000Y-43903145D01*
X145627422Y-43890595D01*
X145749948Y-43853427D01*
X145862868Y-43793070D01*
X145961843Y-43711843D01*
X146043070Y-43612868D01*
X146060406Y-43580434D01*
X146124090Y-43692407D01*
X146222426Y-43806015D01*
X146341036Y-43898256D01*
X146486891Y-43952335D01*
X146600000Y-43895295D01*
X146600000Y-43150000D01*
X146900000Y-43150000D01*
X146900000Y-43895295D01*
X147013109Y-43952335D01*
X147158964Y-43898256D01*
X147277574Y-43806015D01*
X147375910Y-43692407D01*
X147450193Y-43561797D01*
X147497568Y-43419205D01*
X147516214Y-43270110D01*
X147422427Y-43150000D01*
X146900000Y-43150000D01*
X146600000Y-43150000D01*
X146580000Y-43150000D01*
X146580000Y-42850000D01*
X146600000Y-42850000D01*
X146600000Y-42830000D01*
X146900000Y-42830000D01*
X146900000Y-42850000D01*
X147422427Y-42850000D01*
X147516214Y-42729890D01*
X147497568Y-42580795D01*
X147450193Y-42438203D01*
X147428466Y-42400001D01*
X153016119Y-42400001D01*
X155423958Y-44807842D01*
X155423978Y-44807890D01*
X155495112Y-44914351D01*
X155585649Y-45004888D01*
X155692110Y-45076022D01*
X155810402Y-45125021D01*
X155935981Y-45150000D01*
X156064019Y-45150000D01*
X156189598Y-45125021D01*
X156307890Y-45076022D01*
X156414351Y-45004888D01*
X156504888Y-44914351D01*
X156576022Y-44807890D01*
X156625021Y-44689598D01*
X156650000Y-44564019D01*
X156650000Y-44435981D01*
X156625021Y-44310402D01*
X156576022Y-44192110D01*
X156504888Y-44085649D01*
X156414351Y-43995112D01*
X156307890Y-43923978D01*
X156307842Y-43923958D01*
X153738659Y-41354777D01*
X153719081Y-41330921D01*
X153623912Y-41252818D01*
X153515335Y-41194782D01*
X153397522Y-41159044D01*
X153305705Y-41150001D01*
X153305695Y-41150001D01*
X153275001Y-41146978D01*
X153244307Y-41150001D01*
X132051332Y-41150001D01*
X132068731Y-41138375D01*
X132138375Y-41068731D01*
X132193094Y-40986839D01*
X132230785Y-40895845D01*
X132250000Y-40799246D01*
X132250000Y-40700754D01*
X132230785Y-40604155D01*
X132193094Y-40513161D01*
X132138375Y-40431269D01*
X132068731Y-40361625D01*
X131986839Y-40306906D01*
X131895845Y-40269215D01*
X131799246Y-40250000D01*
X131744974Y-40250000D01*
X131097619Y-39602646D01*
X131097619Y-38950754D01*
X131750000Y-38950754D01*
X131750000Y-39049246D01*
X131769215Y-39145845D01*
X131806906Y-39236839D01*
X131861625Y-39318731D01*
X131931269Y-39388375D01*
X132013161Y-39443094D01*
X132104155Y-39480785D01*
X132200754Y-39500000D01*
X132299246Y-39500000D01*
X132395845Y-39480785D01*
X132486839Y-39443094D01*
X132568731Y-39388375D01*
X132607106Y-39350000D01*
X142526255Y-39350000D01*
X142522976Y-39357916D01*
X142503761Y-39454515D01*
X142503761Y-39553007D01*
X142522976Y-39649606D01*
X142524698Y-39653763D01*
X141295486Y-39653763D01*
X141257190Y-39649991D01*
X141257189Y-39649991D01*
X141240001Y-39648298D01*
X141222813Y-39649991D01*
X136517197Y-39649991D01*
X136500008Y-39648298D01*
X136431396Y-39655056D01*
X136411443Y-39661109D01*
X136365422Y-39675069D01*
X136304619Y-39707569D01*
X136252915Y-39750000D01*
X136200754Y-39750000D01*
X136104155Y-39769215D01*
X136013161Y-39806906D01*
X135931269Y-39861625D01*
X135861625Y-39931269D01*
X135806906Y-40013161D01*
X135769215Y-40104155D01*
X135750000Y-40200754D01*
X135750000Y-40299246D01*
X135769215Y-40395845D01*
X135806906Y-40486839D01*
X135861625Y-40568731D01*
X135931269Y-40638375D01*
X136013161Y-40693094D01*
X136104155Y-40730785D01*
X136200754Y-40750000D01*
X136299246Y-40750000D01*
X136395845Y-40730785D01*
X136486839Y-40693094D01*
X136568731Y-40638375D01*
X136638375Y-40568731D01*
X136693094Y-40486839D01*
X136730785Y-40395845D01*
X136739906Y-40349991D01*
X138515668Y-40349991D01*
X138510215Y-40363155D01*
X138491000Y-40459754D01*
X138491000Y-40558246D01*
X138510215Y-40654845D01*
X138547906Y-40745839D01*
X138602625Y-40827731D01*
X138672269Y-40897375D01*
X138754161Y-40952094D01*
X138845155Y-40989785D01*
X138941754Y-41009000D01*
X139040246Y-41009000D01*
X139136845Y-40989785D01*
X139227839Y-40952094D01*
X139309731Y-40897375D01*
X139357106Y-40850000D01*
X152732812Y-40850000D01*
X152750000Y-40851693D01*
X152767188Y-40850000D01*
X152767189Y-40850000D01*
X152818612Y-40844935D01*
X152884587Y-40824922D01*
X152945390Y-40792422D01*
X152998685Y-40748685D01*
X153009654Y-40735320D01*
X156394975Y-37350000D01*
X162392894Y-37350000D01*
X162431269Y-37388375D01*
X162513161Y-37443094D01*
X162604155Y-37480785D01*
X162700754Y-37500000D01*
X162799246Y-37500000D01*
X162895845Y-37480785D01*
X162986839Y-37443094D01*
X163068731Y-37388375D01*
X163138375Y-37318731D01*
X163193094Y-37236839D01*
X163230785Y-37145845D01*
X163250000Y-37049246D01*
X163250000Y-36950754D01*
X163230785Y-36854155D01*
X163229064Y-36850000D01*
X169892890Y-36850000D01*
X169931265Y-36888375D01*
X170013157Y-36943094D01*
X170104151Y-36980785D01*
X170200750Y-37000000D01*
X170299242Y-37000000D01*
X170395841Y-36980785D01*
X170486835Y-36943094D01*
X170568727Y-36888375D01*
X170638371Y-36818731D01*
X170693090Y-36736839D01*
X170730781Y-36645845D01*
X170749996Y-36549246D01*
X170749996Y-36450754D01*
X170730781Y-36354155D01*
X170693090Y-36263161D01*
X170638371Y-36181269D01*
X170568727Y-36111625D01*
X170486835Y-36056906D01*
X170395841Y-36019215D01*
X170299242Y-36000000D01*
X170200750Y-36000000D01*
X170104151Y-36019215D01*
X170013157Y-36056906D01*
X169931265Y-36111625D01*
X169892890Y-36150000D01*
X156017188Y-36150000D01*
X155999999Y-36148307D01*
X155931387Y-36155065D01*
X155911374Y-36161136D01*
X155865413Y-36175078D01*
X155804610Y-36207578D01*
X155751315Y-36251315D01*
X155740356Y-36264669D01*
X152351264Y-39653763D01*
X151727505Y-39653763D01*
X151730785Y-39645845D01*
X151750000Y-39549246D01*
X151750000Y-39450754D01*
X151730785Y-39354155D01*
X151693094Y-39263161D01*
X151638375Y-39181269D01*
X151568731Y-39111625D01*
X151486839Y-39056906D01*
X151395845Y-39019215D01*
X151299246Y-39000000D01*
X151244973Y-39000000D01*
X151009653Y-38764680D01*
X150998685Y-38751315D01*
X150945390Y-38707578D01*
X150884587Y-38675078D01*
X150818612Y-38655065D01*
X150767189Y-38650000D01*
X150767188Y-38650000D01*
X150750000Y-38648307D01*
X150732812Y-38650000D01*
X149344973Y-38650000D01*
X150994975Y-37000000D01*
X151049246Y-37000000D01*
X151145845Y-36980785D01*
X151236839Y-36943094D01*
X151318731Y-36888375D01*
X151388375Y-36818731D01*
X151443094Y-36736839D01*
X151480785Y-36645845D01*
X151500000Y-36549246D01*
X151500000Y-36450754D01*
X151480785Y-36354155D01*
X151443094Y-36263161D01*
X151388375Y-36181269D01*
X151318731Y-36111625D01*
X151301333Y-36100000D01*
X153392894Y-36100000D01*
X153431269Y-36138375D01*
X153513161Y-36193094D01*
X153604155Y-36230785D01*
X153700754Y-36250000D01*
X153799246Y-36250000D01*
X153895845Y-36230785D01*
X153986839Y-36193094D01*
X154068731Y-36138375D01*
X154138375Y-36068731D01*
X154193094Y-35986839D01*
X154230785Y-35895845D01*
X154250000Y-35799246D01*
X154250000Y-35700754D01*
X154230785Y-35604155D01*
X154193094Y-35513161D01*
X154138375Y-35431269D01*
X154068731Y-35361625D01*
X153986839Y-35306906D01*
X153895845Y-35269215D01*
X153799246Y-35250000D01*
X153700754Y-35250000D01*
X153604155Y-35269215D01*
X153513161Y-35306906D01*
X153431269Y-35361625D01*
X153392894Y-35400000D01*
X147344974Y-35400000D01*
X147994974Y-34750000D01*
X148049246Y-34750000D01*
X148145845Y-34730785D01*
X148175204Y-34718624D01*
X165697156Y-34718624D01*
X165752047Y-34886406D01*
X165866116Y-35071751D01*
X166014152Y-35231281D01*
X166190466Y-35358865D01*
X166388283Y-35449600D01*
X166600000Y-35500000D01*
X167350000Y-35500000D01*
X167350000Y-34550000D01*
X167650000Y-34550000D01*
X167650000Y-35500000D01*
X168400000Y-35500000D01*
X168611717Y-35449600D01*
X168809534Y-35358865D01*
X168985848Y-35231281D01*
X169133884Y-35071751D01*
X169247953Y-34886406D01*
X169302844Y-34718624D01*
X169251327Y-34550000D01*
X167650000Y-34550000D01*
X167350000Y-34550000D01*
X165748673Y-34550000D01*
X165697156Y-34718624D01*
X148175204Y-34718624D01*
X148236839Y-34693094D01*
X148318731Y-34638375D01*
X148388375Y-34568731D01*
X148443094Y-34486839D01*
X148480785Y-34395845D01*
X148500000Y-34299246D01*
X148500000Y-34200754D01*
X148480785Y-34104155D01*
X148471350Y-34081376D01*
X165697156Y-34081376D01*
X165748673Y-34250000D01*
X167350000Y-34250000D01*
X167350000Y-33300000D01*
X167650000Y-33300000D01*
X167650000Y-34250000D01*
X169251327Y-34250000D01*
X169302844Y-34081376D01*
X169247953Y-33913594D01*
X169133884Y-33728249D01*
X168985848Y-33568719D01*
X168809534Y-33441135D01*
X168611717Y-33350400D01*
X168400000Y-33300000D01*
X167650000Y-33300000D01*
X167350000Y-33300000D01*
X166600000Y-33300000D01*
X166388283Y-33350400D01*
X166190466Y-33441135D01*
X166014152Y-33568719D01*
X165866116Y-33728249D01*
X165752047Y-33913594D01*
X165697156Y-34081376D01*
X148471350Y-34081376D01*
X148443094Y-34013161D01*
X148388375Y-33931269D01*
X148318731Y-33861625D01*
X148236839Y-33806906D01*
X148145845Y-33769215D01*
X148049246Y-33750000D01*
X147950754Y-33750000D01*
X147854155Y-33769215D01*
X147763161Y-33806906D01*
X147681269Y-33861625D01*
X147611625Y-33931269D01*
X147556906Y-34013161D01*
X147519215Y-34104155D01*
X147500000Y-34200754D01*
X147500000Y-34255026D01*
X144645721Y-37109306D01*
X136438495Y-37109306D01*
X136400120Y-37070931D01*
X136318228Y-37016212D01*
X136227234Y-36978521D01*
X136130635Y-36959306D01*
X136032143Y-36959306D01*
X135935544Y-36978521D01*
X135844550Y-37016212D01*
X135762658Y-37070931D01*
X135693014Y-37140575D01*
X135638295Y-37222467D01*
X135600604Y-37313461D01*
X135581389Y-37410060D01*
X135581389Y-37506382D01*
X135549246Y-37499988D01*
X135450754Y-37499988D01*
X135354155Y-37519203D01*
X135263161Y-37556894D01*
X135181269Y-37611613D01*
X135111625Y-37681257D01*
X135056906Y-37763149D01*
X135019215Y-37854143D01*
X135000000Y-37950742D01*
X135000000Y-38049234D01*
X135019215Y-38145833D01*
X135020941Y-38150000D01*
X133107106Y-38150000D01*
X133068731Y-38111625D01*
X132986839Y-38056906D01*
X132895845Y-38019215D01*
X132799246Y-38000000D01*
X132700754Y-38000000D01*
X132604155Y-38019215D01*
X132513161Y-38056906D01*
X132431269Y-38111625D01*
X132361625Y-38181269D01*
X132306906Y-38263161D01*
X132269215Y-38354155D01*
X132250000Y-38450754D01*
X132250000Y-38500000D01*
X132200754Y-38500000D01*
X132104155Y-38519215D01*
X132013161Y-38556906D01*
X131931269Y-38611625D01*
X131861625Y-38681269D01*
X131806906Y-38763161D01*
X131769215Y-38854155D01*
X131750000Y-38950754D01*
X131097619Y-38950754D01*
X131097619Y-38228078D01*
X131104155Y-38230785D01*
X131200754Y-38250000D01*
X131299246Y-38250000D01*
X131395845Y-38230785D01*
X131486839Y-38193094D01*
X131568731Y-38138375D01*
X131638375Y-38068731D01*
X131693094Y-37986839D01*
X131730785Y-37895845D01*
X131750000Y-37799246D01*
X131750000Y-37700754D01*
X131730785Y-37604155D01*
X131693094Y-37513161D01*
X131638375Y-37431269D01*
X131600000Y-37392894D01*
X131600000Y-35434759D01*
X132591569Y-34443191D01*
X132645841Y-34443191D01*
X132742440Y-34423976D01*
X132833434Y-34386285D01*
X132915326Y-34331566D01*
X132984970Y-34261922D01*
X133039689Y-34180030D01*
X133077380Y-34089036D01*
X133096595Y-33992437D01*
X133096595Y-33893945D01*
X133083590Y-33828564D01*
X133500000Y-34244975D01*
X133500000Y-34299246D01*
X133519215Y-34395845D01*
X133556906Y-34486839D01*
X133611625Y-34568731D01*
X133681269Y-34638375D01*
X133763161Y-34693094D01*
X133854155Y-34730785D01*
X133950754Y-34750000D01*
X134002919Y-34750000D01*
X134001315Y-34751316D01*
X133957578Y-34804611D01*
X133925078Y-34865414D01*
X133909820Y-34915713D01*
X133905065Y-34931389D01*
X133898307Y-35000000D01*
X133900000Y-35017188D01*
X133900001Y-37142893D01*
X133861625Y-37181269D01*
X133806906Y-37263161D01*
X133769215Y-37354155D01*
X133750000Y-37450754D01*
X133750000Y-37549246D01*
X133769215Y-37645845D01*
X133806906Y-37736839D01*
X133861625Y-37818731D01*
X133931269Y-37888375D01*
X134013161Y-37943094D01*
X134104155Y-37980785D01*
X134200754Y-38000000D01*
X134299246Y-38000000D01*
X134395845Y-37980785D01*
X134486839Y-37943094D01*
X134568731Y-37888375D01*
X134638375Y-37818731D01*
X134693094Y-37736839D01*
X134730785Y-37645845D01*
X134750000Y-37549246D01*
X134750000Y-37450754D01*
X134730785Y-37354155D01*
X134693094Y-37263161D01*
X134638375Y-37181269D01*
X134600000Y-37142894D01*
X134600000Y-35144973D01*
X135235330Y-34509645D01*
X135248685Y-34498685D01*
X135292422Y-34445390D01*
X135324922Y-34384587D01*
X135344935Y-34318612D01*
X135346843Y-34299246D01*
X135351693Y-34250001D01*
X135350000Y-34232812D01*
X135350000Y-34229064D01*
X135354155Y-34230785D01*
X135450754Y-34250000D01*
X135500000Y-34250000D01*
X135500000Y-34299246D01*
X135519215Y-34395845D01*
X135556906Y-34486839D01*
X135611625Y-34568731D01*
X135681269Y-34638375D01*
X135763161Y-34693094D01*
X135854155Y-34730785D01*
X135950754Y-34750000D01*
X136049246Y-34750000D01*
X136145845Y-34730785D01*
X136236839Y-34693094D01*
X136253775Y-34681778D01*
X136250000Y-34700754D01*
X136250000Y-34799246D01*
X136269215Y-34895845D01*
X136306906Y-34986839D01*
X136361625Y-35068731D01*
X136431269Y-35138375D01*
X136513161Y-35193094D01*
X136604155Y-35230785D01*
X136700754Y-35250000D01*
X136799246Y-35250000D01*
X136895845Y-35230785D01*
X136986839Y-35193094D01*
X137068731Y-35138375D01*
X137107106Y-35100000D01*
X141982812Y-35100000D01*
X142000000Y-35101693D01*
X142017188Y-35100000D01*
X142017189Y-35100000D01*
X142068612Y-35094935D01*
X142134587Y-35074922D01*
X142195390Y-35042422D01*
X142248685Y-34998685D01*
X142259654Y-34985319D01*
X142526349Y-34718624D01*
X143197156Y-34718624D01*
X143252047Y-34886406D01*
X143366116Y-35071751D01*
X143514152Y-35231281D01*
X143690466Y-35358865D01*
X143888283Y-35449600D01*
X144100000Y-35500000D01*
X144850000Y-35500000D01*
X144850000Y-34550000D01*
X145150000Y-34550000D01*
X145150000Y-35500000D01*
X145900000Y-35500000D01*
X146111717Y-35449600D01*
X146309534Y-35358865D01*
X146485848Y-35231281D01*
X146633884Y-35071751D01*
X146747953Y-34886406D01*
X146802844Y-34718624D01*
X146751327Y-34550000D01*
X145150000Y-34550000D01*
X144850000Y-34550000D01*
X143248673Y-34550000D01*
X143197156Y-34718624D01*
X142526349Y-34718624D01*
X143213473Y-34031500D01*
X143197156Y-34081376D01*
X143248673Y-34250000D01*
X144850000Y-34250000D01*
X144850000Y-33300000D01*
X145150000Y-33300000D01*
X145150000Y-34250000D01*
X146751327Y-34250000D01*
X146802844Y-34081376D01*
X146747953Y-33913594D01*
X146633884Y-33728249D01*
X146485848Y-33568719D01*
X146309534Y-33441135D01*
X146111717Y-33350400D01*
X145900000Y-33300000D01*
X145150000Y-33300000D01*
X144850000Y-33300000D01*
X144100000Y-33300000D01*
X143896539Y-33348435D01*
X144644974Y-32600000D01*
X146892896Y-32600000D01*
X146931271Y-32638375D01*
X147013163Y-32693094D01*
X147104157Y-32730785D01*
X147200756Y-32750000D01*
X147299248Y-32750000D01*
X147395847Y-32730785D01*
X147486841Y-32693094D01*
X147568733Y-32638375D01*
X147638377Y-32568731D01*
X147693096Y-32486839D01*
X147730787Y-32395845D01*
X147750002Y-32299246D01*
X147750002Y-32200754D01*
X147730787Y-32104155D01*
X147693096Y-32013161D01*
X147650893Y-31950000D01*
X148650000Y-31950000D01*
X148650000Y-32700000D01*
X148700400Y-32911717D01*
X148791135Y-33109534D01*
X148918719Y-33285848D01*
X149078249Y-33433884D01*
X149263594Y-33547953D01*
X149431376Y-33602844D01*
X149600000Y-33551327D01*
X149600000Y-31950000D01*
X149900000Y-31950000D01*
X149900000Y-33551327D01*
X150068624Y-33602844D01*
X150236406Y-33547953D01*
X150421751Y-33433884D01*
X150581281Y-33285848D01*
X150708865Y-33109534D01*
X150799600Y-32911717D01*
X150850000Y-32700000D01*
X150850000Y-31950000D01*
X149900000Y-31950000D01*
X149600000Y-31950000D01*
X148650000Y-31950000D01*
X147650893Y-31950000D01*
X147638377Y-31931269D01*
X147568733Y-31861625D01*
X147486841Y-31806906D01*
X147395847Y-31769215D01*
X147299248Y-31750000D01*
X147200756Y-31750000D01*
X147104157Y-31769215D01*
X147013163Y-31806906D01*
X146931271Y-31861625D01*
X146892896Y-31900000D01*
X144517189Y-31900000D01*
X144500000Y-31898307D01*
X144482811Y-31900000D01*
X144431388Y-31905065D01*
X144365413Y-31925078D01*
X144304610Y-31957578D01*
X144251315Y-32001315D01*
X144240351Y-32014675D01*
X143700000Y-32555026D01*
X143700000Y-32429998D01*
X143602342Y-32429998D01*
X143652465Y-32245598D01*
X143644029Y-32217767D01*
X143551379Y-32001538D01*
X143418325Y-31807539D01*
X143249980Y-31643225D01*
X143052814Y-31514911D01*
X142834403Y-31427528D01*
X142650000Y-31476905D01*
X142650000Y-32430000D01*
X142670000Y-32430000D01*
X142670000Y-32730000D01*
X142650000Y-32730000D01*
X142650000Y-32750000D01*
X142350000Y-32750000D01*
X142350000Y-32730000D01*
X141397659Y-32730000D01*
X141347535Y-32914402D01*
X141355971Y-32942233D01*
X141448621Y-33158462D01*
X141581675Y-33352461D01*
X141750020Y-33516775D01*
X141947186Y-33645089D01*
X142165597Y-33732472D01*
X142349998Y-33683096D01*
X142349998Y-33780000D01*
X142475027Y-33780000D01*
X141855027Y-34400000D01*
X137107106Y-34400000D01*
X137068731Y-34361625D01*
X136986839Y-34306906D01*
X136895845Y-34269215D01*
X136799246Y-34250000D01*
X136700754Y-34250000D01*
X136604155Y-34269215D01*
X136513161Y-34306906D01*
X136496225Y-34318222D01*
X136500000Y-34299246D01*
X136500000Y-34244973D01*
X138694975Y-32050000D01*
X139250001Y-32050000D01*
X139250001Y-32499120D01*
X139264471Y-32646034D01*
X139321652Y-32834535D01*
X139414509Y-33008258D01*
X139539473Y-33160528D01*
X139691743Y-33285492D01*
X139865466Y-33378349D01*
X140053967Y-33435530D01*
X140250000Y-33454838D01*
X140446034Y-33435530D01*
X140634535Y-33378349D01*
X140808258Y-33285492D01*
X140960528Y-33160528D01*
X141085492Y-33008258D01*
X141178349Y-32834535D01*
X141235530Y-32646034D01*
X141250000Y-32499120D01*
X141250000Y-32245598D01*
X141347535Y-32245598D01*
X141397659Y-32430000D01*
X142350000Y-32430000D01*
X142350000Y-31476905D01*
X142165597Y-31427528D01*
X141947186Y-31514911D01*
X141750020Y-31643225D01*
X141581675Y-31807539D01*
X141448621Y-32001538D01*
X141355971Y-32217767D01*
X141347535Y-32245598D01*
X141250000Y-32245598D01*
X141250000Y-30900880D01*
X141235530Y-30753966D01*
X141178349Y-30565465D01*
X141085492Y-30391742D01*
X140960528Y-30239472D01*
X140808258Y-30114508D01*
X140634534Y-30021651D01*
X140446033Y-29964470D01*
X140250000Y-29945162D01*
X140053966Y-29964470D01*
X139865465Y-30021651D01*
X139691742Y-30114508D01*
X139539472Y-30239472D01*
X139414508Y-30391742D01*
X139321651Y-30565466D01*
X139264470Y-30753967D01*
X139250000Y-30900881D01*
X139250000Y-31350000D01*
X138567189Y-31350000D01*
X138550000Y-31348307D01*
X138532811Y-31350000D01*
X138481388Y-31355065D01*
X138415413Y-31375078D01*
X138354610Y-31407578D01*
X138301315Y-31451315D01*
X138290355Y-31464670D01*
X136005027Y-33750000D01*
X136000000Y-33750000D01*
X136000000Y-33700754D01*
X135980785Y-33604155D01*
X135943094Y-33513161D01*
X135888375Y-33431269D01*
X135850000Y-33392894D01*
X135850000Y-32394973D01*
X138542621Y-29702353D01*
X138556906Y-29736839D01*
X138611625Y-29818731D01*
X138681269Y-29888375D01*
X138763161Y-29943094D01*
X138854155Y-29980785D01*
X138950754Y-30000000D01*
X139049246Y-30000000D01*
X139145845Y-29980785D01*
X139236839Y-29943094D01*
X139301333Y-29900000D01*
X141406297Y-29900000D01*
X141400000Y-29931659D01*
X141400000Y-30148341D01*
X141442273Y-30360858D01*
X141525193Y-30561045D01*
X141645575Y-30741209D01*
X141798791Y-30894425D01*
X141978955Y-31014807D01*
X142179142Y-31097727D01*
X142391659Y-31140000D01*
X142608341Y-31140000D01*
X142820858Y-31097727D01*
X143021045Y-31014807D01*
X143201209Y-30894425D01*
X143354425Y-30741209D01*
X143474807Y-30561045D01*
X143557727Y-30360858D01*
X143600000Y-30148341D01*
X143600000Y-29950754D01*
X147500000Y-29950754D01*
X147500000Y-30049246D01*
X147519215Y-30145845D01*
X147556906Y-30236839D01*
X147611625Y-30318731D01*
X147681269Y-30388375D01*
X147763161Y-30443094D01*
X147854155Y-30480785D01*
X147950754Y-30500000D01*
X148049246Y-30500000D01*
X148145845Y-30480785D01*
X148236839Y-30443094D01*
X148318731Y-30388375D01*
X148357106Y-30350000D01*
X148892779Y-30350000D01*
X148791135Y-30490466D01*
X148700400Y-30688283D01*
X148650000Y-30900000D01*
X148650000Y-31650000D01*
X149600000Y-31650000D01*
X149600000Y-31630000D01*
X149900000Y-31630000D01*
X149900000Y-31650000D01*
X150850000Y-31650000D01*
X150850000Y-30900881D01*
X161750000Y-30900881D01*
X161750001Y-32499120D01*
X161764471Y-32646034D01*
X161821652Y-32834535D01*
X161914509Y-33008258D01*
X162039473Y-33160528D01*
X162191743Y-33285492D01*
X162365466Y-33378349D01*
X162553967Y-33435530D01*
X162750000Y-33454838D01*
X162946034Y-33435530D01*
X163134535Y-33378349D01*
X163308258Y-33285492D01*
X163460528Y-33160528D01*
X163585492Y-33008258D01*
X163678349Y-32834535D01*
X163735530Y-32646034D01*
X163750000Y-32499120D01*
X163750000Y-31950000D01*
X171150000Y-31950000D01*
X171150000Y-32700000D01*
X171200400Y-32911717D01*
X171291135Y-33109534D01*
X171418719Y-33285848D01*
X171578249Y-33433884D01*
X171763594Y-33547953D01*
X171931376Y-33602844D01*
X172100000Y-33551327D01*
X172100000Y-31950000D01*
X172400000Y-31950000D01*
X172400000Y-33551327D01*
X172568624Y-33602844D01*
X172736406Y-33547953D01*
X172921751Y-33433884D01*
X173081281Y-33285848D01*
X173208865Y-33109534D01*
X173299600Y-32911717D01*
X173350000Y-32700000D01*
X173350000Y-31950000D01*
X172400000Y-31950000D01*
X172100000Y-31950000D01*
X171150000Y-31950000D01*
X163750000Y-31950000D01*
X163750000Y-30900880D01*
X163749914Y-30900000D01*
X171150000Y-30900000D01*
X171150000Y-31650000D01*
X172100000Y-31650000D01*
X172100000Y-30048673D01*
X172400000Y-30048673D01*
X172400000Y-31650000D01*
X173350000Y-31650000D01*
X173350000Y-30900000D01*
X173299600Y-30688283D01*
X173208865Y-30490466D01*
X173081281Y-30314152D01*
X172921751Y-30166116D01*
X172736406Y-30052047D01*
X172568624Y-29997156D01*
X172400000Y-30048673D01*
X172100000Y-30048673D01*
X171931376Y-29997156D01*
X171763594Y-30052047D01*
X171578249Y-30166116D01*
X171418719Y-30314152D01*
X171291135Y-30490466D01*
X171200400Y-30688283D01*
X171150000Y-30900000D01*
X163749914Y-30900000D01*
X163735530Y-30753966D01*
X163678349Y-30565465D01*
X163585492Y-30391742D01*
X163460528Y-30239472D01*
X163308258Y-30114508D01*
X163134534Y-30021651D01*
X162946033Y-29964470D01*
X162750000Y-29945162D01*
X162553966Y-29964470D01*
X162365465Y-30021651D01*
X162191742Y-30114508D01*
X162039472Y-30239472D01*
X161914508Y-30391742D01*
X161821651Y-30565466D01*
X161764470Y-30753967D01*
X161750000Y-30900881D01*
X150850000Y-30900881D01*
X150850000Y-30900000D01*
X150799600Y-30688283D01*
X150708865Y-30490466D01*
X150607221Y-30350000D01*
X153392898Y-30350000D01*
X153431273Y-30388375D01*
X153513165Y-30443094D01*
X153604159Y-30480785D01*
X153700758Y-30500000D01*
X153799250Y-30500000D01*
X153895849Y-30480785D01*
X153986843Y-30443094D01*
X154068735Y-30388375D01*
X154138379Y-30318731D01*
X154193098Y-30236839D01*
X154230789Y-30145845D01*
X154250004Y-30049246D01*
X154250004Y-29950754D01*
X154230789Y-29854155D01*
X154193098Y-29763161D01*
X154138379Y-29681269D01*
X154068735Y-29611625D01*
X153986843Y-29556906D01*
X153895849Y-29519215D01*
X153799250Y-29500000D01*
X153700758Y-29500000D01*
X153604159Y-29519215D01*
X153513165Y-29556906D01*
X153431273Y-29611625D01*
X153392898Y-29650000D01*
X148357106Y-29650000D01*
X148318731Y-29611625D01*
X148236839Y-29556906D01*
X148145845Y-29519215D01*
X148049246Y-29500000D01*
X147950754Y-29500000D01*
X147854155Y-29519215D01*
X147763161Y-29556906D01*
X147681269Y-29611625D01*
X147611625Y-29681269D01*
X147556906Y-29763161D01*
X147519215Y-29854155D01*
X147500000Y-29950754D01*
X143600000Y-29950754D01*
X143600000Y-29931659D01*
X143557727Y-29719142D01*
X143474807Y-29518955D01*
X143354425Y-29338791D01*
X143201209Y-29185575D01*
X143021045Y-29065193D01*
X142820858Y-28982273D01*
X142608341Y-28940000D01*
X142391659Y-28940000D01*
X142179142Y-28982273D01*
X141978955Y-29065193D01*
X141926863Y-29100000D01*
X139301333Y-29100000D01*
X139236839Y-29056906D01*
X139202353Y-29042622D01*
X139344975Y-28900000D01*
X164873306Y-28900000D01*
X164880064Y-28968612D01*
X164900077Y-29034587D01*
X164932577Y-29095391D01*
X164976315Y-29148685D01*
X165029609Y-29192423D01*
X165090413Y-29224923D01*
X165156388Y-29244936D01*
X165225000Y-29251694D01*
X165387500Y-29250000D01*
X165475000Y-29162500D01*
X165475000Y-28400000D01*
X164962500Y-28400000D01*
X164875000Y-28487500D01*
X164873306Y-28900000D01*
X139344975Y-28900000D01*
X139494975Y-28750000D01*
X139549246Y-28750000D01*
X139645845Y-28730785D01*
X139736839Y-28693094D01*
X139818731Y-28638375D01*
X139888375Y-28568731D01*
X139943094Y-28486839D01*
X139980785Y-28395845D01*
X140000000Y-28299246D01*
X140000000Y-28200754D01*
X139980785Y-28104155D01*
X139943094Y-28013161D01*
X139888375Y-27931269D01*
X139818731Y-27861625D01*
X139736839Y-27806906D01*
X139645845Y-27769215D01*
X139549246Y-27750000D01*
X139450754Y-27750000D01*
X139354155Y-27769215D01*
X139263161Y-27806906D01*
X139181269Y-27861625D01*
X139111625Y-27931269D01*
X139056906Y-28013161D01*
X139019215Y-28104155D01*
X139000000Y-28200754D01*
X139000000Y-28255025D01*
X135350000Y-31905027D01*
X135350000Y-31594973D01*
X135469974Y-31475000D01*
X135524246Y-31475000D01*
X135620845Y-31455785D01*
X135711839Y-31418094D01*
X135793731Y-31363375D01*
X135863375Y-31293731D01*
X135918094Y-31211839D01*
X135955785Y-31120845D01*
X135975000Y-31024246D01*
X135975000Y-30925754D01*
X135955785Y-30829155D01*
X135918094Y-30738161D01*
X135863375Y-30656269D01*
X135793731Y-30586625D01*
X135711839Y-30531906D01*
X135620845Y-30494215D01*
X135524246Y-30475000D01*
X135425754Y-30475000D01*
X135329155Y-30494215D01*
X135238161Y-30531906D01*
X135156269Y-30586625D01*
X135086625Y-30656269D01*
X135031906Y-30738161D01*
X134994215Y-30829155D01*
X134975000Y-30925754D01*
X134975000Y-30980026D01*
X134764676Y-31190351D01*
X134751315Y-31201316D01*
X134707578Y-31254611D01*
X134675078Y-31315414D01*
X134658043Y-31371571D01*
X134655065Y-31381389D01*
X134648307Y-31450000D01*
X134650000Y-31467188D01*
X134650001Y-33270936D01*
X134645845Y-33269215D01*
X134549246Y-33250000D01*
X134494975Y-33250000D01*
X131180955Y-29935981D01*
X131850000Y-29935981D01*
X131850000Y-30064019D01*
X131874979Y-30189598D01*
X131923978Y-30307890D01*
X131995112Y-30414351D01*
X132085649Y-30504888D01*
X132192110Y-30576022D01*
X132310402Y-30625021D01*
X132435981Y-30650000D01*
X132564019Y-30650000D01*
X132689598Y-30625021D01*
X132807890Y-30576022D01*
X132914351Y-30504888D01*
X133004888Y-30414351D01*
X133076022Y-30307890D01*
X133076043Y-30307839D01*
X135557346Y-27826536D01*
X136985596Y-27826536D01*
X137070518Y-27983965D01*
X137272654Y-28068356D01*
X137487370Y-28111690D01*
X137706414Y-28112302D01*
X137921368Y-28070169D01*
X138123972Y-27986910D01*
X138129482Y-27983965D01*
X138214404Y-27826536D01*
X137600000Y-27212132D01*
X136985596Y-27826536D01*
X135557346Y-27826536D01*
X136488287Y-26895596D01*
X136487698Y-27106414D01*
X136529831Y-27321368D01*
X136613090Y-27523972D01*
X136616035Y-27529482D01*
X136773464Y-27614404D01*
X137387868Y-27000000D01*
X137812132Y-27000000D01*
X138426536Y-27614404D01*
X138583965Y-27529482D01*
X138668356Y-27327346D01*
X138711690Y-27112630D01*
X138712302Y-26893586D01*
X138670169Y-26678632D01*
X138586910Y-26476028D01*
X138583965Y-26470518D01*
X138426536Y-26385596D01*
X137812132Y-27000000D01*
X137387868Y-27000000D01*
X137373726Y-26985858D01*
X137585858Y-26773726D01*
X137600000Y-26787868D01*
X138214404Y-26173464D01*
X138129482Y-26016035D01*
X137927346Y-25931644D01*
X137712630Y-25888310D01*
X137496178Y-25887705D01*
X137633883Y-25750000D01*
X139866118Y-25750000D01*
X141398791Y-27282674D01*
X141398791Y-28350000D01*
X141403618Y-28399008D01*
X141417913Y-28446134D01*
X141441127Y-28489564D01*
X141472368Y-28527632D01*
X141510436Y-28558873D01*
X141553866Y-28582087D01*
X141600992Y-28596382D01*
X141650000Y-28601209D01*
X143350000Y-28601209D01*
X143399008Y-28596382D01*
X143446134Y-28582087D01*
X143489564Y-28558873D01*
X143527632Y-28527632D01*
X143558873Y-28489564D01*
X143582087Y-28446134D01*
X143596382Y-28399008D01*
X143601209Y-28350000D01*
X143601209Y-28125000D01*
X152060351Y-28125000D01*
X152060402Y-28125021D01*
X152185981Y-28150000D01*
X152314019Y-28150000D01*
X152439598Y-28125021D01*
X152557890Y-28076022D01*
X152664351Y-28004888D01*
X152754888Y-27914351D01*
X152813563Y-27826536D01*
X159485596Y-27826536D01*
X159570518Y-27983965D01*
X159772654Y-28068356D01*
X159987370Y-28111690D01*
X160206414Y-28112302D01*
X160421368Y-28070169D01*
X160623972Y-27986910D01*
X160629482Y-27983965D01*
X160714404Y-27826536D01*
X160100000Y-27212132D01*
X159485596Y-27826536D01*
X152813563Y-27826536D01*
X152826022Y-27807890D01*
X152875021Y-27689598D01*
X152900000Y-27564019D01*
X152900000Y-27435981D01*
X152875021Y-27310402D01*
X152826022Y-27192110D01*
X152768763Y-27106414D01*
X158987698Y-27106414D01*
X159029831Y-27321368D01*
X159113090Y-27523972D01*
X159116035Y-27529482D01*
X159273464Y-27614404D01*
X159887868Y-27000000D01*
X160312132Y-27000000D01*
X160926536Y-27614404D01*
X160953238Y-27600000D01*
X164873306Y-27600000D01*
X164875000Y-28012500D01*
X164962500Y-28100000D01*
X165475000Y-28100000D01*
X165475000Y-27337500D01*
X165775000Y-27337500D01*
X165775000Y-28100000D01*
X165795000Y-28100000D01*
X165795000Y-28400000D01*
X165775000Y-28400000D01*
X165775000Y-29162500D01*
X165862500Y-29250000D01*
X166025000Y-29251694D01*
X166093612Y-29244936D01*
X166159587Y-29224923D01*
X166220391Y-29192423D01*
X166273685Y-29148685D01*
X166317423Y-29095391D01*
X166349923Y-29034587D01*
X166369936Y-28968612D01*
X166375163Y-28915546D01*
X166413158Y-28961843D01*
X166512133Y-29043070D01*
X166625053Y-29103427D01*
X166747579Y-29140595D01*
X166875000Y-29153145D01*
X167002422Y-29140595D01*
X167124948Y-29103427D01*
X167237868Y-29043070D01*
X167336843Y-28961843D01*
X167418070Y-28862868D01*
X167478427Y-28749948D01*
X167500000Y-28678832D01*
X167521573Y-28749948D01*
X167581930Y-28862868D01*
X167663158Y-28961843D01*
X167762133Y-29043070D01*
X167875053Y-29103427D01*
X167997579Y-29140595D01*
X168125000Y-29153145D01*
X168252422Y-29140595D01*
X168374948Y-29103427D01*
X168487868Y-29043070D01*
X168586843Y-28961843D01*
X168668070Y-28862868D01*
X168728427Y-28749948D01*
X168750000Y-28678832D01*
X168771573Y-28749948D01*
X168831930Y-28862868D01*
X168913158Y-28961843D01*
X169012133Y-29043070D01*
X169125053Y-29103427D01*
X169247579Y-29140595D01*
X169375000Y-29153145D01*
X169502422Y-29140595D01*
X169624948Y-29103427D01*
X169737868Y-29043070D01*
X169836843Y-28961843D01*
X169918070Y-28862868D01*
X169978427Y-28749948D01*
X170015595Y-28627422D01*
X170025000Y-28531932D01*
X170025000Y-27968068D01*
X170015595Y-27872578D01*
X169978427Y-27750052D01*
X169918070Y-27637132D01*
X169836843Y-27538157D01*
X169737867Y-27456930D01*
X169624947Y-27396573D01*
X169502421Y-27359405D01*
X169375000Y-27346855D01*
X169247578Y-27359405D01*
X169125052Y-27396573D01*
X169012132Y-27456930D01*
X168913157Y-27538157D01*
X168831930Y-27637133D01*
X168771573Y-27750053D01*
X168750000Y-27821169D01*
X168728427Y-27750052D01*
X168668070Y-27637132D01*
X168586843Y-27538157D01*
X168487867Y-27456930D01*
X168374947Y-27396573D01*
X168252421Y-27359405D01*
X168125000Y-27346855D01*
X167997578Y-27359405D01*
X167875052Y-27396573D01*
X167762132Y-27456930D01*
X167663157Y-27538157D01*
X167581930Y-27637133D01*
X167521573Y-27750053D01*
X167500000Y-27821169D01*
X167478427Y-27750052D01*
X167418070Y-27637132D01*
X167336843Y-27538157D01*
X167237867Y-27456930D01*
X167124947Y-27396573D01*
X167002421Y-27359405D01*
X166875000Y-27346855D01*
X166747578Y-27359405D01*
X166625052Y-27396573D01*
X166512132Y-27456930D01*
X166413157Y-27538157D01*
X166375163Y-27584453D01*
X166369936Y-27531388D01*
X166349923Y-27465413D01*
X166317423Y-27404609D01*
X166273685Y-27351315D01*
X166220391Y-27307577D01*
X166159587Y-27275077D01*
X166093612Y-27255064D01*
X166025000Y-27248306D01*
X165862500Y-27250000D01*
X165775000Y-27337500D01*
X165475000Y-27337500D01*
X165387500Y-27250000D01*
X165225000Y-27248306D01*
X165156388Y-27255064D01*
X165090413Y-27275077D01*
X165029609Y-27307577D01*
X164976315Y-27351315D01*
X164932577Y-27404609D01*
X164900077Y-27465413D01*
X164880064Y-27531388D01*
X164873306Y-27600000D01*
X160953238Y-27600000D01*
X161083965Y-27529482D01*
X161168356Y-27327346D01*
X161211690Y-27112630D01*
X161212302Y-26893586D01*
X161170169Y-26678632D01*
X161086910Y-26476028D01*
X161083965Y-26470518D01*
X160926536Y-26385596D01*
X160312132Y-27000000D01*
X159887868Y-27000000D01*
X159273464Y-26385596D01*
X159116035Y-26470518D01*
X159031644Y-26672654D01*
X158988310Y-26887370D01*
X158987698Y-27106414D01*
X152768763Y-27106414D01*
X152754888Y-27085649D01*
X152664351Y-26995112D01*
X152557890Y-26923978D01*
X152540464Y-26916760D01*
X152525912Y-26904817D01*
X152417335Y-26846782D01*
X152299522Y-26811044D01*
X152177000Y-26798976D01*
X152054479Y-26811044D01*
X151936666Y-26846782D01*
X151883873Y-26875000D01*
X143601209Y-26875000D01*
X143601209Y-26650000D01*
X143596382Y-26600992D01*
X143582087Y-26553866D01*
X143558873Y-26510436D01*
X143527632Y-26472368D01*
X143489564Y-26441127D01*
X143446134Y-26417913D01*
X143399008Y-26403618D01*
X143350000Y-26398791D01*
X142282674Y-26398791D01*
X141483883Y-25600000D01*
X143245162Y-25600000D01*
X143264470Y-25796034D01*
X143321651Y-25984535D01*
X143414508Y-26158258D01*
X143539472Y-26310528D01*
X143691742Y-26435492D01*
X143865465Y-26528349D01*
X144053966Y-26585530D01*
X144200880Y-26600000D01*
X145799120Y-26600000D01*
X145946034Y-26585530D01*
X146134535Y-26528349D01*
X146308258Y-26435492D01*
X146460528Y-26310528D01*
X146573012Y-26173464D01*
X159485596Y-26173464D01*
X160100000Y-26787868D01*
X160714404Y-26173464D01*
X160629482Y-26016035D01*
X160427346Y-25931644D01*
X160212630Y-25888310D01*
X159993586Y-25887698D01*
X159778632Y-25929831D01*
X159576028Y-26013090D01*
X159570518Y-26016035D01*
X159485596Y-26173464D01*
X146573012Y-26173464D01*
X146585492Y-26158258D01*
X146678349Y-25984535D01*
X146735530Y-25796034D01*
X146754838Y-25600000D01*
X165745162Y-25600000D01*
X165764470Y-25796034D01*
X165821651Y-25984535D01*
X165914508Y-26158258D01*
X166039472Y-26310528D01*
X166191742Y-26435492D01*
X166365465Y-26528349D01*
X166553966Y-26585530D01*
X166700880Y-26600000D01*
X168299120Y-26600000D01*
X168446034Y-26585530D01*
X168634535Y-26528349D01*
X168808258Y-26435492D01*
X168960528Y-26310528D01*
X169085492Y-26158258D01*
X169178349Y-25984535D01*
X169235530Y-25796034D01*
X169254838Y-25600000D01*
X169235530Y-25403966D01*
X169178349Y-25215465D01*
X169085492Y-25041742D01*
X168960528Y-24889472D01*
X168808258Y-24764508D01*
X168634535Y-24671651D01*
X168446034Y-24614470D01*
X168299120Y-24600000D01*
X166700880Y-24600000D01*
X166553966Y-24614470D01*
X166365465Y-24671651D01*
X166191742Y-24764508D01*
X166039472Y-24889472D01*
X165914508Y-25041742D01*
X165821651Y-25215465D01*
X165764470Y-25403966D01*
X165745162Y-25600000D01*
X146754838Y-25600000D01*
X146735530Y-25403966D01*
X146678349Y-25215465D01*
X146585492Y-25041742D01*
X146460528Y-24889472D01*
X146308258Y-24764508D01*
X146134535Y-24671651D01*
X145946034Y-24614470D01*
X145799120Y-24600000D01*
X144200880Y-24600000D01*
X144053966Y-24614470D01*
X143865465Y-24671651D01*
X143691742Y-24764508D01*
X143539472Y-24889472D01*
X143414508Y-25041742D01*
X143321651Y-25215465D01*
X143264470Y-25403966D01*
X143245162Y-25600000D01*
X141483883Y-25600000D01*
X140588658Y-24704776D01*
X140569080Y-24680920D01*
X140473911Y-24602817D01*
X140365334Y-24544781D01*
X140247521Y-24509043D01*
X140155704Y-24500000D01*
X140155694Y-24500000D01*
X140125000Y-24496977D01*
X140094306Y-24500000D01*
X138245000Y-24500000D01*
X138245000Y-24405346D01*
X138321209Y-24354425D01*
X138474425Y-24201209D01*
X138474729Y-24200754D01*
X146750000Y-24200754D01*
X146750000Y-24299246D01*
X146769215Y-24395845D01*
X146806906Y-24486839D01*
X146861625Y-24568731D01*
X146931269Y-24638375D01*
X147013161Y-24693094D01*
X147104155Y-24730785D01*
X147200754Y-24750000D01*
X147299246Y-24750000D01*
X147395845Y-24730785D01*
X147486839Y-24693094D01*
X147568731Y-24638375D01*
X147607106Y-24600000D01*
X153392894Y-24600000D01*
X153431269Y-24638375D01*
X153513161Y-24693094D01*
X153604155Y-24730785D01*
X153700754Y-24750000D01*
X153799246Y-24750000D01*
X153895845Y-24730785D01*
X153986839Y-24693094D01*
X154068731Y-24638375D01*
X154138375Y-24568731D01*
X154193094Y-24486839D01*
X154230785Y-24395845D01*
X154250000Y-24299246D01*
X154250000Y-24200754D01*
X154230785Y-24104155D01*
X154193094Y-24013161D01*
X154138375Y-23931269D01*
X154068731Y-23861625D01*
X153986839Y-23806906D01*
X153895845Y-23769215D01*
X153799246Y-23750000D01*
X153700754Y-23750000D01*
X153604155Y-23769215D01*
X153513161Y-23806906D01*
X153431269Y-23861625D01*
X153392894Y-23900000D01*
X147607106Y-23900000D01*
X147568731Y-23861625D01*
X147486839Y-23806906D01*
X147395845Y-23769215D01*
X147299246Y-23750000D01*
X147200754Y-23750000D01*
X147104155Y-23769215D01*
X147013161Y-23806906D01*
X146931269Y-23861625D01*
X146861625Y-23931269D01*
X146806906Y-24013161D01*
X146769215Y-24104155D01*
X146750000Y-24200754D01*
X138474729Y-24200754D01*
X138594807Y-24021045D01*
X138677727Y-23820858D01*
X138720000Y-23608341D01*
X138720000Y-23391659D01*
X138677727Y-23179142D01*
X138594807Y-22978955D01*
X138474425Y-22798791D01*
X138321209Y-22645575D01*
X138141045Y-22525193D01*
X137940858Y-22442273D01*
X137728341Y-22400000D01*
X137511659Y-22400000D01*
X137299142Y-22442273D01*
X137098955Y-22525193D01*
X136918791Y-22645575D01*
X136765575Y-22798791D01*
X136645193Y-22978955D01*
X136562273Y-23179142D01*
X136520000Y-23391659D01*
X136520000Y-23608341D01*
X136562273Y-23820858D01*
X136645193Y-24021045D01*
X136765575Y-24201209D01*
X136918791Y-24354425D01*
X136995000Y-24405347D01*
X136995000Y-24621118D01*
X136954776Y-24661342D01*
X136930920Y-24680920D01*
X136911347Y-24704770D01*
X132192161Y-29423957D01*
X132192110Y-29423978D01*
X132085649Y-29495112D01*
X131995112Y-29585649D01*
X131923978Y-29692110D01*
X131874979Y-29810402D01*
X131850000Y-29935981D01*
X131180955Y-29935981D01*
X129759653Y-28514680D01*
X129748684Y-28501314D01*
X129695389Y-28457577D01*
X129634586Y-28425077D01*
X129568611Y-28405064D01*
X129517188Y-28399999D01*
X129517187Y-28399999D01*
X129499999Y-28398306D01*
X129482811Y-28399999D01*
X125433562Y-28399999D01*
X125499980Y-28356775D01*
X125668325Y-28192461D01*
X125801379Y-27998462D01*
X125894029Y-27782233D01*
X125902465Y-27754402D01*
X125852341Y-27570000D01*
X124900000Y-27570000D01*
X124900000Y-27590000D01*
X124600000Y-27590000D01*
X124600000Y-27570000D01*
X123647659Y-27570000D01*
X123597535Y-27754402D01*
X123605971Y-27782233D01*
X123698621Y-27998462D01*
X123831675Y-28192461D01*
X124000020Y-28356775D01*
X124066438Y-28399999D01*
X122989904Y-28399999D01*
X122980785Y-28354155D01*
X122943094Y-28263161D01*
X122888375Y-28181269D01*
X122818731Y-28111625D01*
X122736839Y-28056906D01*
X122645845Y-28019215D01*
X122549246Y-28000000D01*
X122450754Y-28000000D01*
X122354155Y-28019215D01*
X122263161Y-28056906D01*
X122181269Y-28111625D01*
X122111625Y-28181269D01*
X122056906Y-28263161D01*
X122019215Y-28354155D01*
X122000000Y-28450754D01*
X122000000Y-28549246D01*
X122019215Y-28645845D01*
X122056906Y-28736839D01*
X122111625Y-28818731D01*
X122181269Y-28888375D01*
X122263161Y-28943094D01*
X122354155Y-28980785D01*
X122450754Y-29000000D01*
X122502918Y-29000000D01*
X122554609Y-29042421D01*
X122615412Y-29074921D01*
X122681387Y-29094934D01*
X122749999Y-29101692D01*
X122767188Y-29099999D01*
X124057136Y-29099999D01*
X124048791Y-29105575D01*
X123895575Y-29258791D01*
X123775193Y-29438955D01*
X123692273Y-29639142D01*
X123650000Y-29851659D01*
X123650000Y-30068341D01*
X123692273Y-30280858D01*
X123775193Y-30481045D01*
X123895575Y-30661209D01*
X124048791Y-30814425D01*
X124228955Y-30934807D01*
X124429142Y-31017727D01*
X124641659Y-31060000D01*
X124858341Y-31060000D01*
X125070858Y-31017727D01*
X125271045Y-30934807D01*
X125451209Y-30814425D01*
X125604425Y-30661209D01*
X125724807Y-30481045D01*
X125807727Y-30280858D01*
X125850000Y-30068341D01*
X125850000Y-29851659D01*
X125807727Y-29639142D01*
X125724807Y-29438955D01*
X125604425Y-29258791D01*
X125451209Y-29105575D01*
X125442864Y-29099999D01*
X129355026Y-29099999D01*
X134000000Y-33744975D01*
X134000000Y-33750000D01*
X133994975Y-33750000D01*
X131809653Y-31564680D01*
X131798685Y-31551315D01*
X131745390Y-31507578D01*
X131684587Y-31475078D01*
X131618612Y-31455065D01*
X131567189Y-31450000D01*
X131567188Y-31450000D01*
X131550000Y-31448307D01*
X131532812Y-31450000D01*
X128250000Y-31450000D01*
X128250000Y-31000880D01*
X128235530Y-30853966D01*
X128178349Y-30665465D01*
X128085492Y-30491742D01*
X127960528Y-30339472D01*
X127808258Y-30214508D01*
X127634534Y-30121651D01*
X127446033Y-30064470D01*
X127250000Y-30045162D01*
X127053966Y-30064470D01*
X126865465Y-30121651D01*
X126691742Y-30214508D01*
X126539472Y-30339472D01*
X126414508Y-30491742D01*
X126321651Y-30665466D01*
X126264470Y-30853967D01*
X126250000Y-31000881D01*
X126250001Y-32599120D01*
X126264471Y-32746034D01*
X126321652Y-32934535D01*
X126414509Y-33108258D01*
X126539473Y-33260528D01*
X126691743Y-33385492D01*
X126865466Y-33478349D01*
X127053967Y-33535530D01*
X127250000Y-33554838D01*
X127446034Y-33535530D01*
X127634535Y-33478349D01*
X127808258Y-33385492D01*
X127960528Y-33260528D01*
X128085492Y-33108258D01*
X128178349Y-32934535D01*
X128235530Y-32746034D01*
X128250000Y-32599120D01*
X128250000Y-32150000D01*
X130354101Y-32150000D01*
X130304525Y-32224195D01*
X130266834Y-32315189D01*
X130247619Y-32411788D01*
X130247619Y-32510280D01*
X130266834Y-32606879D01*
X130304525Y-32697873D01*
X130359244Y-32779765D01*
X130397620Y-32818141D01*
X130397619Y-39730431D01*
X130395926Y-39747619D01*
X130397619Y-39764807D01*
X130402684Y-39816230D01*
X130422697Y-39882205D01*
X130455197Y-39943008D01*
X130498934Y-39996303D01*
X130512295Y-40007268D01*
X131250000Y-40744974D01*
X131250000Y-40799246D01*
X131269215Y-40895845D01*
X131306906Y-40986839D01*
X131361625Y-41068731D01*
X131431269Y-41138375D01*
X131448668Y-41150001D01*
X116558885Y-41150001D01*
X114838543Y-39429661D01*
X114838522Y-39429610D01*
X114767388Y-39323149D01*
X114676851Y-39232612D01*
X114570390Y-39161478D01*
X114452098Y-39112479D01*
X114389361Y-39100000D01*
X122605027Y-39100000D01*
X123250000Y-39744974D01*
X123250000Y-39799246D01*
X123269215Y-39895845D01*
X123306906Y-39986839D01*
X123361625Y-40068731D01*
X123431269Y-40138375D01*
X123513161Y-40193094D01*
X123604155Y-40230785D01*
X123700754Y-40250000D01*
X123799246Y-40250000D01*
X123895845Y-40230785D01*
X123986839Y-40193094D01*
X124068731Y-40138375D01*
X124138375Y-40068731D01*
X124193094Y-39986839D01*
X124230785Y-39895845D01*
X124250000Y-39799246D01*
X124250000Y-39750000D01*
X124299246Y-39750000D01*
X124395845Y-39730785D01*
X124486839Y-39693094D01*
X124568731Y-39638375D01*
X124638375Y-39568731D01*
X124693094Y-39486839D01*
X124730785Y-39395845D01*
X124750000Y-39299246D01*
X124750000Y-39250000D01*
X124799246Y-39250000D01*
X124895845Y-39230785D01*
X124986839Y-39193094D01*
X125068731Y-39138375D01*
X125138375Y-39068731D01*
X125193094Y-38986839D01*
X125230785Y-38895845D01*
X125250000Y-38799246D01*
X125250000Y-38750000D01*
X125299246Y-38750000D01*
X125395845Y-38730785D01*
X125486839Y-38693094D01*
X125568731Y-38638375D01*
X125638375Y-38568731D01*
X125693094Y-38486839D01*
X125730785Y-38395845D01*
X125750000Y-38299246D01*
X125750000Y-38250000D01*
X125799246Y-38250000D01*
X125895845Y-38230785D01*
X125986839Y-38193094D01*
X126068731Y-38138375D01*
X126138375Y-38068731D01*
X126193094Y-37986839D01*
X126230785Y-37895845D01*
X126250000Y-37799246D01*
X126250000Y-37700754D01*
X126230785Y-37604155D01*
X126193094Y-37513161D01*
X126138375Y-37431269D01*
X126068731Y-37361625D01*
X125986839Y-37306906D01*
X125895845Y-37269215D01*
X125799246Y-37250000D01*
X125744974Y-37250000D01*
X125009653Y-36514680D01*
X124998685Y-36501315D01*
X124945390Y-36457578D01*
X124884587Y-36425078D01*
X124818612Y-36405065D01*
X124767189Y-36400000D01*
X124767188Y-36400000D01*
X124750000Y-36398307D01*
X124732812Y-36400000D01*
X120644974Y-36400000D01*
X120500000Y-36255026D01*
X120500000Y-36200754D01*
X120480785Y-36104155D01*
X120443094Y-36013161D01*
X120388375Y-35931269D01*
X120318731Y-35861625D01*
X120236839Y-35806906D01*
X120145845Y-35769215D01*
X120049246Y-35750000D01*
X119950754Y-35750000D01*
X119854155Y-35769215D01*
X119763161Y-35806906D01*
X119681269Y-35861625D01*
X119611625Y-35931269D01*
X119556906Y-36013161D01*
X119519215Y-36104155D01*
X119500000Y-36200754D01*
X119500000Y-36241627D01*
X119445859Y-36219201D01*
X119349260Y-36199986D01*
X119250768Y-36199986D01*
X119154169Y-36219201D01*
X119063175Y-36256892D01*
X118981283Y-36311611D01*
X118911639Y-36381255D01*
X118856920Y-36463147D01*
X118819229Y-36554141D01*
X118800014Y-36650740D01*
X118800014Y-36749232D01*
X118819229Y-36845831D01*
X118856920Y-36936825D01*
X118911639Y-37018717D01*
X118981283Y-37088361D01*
X119063175Y-37143080D01*
X119154169Y-37180771D01*
X119250768Y-37199986D01*
X119305040Y-37199986D01*
X119505053Y-37400000D01*
X118064019Y-37400000D01*
X118189598Y-37375021D01*
X118307890Y-37326022D01*
X118414351Y-37254888D01*
X118504888Y-37164351D01*
X118576022Y-37057890D01*
X118625021Y-36939598D01*
X118650000Y-36814019D01*
X118650000Y-36685981D01*
X118625021Y-36560402D01*
X118576022Y-36442110D01*
X118504888Y-36335649D01*
X118500000Y-36330761D01*
X118500000Y-35274560D01*
X118502419Y-35250000D01*
X118492765Y-35151983D01*
X118475460Y-35094935D01*
X118464175Y-35057733D01*
X118417746Y-34970871D01*
X118355264Y-34894736D01*
X118336181Y-34879075D01*
X118175730Y-34718624D01*
X120697156Y-34718624D01*
X120752047Y-34886406D01*
X120866116Y-35071751D01*
X121014152Y-35231281D01*
X121190466Y-35358865D01*
X121388283Y-35449600D01*
X121600000Y-35500000D01*
X122350000Y-35500000D01*
X122350000Y-34550000D01*
X122650000Y-34550000D01*
X122650000Y-35500000D01*
X123400000Y-35500000D01*
X123611717Y-35449600D01*
X123809534Y-35358865D01*
X123985848Y-35231281D01*
X124133884Y-35071751D01*
X124247953Y-34886406D01*
X124302844Y-34718624D01*
X124251327Y-34550000D01*
X122650000Y-34550000D01*
X122350000Y-34550000D01*
X120748673Y-34550000D01*
X120697156Y-34718624D01*
X118175730Y-34718624D01*
X117907860Y-34450754D01*
X126750000Y-34450754D01*
X126750000Y-34549246D01*
X126769215Y-34645845D01*
X126806906Y-34736839D01*
X126861625Y-34818731D01*
X126931269Y-34888375D01*
X127013161Y-34943094D01*
X127104155Y-34980785D01*
X127180233Y-34995918D01*
X127556049Y-35371735D01*
X127556054Y-35371739D01*
X128004082Y-35819768D01*
X128019215Y-35895845D01*
X128056906Y-35986839D01*
X128111625Y-36068731D01*
X128181269Y-36138375D01*
X128263161Y-36193094D01*
X128354155Y-36230785D01*
X128450754Y-36250000D01*
X128549246Y-36250000D01*
X128645845Y-36230785D01*
X128736839Y-36193094D01*
X128818731Y-36138375D01*
X128888375Y-36068731D01*
X128943094Y-35986839D01*
X128980785Y-35895845D01*
X129000000Y-35799246D01*
X129000000Y-35700754D01*
X128980785Y-35604155D01*
X128943094Y-35513161D01*
X128888375Y-35431269D01*
X128818731Y-35361625D01*
X128736839Y-35306906D01*
X128645845Y-35269215D01*
X128569768Y-35254082D01*
X128121739Y-34806054D01*
X128121735Y-34806049D01*
X127745918Y-34430233D01*
X127730785Y-34354155D01*
X127693094Y-34263161D01*
X127638375Y-34181269D01*
X127568731Y-34111625D01*
X127486839Y-34056906D01*
X127395845Y-34019215D01*
X127299246Y-34000000D01*
X127200754Y-34000000D01*
X127104155Y-34019215D01*
X127013161Y-34056906D01*
X126931269Y-34111625D01*
X126861625Y-34181269D01*
X126806906Y-34263161D01*
X126769215Y-34354155D01*
X126750000Y-34450754D01*
X117907860Y-34450754D01*
X117538482Y-34081376D01*
X120697156Y-34081376D01*
X120748673Y-34250000D01*
X122350000Y-34250000D01*
X122350000Y-33300000D01*
X122650000Y-33300000D01*
X122650000Y-34250000D01*
X124251327Y-34250000D01*
X124302844Y-34081376D01*
X124247953Y-33913594D01*
X124133884Y-33728249D01*
X124015997Y-33601209D01*
X125600000Y-33601209D01*
X125649008Y-33596382D01*
X125696134Y-33582087D01*
X125739564Y-33558873D01*
X125777632Y-33527632D01*
X125808873Y-33489564D01*
X125832087Y-33446134D01*
X125846382Y-33399008D01*
X125851209Y-33350000D01*
X125851209Y-31650000D01*
X125846382Y-31600992D01*
X125832087Y-31553866D01*
X125808873Y-31510436D01*
X125777632Y-31472368D01*
X125739564Y-31441127D01*
X125696134Y-31417913D01*
X125649008Y-31403618D01*
X125600000Y-31398791D01*
X123900000Y-31398791D01*
X123850992Y-31403618D01*
X123803866Y-31417913D01*
X123760436Y-31441127D01*
X123722368Y-31472368D01*
X123691127Y-31510436D01*
X123667913Y-31553866D01*
X123653618Y-31600992D01*
X123648791Y-31650000D01*
X123648791Y-33350000D01*
X123650586Y-33368229D01*
X123611717Y-33350400D01*
X123400000Y-33300000D01*
X122650000Y-33300000D01*
X122350000Y-33300000D01*
X121600000Y-33300000D01*
X121388283Y-33350400D01*
X121190466Y-33441135D01*
X121014152Y-33568719D01*
X120866116Y-33728249D01*
X120752047Y-33913594D01*
X120697156Y-34081376D01*
X117538482Y-34081376D01*
X117400000Y-33942895D01*
X117400000Y-33935981D01*
X117375021Y-33810402D01*
X117326022Y-33692110D01*
X117254888Y-33585649D01*
X117164351Y-33495112D01*
X117057890Y-33423978D01*
X116939598Y-33374979D01*
X116814019Y-33350000D01*
X116685981Y-33350000D01*
X116560402Y-33374979D01*
X116442110Y-33423978D01*
X116335649Y-33495112D01*
X116245112Y-33585649D01*
X116173978Y-33692110D01*
X116124979Y-33810402D01*
X116100000Y-33935981D01*
X116100000Y-34064019D01*
X116124979Y-34189598D01*
X116173978Y-34307890D01*
X116245112Y-34414351D01*
X116335649Y-34504888D01*
X116442110Y-34576022D01*
X116560402Y-34625021D01*
X116685981Y-34650000D01*
X116692895Y-34650000D01*
X117500001Y-35457107D01*
X117500000Y-36330761D01*
X117495112Y-36335649D01*
X117423978Y-36442110D01*
X117374979Y-36560402D01*
X117350000Y-36685981D01*
X117350000Y-36814019D01*
X117374979Y-36939598D01*
X117423978Y-37057890D01*
X117495112Y-37164351D01*
X117585649Y-37254888D01*
X117692110Y-37326022D01*
X117810402Y-37375021D01*
X117935981Y-37400000D01*
X108607106Y-37400000D01*
X108568731Y-37361625D01*
X108486839Y-37306906D01*
X108395845Y-37269215D01*
X108299246Y-37250000D01*
X108200754Y-37250000D01*
X108104155Y-37269215D01*
X108013161Y-37306906D01*
X107931269Y-37361625D01*
X107861625Y-37431269D01*
X107806906Y-37513161D01*
X107769215Y-37604155D01*
X107750000Y-37700754D01*
X107750000Y-37755025D01*
X106009653Y-36014680D01*
X105998685Y-36001315D01*
X105945390Y-35957578D01*
X105884587Y-35925078D01*
X105818612Y-35905065D01*
X105767189Y-35900000D01*
X105767188Y-35900000D01*
X105750000Y-35898307D01*
X105732812Y-35900000D01*
X97857106Y-35900000D01*
X97818731Y-35861625D01*
X97736839Y-35806906D01*
X97645845Y-35769215D01*
X97549246Y-35750000D01*
X97450754Y-35750000D01*
X97354155Y-35769215D01*
X97263161Y-35806906D01*
X97181269Y-35861625D01*
X97111625Y-35931269D01*
X97056906Y-36013161D01*
X97019215Y-36104155D01*
X97000000Y-36200754D01*
X93062062Y-36200754D01*
X92602276Y-35676470D01*
X91962265Y-34718624D01*
X98197156Y-34718624D01*
X98252047Y-34886406D01*
X98366116Y-35071751D01*
X98514152Y-35231281D01*
X98690466Y-35358865D01*
X98888283Y-35449600D01*
X99100000Y-35500000D01*
X99850000Y-35500000D01*
X99850000Y-34550000D01*
X100150000Y-34550000D01*
X100150000Y-35500000D01*
X100900000Y-35500000D01*
X101111717Y-35449600D01*
X101309534Y-35358865D01*
X101485848Y-35231281D01*
X101633884Y-35071751D01*
X101747953Y-34886406D01*
X101802844Y-34718624D01*
X101751327Y-34550000D01*
X100150000Y-34550000D01*
X99850000Y-34550000D01*
X98248673Y-34550000D01*
X98197156Y-34718624D01*
X91962265Y-34718624D01*
X91924637Y-34662310D01*
X91638152Y-34081376D01*
X98197156Y-34081376D01*
X98248673Y-34250000D01*
X99850000Y-34250000D01*
X99850000Y-33300000D01*
X100150000Y-33300000D01*
X100150000Y-34250000D01*
X101751327Y-34250000D01*
X101802844Y-34081376D01*
X101747953Y-33913594D01*
X101633884Y-33728249D01*
X101485848Y-33568719D01*
X101309534Y-33441135D01*
X101111717Y-33350400D01*
X100900000Y-33300000D01*
X100150000Y-33300000D01*
X99850000Y-33300000D01*
X99100000Y-33300000D01*
X98888283Y-33350400D01*
X98690466Y-33441135D01*
X98514152Y-33568719D01*
X98366116Y-33728249D01*
X98252047Y-33913594D01*
X98197156Y-34081376D01*
X91638152Y-34081376D01*
X91385168Y-33568376D01*
X90993103Y-32413386D01*
X90881039Y-31850000D01*
X94150000Y-31850000D01*
X94150000Y-32600000D01*
X94200400Y-32811717D01*
X94291135Y-33009534D01*
X94418719Y-33185848D01*
X94578249Y-33333884D01*
X94763594Y-33447953D01*
X94931376Y-33502844D01*
X95100000Y-33451327D01*
X95100000Y-31850000D01*
X95400000Y-31850000D01*
X95400000Y-33451327D01*
X95568624Y-33502844D01*
X95736406Y-33447953D01*
X95921751Y-33333884D01*
X96081281Y-33185848D01*
X96208865Y-33009534D01*
X96299600Y-32811717D01*
X96350000Y-32600000D01*
X96350000Y-31850000D01*
X95400000Y-31850000D01*
X95100000Y-31850000D01*
X94150000Y-31850000D01*
X90881039Y-31850000D01*
X90755149Y-31217108D01*
X90727811Y-30800000D01*
X94150000Y-30800000D01*
X94150000Y-31550000D01*
X95100000Y-31550000D01*
X95100000Y-29948673D01*
X95400000Y-29948673D01*
X95400000Y-31550000D01*
X96350000Y-31550000D01*
X96350000Y-31000881D01*
X103750000Y-31000881D01*
X103750001Y-32599120D01*
X103764471Y-32746034D01*
X103821652Y-32934535D01*
X103914509Y-33108258D01*
X104039473Y-33260528D01*
X104191743Y-33385492D01*
X104365466Y-33478349D01*
X104553967Y-33535530D01*
X104750000Y-33554838D01*
X104946034Y-33535530D01*
X105134535Y-33478349D01*
X105308258Y-33385492D01*
X105460528Y-33260528D01*
X105585492Y-33108258D01*
X105678349Y-32934535D01*
X105735530Y-32746034D01*
X105750000Y-32599120D01*
X105750000Y-31850000D01*
X116650000Y-31850000D01*
X116650000Y-32600000D01*
X116700400Y-32811717D01*
X116791135Y-33009534D01*
X116918719Y-33185848D01*
X117078249Y-33333884D01*
X117263594Y-33447953D01*
X117431376Y-33502844D01*
X117600000Y-33451327D01*
X117600000Y-31850000D01*
X117900000Y-31850000D01*
X117900000Y-33451327D01*
X118068624Y-33502844D01*
X118236406Y-33447953D01*
X118421751Y-33333884D01*
X118581281Y-33185848D01*
X118708865Y-33009534D01*
X118799600Y-32811717D01*
X118850000Y-32600000D01*
X118850000Y-31850000D01*
X117900000Y-31850000D01*
X117600000Y-31850000D01*
X116650000Y-31850000D01*
X105750000Y-31850000D01*
X105750000Y-31000880D01*
X105735530Y-30853966D01*
X105678349Y-30665465D01*
X105585492Y-30491742D01*
X105460528Y-30339472D01*
X105308258Y-30214508D01*
X105282526Y-30200754D01*
X112000000Y-30200754D01*
X112000000Y-30299246D01*
X112019215Y-30395845D01*
X112056906Y-30486839D01*
X112111625Y-30568731D01*
X112181269Y-30638375D01*
X112263161Y-30693094D01*
X112354155Y-30730785D01*
X112450754Y-30750000D01*
X112549246Y-30750000D01*
X112645845Y-30730785D01*
X112736839Y-30693094D01*
X112818731Y-30638375D01*
X112888375Y-30568731D01*
X112943094Y-30486839D01*
X112980785Y-30395845D01*
X112999852Y-30299990D01*
X116856605Y-30299990D01*
X116791135Y-30390466D01*
X116700400Y-30588283D01*
X116650000Y-30800000D01*
X116650000Y-31550000D01*
X117600000Y-31550000D01*
X117600000Y-31530000D01*
X117900000Y-31530000D01*
X117900000Y-31550000D01*
X118850000Y-31550000D01*
X118850000Y-30800000D01*
X118799600Y-30588283D01*
X118708865Y-30390466D01*
X118643395Y-30299990D01*
X118942904Y-30299990D01*
X118981279Y-30338365D01*
X119063171Y-30393084D01*
X119154165Y-30430775D01*
X119250764Y-30449990D01*
X119349256Y-30449990D01*
X119445855Y-30430775D01*
X119536849Y-30393084D01*
X119618741Y-30338365D01*
X119688385Y-30268721D01*
X119743104Y-30186829D01*
X119780795Y-30095835D01*
X119800010Y-29999236D01*
X119800010Y-29900744D01*
X119780795Y-29804145D01*
X119743104Y-29713151D01*
X119688385Y-29631259D01*
X119618741Y-29561615D01*
X119536849Y-29506896D01*
X119445855Y-29469205D01*
X119349256Y-29449990D01*
X119250764Y-29449990D01*
X119154165Y-29469205D01*
X119063171Y-29506896D01*
X118981279Y-29561615D01*
X118942904Y-29599990D01*
X112817198Y-29599990D01*
X112800009Y-29598297D01*
X112731397Y-29605055D01*
X112711384Y-29611126D01*
X112665423Y-29625068D01*
X112604620Y-29657568D01*
X112551325Y-29701305D01*
X112540365Y-29714660D01*
X112505025Y-29750000D01*
X112450754Y-29750000D01*
X112354155Y-29769215D01*
X112263161Y-29806906D01*
X112181269Y-29861625D01*
X112111625Y-29931269D01*
X112056906Y-30013161D01*
X112019215Y-30104155D01*
X112000000Y-30200754D01*
X105282526Y-30200754D01*
X105134534Y-30121651D01*
X104946033Y-30064470D01*
X104750000Y-30045162D01*
X104553966Y-30064470D01*
X104365465Y-30121651D01*
X104191742Y-30214508D01*
X104039472Y-30339472D01*
X103914508Y-30491742D01*
X103821651Y-30665466D01*
X103764470Y-30853967D01*
X103750000Y-31000881D01*
X96350000Y-31000881D01*
X96350000Y-30800000D01*
X96299600Y-30588283D01*
X96208865Y-30390466D01*
X96081281Y-30214152D01*
X95921751Y-30066116D01*
X95736406Y-29952047D01*
X95568624Y-29897156D01*
X95400000Y-29948673D01*
X95100000Y-29948673D01*
X94931376Y-29897156D01*
X94763594Y-29952047D01*
X94578249Y-30066116D01*
X94418719Y-30214152D01*
X94291135Y-30390466D01*
X94200400Y-30588283D01*
X94150000Y-30800000D01*
X90727811Y-30800000D01*
X90675375Y-30000000D01*
X90747473Y-28900000D01*
X97498306Y-28900000D01*
X97505064Y-28968612D01*
X97525077Y-29034587D01*
X97557577Y-29095391D01*
X97601315Y-29148685D01*
X97654609Y-29192423D01*
X97715413Y-29224923D01*
X97781388Y-29244936D01*
X97850000Y-29251694D01*
X98012500Y-29250000D01*
X98100000Y-29162500D01*
X98100000Y-28400000D01*
X97587500Y-28400000D01*
X97500000Y-28487500D01*
X97498306Y-28900000D01*
X90747473Y-28900000D01*
X90755149Y-28782892D01*
X90945379Y-27826536D01*
X91985596Y-27826536D01*
X92070518Y-27983965D01*
X92272654Y-28068356D01*
X92487370Y-28111690D01*
X92706414Y-28112302D01*
X92921368Y-28070169D01*
X93123972Y-27986910D01*
X93129482Y-27983965D01*
X93214404Y-27826536D01*
X92600000Y-27212132D01*
X91985596Y-27826536D01*
X90945379Y-27826536D01*
X90993103Y-27586614D01*
X91156108Y-27106414D01*
X91487698Y-27106414D01*
X91529831Y-27321368D01*
X91613090Y-27523972D01*
X91616035Y-27529482D01*
X91773464Y-27614404D01*
X92387868Y-27000000D01*
X92812132Y-27000000D01*
X93426536Y-27614404D01*
X93453238Y-27600000D01*
X97498306Y-27600000D01*
X97500000Y-28012500D01*
X97587500Y-28100000D01*
X98100000Y-28100000D01*
X98100000Y-27337500D01*
X98400000Y-27337500D01*
X98400000Y-28100000D01*
X98420000Y-28100000D01*
X98420000Y-28400000D01*
X98400000Y-28400000D01*
X98400000Y-29162500D01*
X98487500Y-29250000D01*
X98650000Y-29251694D01*
X98718612Y-29244936D01*
X98784587Y-29224923D01*
X98845391Y-29192423D01*
X98898685Y-29148685D01*
X98942423Y-29095391D01*
X98974923Y-29034587D01*
X98994936Y-28968612D01*
X99000163Y-28915546D01*
X99038158Y-28961843D01*
X99137133Y-29043070D01*
X99250053Y-29103427D01*
X99372579Y-29140595D01*
X99500000Y-29153145D01*
X99627422Y-29140595D01*
X99749948Y-29103427D01*
X99862868Y-29043070D01*
X99961843Y-28961843D01*
X100043070Y-28862868D01*
X100103427Y-28749948D01*
X100125000Y-28678832D01*
X100146573Y-28749948D01*
X100206930Y-28862868D01*
X100288158Y-28961843D01*
X100387133Y-29043070D01*
X100500053Y-29103427D01*
X100622579Y-29140595D01*
X100750000Y-29153145D01*
X100877422Y-29140595D01*
X100999948Y-29103427D01*
X101112868Y-29043070D01*
X101211843Y-28961843D01*
X101293070Y-28862868D01*
X101353427Y-28749948D01*
X101375000Y-28678832D01*
X101396573Y-28749948D01*
X101456930Y-28862868D01*
X101538158Y-28961843D01*
X101637133Y-29043070D01*
X101750053Y-29103427D01*
X101872579Y-29140595D01*
X102000000Y-29153145D01*
X102127422Y-29140595D01*
X102249948Y-29103427D01*
X102362868Y-29043070D01*
X102461843Y-28961843D01*
X102543070Y-28862868D01*
X102603427Y-28749948D01*
X102640595Y-28627422D01*
X102650000Y-28531932D01*
X102650000Y-27968068D01*
X102640595Y-27872578D01*
X102626629Y-27826536D01*
X114485596Y-27826536D01*
X114570518Y-27983965D01*
X114772654Y-28068356D01*
X114987370Y-28111690D01*
X115206414Y-28112302D01*
X115421368Y-28070169D01*
X115623972Y-27986910D01*
X115629482Y-27983965D01*
X115714404Y-27826536D01*
X115100000Y-27212132D01*
X114485596Y-27826536D01*
X102626629Y-27826536D01*
X102603427Y-27750052D01*
X102543070Y-27637132D01*
X102461843Y-27538157D01*
X102362867Y-27456930D01*
X102249947Y-27396573D01*
X102127421Y-27359405D01*
X102000000Y-27346855D01*
X101872578Y-27359405D01*
X101750052Y-27396573D01*
X101637132Y-27456930D01*
X101538157Y-27538157D01*
X101456930Y-27637133D01*
X101396573Y-27750053D01*
X101375000Y-27821169D01*
X101353427Y-27750052D01*
X101293070Y-27637132D01*
X101211843Y-27538157D01*
X101112867Y-27456930D01*
X100999947Y-27396573D01*
X100877421Y-27359405D01*
X100750000Y-27346855D01*
X100622578Y-27359405D01*
X100500052Y-27396573D01*
X100387132Y-27456930D01*
X100288157Y-27538157D01*
X100206930Y-27637133D01*
X100146573Y-27750053D01*
X100125000Y-27821169D01*
X100103427Y-27750052D01*
X100043070Y-27637132D01*
X99961843Y-27538157D01*
X99862867Y-27456930D01*
X99749947Y-27396573D01*
X99627421Y-27359405D01*
X99500000Y-27346855D01*
X99372578Y-27359405D01*
X99250052Y-27396573D01*
X99137132Y-27456930D01*
X99038157Y-27538157D01*
X99000163Y-27584453D01*
X98994936Y-27531388D01*
X98974923Y-27465413D01*
X98942423Y-27404609D01*
X98898685Y-27351315D01*
X98845391Y-27307577D01*
X98784587Y-27275077D01*
X98718612Y-27255064D01*
X98650000Y-27248306D01*
X98487500Y-27250000D01*
X98400000Y-27337500D01*
X98100000Y-27337500D01*
X98012500Y-27250000D01*
X97850000Y-27248306D01*
X97781388Y-27255064D01*
X97715413Y-27275077D01*
X97654609Y-27307577D01*
X97601315Y-27351315D01*
X97557577Y-27404609D01*
X97525077Y-27465413D01*
X97505064Y-27531388D01*
X97498306Y-27600000D01*
X93453238Y-27600000D01*
X93583965Y-27529482D01*
X93668356Y-27327346D01*
X93711690Y-27112630D01*
X93711707Y-27106414D01*
X113987698Y-27106414D01*
X114029831Y-27321368D01*
X114113090Y-27523972D01*
X114116035Y-27529482D01*
X114273464Y-27614404D01*
X114887868Y-27000000D01*
X115312132Y-27000000D01*
X115926536Y-27614404D01*
X116083965Y-27529482D01*
X116168356Y-27327346D01*
X116211690Y-27112630D01*
X116211765Y-27085598D01*
X123597535Y-27085598D01*
X123647659Y-27270000D01*
X124600000Y-27270000D01*
X124600000Y-26316905D01*
X124900000Y-26316905D01*
X124900000Y-27270000D01*
X125852341Y-27270000D01*
X125902465Y-27085598D01*
X125894029Y-27057767D01*
X125801379Y-26841538D01*
X125668325Y-26647539D01*
X125499980Y-26483225D01*
X125302814Y-26354911D01*
X125084403Y-26267528D01*
X124900000Y-26316905D01*
X124600000Y-26316905D01*
X124415597Y-26267528D01*
X124197186Y-26354911D01*
X124000020Y-26483225D01*
X123831675Y-26647539D01*
X123698621Y-26841538D01*
X123605971Y-27057767D01*
X123597535Y-27085598D01*
X116211765Y-27085598D01*
X116212302Y-26893586D01*
X116170169Y-26678632D01*
X116086910Y-26476028D01*
X116083965Y-26470518D01*
X115926536Y-26385596D01*
X115312132Y-27000000D01*
X114887868Y-27000000D01*
X114273464Y-26385596D01*
X114116035Y-26470518D01*
X114031644Y-26672654D01*
X113988310Y-26887370D01*
X113987698Y-27106414D01*
X93711707Y-27106414D01*
X93712302Y-26893586D01*
X93670169Y-26678632D01*
X93586910Y-26476028D01*
X93583965Y-26470518D01*
X93426536Y-26385596D01*
X92812132Y-27000000D01*
X92387868Y-27000000D01*
X91773464Y-26385596D01*
X91616035Y-26470518D01*
X91531644Y-26672654D01*
X91488310Y-26887370D01*
X91487698Y-27106414D01*
X91156108Y-27106414D01*
X91385168Y-26431624D01*
X91512478Y-26173464D01*
X91985596Y-26173464D01*
X92600000Y-26787868D01*
X93214404Y-26173464D01*
X93129482Y-26016035D01*
X92927346Y-25931644D01*
X92712630Y-25888310D01*
X92493586Y-25887698D01*
X92278632Y-25929831D01*
X92076028Y-26013090D01*
X92070518Y-26016035D01*
X91985596Y-26173464D01*
X91512478Y-26173464D01*
X91795279Y-25600000D01*
X98245162Y-25600000D01*
X98264470Y-25796034D01*
X98321651Y-25984535D01*
X98414508Y-26158258D01*
X98539472Y-26310528D01*
X98691742Y-26435492D01*
X98865465Y-26528349D01*
X99053966Y-26585530D01*
X99200880Y-26600000D01*
X100799120Y-26600000D01*
X100946034Y-26585530D01*
X101134535Y-26528349D01*
X101308258Y-26435492D01*
X101460528Y-26310528D01*
X101585492Y-26158258D01*
X101678349Y-25984535D01*
X101688596Y-25950754D01*
X111250000Y-25950754D01*
X111250000Y-26049246D01*
X111269215Y-26145845D01*
X111306906Y-26236839D01*
X111361625Y-26318731D01*
X111431269Y-26388375D01*
X111513161Y-26443094D01*
X111604155Y-26480785D01*
X111700754Y-26500000D01*
X111799246Y-26500000D01*
X111895845Y-26480785D01*
X111986839Y-26443094D01*
X112068731Y-26388375D01*
X112138375Y-26318731D01*
X112193094Y-26236839D01*
X112230785Y-26145845D01*
X112239904Y-26100000D01*
X114525225Y-26100000D01*
X114485596Y-26173464D01*
X115100000Y-26787868D01*
X115714404Y-26173464D01*
X115674775Y-26100000D01*
X119642894Y-26100000D01*
X119681269Y-26138375D01*
X119763161Y-26193094D01*
X119854155Y-26230785D01*
X119950754Y-26250000D01*
X120049246Y-26250000D01*
X120145845Y-26230785D01*
X120236839Y-26193094D01*
X120318731Y-26138375D01*
X120388375Y-26068731D01*
X120443094Y-25986839D01*
X120480785Y-25895845D01*
X120500000Y-25799246D01*
X120500000Y-25700754D01*
X120480785Y-25604155D01*
X120479064Y-25600000D01*
X120745162Y-25600000D01*
X120764470Y-25796034D01*
X120821651Y-25984535D01*
X120914508Y-26158258D01*
X121039472Y-26310528D01*
X121191742Y-26435492D01*
X121365465Y-26528349D01*
X121553966Y-26585530D01*
X121700880Y-26600000D01*
X123299120Y-26600000D01*
X123446034Y-26585530D01*
X123634535Y-26528349D01*
X123808258Y-26435492D01*
X123960528Y-26310528D01*
X124085492Y-26158258D01*
X124178349Y-25984535D01*
X124235530Y-25796034D01*
X124254838Y-25600000D01*
X124235530Y-25403966D01*
X124178349Y-25215465D01*
X124085492Y-25041742D01*
X123960528Y-24889472D01*
X123808258Y-24764508D01*
X123634535Y-24671651D01*
X123446034Y-24614470D01*
X123299120Y-24600000D01*
X121700880Y-24600000D01*
X121553966Y-24614470D01*
X121365465Y-24671651D01*
X121191742Y-24764508D01*
X121039472Y-24889472D01*
X120914508Y-25041742D01*
X120821651Y-25215465D01*
X120764470Y-25403966D01*
X120745162Y-25600000D01*
X120479064Y-25600000D01*
X120443094Y-25513161D01*
X120388375Y-25431269D01*
X120318731Y-25361625D01*
X120236839Y-25306906D01*
X120145845Y-25269215D01*
X120049246Y-25250000D01*
X119950754Y-25250000D01*
X119854155Y-25269215D01*
X119763161Y-25306906D01*
X119681269Y-25361625D01*
X119642894Y-25400000D01*
X112017185Y-25400000D01*
X111999999Y-25398307D01*
X111982813Y-25400000D01*
X111982811Y-25400000D01*
X111931388Y-25405065D01*
X111865413Y-25425078D01*
X111804610Y-25457578D01*
X111752917Y-25500000D01*
X111700754Y-25500000D01*
X111604155Y-25519215D01*
X111513161Y-25556906D01*
X111431269Y-25611625D01*
X111361625Y-25681269D01*
X111306906Y-25763161D01*
X111269215Y-25854155D01*
X111250000Y-25950754D01*
X101688596Y-25950754D01*
X101735530Y-25796034D01*
X101754838Y-25600000D01*
X101735530Y-25403966D01*
X101678349Y-25215465D01*
X101585492Y-25041742D01*
X101460528Y-24889472D01*
X101308258Y-24764508D01*
X101134535Y-24671651D01*
X100946034Y-24614470D01*
X100799120Y-24600000D01*
X99200880Y-24600000D01*
X99053966Y-24614470D01*
X98865465Y-24671651D01*
X98691742Y-24764508D01*
X98539472Y-24889472D01*
X98414508Y-25041742D01*
X98321651Y-25215465D01*
X98264470Y-25403966D01*
X98245162Y-25600000D01*
X91795279Y-25600000D01*
X91924637Y-25337690D01*
X92584589Y-24350000D01*
X128798306Y-24350000D01*
X128805064Y-24418612D01*
X128825077Y-24484587D01*
X128857577Y-24545391D01*
X128901315Y-24598685D01*
X128954609Y-24642423D01*
X129015413Y-24674923D01*
X129081388Y-24694936D01*
X129150000Y-24701694D01*
X129762500Y-24700000D01*
X129850000Y-24612500D01*
X129850000Y-23650000D01*
X130150000Y-23650000D01*
X130150000Y-24612500D01*
X130237500Y-24700000D01*
X130850000Y-24701694D01*
X130918612Y-24694936D01*
X130984587Y-24674923D01*
X131045391Y-24642423D01*
X131098685Y-24598685D01*
X131142423Y-24545391D01*
X131174923Y-24484587D01*
X131194936Y-24418612D01*
X131201694Y-24350000D01*
X131200000Y-23737500D01*
X131112500Y-23650000D01*
X130150000Y-23650000D01*
X129850000Y-23650000D01*
X128887500Y-23650000D01*
X128800000Y-23737500D01*
X128798306Y-24350000D01*
X92584589Y-24350000D01*
X92602276Y-24323530D01*
X93406495Y-23406495D01*
X93423412Y-23391659D01*
X131440000Y-23391659D01*
X131440000Y-23608341D01*
X131482273Y-23820858D01*
X131565193Y-24021045D01*
X131685575Y-24201209D01*
X131838791Y-24354425D01*
X132018955Y-24474807D01*
X132219142Y-24557727D01*
X132431659Y-24600000D01*
X132648341Y-24600000D01*
X132860858Y-24557727D01*
X133061045Y-24474807D01*
X133241209Y-24354425D01*
X133394425Y-24201209D01*
X133514807Y-24021045D01*
X133597727Y-23820858D01*
X133640000Y-23608341D01*
X133640000Y-23391659D01*
X133980000Y-23391659D01*
X133980000Y-23608341D01*
X134022273Y-23820858D01*
X134105193Y-24021045D01*
X134225575Y-24201209D01*
X134378791Y-24354425D01*
X134558955Y-24474807D01*
X134759142Y-24557727D01*
X134971659Y-24600000D01*
X135188341Y-24600000D01*
X135400858Y-24557727D01*
X135601045Y-24474807D01*
X135781209Y-24354425D01*
X135934425Y-24201209D01*
X136054807Y-24021045D01*
X136137727Y-23820858D01*
X136180000Y-23608341D01*
X136180000Y-23391659D01*
X136137727Y-23179142D01*
X136054807Y-22978955D01*
X135934425Y-22798791D01*
X135781209Y-22645575D01*
X135601045Y-22525193D01*
X135400858Y-22442273D01*
X135188341Y-22400000D01*
X134971659Y-22400000D01*
X134759142Y-22442273D01*
X134558955Y-22525193D01*
X134378791Y-22645575D01*
X134225575Y-22798791D01*
X134105193Y-22978955D01*
X134022273Y-23179142D01*
X133980000Y-23391659D01*
X133640000Y-23391659D01*
X133597727Y-23179142D01*
X133514807Y-22978955D01*
X133394425Y-22798791D01*
X133241209Y-22645575D01*
X133061045Y-22525193D01*
X132860858Y-22442273D01*
X132648341Y-22400000D01*
X132431659Y-22400000D01*
X132219142Y-22442273D01*
X132018955Y-22525193D01*
X131838791Y-22645575D01*
X131685575Y-22798791D01*
X131565193Y-22978955D01*
X131482273Y-23179142D01*
X131440000Y-23391659D01*
X93423412Y-23391659D01*
X94269110Y-22650000D01*
X128798306Y-22650000D01*
X128800000Y-23262500D01*
X128887500Y-23350000D01*
X129850000Y-23350000D01*
X129850000Y-22387500D01*
X130150000Y-22387500D01*
X130150000Y-23350000D01*
X131112500Y-23350000D01*
X131200000Y-23262500D01*
X131201694Y-22650000D01*
X131194936Y-22581388D01*
X131174923Y-22515413D01*
X131142423Y-22454609D01*
X131098685Y-22401315D01*
X131045391Y-22357577D01*
X130984587Y-22325077D01*
X130918612Y-22305064D01*
X130850000Y-22298306D01*
X130237500Y-22300000D01*
X130150000Y-22387500D01*
X129850000Y-22387500D01*
X129762500Y-22300000D01*
X129150000Y-22298306D01*
X129081388Y-22305064D01*
X129015413Y-22325077D01*
X128954609Y-22357577D01*
X128901315Y-22401315D01*
X128857577Y-22454609D01*
X128825077Y-22515413D01*
X128805064Y-22581388D01*
X128798306Y-22650000D01*
X94269110Y-22650000D01*
X94323526Y-22602279D01*
X95337687Y-21924640D01*
X96431619Y-21385171D01*
X97586614Y-20993103D01*
X98782890Y-20755149D01*
X100005725Y-20675000D01*
X167494275Y-20675000D01*
X168717108Y-20755149D01*
G37*
%TD.AperFunction*%
D18*
X132711222Y-33456196D02*
X132645841Y-33443191D01*
X132547349Y-33443191D01*
X132450750Y-33462406D01*
X132359756Y-33500097D01*
X132277864Y-33554816D01*
X132208220Y-33624460D01*
X132153501Y-33706352D01*
X132115810Y-33797346D01*
X132096595Y-33893945D01*
X132096595Y-33948217D01*
X131097619Y-34947194D01*
X131097619Y-32818140D01*
X131135994Y-32779765D01*
X131190713Y-32697873D01*
X131228404Y-32606879D01*
X131247619Y-32510280D01*
X131247619Y-32411788D01*
X131228404Y-32315189D01*
X131190713Y-32224195D01*
X131141137Y-32150000D01*
X131405027Y-32150000D01*
X132711222Y-33456196D01*
%TA.AperFunction,Conductor*%
D22*
G36*
X132711222Y-33456196D02*
G01*
X132645841Y-33443191D01*
X132547349Y-33443191D01*
X132450750Y-33462406D01*
X132359756Y-33500097D01*
X132277864Y-33554816D01*
X132208220Y-33624460D01*
X132153501Y-33706352D01*
X132115810Y-33797346D01*
X132096595Y-33893945D01*
X132096595Y-33948217D01*
X131097619Y-34947194D01*
X131097619Y-32818140D01*
X131135994Y-32779765D01*
X131190713Y-32697873D01*
X131228404Y-32606879D01*
X131247619Y-32510280D01*
X131247619Y-32411788D01*
X131228404Y-32315189D01*
X131190713Y-32224195D01*
X131141137Y-32150000D01*
X131405027Y-32150000D01*
X132711222Y-33456196D01*
G37*
%TD.AperFunction*%
%TD*%
M02*
