%TF.GenerationSoftware,KiCad,Pcbnew,(5.1.9)-1*%
%TF.CreationDate,2021-02-22T13:59:34+01:00*%
%TF.ProjectId,input-board,696e7075-742d-4626-9f61-72642e6b6963,rev?*%
%TF.SameCoordinates,Original*%
%TF.FileFunction,Legend,Top*%
%TF.FilePolarity,Positive*%
%FSLAX46Y46*%
G04 Gerber Fmt 4.6, Leading zero omitted, Abs format (unit mm)*
G04 Created by KiCad (PCBNEW (5.1.9)-1) date 2021-02-22 13:59:34*
%MOMM*%
%LPD*%
G01*
G04 APERTURE LIST*
%ADD10C,0.150000*%
%ADD11C,0.200000*%
%ADD12C,0.120000*%
%TA.AperFunction,Profile*%
%ADD13C,0.150000*%
%TD*%
G04 APERTURE END LIST*
D10*
X160804761Y-37611904D02*
X160347619Y-37611904D01*
X160576190Y-37611904D02*
X160576190Y-36811904D01*
X160500000Y-36926190D01*
X160423809Y-37002380D01*
X160347619Y-37040476D01*
X161528571Y-36811904D02*
X161147619Y-36811904D01*
X161109523Y-37192857D01*
X161147619Y-37154761D01*
X161223809Y-37116666D01*
X161414285Y-37116666D01*
X161490476Y-37154761D01*
X161528571Y-37192857D01*
X161566666Y-37269047D01*
X161566666Y-37459523D01*
X161528571Y-37535714D01*
X161490476Y-37573809D01*
X161414285Y-37611904D01*
X161223809Y-37611904D01*
X161147619Y-37573809D01*
X161109523Y-37535714D01*
X161795238Y-36811904D02*
X162061904Y-37611904D01*
X162328571Y-36811904D01*
X163661904Y-37535714D02*
X163623809Y-37573809D01*
X163509523Y-37611904D01*
X163433333Y-37611904D01*
X163319047Y-37573809D01*
X163242857Y-37497619D01*
X163204761Y-37421428D01*
X163166666Y-37269047D01*
X163166666Y-37154761D01*
X163204761Y-37002380D01*
X163242857Y-36926190D01*
X163319047Y-36850000D01*
X163433333Y-36811904D01*
X163509523Y-36811904D01*
X163623809Y-36850000D01*
X163661904Y-36888095D01*
X163966666Y-37383333D02*
X164347619Y-37383333D01*
X163890476Y-37611904D02*
X164157142Y-36811904D01*
X164423809Y-37611904D01*
X164690476Y-37611904D02*
X164690476Y-36811904D01*
X165147619Y-37611904D01*
X165147619Y-36811904D01*
X165528571Y-37611904D02*
X165528571Y-36811904D01*
X165528571Y-37192857D02*
X165985714Y-37192857D01*
X165985714Y-37611904D02*
X165985714Y-36811904D01*
X167433333Y-37535714D02*
X167395238Y-37573809D01*
X167280952Y-37611904D01*
X167204761Y-37611904D01*
X167090476Y-37573809D01*
X167014285Y-37497619D01*
X166976190Y-37421428D01*
X166938095Y-37269047D01*
X166938095Y-37154761D01*
X166976190Y-37002380D01*
X167014285Y-36926190D01*
X167090476Y-36850000D01*
X167204761Y-36811904D01*
X167280952Y-36811904D01*
X167395238Y-36850000D01*
X167433333Y-36888095D01*
X167738095Y-37383333D02*
X168119047Y-37383333D01*
X167661904Y-37611904D02*
X167928571Y-36811904D01*
X168195238Y-37611904D01*
X168461904Y-37611904D02*
X168461904Y-36811904D01*
X168919047Y-37611904D01*
X168919047Y-36811904D01*
X169680952Y-37611904D02*
X169300000Y-37611904D01*
X169300000Y-36811904D01*
X170976190Y-36850000D02*
X170900000Y-36811904D01*
X170785714Y-36811904D01*
X170671428Y-36850000D01*
X170595238Y-36926190D01*
X170557142Y-37002380D01*
X170519047Y-37154761D01*
X170519047Y-37269047D01*
X170557142Y-37421428D01*
X170595238Y-37497619D01*
X170671428Y-37573809D01*
X170785714Y-37611904D01*
X170861904Y-37611904D01*
X170976190Y-37573809D01*
X171014285Y-37535714D01*
X171014285Y-37269047D01*
X170861904Y-37269047D01*
X171357142Y-37611904D02*
X171357142Y-36811904D01*
X171814285Y-37611904D01*
X171814285Y-36811904D01*
X172195238Y-37611904D02*
X172195238Y-36811904D01*
X172385714Y-36811904D01*
X172500000Y-36850000D01*
X172576190Y-36926190D01*
X172614285Y-37002380D01*
X172652380Y-37154761D01*
X172652380Y-37269047D01*
X172614285Y-37421428D01*
X172576190Y-37497619D01*
X172500000Y-37573809D01*
X172385714Y-37611904D01*
X172195238Y-37611904D01*
X110157142Y-44675000D02*
X110080952Y-44636904D01*
X109966666Y-44636904D01*
X109852380Y-44675000D01*
X109776190Y-44751190D01*
X109738095Y-44827380D01*
X109700000Y-44979761D01*
X109700000Y-45094047D01*
X109738095Y-45246428D01*
X109776190Y-45322619D01*
X109852380Y-45398809D01*
X109966666Y-45436904D01*
X110042857Y-45436904D01*
X110157142Y-45398809D01*
X110195238Y-45360714D01*
X110195238Y-45094047D01*
X110042857Y-45094047D01*
X110538095Y-45436904D02*
X110538095Y-44636904D01*
X110995238Y-45436904D01*
X110995238Y-44636904D01*
X111376190Y-45436904D02*
X111376190Y-44636904D01*
X111566666Y-44636904D01*
X111680952Y-44675000D01*
X111757142Y-44751190D01*
X111795238Y-44827380D01*
X111833333Y-44979761D01*
X111833333Y-45094047D01*
X111795238Y-45246428D01*
X111757142Y-45322619D01*
X111680952Y-45398809D01*
X111566666Y-45436904D01*
X111376190Y-45436904D01*
X112747619Y-45398809D02*
X112861904Y-45436904D01*
X113052380Y-45436904D01*
X113128571Y-45398809D01*
X113166666Y-45360714D01*
X113204761Y-45284523D01*
X113204761Y-45208333D01*
X113166666Y-45132142D01*
X113128571Y-45094047D01*
X113052380Y-45055952D01*
X112900000Y-45017857D01*
X112823809Y-44979761D01*
X112785714Y-44941666D01*
X112747619Y-44865476D01*
X112747619Y-44789285D01*
X112785714Y-44713095D01*
X112823809Y-44675000D01*
X112900000Y-44636904D01*
X113090476Y-44636904D01*
X113204761Y-44675000D01*
X113547619Y-45436904D02*
X113547619Y-44636904D01*
X113738095Y-44636904D01*
X113852380Y-44675000D01*
X113928571Y-44751190D01*
X113966666Y-44827380D01*
X114004761Y-44979761D01*
X114004761Y-45094047D01*
X113966666Y-45246428D01*
X113928571Y-45322619D01*
X113852380Y-45398809D01*
X113738095Y-45436904D01*
X113547619Y-45436904D01*
X114309523Y-45208333D02*
X114690476Y-45208333D01*
X114233333Y-45436904D02*
X114500000Y-44636904D01*
X114766666Y-45436904D01*
X111319047Y-45986904D02*
X111814285Y-45986904D01*
X111547619Y-46291666D01*
X111661904Y-46291666D01*
X111738095Y-46329761D01*
X111776190Y-46367857D01*
X111814285Y-46444047D01*
X111814285Y-46634523D01*
X111776190Y-46710714D01*
X111738095Y-46748809D01*
X111661904Y-46786904D01*
X111433333Y-46786904D01*
X111357142Y-46748809D01*
X111319047Y-46710714D01*
X112042857Y-45986904D02*
X112309523Y-46786904D01*
X112576190Y-45986904D01*
X112766666Y-45986904D02*
X113261904Y-45986904D01*
X112995238Y-46291666D01*
X113109523Y-46291666D01*
X113185714Y-46329761D01*
X113223809Y-46367857D01*
X113261904Y-46444047D01*
X113261904Y-46634523D01*
X113223809Y-46710714D01*
X113185714Y-46748809D01*
X113109523Y-46786904D01*
X112880952Y-46786904D01*
X112804761Y-46748809D01*
X112766666Y-46710714D01*
X114176190Y-46748809D02*
X114290476Y-46786904D01*
X114480952Y-46786904D01*
X114557142Y-46748809D01*
X114595238Y-46710714D01*
X114633333Y-46634523D01*
X114633333Y-46558333D01*
X114595238Y-46482142D01*
X114557142Y-46444047D01*
X114480952Y-46405952D01*
X114328571Y-46367857D01*
X114252380Y-46329761D01*
X114214285Y-46291666D01*
X114176190Y-46215476D01*
X114176190Y-46139285D01*
X114214285Y-46063095D01*
X114252380Y-46025000D01*
X114328571Y-45986904D01*
X114519047Y-45986904D01*
X114633333Y-46025000D01*
X115433333Y-46710714D02*
X115395238Y-46748809D01*
X115280952Y-46786904D01*
X115204761Y-46786904D01*
X115090476Y-46748809D01*
X115014285Y-46672619D01*
X114976190Y-46596428D01*
X114938095Y-46444047D01*
X114938095Y-46329761D01*
X114976190Y-46177380D01*
X115014285Y-46101190D01*
X115090476Y-46025000D01*
X115204761Y-45986904D01*
X115280952Y-45986904D01*
X115395238Y-46025000D01*
X115433333Y-46063095D01*
X116157142Y-46786904D02*
X115776190Y-46786904D01*
X115776190Y-45986904D01*
D11*
X129388095Y-20850000D02*
X129311904Y-20811904D01*
X129197619Y-20811904D01*
X129083333Y-20850000D01*
X129007142Y-20926190D01*
X128969047Y-21002380D01*
X128930952Y-21154761D01*
X128930952Y-21269047D01*
X128969047Y-21421428D01*
X129007142Y-21497619D01*
X129083333Y-21573809D01*
X129197619Y-21611904D01*
X129273809Y-21611904D01*
X129388095Y-21573809D01*
X129426190Y-21535714D01*
X129426190Y-21269047D01*
X129273809Y-21269047D01*
X129769047Y-21611904D02*
X129769047Y-20811904D01*
X130226190Y-21611904D01*
X130226190Y-20811904D01*
X130607142Y-21611904D02*
X130607142Y-20811904D01*
X130797619Y-20811904D01*
X130911904Y-20850000D01*
X130988095Y-20926190D01*
X131026190Y-21002380D01*
X131064285Y-21154761D01*
X131064285Y-21269047D01*
X131026190Y-21421428D01*
X130988095Y-21497619D01*
X130911904Y-21573809D01*
X130797619Y-21611904D01*
X130607142Y-21611904D01*
X132473809Y-21535714D02*
X132435714Y-21573809D01*
X132321428Y-21611904D01*
X132245238Y-21611904D01*
X132130952Y-21573809D01*
X132054761Y-21497619D01*
X132016666Y-21421428D01*
X131978571Y-21269047D01*
X131978571Y-21154761D01*
X132016666Y-21002380D01*
X132054761Y-20926190D01*
X132130952Y-20850000D01*
X132245238Y-20811904D01*
X132321428Y-20811904D01*
X132435714Y-20850000D01*
X132473809Y-20888095D01*
X133197619Y-21611904D02*
X132816666Y-21611904D01*
X132816666Y-20811904D01*
X133464285Y-21611904D02*
X133464285Y-20811904D01*
X133921428Y-21611904D02*
X133578571Y-21154761D01*
X133921428Y-20811904D02*
X133464285Y-21269047D01*
X134873809Y-21611904D02*
X134873809Y-20811904D01*
X135407142Y-20811904D02*
X135559523Y-20811904D01*
X135635714Y-20850000D01*
X135711904Y-20926190D01*
X135750000Y-21078571D01*
X135750000Y-21345238D01*
X135711904Y-21497619D01*
X135635714Y-21573809D01*
X135559523Y-21611904D01*
X135407142Y-21611904D01*
X135330952Y-21573809D01*
X135254761Y-21497619D01*
X135216666Y-21345238D01*
X135216666Y-21078571D01*
X135254761Y-20926190D01*
X135330952Y-20850000D01*
X135407142Y-20811904D01*
X136626190Y-20811904D02*
X137121428Y-20811904D01*
X136854761Y-21116666D01*
X136969047Y-21116666D01*
X137045238Y-21154761D01*
X137083333Y-21192857D01*
X137121428Y-21269047D01*
X137121428Y-21459523D01*
X137083333Y-21535714D01*
X137045238Y-21573809D01*
X136969047Y-21611904D01*
X136740476Y-21611904D01*
X136664285Y-21573809D01*
X136626190Y-21535714D01*
X137350000Y-20811904D02*
X137616666Y-21611904D01*
X137883333Y-20811904D01*
X138073809Y-20811904D02*
X138569047Y-20811904D01*
X138302380Y-21116666D01*
X138416666Y-21116666D01*
X138492857Y-21154761D01*
X138530952Y-21192857D01*
X138569047Y-21269047D01*
X138569047Y-21459523D01*
X138530952Y-21535714D01*
X138492857Y-21573809D01*
X138416666Y-21611904D01*
X138188095Y-21611904D01*
X138111904Y-21573809D01*
X138073809Y-21535714D01*
D10*
X95383333Y-36350000D02*
X95307142Y-36311904D01*
X95192857Y-36311904D01*
X95078571Y-36350000D01*
X95002380Y-36426190D01*
X94964285Y-36502380D01*
X94926190Y-36654761D01*
X94926190Y-36769047D01*
X94964285Y-36921428D01*
X95002380Y-36997619D01*
X95078571Y-37073809D01*
X95192857Y-37111904D01*
X95269047Y-37111904D01*
X95383333Y-37073809D01*
X95421428Y-37035714D01*
X95421428Y-36769047D01*
X95269047Y-36769047D01*
X95764285Y-37111904D02*
X95764285Y-36311904D01*
X96221428Y-37111904D01*
X96221428Y-36311904D01*
X96602380Y-37111904D02*
X96602380Y-36311904D01*
X96792857Y-36311904D01*
X96907142Y-36350000D01*
X96983333Y-36426190D01*
X97021428Y-36502380D01*
X97059523Y-36654761D01*
X97059523Y-36769047D01*
X97021428Y-36921428D01*
X96983333Y-36997619D01*
X96907142Y-37073809D01*
X96792857Y-37111904D01*
X96602380Y-37111904D01*
X98278571Y-36692857D02*
X98392857Y-36730952D01*
X98430952Y-36769047D01*
X98469047Y-36845238D01*
X98469047Y-36959523D01*
X98430952Y-37035714D01*
X98392857Y-37073809D01*
X98316666Y-37111904D01*
X98011904Y-37111904D01*
X98011904Y-36311904D01*
X98278571Y-36311904D01*
X98354761Y-36350000D01*
X98392857Y-36388095D01*
X98430952Y-36464285D01*
X98430952Y-36540476D01*
X98392857Y-36616666D01*
X98354761Y-36654761D01*
X98278571Y-36692857D01*
X98011904Y-36692857D01*
X98735714Y-36311904D02*
X99230952Y-36311904D01*
X98964285Y-36616666D01*
X99078571Y-36616666D01*
X99154761Y-36654761D01*
X99192857Y-36692857D01*
X99230952Y-36769047D01*
X99230952Y-36959523D01*
X99192857Y-37035714D01*
X99154761Y-37073809D01*
X99078571Y-37111904D01*
X98850000Y-37111904D01*
X98773809Y-37073809D01*
X98735714Y-37035714D01*
X100450000Y-36692857D02*
X100564285Y-36730952D01*
X100602380Y-36769047D01*
X100640476Y-36845238D01*
X100640476Y-36959523D01*
X100602380Y-37035714D01*
X100564285Y-37073809D01*
X100488095Y-37111904D01*
X100183333Y-37111904D01*
X100183333Y-36311904D01*
X100450000Y-36311904D01*
X100526190Y-36350000D01*
X100564285Y-36388095D01*
X100602380Y-36464285D01*
X100602380Y-36540476D01*
X100564285Y-36616666D01*
X100526190Y-36654761D01*
X100450000Y-36692857D01*
X100183333Y-36692857D01*
X100945238Y-36388095D02*
X100983333Y-36350000D01*
X101059523Y-36311904D01*
X101250000Y-36311904D01*
X101326190Y-36350000D01*
X101364285Y-36388095D01*
X101402380Y-36464285D01*
X101402380Y-36540476D01*
X101364285Y-36654761D01*
X100907142Y-37111904D01*
X101402380Y-37111904D01*
X102621428Y-36692857D02*
X102735714Y-36730952D01*
X102773809Y-36769047D01*
X102811904Y-36845238D01*
X102811904Y-36959523D01*
X102773809Y-37035714D01*
X102735714Y-37073809D01*
X102659523Y-37111904D01*
X102354761Y-37111904D01*
X102354761Y-36311904D01*
X102621428Y-36311904D01*
X102697619Y-36350000D01*
X102735714Y-36388095D01*
X102773809Y-36464285D01*
X102773809Y-36540476D01*
X102735714Y-36616666D01*
X102697619Y-36654761D01*
X102621428Y-36692857D01*
X102354761Y-36692857D01*
X103573809Y-37111904D02*
X103116666Y-37111904D01*
X103345238Y-37111904D02*
X103345238Y-36311904D01*
X103269047Y-36426190D01*
X103192857Y-36502380D01*
X103116666Y-36540476D01*
X163633333Y-35600000D02*
X163557142Y-35561904D01*
X163442857Y-35561904D01*
X163328571Y-35600000D01*
X163252380Y-35676190D01*
X163214285Y-35752380D01*
X163176190Y-35904761D01*
X163176190Y-36019047D01*
X163214285Y-36171428D01*
X163252380Y-36247619D01*
X163328571Y-36323809D01*
X163442857Y-36361904D01*
X163519047Y-36361904D01*
X163633333Y-36323809D01*
X163671428Y-36285714D01*
X163671428Y-36019047D01*
X163519047Y-36019047D01*
X164014285Y-36361904D02*
X164014285Y-35561904D01*
X164471428Y-36361904D01*
X164471428Y-35561904D01*
X164852380Y-36361904D02*
X164852380Y-35561904D01*
X165042857Y-35561904D01*
X165157142Y-35600000D01*
X165233333Y-35676190D01*
X165271428Y-35752380D01*
X165309523Y-35904761D01*
X165309523Y-36019047D01*
X165271428Y-36171428D01*
X165233333Y-36247619D01*
X165157142Y-36323809D01*
X165042857Y-36361904D01*
X164852380Y-36361904D01*
X166528571Y-35942857D02*
X166642857Y-35980952D01*
X166680952Y-36019047D01*
X166719047Y-36095238D01*
X166719047Y-36209523D01*
X166680952Y-36285714D01*
X166642857Y-36323809D01*
X166566666Y-36361904D01*
X166261904Y-36361904D01*
X166261904Y-35561904D01*
X166528571Y-35561904D01*
X166604761Y-35600000D01*
X166642857Y-35638095D01*
X166680952Y-35714285D01*
X166680952Y-35790476D01*
X166642857Y-35866666D01*
X166604761Y-35904761D01*
X166528571Y-35942857D01*
X166261904Y-35942857D01*
X167404761Y-35561904D02*
X167252380Y-35561904D01*
X167176190Y-35600000D01*
X167138095Y-35638095D01*
X167061904Y-35752380D01*
X167023809Y-35904761D01*
X167023809Y-36209523D01*
X167061904Y-36285714D01*
X167100000Y-36323809D01*
X167176190Y-36361904D01*
X167328571Y-36361904D01*
X167404761Y-36323809D01*
X167442857Y-36285714D01*
X167480952Y-36209523D01*
X167480952Y-36019047D01*
X167442857Y-35942857D01*
X167404761Y-35904761D01*
X167328571Y-35866666D01*
X167176190Y-35866666D01*
X167100000Y-35904761D01*
X167061904Y-35942857D01*
X167023809Y-36019047D01*
X168700000Y-35942857D02*
X168814285Y-35980952D01*
X168852380Y-36019047D01*
X168890476Y-36095238D01*
X168890476Y-36209523D01*
X168852380Y-36285714D01*
X168814285Y-36323809D01*
X168738095Y-36361904D01*
X168433333Y-36361904D01*
X168433333Y-35561904D01*
X168700000Y-35561904D01*
X168776190Y-35600000D01*
X168814285Y-35638095D01*
X168852380Y-35714285D01*
X168852380Y-35790476D01*
X168814285Y-35866666D01*
X168776190Y-35904761D01*
X168700000Y-35942857D01*
X168433333Y-35942857D01*
X169614285Y-35561904D02*
X169233333Y-35561904D01*
X169195238Y-35942857D01*
X169233333Y-35904761D01*
X169309523Y-35866666D01*
X169500000Y-35866666D01*
X169576190Y-35904761D01*
X169614285Y-35942857D01*
X169652380Y-36019047D01*
X169652380Y-36209523D01*
X169614285Y-36285714D01*
X169576190Y-36323809D01*
X169500000Y-36361904D01*
X169309523Y-36361904D01*
X169233333Y-36323809D01*
X169195238Y-36285714D01*
X170871428Y-35942857D02*
X170985714Y-35980952D01*
X171023809Y-36019047D01*
X171061904Y-36095238D01*
X171061904Y-36209523D01*
X171023809Y-36285714D01*
X170985714Y-36323809D01*
X170909523Y-36361904D01*
X170604761Y-36361904D01*
X170604761Y-35561904D01*
X170871428Y-35561904D01*
X170947619Y-35600000D01*
X170985714Y-35638095D01*
X171023809Y-35714285D01*
X171023809Y-35790476D01*
X170985714Y-35866666D01*
X170947619Y-35904761D01*
X170871428Y-35942857D01*
X170604761Y-35942857D01*
X171747619Y-35828571D02*
X171747619Y-36361904D01*
X171557142Y-35523809D02*
X171366666Y-36095238D01*
X171861904Y-36095238D01*
D11*
X144009523Y-20911904D02*
X144504761Y-20911904D01*
X144238095Y-21216666D01*
X144352380Y-21216666D01*
X144428571Y-21254761D01*
X144466666Y-21292857D01*
X144504761Y-21369047D01*
X144504761Y-21559523D01*
X144466666Y-21635714D01*
X144428571Y-21673809D01*
X144352380Y-21711904D01*
X144123809Y-21711904D01*
X144047619Y-21673809D01*
X144009523Y-21635714D01*
X144733333Y-20911904D02*
X145000000Y-21711904D01*
X145266666Y-20911904D01*
X145457142Y-20911904D02*
X145952380Y-20911904D01*
X145685714Y-21216666D01*
X145800000Y-21216666D01*
X145876190Y-21254761D01*
X145914285Y-21292857D01*
X145952380Y-21369047D01*
X145952380Y-21559523D01*
X145914285Y-21635714D01*
X145876190Y-21673809D01*
X145800000Y-21711904D01*
X145571428Y-21711904D01*
X145495238Y-21673809D01*
X145457142Y-21635714D01*
X143457142Y-22692857D02*
X143571428Y-22730952D01*
X143609523Y-22769047D01*
X143647619Y-22845238D01*
X143647619Y-22959523D01*
X143609523Y-23035714D01*
X143571428Y-23073809D01*
X143495238Y-23111904D01*
X143190476Y-23111904D01*
X143190476Y-22311904D01*
X143457142Y-22311904D01*
X143533333Y-22350000D01*
X143571428Y-22388095D01*
X143609523Y-22464285D01*
X143609523Y-22540476D01*
X143571428Y-22616666D01*
X143533333Y-22654761D01*
X143457142Y-22692857D01*
X143190476Y-22692857D01*
X144447619Y-23111904D02*
X144180952Y-22730952D01*
X143990476Y-23111904D02*
X143990476Y-22311904D01*
X144295238Y-22311904D01*
X144371428Y-22350000D01*
X144409523Y-22388095D01*
X144447619Y-22464285D01*
X144447619Y-22578571D01*
X144409523Y-22654761D01*
X144371428Y-22692857D01*
X144295238Y-22730952D01*
X143990476Y-22730952D01*
X144790476Y-22692857D02*
X145057142Y-22692857D01*
X145171428Y-23111904D02*
X144790476Y-23111904D01*
X144790476Y-22311904D01*
X145171428Y-22311904D01*
X145514285Y-23111904D02*
X145514285Y-22311904D01*
X145780952Y-22883333D01*
X146047619Y-22311904D01*
X146047619Y-23111904D01*
X146390476Y-23073809D02*
X146504761Y-23111904D01*
X146695238Y-23111904D01*
X146771428Y-23073809D01*
X146809523Y-23035714D01*
X146847619Y-22959523D01*
X146847619Y-22883333D01*
X146809523Y-22807142D01*
X146771428Y-22769047D01*
X146695238Y-22730952D01*
X146542857Y-22692857D01*
X146466666Y-22654761D01*
X146428571Y-22616666D01*
X146390476Y-22540476D01*
X146390476Y-22464285D01*
X146428571Y-22388095D01*
X146466666Y-22350000D01*
X146542857Y-22311904D01*
X146733333Y-22311904D01*
X146847619Y-22350000D01*
X144390476Y-23750000D02*
X144314285Y-23711904D01*
X144200000Y-23711904D01*
X144085714Y-23750000D01*
X144009523Y-23826190D01*
X143971428Y-23902380D01*
X143933333Y-24054761D01*
X143933333Y-24169047D01*
X143971428Y-24321428D01*
X144009523Y-24397619D01*
X144085714Y-24473809D01*
X144200000Y-24511904D01*
X144276190Y-24511904D01*
X144390476Y-24473809D01*
X144428571Y-24435714D01*
X144428571Y-24169047D01*
X144276190Y-24169047D01*
X144771428Y-24511904D02*
X144771428Y-23711904D01*
X145228571Y-24511904D01*
X145228571Y-23711904D01*
X145609523Y-24511904D02*
X145609523Y-23711904D01*
X145800000Y-23711904D01*
X145914285Y-23750000D01*
X145990476Y-23826190D01*
X146028571Y-23902380D01*
X146066666Y-24054761D01*
X146066666Y-24169047D01*
X146028571Y-24321428D01*
X145990476Y-24397619D01*
X145914285Y-24473809D01*
X145800000Y-24511904D01*
X145609523Y-24511904D01*
X122140476Y-20950000D02*
X122064285Y-20911904D01*
X121950000Y-20911904D01*
X121835714Y-20950000D01*
X121759523Y-21026190D01*
X121721428Y-21102380D01*
X121683333Y-21254761D01*
X121683333Y-21369047D01*
X121721428Y-21521428D01*
X121759523Y-21597619D01*
X121835714Y-21673809D01*
X121950000Y-21711904D01*
X122026190Y-21711904D01*
X122140476Y-21673809D01*
X122178571Y-21635714D01*
X122178571Y-21369047D01*
X122026190Y-21369047D01*
X122521428Y-21711904D02*
X122521428Y-20911904D01*
X122978571Y-21711904D01*
X122978571Y-20911904D01*
X123359523Y-21711904D02*
X123359523Y-20911904D01*
X123550000Y-20911904D01*
X123664285Y-20950000D01*
X123740476Y-21026190D01*
X123778571Y-21102380D01*
X123816666Y-21254761D01*
X123816666Y-21369047D01*
X123778571Y-21521428D01*
X123740476Y-21597619D01*
X123664285Y-21673809D01*
X123550000Y-21711904D01*
X123359523Y-21711904D01*
X122235714Y-22350000D02*
X122159523Y-22311904D01*
X122045238Y-22311904D01*
X121930952Y-22350000D01*
X121854761Y-22426190D01*
X121816666Y-22502380D01*
X121778571Y-22654761D01*
X121778571Y-22769047D01*
X121816666Y-22921428D01*
X121854761Y-22997619D01*
X121930952Y-23073809D01*
X122045238Y-23111904D01*
X122121428Y-23111904D01*
X122235714Y-23073809D01*
X122273809Y-23035714D01*
X122273809Y-22769047D01*
X122121428Y-22769047D01*
X122578571Y-22883333D02*
X122959523Y-22883333D01*
X122502380Y-23111904D02*
X122769047Y-22311904D01*
X123035714Y-23111904D01*
X123264285Y-23073809D02*
X123378571Y-23111904D01*
X123569047Y-23111904D01*
X123645238Y-23073809D01*
X123683333Y-23035714D01*
X123721428Y-22959523D01*
X123721428Y-22883333D01*
X123683333Y-22807142D01*
X123645238Y-22769047D01*
X123569047Y-22730952D01*
X123416666Y-22692857D01*
X123340476Y-22654761D01*
X123302380Y-22616666D01*
X123264285Y-22540476D01*
X123264285Y-22464285D01*
X123302380Y-22388095D01*
X123340476Y-22350000D01*
X123416666Y-22311904D01*
X123607142Y-22311904D01*
X123721428Y-22350000D01*
X121759523Y-23711904D02*
X122254761Y-23711904D01*
X121988095Y-24016666D01*
X122102380Y-24016666D01*
X122178571Y-24054761D01*
X122216666Y-24092857D01*
X122254761Y-24169047D01*
X122254761Y-24359523D01*
X122216666Y-24435714D01*
X122178571Y-24473809D01*
X122102380Y-24511904D01*
X121873809Y-24511904D01*
X121797619Y-24473809D01*
X121759523Y-24435714D01*
X122483333Y-23711904D02*
X122750000Y-24511904D01*
X123016666Y-23711904D01*
X123207142Y-23711904D02*
X123702380Y-23711904D01*
X123435714Y-24016666D01*
X123550000Y-24016666D01*
X123626190Y-24054761D01*
X123664285Y-24092857D01*
X123702380Y-24169047D01*
X123702380Y-24359523D01*
X123664285Y-24435714D01*
X123626190Y-24473809D01*
X123550000Y-24511904D01*
X123321428Y-24511904D01*
X123245238Y-24473809D01*
X123207142Y-24435714D01*
D12*
X135700000Y-30100000D02*
X135500000Y-29400000D01*
X128100000Y-43300000D02*
X128400000Y-43800000D01*
X128300000Y-46700000D02*
X129000000Y-46700000D01*
D13*
X109000000Y-40500000D02*
G75*
G03*
X108000000Y-39500000I-1000000J0D01*
G01*
X159500000Y-39500000D02*
G75*
G03*
X158500000Y-40500000I0J-1000000D01*
G01*
X156500000Y-48250000D02*
G75*
G03*
X158500000Y-46250000I0J2000000D01*
G01*
X109000000Y-46250000D02*
G75*
G03*
X111000000Y-48250000I2000000J0D01*
G01*
X159500000Y-39500000D02*
X167500000Y-39500000D01*
X108000000Y-39500000D02*
X100000000Y-39500000D01*
X158500000Y-46250000D02*
X158500000Y-40500000D01*
X111000000Y-48250000D02*
X156500000Y-48250000D01*
X109000000Y-40500000D02*
X109000000Y-46250000D01*
X100000000Y-20500000D02*
G75*
G03*
X100000000Y-39500000I0J-9500000D01*
G01*
X167500000Y-39500000D02*
G75*
G03*
X167500000Y-20500000I0J9500000D01*
G01*
X100000000Y-20500000D02*
X167500000Y-20500000D01*
D12*
%TO.C,J6*%
X123310000Y-33830000D02*
X123310000Y-26090000D01*
X123310000Y-26090000D02*
X120650000Y-26090000D01*
X120650000Y-26090000D02*
X120650000Y-33830000D01*
X120650000Y-33830000D02*
X123310000Y-33830000D01*
X123640000Y-32880000D02*
X123310000Y-32880000D01*
X123640000Y-32120000D02*
X123310000Y-32120000D01*
X123310000Y-31230000D02*
X120650000Y-31230000D01*
X123707071Y-30340000D02*
X123310000Y-30340000D01*
X123707071Y-29580000D02*
X123310000Y-29580000D01*
X123310000Y-28690000D02*
X120650000Y-28690000D01*
X123707071Y-27800000D02*
X123310000Y-27800000D01*
X123707071Y-27040000D02*
X123310000Y-27040000D01*
X126020000Y-32500000D02*
X126020000Y-33770000D01*
X126020000Y-33770000D02*
X124750000Y-33770000D01*
%TO.C,J7*%
X143940000Y-26170000D02*
X143940000Y-33910000D01*
X143940000Y-33910000D02*
X146600000Y-33910000D01*
X146600000Y-33910000D02*
X146600000Y-26170000D01*
X146600000Y-26170000D02*
X143940000Y-26170000D01*
X143610000Y-27120000D02*
X143940000Y-27120000D01*
X143610000Y-27880000D02*
X143940000Y-27880000D01*
X143940000Y-28770000D02*
X146600000Y-28770000D01*
X143542929Y-29660000D02*
X143940000Y-29660000D01*
X143542929Y-30420000D02*
X143940000Y-30420000D01*
X143940000Y-31310000D02*
X146600000Y-31310000D01*
X143542929Y-32200000D02*
X143940000Y-32200000D01*
X143542929Y-32960000D02*
X143940000Y-32960000D01*
X141230000Y-27500000D02*
X141230000Y-26230000D01*
X141230000Y-26230000D02*
X142500000Y-26230000D01*
%TO.C,U1*%
X150800000Y-39060000D02*
X154250000Y-39060000D01*
X150800000Y-39060000D02*
X148850000Y-39060000D01*
X150800000Y-33940000D02*
X152750000Y-33940000D01*
X150800000Y-33940000D02*
X148850000Y-33940000D01*
%TO.C,J1*%
X98000000Y-27100000D02*
X98000000Y-26800000D01*
X98000000Y-26800000D02*
X97500000Y-26800000D01*
X100125000Y-27390000D02*
X97710000Y-27390000D01*
X97710000Y-27390000D02*
X97710000Y-27090000D01*
X97710000Y-27090000D02*
X96640000Y-27090000D01*
X96640000Y-27090000D02*
X96640000Y-32810000D01*
X96640000Y-32810000D02*
X100125000Y-32810000D01*
X100125000Y-27390000D02*
X102540000Y-27390000D01*
X102540000Y-27390000D02*
X102540000Y-27090000D01*
X102540000Y-27090000D02*
X103610000Y-27090000D01*
X103610000Y-27090000D02*
X103610000Y-32810000D01*
X103610000Y-32810000D02*
X100125000Y-32810000D01*
%TO.C,U3*%
X157160000Y-41590000D02*
X155900000Y-41590000D01*
X150340000Y-41590000D02*
X151600000Y-41590000D01*
X157160000Y-45350000D02*
X157160000Y-41590000D01*
X150340000Y-47600000D02*
X150340000Y-41590000D01*
%TO.C,C17*%
X157710000Y-39491422D02*
X157710000Y-40008578D01*
X156290000Y-39491422D02*
X156290000Y-40008578D01*
%TO.C,C15*%
X149960000Y-43241422D02*
X149960000Y-43758578D01*
X148540000Y-43241422D02*
X148540000Y-43758578D01*
%TO.C,D8*%
X139000000Y-43500000D02*
X139000000Y-39600000D01*
X141000000Y-43500000D02*
X141000000Y-39600000D01*
X139000000Y-43500000D02*
X141000000Y-43500000D01*
%TO.C,X1*%
X137400000Y-45000000D02*
X137400000Y-46140000D01*
%TO.C,C8*%
X138890580Y-46740000D02*
X138609420Y-46740000D01*
X138890580Y-47760000D02*
X138609420Y-47760000D01*
%TO.C,D1*%
X112458000Y-33375000D02*
X112458000Y-35925000D01*
X110758000Y-33375000D02*
X110758000Y-35925000D01*
X112458000Y-33375000D02*
X110758000Y-33375000D01*
%TO.C,D3*%
X112458000Y-26263000D02*
X112458000Y-28813000D01*
X110758000Y-26263000D02*
X110758000Y-28813000D01*
X112458000Y-26263000D02*
X110758000Y-26263000D01*
%TO.C,J2*%
X170985000Y-32810000D02*
X167500000Y-32810000D01*
X170985000Y-27090000D02*
X170985000Y-32810000D01*
X169915000Y-27090000D02*
X170985000Y-27090000D01*
X169915000Y-27390000D02*
X169915000Y-27090000D01*
X167500000Y-27390000D02*
X169915000Y-27390000D01*
X164015000Y-32810000D02*
X167500000Y-32810000D01*
X164015000Y-27090000D02*
X164015000Y-32810000D01*
X165085000Y-27090000D02*
X164015000Y-27090000D01*
X165085000Y-27390000D02*
X165085000Y-27090000D01*
X167500000Y-27390000D02*
X165085000Y-27390000D01*
X165375000Y-26800000D02*
X164875000Y-26800000D01*
X165375000Y-27100000D02*
X165375000Y-26800000D01*
%TO.C,J4*%
X142750000Y-41850000D02*
X142750000Y-41550000D01*
X142750000Y-41550000D02*
X142250000Y-41550000D01*
X144875000Y-42140000D02*
X142460000Y-42140000D01*
X142460000Y-42140000D02*
X142460000Y-41840000D01*
X142460000Y-41840000D02*
X141390000Y-41840000D01*
X141390000Y-41840000D02*
X141390000Y-47560000D01*
X141390000Y-47560000D02*
X144875000Y-47560000D01*
X144875000Y-42140000D02*
X147290000Y-42140000D01*
X147290000Y-42140000D02*
X147290000Y-41840000D01*
X147290000Y-41840000D02*
X148360000Y-41840000D01*
X148360000Y-41840000D02*
X148360000Y-47560000D01*
X148360000Y-47560000D02*
X144875000Y-47560000D01*
%TO.C,U4*%
X120660000Y-41160000D02*
X120660000Y-39900000D01*
X120660000Y-34340000D02*
X120660000Y-35600000D01*
X116900000Y-41160000D02*
X120660000Y-41160000D01*
X114650000Y-34340000D02*
X120660000Y-34340000D01*
%TO.C,U2*%
X130317000Y-43869000D02*
X130317000Y-45159000D01*
X129867000Y-43869000D02*
X130317000Y-43869000D01*
X129867000Y-43419000D02*
X129867000Y-43869000D01*
X129867000Y-36649000D02*
X130317000Y-36649000D01*
X129867000Y-37099000D02*
X129867000Y-36649000D01*
X137087000Y-43869000D02*
X136637000Y-43869000D01*
X137087000Y-43419000D02*
X137087000Y-43869000D01*
X137087000Y-36649000D02*
X136637000Y-36649000D01*
X137087000Y-37099000D02*
X137087000Y-36649000D01*
%TO.C,R15*%
X146262742Y-40477500D02*
X146737258Y-40477500D01*
X146262742Y-41522500D02*
X146737258Y-41522500D01*
%TO.C,R14*%
X143262742Y-40477500D02*
X143737258Y-40477500D01*
X143262742Y-41522500D02*
X143737258Y-41522500D01*
%TO.C,R18*%
X140662258Y-38522500D02*
X140187742Y-38522500D01*
X140662258Y-37477500D02*
X140187742Y-37477500D01*
%TO.C,R17*%
X133512742Y-45977500D02*
X133987258Y-45977500D01*
X133512742Y-47022500D02*
X133987258Y-47022500D01*
%TO.C,R16*%
X125737258Y-42772500D02*
X125262742Y-42772500D01*
X125737258Y-41727500D02*
X125262742Y-41727500D01*
%TO.C,R13*%
X125262742Y-40227500D02*
X125737258Y-40227500D01*
X125262742Y-41272500D02*
X125737258Y-41272500D01*
%TO.C,R12*%
X153239258Y-31277500D02*
X152764742Y-31277500D01*
X153239258Y-32322500D02*
X152764742Y-32322500D01*
%TO.C,R11*%
X153239258Y-28339500D02*
X152764742Y-28339500D01*
X153239258Y-29384500D02*
X152764742Y-29384500D01*
%TO.C,R10*%
X153239258Y-24783500D02*
X152764742Y-24783500D01*
X153239258Y-25828500D02*
X152764742Y-25828500D01*
%TO.C,R6*%
X112262742Y-25772500D02*
X112737258Y-25772500D01*
X112262742Y-24727500D02*
X112737258Y-24727500D01*
%TO.C,R5*%
X113910742Y-30952500D02*
X114385258Y-30952500D01*
X113910742Y-29907500D02*
X114385258Y-29907500D01*
%TO.C,R20*%
X126772500Y-44512742D02*
X126772500Y-44987258D01*
X125727500Y-44512742D02*
X125727500Y-44987258D01*
%TO.C,R19*%
X125272500Y-44512742D02*
X125272500Y-44987258D01*
X124227500Y-44512742D02*
X124227500Y-44987258D01*
%TO.C,R24*%
X137012742Y-28977500D02*
X137487258Y-28977500D01*
X137012742Y-30022500D02*
X137487258Y-30022500D01*
%TO.C,R21*%
X130237258Y-30522500D02*
X129762742Y-30522500D01*
X130237258Y-29477500D02*
X129762742Y-29477500D01*
%TO.C,R4*%
X113910742Y-34508500D02*
X114385258Y-34508500D01*
X113910742Y-33463500D02*
X114385258Y-33463500D01*
%TO.C,R9*%
X159368742Y-32940500D02*
X159843258Y-32940500D01*
X159368742Y-31895500D02*
X159843258Y-31895500D01*
%TO.C,R8*%
X159368742Y-29384500D02*
X159843258Y-29384500D01*
X159368742Y-28339500D02*
X159843258Y-28339500D01*
%TO.C,R7*%
X159368742Y-25828500D02*
X159843258Y-25828500D01*
X159368742Y-24783500D02*
X159843258Y-24783500D01*
%TO.C,R3*%
X107781258Y-26351500D02*
X107306742Y-26351500D01*
X107781258Y-27396500D02*
X107306742Y-27396500D01*
%TO.C,R2*%
X107781258Y-29907500D02*
X107306742Y-29907500D01*
X107781258Y-30952500D02*
X107306742Y-30952500D01*
%TO.C,R1*%
X107781258Y-33463500D02*
X107306742Y-33463500D01*
X107781258Y-34508500D02*
X107306742Y-34508500D01*
%TO.C,R23*%
X136772500Y-31512742D02*
X136772500Y-31987258D01*
X135727500Y-31512742D02*
X135727500Y-31987258D01*
%TO.C,R22*%
X131522500Y-27987258D02*
X131522500Y-27512742D01*
X130477500Y-27987258D02*
X130477500Y-27512742D01*
%TO.C,J3*%
X116890000Y-45715000D02*
X116890000Y-43215000D01*
X116890000Y-43215000D02*
X117940000Y-43215000D01*
X117940000Y-43215000D02*
X117940000Y-42225000D01*
X123110000Y-45715000D02*
X123110000Y-43215000D01*
X123110000Y-43215000D02*
X122060000Y-43215000D01*
X118060000Y-47685000D02*
X121940000Y-47685000D01*
%TO.C,J5*%
X128670000Y-24830000D02*
X128670000Y-23500000D01*
X130000000Y-24830000D02*
X128670000Y-24830000D01*
X131270000Y-24830000D02*
X131270000Y-22170000D01*
X131270000Y-22170000D02*
X138950000Y-22170000D01*
X131270000Y-24830000D02*
X138950000Y-24830000D01*
X138950000Y-24830000D02*
X138950000Y-22170000D01*
%TO.C,D7*%
X146580000Y-36490000D02*
X145650000Y-36490000D01*
X143420000Y-36490000D02*
X144350000Y-36490000D01*
X143420000Y-36490000D02*
X143420000Y-38650000D01*
X146580000Y-36490000D02*
X146580000Y-37950000D01*
%TO.C,D6*%
X156392000Y-31807000D02*
X156392000Y-34357000D01*
X154692000Y-31807000D02*
X154692000Y-34357000D01*
X156392000Y-31807000D02*
X154692000Y-31807000D01*
%TO.C,D5*%
X156392000Y-28251000D02*
X156392000Y-30801000D01*
X154692000Y-28251000D02*
X154692000Y-30801000D01*
X156392000Y-28251000D02*
X154692000Y-28251000D01*
%TO.C,D4*%
X156392000Y-24695000D02*
X156392000Y-27245000D01*
X154692000Y-24695000D02*
X154692000Y-27245000D01*
X156392000Y-24695000D02*
X154692000Y-24695000D01*
%TO.C,D2*%
X112458000Y-29819000D02*
X112458000Y-32369000D01*
X110758000Y-29819000D02*
X110758000Y-32369000D01*
X112458000Y-29819000D02*
X110758000Y-29819000D01*
%TO.C,D10*%
X138850000Y-30500000D02*
X137150000Y-30500000D01*
X137150000Y-30500000D02*
X137150000Y-33050000D01*
X138850000Y-30500000D02*
X138850000Y-33050000D01*
%TO.C,D9*%
X128400000Y-29000000D02*
X130100000Y-29000000D01*
X130100000Y-29000000D02*
X130100000Y-26450000D01*
X128400000Y-29000000D02*
X128400000Y-26450000D01*
%TO.C,C10*%
X145140580Y-40010000D02*
X144859420Y-40010000D01*
X145140580Y-38990000D02*
X144859420Y-38990000D01*
%TO.C,C9*%
X155760000Y-36609420D02*
X155760000Y-36890580D01*
X154740000Y-36609420D02*
X154740000Y-36890580D01*
%TO.C,C1*%
X152859420Y-32690000D02*
X153140580Y-32690000D01*
X152859420Y-33710000D02*
X153140580Y-33710000D01*
%TO.C,C14*%
X128359420Y-44240000D02*
X128640580Y-44240000D01*
X128359420Y-45260000D02*
X128640580Y-45260000D01*
%TO.C,C13*%
X130010000Y-34884420D02*
X130010000Y-35165580D01*
X128990000Y-34884420D02*
X128990000Y-35165580D01*
%TO.C,C12*%
X139140580Y-36760000D02*
X138859420Y-36760000D01*
X139140580Y-35740000D02*
X138859420Y-35740000D01*
%TO.C,C11*%
X130359420Y-45990000D02*
X130640580Y-45990000D01*
X130359420Y-47010000D02*
X130640580Y-47010000D01*
%TO.C,C7*%
X157830000Y-33320580D02*
X157830000Y-33039420D01*
X156810000Y-33320580D02*
X156810000Y-33039420D01*
%TO.C,C6*%
X157830000Y-29764580D02*
X157830000Y-29483420D01*
X156810000Y-29764580D02*
X156810000Y-29483420D01*
%TO.C,C20*%
X114010000Y-36384420D02*
X114010000Y-36665580D01*
X112990000Y-36384420D02*
X112990000Y-36665580D01*
%TO.C,C18*%
X112609420Y-38490000D02*
X112890580Y-38490000D01*
X112609420Y-39510000D02*
X112890580Y-39510000D01*
%TO.C,C5*%
X157830000Y-26208580D02*
X157830000Y-25927420D01*
X156810000Y-26208580D02*
X156810000Y-25927420D01*
%TO.C,C4*%
X110340000Y-27776580D02*
X110340000Y-27495420D01*
X109320000Y-27776580D02*
X109320000Y-27495420D01*
%TO.C,C3*%
X110340000Y-31332580D02*
X110340000Y-31051420D01*
X109320000Y-31332580D02*
X109320000Y-31051420D01*
%TO.C,C2*%
X110340000Y-34888580D02*
X110340000Y-34607420D01*
X109320000Y-34888580D02*
X109320000Y-34607420D01*
%TO.C,C16*%
X133010000Y-27609420D02*
X133010000Y-27890580D01*
X131990000Y-27609420D02*
X131990000Y-27890580D01*
%TO.C,C19*%
X134240000Y-31890580D02*
X134240000Y-31609420D01*
X135260000Y-31890580D02*
X135260000Y-31609420D01*
%TD*%
%TO.C,J6*%
D10*
X124666666Y-24452380D02*
X124666666Y-25166666D01*
X124619047Y-25309523D01*
X124523809Y-25404761D01*
X124380952Y-25452380D01*
X124285714Y-25452380D01*
X125571428Y-24452380D02*
X125380952Y-24452380D01*
X125285714Y-24500000D01*
X125238095Y-24547619D01*
X125142857Y-24690476D01*
X125095238Y-24880952D01*
X125095238Y-25261904D01*
X125142857Y-25357142D01*
X125190476Y-25404761D01*
X125285714Y-25452380D01*
X125476190Y-25452380D01*
X125571428Y-25404761D01*
X125619047Y-25357142D01*
X125666666Y-25261904D01*
X125666666Y-25023809D01*
X125619047Y-24928571D01*
X125571428Y-24880952D01*
X125476190Y-24833333D01*
X125285714Y-24833333D01*
X125190476Y-24880952D01*
X125142857Y-24928571D01*
X125095238Y-25023809D01*
%TO.C,J7*%
X141916666Y-24952380D02*
X141916666Y-25666666D01*
X141869047Y-25809523D01*
X141773809Y-25904761D01*
X141630952Y-25952380D01*
X141535714Y-25952380D01*
X142297619Y-24952380D02*
X142964285Y-24952380D01*
X142535714Y-25952380D01*
%TO.C,U1*%
X150038095Y-34252380D02*
X150038095Y-35061904D01*
X150085714Y-35157142D01*
X150133333Y-35204761D01*
X150228571Y-35252380D01*
X150419047Y-35252380D01*
X150514285Y-35204761D01*
X150561904Y-35157142D01*
X150609523Y-35061904D01*
X150609523Y-34252380D01*
X151609523Y-35252380D02*
X151038095Y-35252380D01*
X151323809Y-35252380D02*
X151323809Y-34252380D01*
X151228571Y-34395238D01*
X151133333Y-34490476D01*
X151038095Y-34538095D01*
%TO.C,J1*%
X102666666Y-25452380D02*
X102666666Y-26166666D01*
X102619047Y-26309523D01*
X102523809Y-26404761D01*
X102380952Y-26452380D01*
X102285714Y-26452380D01*
X103666666Y-26452380D02*
X103095238Y-26452380D01*
X103380952Y-26452380D02*
X103380952Y-25452380D01*
X103285714Y-25595238D01*
X103190476Y-25690476D01*
X103095238Y-25738095D01*
%TO.C,U3*%
X152738095Y-43202380D02*
X152738095Y-44011904D01*
X152785714Y-44107142D01*
X152833333Y-44154761D01*
X152928571Y-44202380D01*
X153119047Y-44202380D01*
X153214285Y-44154761D01*
X153261904Y-44107142D01*
X153309523Y-44011904D01*
X153309523Y-43202380D01*
X153690476Y-43202380D02*
X154309523Y-43202380D01*
X153976190Y-43583333D01*
X154119047Y-43583333D01*
X154214285Y-43630952D01*
X154261904Y-43678571D01*
X154309523Y-43773809D01*
X154309523Y-44011904D01*
X154261904Y-44107142D01*
X154214285Y-44154761D01*
X154119047Y-44202380D01*
X153833333Y-44202380D01*
X153738095Y-44154761D01*
X153690476Y-44107142D01*
%TO.C,C17*%
X158357142Y-39157142D02*
X158309523Y-39204761D01*
X158166666Y-39252380D01*
X158071428Y-39252380D01*
X157928571Y-39204761D01*
X157833333Y-39109523D01*
X157785714Y-39014285D01*
X157738095Y-38823809D01*
X157738095Y-38680952D01*
X157785714Y-38490476D01*
X157833333Y-38395238D01*
X157928571Y-38300000D01*
X158071428Y-38252380D01*
X158166666Y-38252380D01*
X158309523Y-38300000D01*
X158357142Y-38347619D01*
X159309523Y-39252380D02*
X158738095Y-39252380D01*
X159023809Y-39252380D02*
X159023809Y-38252380D01*
X158928571Y-38395238D01*
X158833333Y-38490476D01*
X158738095Y-38538095D01*
X159642857Y-38252380D02*
X160309523Y-38252380D01*
X159880952Y-39252380D01*
%TO.C,C15*%
X149607142Y-47142857D02*
X149654761Y-47190476D01*
X149702380Y-47333333D01*
X149702380Y-47428571D01*
X149654761Y-47571428D01*
X149559523Y-47666666D01*
X149464285Y-47714285D01*
X149273809Y-47761904D01*
X149130952Y-47761904D01*
X148940476Y-47714285D01*
X148845238Y-47666666D01*
X148750000Y-47571428D01*
X148702380Y-47428571D01*
X148702380Y-47333333D01*
X148750000Y-47190476D01*
X148797619Y-47142857D01*
X149702380Y-46190476D02*
X149702380Y-46761904D01*
X149702380Y-46476190D02*
X148702380Y-46476190D01*
X148845238Y-46571428D01*
X148940476Y-46666666D01*
X148988095Y-46761904D01*
X148702380Y-45285714D02*
X148702380Y-45761904D01*
X149178571Y-45809523D01*
X149130952Y-45761904D01*
X149083333Y-45666666D01*
X149083333Y-45428571D01*
X149130952Y-45333333D01*
X149178571Y-45285714D01*
X149273809Y-45238095D01*
X149511904Y-45238095D01*
X149607142Y-45285714D01*
X149654761Y-45333333D01*
X149702380Y-45428571D01*
X149702380Y-45666666D01*
X149654761Y-45761904D01*
X149607142Y-45809523D01*
%TO.C,X1*%
X140202380Y-45809523D02*
X141202380Y-45142857D01*
X140202380Y-45142857D02*
X141202380Y-45809523D01*
X141202380Y-44238095D02*
X141202380Y-44809523D01*
X141202380Y-44523809D02*
X140202380Y-44523809D01*
X140345238Y-44619047D01*
X140440476Y-44714285D01*
X140488095Y-44809523D01*
%TO.C,C8*%
X136857142Y-46916666D02*
X136904761Y-46964285D01*
X136952380Y-47107142D01*
X136952380Y-47202380D01*
X136904761Y-47345238D01*
X136809523Y-47440476D01*
X136714285Y-47488095D01*
X136523809Y-47535714D01*
X136380952Y-47535714D01*
X136190476Y-47488095D01*
X136095238Y-47440476D01*
X136000000Y-47345238D01*
X135952380Y-47202380D01*
X135952380Y-47107142D01*
X136000000Y-46964285D01*
X136047619Y-46916666D01*
X136380952Y-46345238D02*
X136333333Y-46440476D01*
X136285714Y-46488095D01*
X136190476Y-46535714D01*
X136142857Y-46535714D01*
X136047619Y-46488095D01*
X136000000Y-46440476D01*
X135952380Y-46345238D01*
X135952380Y-46154761D01*
X136000000Y-46059523D01*
X136047619Y-46011904D01*
X136142857Y-45964285D01*
X136190476Y-45964285D01*
X136285714Y-46011904D01*
X136333333Y-46059523D01*
X136380952Y-46154761D01*
X136380952Y-46345238D01*
X136428571Y-46440476D01*
X136476190Y-46488095D01*
X136571428Y-46535714D01*
X136761904Y-46535714D01*
X136857142Y-46488095D01*
X136904761Y-46440476D01*
X136952380Y-46345238D01*
X136952380Y-46154761D01*
X136904761Y-46059523D01*
X136857142Y-46011904D01*
X136761904Y-45964285D01*
X136571428Y-45964285D01*
X136476190Y-46011904D01*
X136428571Y-46059523D01*
X136380952Y-46154761D01*
%TO.C,D1*%
X106202380Y-36738095D02*
X105202380Y-36738095D01*
X105202380Y-36500000D01*
X105250000Y-36357142D01*
X105345238Y-36261904D01*
X105440476Y-36214285D01*
X105630952Y-36166666D01*
X105773809Y-36166666D01*
X105964285Y-36214285D01*
X106059523Y-36261904D01*
X106154761Y-36357142D01*
X106202380Y-36500000D01*
X106202380Y-36738095D01*
X106202380Y-35214285D02*
X106202380Y-35785714D01*
X106202380Y-35500000D02*
X105202380Y-35500000D01*
X105345238Y-35595238D01*
X105440476Y-35690476D01*
X105488095Y-35785714D01*
%TO.C,D3*%
X110452380Y-25988095D02*
X109452380Y-25988095D01*
X109452380Y-25750000D01*
X109500000Y-25607142D01*
X109595238Y-25511904D01*
X109690476Y-25464285D01*
X109880952Y-25416666D01*
X110023809Y-25416666D01*
X110214285Y-25464285D01*
X110309523Y-25511904D01*
X110404761Y-25607142D01*
X110452380Y-25750000D01*
X110452380Y-25988095D01*
X109452380Y-25083333D02*
X109452380Y-24464285D01*
X109833333Y-24797619D01*
X109833333Y-24654761D01*
X109880952Y-24559523D01*
X109928571Y-24511904D01*
X110023809Y-24464285D01*
X110261904Y-24464285D01*
X110357142Y-24511904D01*
X110404761Y-24559523D01*
X110452380Y-24654761D01*
X110452380Y-24940476D01*
X110404761Y-25035714D01*
X110357142Y-25083333D01*
%TO.C,J2*%
X162666666Y-25952380D02*
X162666666Y-26666666D01*
X162619047Y-26809523D01*
X162523809Y-26904761D01*
X162380952Y-26952380D01*
X162285714Y-26952380D01*
X163095238Y-26047619D02*
X163142857Y-26000000D01*
X163238095Y-25952380D01*
X163476190Y-25952380D01*
X163571428Y-26000000D01*
X163619047Y-26047619D01*
X163666666Y-26142857D01*
X163666666Y-26238095D01*
X163619047Y-26380952D01*
X163047619Y-26952380D01*
X163666666Y-26952380D01*
%TO.C,U4*%
X123488095Y-36452380D02*
X123488095Y-37261904D01*
X123535714Y-37357142D01*
X123583333Y-37404761D01*
X123678571Y-37452380D01*
X123869047Y-37452380D01*
X123964285Y-37404761D01*
X124011904Y-37357142D01*
X124059523Y-37261904D01*
X124059523Y-36452380D01*
X124964285Y-36785714D02*
X124964285Y-37452380D01*
X124726190Y-36404761D02*
X124488095Y-37119047D01*
X125107142Y-37119047D01*
%TO.C,U2*%
X126488095Y-36452380D02*
X126488095Y-37261904D01*
X126535714Y-37357142D01*
X126583333Y-37404761D01*
X126678571Y-37452380D01*
X126869047Y-37452380D01*
X126964285Y-37404761D01*
X127011904Y-37357142D01*
X127059523Y-37261904D01*
X127059523Y-36452380D01*
X127488095Y-36547619D02*
X127535714Y-36500000D01*
X127630952Y-36452380D01*
X127869047Y-36452380D01*
X127964285Y-36500000D01*
X128011904Y-36547619D01*
X128059523Y-36642857D01*
X128059523Y-36738095D01*
X128011904Y-36880952D01*
X127440476Y-37452380D01*
X128059523Y-37452380D01*
%TO.C,R15*%
X148857142Y-40702380D02*
X148523809Y-40226190D01*
X148285714Y-40702380D02*
X148285714Y-39702380D01*
X148666666Y-39702380D01*
X148761904Y-39750000D01*
X148809523Y-39797619D01*
X148857142Y-39892857D01*
X148857142Y-40035714D01*
X148809523Y-40130952D01*
X148761904Y-40178571D01*
X148666666Y-40226190D01*
X148285714Y-40226190D01*
X149809523Y-40702380D02*
X149238095Y-40702380D01*
X149523809Y-40702380D02*
X149523809Y-39702380D01*
X149428571Y-39845238D01*
X149333333Y-39940476D01*
X149238095Y-39988095D01*
X150714285Y-39702380D02*
X150238095Y-39702380D01*
X150190476Y-40178571D01*
X150238095Y-40130952D01*
X150333333Y-40083333D01*
X150571428Y-40083333D01*
X150666666Y-40130952D01*
X150714285Y-40178571D01*
X150761904Y-40273809D01*
X150761904Y-40511904D01*
X150714285Y-40607142D01*
X150666666Y-40654761D01*
X150571428Y-40702380D01*
X150333333Y-40702380D01*
X150238095Y-40654761D01*
X150190476Y-40607142D01*
%TO.C,R14*%
X142857142Y-46202380D02*
X142523809Y-45726190D01*
X142285714Y-46202380D02*
X142285714Y-45202380D01*
X142666666Y-45202380D01*
X142761904Y-45250000D01*
X142809523Y-45297619D01*
X142857142Y-45392857D01*
X142857142Y-45535714D01*
X142809523Y-45630952D01*
X142761904Y-45678571D01*
X142666666Y-45726190D01*
X142285714Y-45726190D01*
X143809523Y-46202380D02*
X143238095Y-46202380D01*
X143523809Y-46202380D02*
X143523809Y-45202380D01*
X143428571Y-45345238D01*
X143333333Y-45440476D01*
X143238095Y-45488095D01*
X144666666Y-45535714D02*
X144666666Y-46202380D01*
X144428571Y-45154761D02*
X144190476Y-45869047D01*
X144809523Y-45869047D01*
%TO.C,R18*%
X141607142Y-39952380D02*
X141273809Y-39476190D01*
X141035714Y-39952380D02*
X141035714Y-38952380D01*
X141416666Y-38952380D01*
X141511904Y-39000000D01*
X141559523Y-39047619D01*
X141607142Y-39142857D01*
X141607142Y-39285714D01*
X141559523Y-39380952D01*
X141511904Y-39428571D01*
X141416666Y-39476190D01*
X141035714Y-39476190D01*
X142559523Y-39952380D02*
X141988095Y-39952380D01*
X142273809Y-39952380D02*
X142273809Y-38952380D01*
X142178571Y-39095238D01*
X142083333Y-39190476D01*
X141988095Y-39238095D01*
X143130952Y-39380952D02*
X143035714Y-39333333D01*
X142988095Y-39285714D01*
X142940476Y-39190476D01*
X142940476Y-39142857D01*
X142988095Y-39047619D01*
X143035714Y-39000000D01*
X143130952Y-38952380D01*
X143321428Y-38952380D01*
X143416666Y-39000000D01*
X143464285Y-39047619D01*
X143511904Y-39142857D01*
X143511904Y-39190476D01*
X143464285Y-39285714D01*
X143416666Y-39333333D01*
X143321428Y-39380952D01*
X143130952Y-39380952D01*
X143035714Y-39428571D01*
X142988095Y-39476190D01*
X142940476Y-39571428D01*
X142940476Y-39761904D01*
X142988095Y-39857142D01*
X143035714Y-39904761D01*
X143130952Y-39952380D01*
X143321428Y-39952380D01*
X143416666Y-39904761D01*
X143464285Y-39857142D01*
X143511904Y-39761904D01*
X143511904Y-39571428D01*
X143464285Y-39476190D01*
X143416666Y-39428571D01*
X143321428Y-39380952D01*
%TO.C,R17*%
X134157142Y-43052380D02*
X133823809Y-42576190D01*
X133585714Y-43052380D02*
X133585714Y-42052380D01*
X133966666Y-42052380D01*
X134061904Y-42100000D01*
X134109523Y-42147619D01*
X134157142Y-42242857D01*
X134157142Y-42385714D01*
X134109523Y-42480952D01*
X134061904Y-42528571D01*
X133966666Y-42576190D01*
X133585714Y-42576190D01*
X135109523Y-43052380D02*
X134538095Y-43052380D01*
X134823809Y-43052380D02*
X134823809Y-42052380D01*
X134728571Y-42195238D01*
X134633333Y-42290476D01*
X134538095Y-42338095D01*
X135442857Y-42052380D02*
X136109523Y-42052380D01*
X135680952Y-43052380D01*
%TO.C,R16*%
X121657142Y-41952380D02*
X121323809Y-41476190D01*
X121085714Y-41952380D02*
X121085714Y-40952380D01*
X121466666Y-40952380D01*
X121561904Y-41000000D01*
X121609523Y-41047619D01*
X121657142Y-41142857D01*
X121657142Y-41285714D01*
X121609523Y-41380952D01*
X121561904Y-41428571D01*
X121466666Y-41476190D01*
X121085714Y-41476190D01*
X122609523Y-41952380D02*
X122038095Y-41952380D01*
X122323809Y-41952380D02*
X122323809Y-40952380D01*
X122228571Y-41095238D01*
X122133333Y-41190476D01*
X122038095Y-41238095D01*
X123466666Y-40952380D02*
X123276190Y-40952380D01*
X123180952Y-41000000D01*
X123133333Y-41047619D01*
X123038095Y-41190476D01*
X122990476Y-41380952D01*
X122990476Y-41761904D01*
X123038095Y-41857142D01*
X123085714Y-41904761D01*
X123180952Y-41952380D01*
X123371428Y-41952380D01*
X123466666Y-41904761D01*
X123514285Y-41857142D01*
X123561904Y-41761904D01*
X123561904Y-41523809D01*
X123514285Y-41428571D01*
X123466666Y-41380952D01*
X123371428Y-41333333D01*
X123180952Y-41333333D01*
X123085714Y-41380952D01*
X123038095Y-41428571D01*
X122990476Y-41523809D01*
%TO.C,R13*%
X124857142Y-39772380D02*
X124523809Y-39296190D01*
X124285714Y-39772380D02*
X124285714Y-38772380D01*
X124666666Y-38772380D01*
X124761904Y-38820000D01*
X124809523Y-38867619D01*
X124857142Y-38962857D01*
X124857142Y-39105714D01*
X124809523Y-39200952D01*
X124761904Y-39248571D01*
X124666666Y-39296190D01*
X124285714Y-39296190D01*
X125809523Y-39772380D02*
X125238095Y-39772380D01*
X125523809Y-39772380D02*
X125523809Y-38772380D01*
X125428571Y-38915238D01*
X125333333Y-39010476D01*
X125238095Y-39058095D01*
X126142857Y-38772380D02*
X126761904Y-38772380D01*
X126428571Y-39153333D01*
X126571428Y-39153333D01*
X126666666Y-39200952D01*
X126714285Y-39248571D01*
X126761904Y-39343809D01*
X126761904Y-39581904D01*
X126714285Y-39677142D01*
X126666666Y-39724761D01*
X126571428Y-39772380D01*
X126285714Y-39772380D01*
X126190476Y-39724761D01*
X126142857Y-39677142D01*
%TO.C,R12*%
X151357142Y-30852380D02*
X151023809Y-30376190D01*
X150785714Y-30852380D02*
X150785714Y-29852380D01*
X151166666Y-29852380D01*
X151261904Y-29900000D01*
X151309523Y-29947619D01*
X151357142Y-30042857D01*
X151357142Y-30185714D01*
X151309523Y-30280952D01*
X151261904Y-30328571D01*
X151166666Y-30376190D01*
X150785714Y-30376190D01*
X152309523Y-30852380D02*
X151738095Y-30852380D01*
X152023809Y-30852380D02*
X152023809Y-29852380D01*
X151928571Y-29995238D01*
X151833333Y-30090476D01*
X151738095Y-30138095D01*
X152690476Y-29947619D02*
X152738095Y-29900000D01*
X152833333Y-29852380D01*
X153071428Y-29852380D01*
X153166666Y-29900000D01*
X153214285Y-29947619D01*
X153261904Y-30042857D01*
X153261904Y-30138095D01*
X153214285Y-30280952D01*
X152642857Y-30852380D01*
X153261904Y-30852380D01*
%TO.C,R11*%
X151107142Y-23952380D02*
X150773809Y-23476190D01*
X150535714Y-23952380D02*
X150535714Y-22952380D01*
X150916666Y-22952380D01*
X151011904Y-23000000D01*
X151059523Y-23047619D01*
X151107142Y-23142857D01*
X151107142Y-23285714D01*
X151059523Y-23380952D01*
X151011904Y-23428571D01*
X150916666Y-23476190D01*
X150535714Y-23476190D01*
X152059523Y-23952380D02*
X151488095Y-23952380D01*
X151773809Y-23952380D02*
X151773809Y-22952380D01*
X151678571Y-23095238D01*
X151583333Y-23190476D01*
X151488095Y-23238095D01*
X153011904Y-23952380D02*
X152440476Y-23952380D01*
X152726190Y-23952380D02*
X152726190Y-22952380D01*
X152630952Y-23095238D01*
X152535714Y-23190476D01*
X152440476Y-23238095D01*
%TO.C,R10*%
X151107142Y-21952380D02*
X150773809Y-21476190D01*
X150535714Y-21952380D02*
X150535714Y-20952380D01*
X150916666Y-20952380D01*
X151011904Y-21000000D01*
X151059523Y-21047619D01*
X151107142Y-21142857D01*
X151107142Y-21285714D01*
X151059523Y-21380952D01*
X151011904Y-21428571D01*
X150916666Y-21476190D01*
X150535714Y-21476190D01*
X152059523Y-21952380D02*
X151488095Y-21952380D01*
X151773809Y-21952380D02*
X151773809Y-20952380D01*
X151678571Y-21095238D01*
X151583333Y-21190476D01*
X151488095Y-21238095D01*
X152678571Y-20952380D02*
X152773809Y-20952380D01*
X152869047Y-21000000D01*
X152916666Y-21047619D01*
X152964285Y-21142857D01*
X153011904Y-21333333D01*
X153011904Y-21571428D01*
X152964285Y-21761904D01*
X152916666Y-21857142D01*
X152869047Y-21904761D01*
X152773809Y-21952380D01*
X152678571Y-21952380D01*
X152583333Y-21904761D01*
X152535714Y-21857142D01*
X152488095Y-21761904D01*
X152440476Y-21571428D01*
X152440476Y-21333333D01*
X152488095Y-21142857D01*
X152535714Y-21047619D01*
X152583333Y-21000000D01*
X152678571Y-20952380D01*
%TO.C,R6*%
X111583333Y-23702380D02*
X111250000Y-23226190D01*
X111011904Y-23702380D02*
X111011904Y-22702380D01*
X111392857Y-22702380D01*
X111488095Y-22750000D01*
X111535714Y-22797619D01*
X111583333Y-22892857D01*
X111583333Y-23035714D01*
X111535714Y-23130952D01*
X111488095Y-23178571D01*
X111392857Y-23226190D01*
X111011904Y-23226190D01*
X112440476Y-22702380D02*
X112250000Y-22702380D01*
X112154761Y-22750000D01*
X112107142Y-22797619D01*
X112011904Y-22940476D01*
X111964285Y-23130952D01*
X111964285Y-23511904D01*
X112011904Y-23607142D01*
X112059523Y-23654761D01*
X112154761Y-23702380D01*
X112345238Y-23702380D01*
X112440476Y-23654761D01*
X112488095Y-23607142D01*
X112535714Y-23511904D01*
X112535714Y-23273809D01*
X112488095Y-23178571D01*
X112440476Y-23130952D01*
X112345238Y-23083333D01*
X112154761Y-23083333D01*
X112059523Y-23130952D01*
X112011904Y-23178571D01*
X111964285Y-23273809D01*
%TO.C,R5*%
X113981333Y-29452380D02*
X113648000Y-28976190D01*
X113409904Y-29452380D02*
X113409904Y-28452380D01*
X113790857Y-28452380D01*
X113886095Y-28500000D01*
X113933714Y-28547619D01*
X113981333Y-28642857D01*
X113981333Y-28785714D01*
X113933714Y-28880952D01*
X113886095Y-28928571D01*
X113790857Y-28976190D01*
X113409904Y-28976190D01*
X114886095Y-28452380D02*
X114409904Y-28452380D01*
X114362285Y-28928571D01*
X114409904Y-28880952D01*
X114505142Y-28833333D01*
X114743238Y-28833333D01*
X114838476Y-28880952D01*
X114886095Y-28928571D01*
X114933714Y-29023809D01*
X114933714Y-29261904D01*
X114886095Y-29357142D01*
X114838476Y-29404761D01*
X114743238Y-29452380D01*
X114505142Y-29452380D01*
X114409904Y-29404761D01*
X114362285Y-29357142D01*
%TO.C,R20*%
X124857142Y-47452380D02*
X124523809Y-46976190D01*
X124285714Y-47452380D02*
X124285714Y-46452380D01*
X124666666Y-46452380D01*
X124761904Y-46500000D01*
X124809523Y-46547619D01*
X124857142Y-46642857D01*
X124857142Y-46785714D01*
X124809523Y-46880952D01*
X124761904Y-46928571D01*
X124666666Y-46976190D01*
X124285714Y-46976190D01*
X125238095Y-46547619D02*
X125285714Y-46500000D01*
X125380952Y-46452380D01*
X125619047Y-46452380D01*
X125714285Y-46500000D01*
X125761904Y-46547619D01*
X125809523Y-46642857D01*
X125809523Y-46738095D01*
X125761904Y-46880952D01*
X125190476Y-47452380D01*
X125809523Y-47452380D01*
X126428571Y-46452380D02*
X126523809Y-46452380D01*
X126619047Y-46500000D01*
X126666666Y-46547619D01*
X126714285Y-46642857D01*
X126761904Y-46833333D01*
X126761904Y-47071428D01*
X126714285Y-47261904D01*
X126666666Y-47357142D01*
X126619047Y-47404761D01*
X126523809Y-47452380D01*
X126428571Y-47452380D01*
X126333333Y-47404761D01*
X126285714Y-47357142D01*
X126238095Y-47261904D01*
X126190476Y-47071428D01*
X126190476Y-46833333D01*
X126238095Y-46642857D01*
X126285714Y-46547619D01*
X126333333Y-46500000D01*
X126428571Y-46452380D01*
%TO.C,R19*%
X122107142Y-45452380D02*
X121773809Y-44976190D01*
X121535714Y-45452380D02*
X121535714Y-44452380D01*
X121916666Y-44452380D01*
X122011904Y-44500000D01*
X122059523Y-44547619D01*
X122107142Y-44642857D01*
X122107142Y-44785714D01*
X122059523Y-44880952D01*
X122011904Y-44928571D01*
X121916666Y-44976190D01*
X121535714Y-44976190D01*
X123059523Y-45452380D02*
X122488095Y-45452380D01*
X122773809Y-45452380D02*
X122773809Y-44452380D01*
X122678571Y-44595238D01*
X122583333Y-44690476D01*
X122488095Y-44738095D01*
X123535714Y-45452380D02*
X123726190Y-45452380D01*
X123821428Y-45404761D01*
X123869047Y-45357142D01*
X123964285Y-45214285D01*
X124011904Y-45023809D01*
X124011904Y-44642857D01*
X123964285Y-44547619D01*
X123916666Y-44500000D01*
X123821428Y-44452380D01*
X123630952Y-44452380D01*
X123535714Y-44500000D01*
X123488095Y-44547619D01*
X123440476Y-44642857D01*
X123440476Y-44880952D01*
X123488095Y-44976190D01*
X123535714Y-45023809D01*
X123630952Y-45071428D01*
X123821428Y-45071428D01*
X123916666Y-45023809D01*
X123964285Y-44976190D01*
X124011904Y-44880952D01*
%TO.C,R24*%
X136607142Y-28522380D02*
X136273809Y-28046190D01*
X136035714Y-28522380D02*
X136035714Y-27522380D01*
X136416666Y-27522380D01*
X136511904Y-27570000D01*
X136559523Y-27617619D01*
X136607142Y-27712857D01*
X136607142Y-27855714D01*
X136559523Y-27950952D01*
X136511904Y-27998571D01*
X136416666Y-28046190D01*
X136035714Y-28046190D01*
X136988095Y-27617619D02*
X137035714Y-27570000D01*
X137130952Y-27522380D01*
X137369047Y-27522380D01*
X137464285Y-27570000D01*
X137511904Y-27617619D01*
X137559523Y-27712857D01*
X137559523Y-27808095D01*
X137511904Y-27950952D01*
X136940476Y-28522380D01*
X137559523Y-28522380D01*
X138416666Y-27855714D02*
X138416666Y-28522380D01*
X138178571Y-27474761D02*
X137940476Y-28189047D01*
X138559523Y-28189047D01*
%TO.C,R21*%
X129357142Y-31882380D02*
X129023809Y-31406190D01*
X128785714Y-31882380D02*
X128785714Y-30882380D01*
X129166666Y-30882380D01*
X129261904Y-30930000D01*
X129309523Y-30977619D01*
X129357142Y-31072857D01*
X129357142Y-31215714D01*
X129309523Y-31310952D01*
X129261904Y-31358571D01*
X129166666Y-31406190D01*
X128785714Y-31406190D01*
X129738095Y-30977619D02*
X129785714Y-30930000D01*
X129880952Y-30882380D01*
X130119047Y-30882380D01*
X130214285Y-30930000D01*
X130261904Y-30977619D01*
X130309523Y-31072857D01*
X130309523Y-31168095D01*
X130261904Y-31310952D01*
X129690476Y-31882380D01*
X130309523Y-31882380D01*
X131261904Y-31882380D02*
X130690476Y-31882380D01*
X130976190Y-31882380D02*
X130976190Y-30882380D01*
X130880952Y-31025238D01*
X130785714Y-31120476D01*
X130690476Y-31168095D01*
%TO.C,R4*%
X107833333Y-36202380D02*
X107500000Y-35726190D01*
X107261904Y-36202380D02*
X107261904Y-35202380D01*
X107642857Y-35202380D01*
X107738095Y-35250000D01*
X107785714Y-35297619D01*
X107833333Y-35392857D01*
X107833333Y-35535714D01*
X107785714Y-35630952D01*
X107738095Y-35678571D01*
X107642857Y-35726190D01*
X107261904Y-35726190D01*
X108690476Y-35535714D02*
X108690476Y-36202380D01*
X108452380Y-35154761D02*
X108214285Y-35869047D01*
X108833333Y-35869047D01*
%TO.C,R9*%
X159439333Y-31440380D02*
X159106000Y-30964190D01*
X158867904Y-31440380D02*
X158867904Y-30440380D01*
X159248857Y-30440380D01*
X159344095Y-30488000D01*
X159391714Y-30535619D01*
X159439333Y-30630857D01*
X159439333Y-30773714D01*
X159391714Y-30868952D01*
X159344095Y-30916571D01*
X159248857Y-30964190D01*
X158867904Y-30964190D01*
X159915523Y-31440380D02*
X160106000Y-31440380D01*
X160201238Y-31392761D01*
X160248857Y-31345142D01*
X160344095Y-31202285D01*
X160391714Y-31011809D01*
X160391714Y-30630857D01*
X160344095Y-30535619D01*
X160296476Y-30488000D01*
X160201238Y-30440380D01*
X160010761Y-30440380D01*
X159915523Y-30488000D01*
X159867904Y-30535619D01*
X159820285Y-30630857D01*
X159820285Y-30868952D01*
X159867904Y-30964190D01*
X159915523Y-31011809D01*
X160010761Y-31059428D01*
X160201238Y-31059428D01*
X160296476Y-31011809D01*
X160344095Y-30964190D01*
X160391714Y-30868952D01*
%TO.C,R8*%
X159583333Y-23952380D02*
X159250000Y-23476190D01*
X159011904Y-23952380D02*
X159011904Y-22952380D01*
X159392857Y-22952380D01*
X159488095Y-23000000D01*
X159535714Y-23047619D01*
X159583333Y-23142857D01*
X159583333Y-23285714D01*
X159535714Y-23380952D01*
X159488095Y-23428571D01*
X159392857Y-23476190D01*
X159011904Y-23476190D01*
X160154761Y-23380952D02*
X160059523Y-23333333D01*
X160011904Y-23285714D01*
X159964285Y-23190476D01*
X159964285Y-23142857D01*
X160011904Y-23047619D01*
X160059523Y-23000000D01*
X160154761Y-22952380D01*
X160345238Y-22952380D01*
X160440476Y-23000000D01*
X160488095Y-23047619D01*
X160535714Y-23142857D01*
X160535714Y-23190476D01*
X160488095Y-23285714D01*
X160440476Y-23333333D01*
X160345238Y-23380952D01*
X160154761Y-23380952D01*
X160059523Y-23428571D01*
X160011904Y-23476190D01*
X159964285Y-23571428D01*
X159964285Y-23761904D01*
X160011904Y-23857142D01*
X160059523Y-23904761D01*
X160154761Y-23952380D01*
X160345238Y-23952380D01*
X160440476Y-23904761D01*
X160488095Y-23857142D01*
X160535714Y-23761904D01*
X160535714Y-23571428D01*
X160488095Y-23476190D01*
X160440476Y-23428571D01*
X160345238Y-23380952D01*
%TO.C,R7*%
X159583333Y-21952380D02*
X159250000Y-21476190D01*
X159011904Y-21952380D02*
X159011904Y-20952380D01*
X159392857Y-20952380D01*
X159488095Y-21000000D01*
X159535714Y-21047619D01*
X159583333Y-21142857D01*
X159583333Y-21285714D01*
X159535714Y-21380952D01*
X159488095Y-21428571D01*
X159392857Y-21476190D01*
X159011904Y-21476190D01*
X159916666Y-20952380D02*
X160583333Y-20952380D01*
X160154761Y-21952380D01*
%TO.C,R3*%
X106833333Y-25702380D02*
X106500000Y-25226190D01*
X106261904Y-25702380D02*
X106261904Y-24702380D01*
X106642857Y-24702380D01*
X106738095Y-24750000D01*
X106785714Y-24797619D01*
X106833333Y-24892857D01*
X106833333Y-25035714D01*
X106785714Y-25130952D01*
X106738095Y-25178571D01*
X106642857Y-25226190D01*
X106261904Y-25226190D01*
X107166666Y-24702380D02*
X107785714Y-24702380D01*
X107452380Y-25083333D01*
X107595238Y-25083333D01*
X107690476Y-25130952D01*
X107738095Y-25178571D01*
X107785714Y-25273809D01*
X107785714Y-25511904D01*
X107738095Y-25607142D01*
X107690476Y-25654761D01*
X107595238Y-25702380D01*
X107309523Y-25702380D01*
X107214285Y-25654761D01*
X107166666Y-25607142D01*
%TO.C,R2*%
X107377333Y-32312380D02*
X107044000Y-31836190D01*
X106805904Y-32312380D02*
X106805904Y-31312380D01*
X107186857Y-31312380D01*
X107282095Y-31360000D01*
X107329714Y-31407619D01*
X107377333Y-31502857D01*
X107377333Y-31645714D01*
X107329714Y-31740952D01*
X107282095Y-31788571D01*
X107186857Y-31836190D01*
X106805904Y-31836190D01*
X107758285Y-31407619D02*
X107805904Y-31360000D01*
X107901142Y-31312380D01*
X108139238Y-31312380D01*
X108234476Y-31360000D01*
X108282095Y-31407619D01*
X108329714Y-31502857D01*
X108329714Y-31598095D01*
X108282095Y-31740952D01*
X107710666Y-32312380D01*
X108329714Y-32312380D01*
%TO.C,R1*%
X104083333Y-34702380D02*
X103750000Y-34226190D01*
X103511904Y-34702380D02*
X103511904Y-33702380D01*
X103892857Y-33702380D01*
X103988095Y-33750000D01*
X104035714Y-33797619D01*
X104083333Y-33892857D01*
X104083333Y-34035714D01*
X104035714Y-34130952D01*
X103988095Y-34178571D01*
X103892857Y-34226190D01*
X103511904Y-34226190D01*
X105035714Y-34702380D02*
X104464285Y-34702380D01*
X104750000Y-34702380D02*
X104750000Y-33702380D01*
X104654761Y-33845238D01*
X104559523Y-33940476D01*
X104464285Y-33988095D01*
%TO.C,R23*%
X135652380Y-29042857D02*
X135176190Y-29376190D01*
X135652380Y-29614285D02*
X134652380Y-29614285D01*
X134652380Y-29233333D01*
X134700000Y-29138095D01*
X134747619Y-29090476D01*
X134842857Y-29042857D01*
X134985714Y-29042857D01*
X135080952Y-29090476D01*
X135128571Y-29138095D01*
X135176190Y-29233333D01*
X135176190Y-29614285D01*
X134747619Y-28661904D02*
X134700000Y-28614285D01*
X134652380Y-28519047D01*
X134652380Y-28280952D01*
X134700000Y-28185714D01*
X134747619Y-28138095D01*
X134842857Y-28090476D01*
X134938095Y-28090476D01*
X135080952Y-28138095D01*
X135652380Y-28709523D01*
X135652380Y-28090476D01*
X134652380Y-27757142D02*
X134652380Y-27138095D01*
X135033333Y-27471428D01*
X135033333Y-27328571D01*
X135080952Y-27233333D01*
X135128571Y-27185714D01*
X135223809Y-27138095D01*
X135461904Y-27138095D01*
X135557142Y-27185714D01*
X135604761Y-27233333D01*
X135652380Y-27328571D01*
X135652380Y-27614285D01*
X135604761Y-27709523D01*
X135557142Y-27757142D01*
%TO.C,R22*%
X130607142Y-26202380D02*
X130273809Y-25726190D01*
X130035714Y-26202380D02*
X130035714Y-25202380D01*
X130416666Y-25202380D01*
X130511904Y-25250000D01*
X130559523Y-25297619D01*
X130607142Y-25392857D01*
X130607142Y-25535714D01*
X130559523Y-25630952D01*
X130511904Y-25678571D01*
X130416666Y-25726190D01*
X130035714Y-25726190D01*
X130988095Y-25297619D02*
X131035714Y-25250000D01*
X131130952Y-25202380D01*
X131369047Y-25202380D01*
X131464285Y-25250000D01*
X131511904Y-25297619D01*
X131559523Y-25392857D01*
X131559523Y-25488095D01*
X131511904Y-25630952D01*
X130940476Y-26202380D01*
X131559523Y-26202380D01*
X131940476Y-25297619D02*
X131988095Y-25250000D01*
X132083333Y-25202380D01*
X132321428Y-25202380D01*
X132416666Y-25250000D01*
X132464285Y-25297619D01*
X132511904Y-25392857D01*
X132511904Y-25488095D01*
X132464285Y-25630952D01*
X131892857Y-26202380D01*
X132511904Y-26202380D01*
%TO.C,J3*%
X114916666Y-42452380D02*
X114916666Y-43166666D01*
X114869047Y-43309523D01*
X114773809Y-43404761D01*
X114630952Y-43452380D01*
X114535714Y-43452380D01*
X115297619Y-42452380D02*
X115916666Y-42452380D01*
X115583333Y-42833333D01*
X115726190Y-42833333D01*
X115821428Y-42880952D01*
X115869047Y-42928571D01*
X115916666Y-43023809D01*
X115916666Y-43261904D01*
X115869047Y-43357142D01*
X115821428Y-43404761D01*
X115726190Y-43452380D01*
X115440476Y-43452380D01*
X115345238Y-43404761D01*
X115297619Y-43357142D01*
%TO.C,J5*%
X127416666Y-23702380D02*
X127416666Y-24416666D01*
X127369047Y-24559523D01*
X127273809Y-24654761D01*
X127130952Y-24702380D01*
X127035714Y-24702380D01*
X128369047Y-23702380D02*
X127892857Y-23702380D01*
X127845238Y-24178571D01*
X127892857Y-24130952D01*
X127988095Y-24083333D01*
X128226190Y-24083333D01*
X128321428Y-24130952D01*
X128369047Y-24178571D01*
X128416666Y-24273809D01*
X128416666Y-24511904D01*
X128369047Y-24607142D01*
X128321428Y-24654761D01*
X128226190Y-24702380D01*
X127988095Y-24702380D01*
X127892857Y-24654761D01*
X127845238Y-24607142D01*
%TO.C,D7*%
X142952380Y-37988095D02*
X141952380Y-37988095D01*
X141952380Y-37750000D01*
X142000000Y-37607142D01*
X142095238Y-37511904D01*
X142190476Y-37464285D01*
X142380952Y-37416666D01*
X142523809Y-37416666D01*
X142714285Y-37464285D01*
X142809523Y-37511904D01*
X142904761Y-37607142D01*
X142952380Y-37750000D01*
X142952380Y-37988095D01*
X141952380Y-37083333D02*
X141952380Y-36416666D01*
X142952380Y-36845238D01*
%TO.C,D6*%
X158511904Y-34702380D02*
X158511904Y-33702380D01*
X158750000Y-33702380D01*
X158892857Y-33750000D01*
X158988095Y-33845238D01*
X159035714Y-33940476D01*
X159083333Y-34130952D01*
X159083333Y-34273809D01*
X159035714Y-34464285D01*
X158988095Y-34559523D01*
X158892857Y-34654761D01*
X158750000Y-34702380D01*
X158511904Y-34702380D01*
X159940476Y-33702380D02*
X159750000Y-33702380D01*
X159654761Y-33750000D01*
X159607142Y-33797619D01*
X159511904Y-33940476D01*
X159464285Y-34130952D01*
X159464285Y-34511904D01*
X159511904Y-34607142D01*
X159559523Y-34654761D01*
X159654761Y-34702380D01*
X159845238Y-34702380D01*
X159940476Y-34654761D01*
X159988095Y-34607142D01*
X160035714Y-34511904D01*
X160035714Y-34273809D01*
X159988095Y-34178571D01*
X159940476Y-34130952D01*
X159845238Y-34083333D01*
X159654761Y-34083333D01*
X159559523Y-34130952D01*
X159511904Y-34178571D01*
X159464285Y-34273809D01*
%TO.C,D5*%
X156761904Y-23952380D02*
X156761904Y-22952380D01*
X157000000Y-22952380D01*
X157142857Y-23000000D01*
X157238095Y-23095238D01*
X157285714Y-23190476D01*
X157333333Y-23380952D01*
X157333333Y-23523809D01*
X157285714Y-23714285D01*
X157238095Y-23809523D01*
X157142857Y-23904761D01*
X157000000Y-23952380D01*
X156761904Y-23952380D01*
X158238095Y-22952380D02*
X157761904Y-22952380D01*
X157714285Y-23428571D01*
X157761904Y-23380952D01*
X157857142Y-23333333D01*
X158095238Y-23333333D01*
X158190476Y-23380952D01*
X158238095Y-23428571D01*
X158285714Y-23523809D01*
X158285714Y-23761904D01*
X158238095Y-23857142D01*
X158190476Y-23904761D01*
X158095238Y-23952380D01*
X157857142Y-23952380D01*
X157761904Y-23904761D01*
X157714285Y-23857142D01*
%TO.C,D4*%
X156761904Y-21952380D02*
X156761904Y-20952380D01*
X157000000Y-20952380D01*
X157142857Y-21000000D01*
X157238095Y-21095238D01*
X157285714Y-21190476D01*
X157333333Y-21380952D01*
X157333333Y-21523809D01*
X157285714Y-21714285D01*
X157238095Y-21809523D01*
X157142857Y-21904761D01*
X157000000Y-21952380D01*
X156761904Y-21952380D01*
X158190476Y-21285714D02*
X158190476Y-21952380D01*
X157952380Y-20904761D02*
X157714285Y-21619047D01*
X158333333Y-21619047D01*
%TO.C,D2*%
X112719904Y-32452380D02*
X112719904Y-31452380D01*
X112958000Y-31452380D01*
X113100857Y-31500000D01*
X113196095Y-31595238D01*
X113243714Y-31690476D01*
X113291333Y-31880952D01*
X113291333Y-32023809D01*
X113243714Y-32214285D01*
X113196095Y-32309523D01*
X113100857Y-32404761D01*
X112958000Y-32452380D01*
X112719904Y-32452380D01*
X113672285Y-31547619D02*
X113719904Y-31500000D01*
X113815142Y-31452380D01*
X114053238Y-31452380D01*
X114148476Y-31500000D01*
X114196095Y-31547619D01*
X114243714Y-31642857D01*
X114243714Y-31738095D01*
X114196095Y-31880952D01*
X113624666Y-32452380D01*
X114243714Y-32452380D01*
%TO.C,D10*%
X137035714Y-34952380D02*
X137035714Y-33952380D01*
X137273809Y-33952380D01*
X137416666Y-34000000D01*
X137511904Y-34095238D01*
X137559523Y-34190476D01*
X137607142Y-34380952D01*
X137607142Y-34523809D01*
X137559523Y-34714285D01*
X137511904Y-34809523D01*
X137416666Y-34904761D01*
X137273809Y-34952380D01*
X137035714Y-34952380D01*
X138559523Y-34952380D02*
X137988095Y-34952380D01*
X138273809Y-34952380D02*
X138273809Y-33952380D01*
X138178571Y-34095238D01*
X138083333Y-34190476D01*
X137988095Y-34238095D01*
X139178571Y-33952380D02*
X139273809Y-33952380D01*
X139369047Y-34000000D01*
X139416666Y-34047619D01*
X139464285Y-34142857D01*
X139511904Y-34333333D01*
X139511904Y-34571428D01*
X139464285Y-34761904D01*
X139416666Y-34857142D01*
X139369047Y-34904761D01*
X139273809Y-34952380D01*
X139178571Y-34952380D01*
X139083333Y-34904761D01*
X139035714Y-34857142D01*
X138988095Y-34761904D01*
X138940476Y-34571428D01*
X138940476Y-34333333D01*
X138988095Y-34142857D01*
X139035714Y-34047619D01*
X139083333Y-34000000D01*
X139178571Y-33952380D01*
%TO.C,D9*%
X127852380Y-28238095D02*
X126852380Y-28238095D01*
X126852380Y-28000000D01*
X126900000Y-27857142D01*
X126995238Y-27761904D01*
X127090476Y-27714285D01*
X127280952Y-27666666D01*
X127423809Y-27666666D01*
X127614285Y-27714285D01*
X127709523Y-27761904D01*
X127804761Y-27857142D01*
X127852380Y-28000000D01*
X127852380Y-28238095D01*
X127852380Y-27190476D02*
X127852380Y-27000000D01*
X127804761Y-26904761D01*
X127757142Y-26857142D01*
X127614285Y-26761904D01*
X127423809Y-26714285D01*
X127042857Y-26714285D01*
X126947619Y-26761904D01*
X126900000Y-26809523D01*
X126852380Y-26904761D01*
X126852380Y-27095238D01*
X126900000Y-27190476D01*
X126947619Y-27238095D01*
X127042857Y-27285714D01*
X127280952Y-27285714D01*
X127376190Y-27238095D01*
X127423809Y-27190476D01*
X127471428Y-27095238D01*
X127471428Y-26904761D01*
X127423809Y-26809523D01*
X127376190Y-26761904D01*
X127280952Y-26714285D01*
%TO.C,C10*%
X144107142Y-44857142D02*
X144059523Y-44904761D01*
X143916666Y-44952380D01*
X143821428Y-44952380D01*
X143678571Y-44904761D01*
X143583333Y-44809523D01*
X143535714Y-44714285D01*
X143488095Y-44523809D01*
X143488095Y-44380952D01*
X143535714Y-44190476D01*
X143583333Y-44095238D01*
X143678571Y-44000000D01*
X143821428Y-43952380D01*
X143916666Y-43952380D01*
X144059523Y-44000000D01*
X144107142Y-44047619D01*
X145059523Y-44952380D02*
X144488095Y-44952380D01*
X144773809Y-44952380D02*
X144773809Y-43952380D01*
X144678571Y-44095238D01*
X144583333Y-44190476D01*
X144488095Y-44238095D01*
X145678571Y-43952380D02*
X145773809Y-43952380D01*
X145869047Y-44000000D01*
X145916666Y-44047619D01*
X145964285Y-44142857D01*
X146011904Y-44333333D01*
X146011904Y-44571428D01*
X145964285Y-44761904D01*
X145916666Y-44857142D01*
X145869047Y-44904761D01*
X145773809Y-44952380D01*
X145678571Y-44952380D01*
X145583333Y-44904761D01*
X145535714Y-44857142D01*
X145488095Y-44761904D01*
X145440476Y-44571428D01*
X145440476Y-44333333D01*
X145488095Y-44142857D01*
X145535714Y-44047619D01*
X145583333Y-44000000D01*
X145678571Y-43952380D01*
%TO.C,C9*%
X157233333Y-37157142D02*
X157185714Y-37204761D01*
X157042857Y-37252380D01*
X156947619Y-37252380D01*
X156804761Y-37204761D01*
X156709523Y-37109523D01*
X156661904Y-37014285D01*
X156614285Y-36823809D01*
X156614285Y-36680952D01*
X156661904Y-36490476D01*
X156709523Y-36395238D01*
X156804761Y-36300000D01*
X156947619Y-36252380D01*
X157042857Y-36252380D01*
X157185714Y-36300000D01*
X157233333Y-36347619D01*
X157709523Y-37252380D02*
X157900000Y-37252380D01*
X157995238Y-37204761D01*
X158042857Y-37157142D01*
X158138095Y-37014285D01*
X158185714Y-36823809D01*
X158185714Y-36442857D01*
X158138095Y-36347619D01*
X158090476Y-36300000D01*
X157995238Y-36252380D01*
X157804761Y-36252380D01*
X157709523Y-36300000D01*
X157661904Y-36347619D01*
X157614285Y-36442857D01*
X157614285Y-36680952D01*
X157661904Y-36776190D01*
X157709523Y-36823809D01*
X157804761Y-36871428D01*
X157995238Y-36871428D01*
X158090476Y-36823809D01*
X158138095Y-36776190D01*
X158185714Y-36680952D01*
%TO.C,C1*%
X151557142Y-32566666D02*
X151604761Y-32614285D01*
X151652380Y-32757142D01*
X151652380Y-32852380D01*
X151604761Y-32995238D01*
X151509523Y-33090476D01*
X151414285Y-33138095D01*
X151223809Y-33185714D01*
X151080952Y-33185714D01*
X150890476Y-33138095D01*
X150795238Y-33090476D01*
X150700000Y-32995238D01*
X150652380Y-32852380D01*
X150652380Y-32757142D01*
X150700000Y-32614285D01*
X150747619Y-32566666D01*
X151652380Y-31614285D02*
X151652380Y-32185714D01*
X151652380Y-31900000D02*
X150652380Y-31900000D01*
X150795238Y-31995238D01*
X150890476Y-32090476D01*
X150938095Y-32185714D01*
%TO.C,C14*%
X128057142Y-42542857D02*
X128104761Y-42590476D01*
X128152380Y-42733333D01*
X128152380Y-42828571D01*
X128104761Y-42971428D01*
X128009523Y-43066666D01*
X127914285Y-43114285D01*
X127723809Y-43161904D01*
X127580952Y-43161904D01*
X127390476Y-43114285D01*
X127295238Y-43066666D01*
X127200000Y-42971428D01*
X127152380Y-42828571D01*
X127152380Y-42733333D01*
X127200000Y-42590476D01*
X127247619Y-42542857D01*
X128152380Y-41590476D02*
X128152380Y-42161904D01*
X128152380Y-41876190D02*
X127152380Y-41876190D01*
X127295238Y-41971428D01*
X127390476Y-42066666D01*
X127438095Y-42161904D01*
X127485714Y-40733333D02*
X128152380Y-40733333D01*
X127104761Y-40971428D02*
X127819047Y-41209523D01*
X127819047Y-40590476D01*
%TO.C,C13*%
X126607142Y-35357142D02*
X126559523Y-35404761D01*
X126416666Y-35452380D01*
X126321428Y-35452380D01*
X126178571Y-35404761D01*
X126083333Y-35309523D01*
X126035714Y-35214285D01*
X125988095Y-35023809D01*
X125988095Y-34880952D01*
X126035714Y-34690476D01*
X126083333Y-34595238D01*
X126178571Y-34500000D01*
X126321428Y-34452380D01*
X126416666Y-34452380D01*
X126559523Y-34500000D01*
X126607142Y-34547619D01*
X127559523Y-35452380D02*
X126988095Y-35452380D01*
X127273809Y-35452380D02*
X127273809Y-34452380D01*
X127178571Y-34595238D01*
X127083333Y-34690476D01*
X126988095Y-34738095D01*
X127892857Y-34452380D02*
X128511904Y-34452380D01*
X128178571Y-34833333D01*
X128321428Y-34833333D01*
X128416666Y-34880952D01*
X128464285Y-34928571D01*
X128511904Y-35023809D01*
X128511904Y-35261904D01*
X128464285Y-35357142D01*
X128416666Y-35404761D01*
X128321428Y-35452380D01*
X128035714Y-35452380D01*
X127940476Y-35404761D01*
X127892857Y-35357142D01*
%TO.C,C12*%
X140107142Y-35107142D02*
X140059523Y-35154761D01*
X139916666Y-35202380D01*
X139821428Y-35202380D01*
X139678571Y-35154761D01*
X139583333Y-35059523D01*
X139535714Y-34964285D01*
X139488095Y-34773809D01*
X139488095Y-34630952D01*
X139535714Y-34440476D01*
X139583333Y-34345238D01*
X139678571Y-34250000D01*
X139821428Y-34202380D01*
X139916666Y-34202380D01*
X140059523Y-34250000D01*
X140107142Y-34297619D01*
X141059523Y-35202380D02*
X140488095Y-35202380D01*
X140773809Y-35202380D02*
X140773809Y-34202380D01*
X140678571Y-34345238D01*
X140583333Y-34440476D01*
X140488095Y-34488095D01*
X141440476Y-34297619D02*
X141488095Y-34250000D01*
X141583333Y-34202380D01*
X141821428Y-34202380D01*
X141916666Y-34250000D01*
X141964285Y-34297619D01*
X142011904Y-34392857D01*
X142011904Y-34488095D01*
X141964285Y-34630952D01*
X141392857Y-35202380D01*
X142011904Y-35202380D01*
%TO.C,C11*%
X128057142Y-47442857D02*
X128104761Y-47490476D01*
X128152380Y-47633333D01*
X128152380Y-47728571D01*
X128104761Y-47871428D01*
X128009523Y-47966666D01*
X127914285Y-48014285D01*
X127723809Y-48061904D01*
X127580952Y-48061904D01*
X127390476Y-48014285D01*
X127295238Y-47966666D01*
X127200000Y-47871428D01*
X127152380Y-47728571D01*
X127152380Y-47633333D01*
X127200000Y-47490476D01*
X127247619Y-47442857D01*
X128152380Y-46490476D02*
X128152380Y-47061904D01*
X128152380Y-46776190D02*
X127152380Y-46776190D01*
X127295238Y-46871428D01*
X127390476Y-46966666D01*
X127438095Y-47061904D01*
X128152380Y-45538095D02*
X128152380Y-46109523D01*
X128152380Y-45823809D02*
X127152380Y-45823809D01*
X127295238Y-45919047D01*
X127390476Y-46014285D01*
X127438095Y-46109523D01*
%TO.C,C7*%
X157583333Y-35957142D02*
X157535714Y-36004761D01*
X157392857Y-36052380D01*
X157297619Y-36052380D01*
X157154761Y-36004761D01*
X157059523Y-35909523D01*
X157011904Y-35814285D01*
X156964285Y-35623809D01*
X156964285Y-35480952D01*
X157011904Y-35290476D01*
X157059523Y-35195238D01*
X157154761Y-35100000D01*
X157297619Y-35052380D01*
X157392857Y-35052380D01*
X157535714Y-35100000D01*
X157583333Y-35147619D01*
X157916666Y-35052380D02*
X158583333Y-35052380D01*
X158154761Y-36052380D01*
%TO.C,C6*%
X154833333Y-23857142D02*
X154785714Y-23904761D01*
X154642857Y-23952380D01*
X154547619Y-23952380D01*
X154404761Y-23904761D01*
X154309523Y-23809523D01*
X154261904Y-23714285D01*
X154214285Y-23523809D01*
X154214285Y-23380952D01*
X154261904Y-23190476D01*
X154309523Y-23095238D01*
X154404761Y-23000000D01*
X154547619Y-22952380D01*
X154642857Y-22952380D01*
X154785714Y-23000000D01*
X154833333Y-23047619D01*
X155690476Y-22952380D02*
X155500000Y-22952380D01*
X155404761Y-23000000D01*
X155357142Y-23047619D01*
X155261904Y-23190476D01*
X155214285Y-23380952D01*
X155214285Y-23761904D01*
X155261904Y-23857142D01*
X155309523Y-23904761D01*
X155404761Y-23952380D01*
X155595238Y-23952380D01*
X155690476Y-23904761D01*
X155738095Y-23857142D01*
X155785714Y-23761904D01*
X155785714Y-23523809D01*
X155738095Y-23428571D01*
X155690476Y-23380952D01*
X155595238Y-23333333D01*
X155404761Y-23333333D01*
X155309523Y-23380952D01*
X155261904Y-23428571D01*
X155214285Y-23523809D01*
%TO.C,C20*%
X110607142Y-37857142D02*
X110559523Y-37904761D01*
X110416666Y-37952380D01*
X110321428Y-37952380D01*
X110178571Y-37904761D01*
X110083333Y-37809523D01*
X110035714Y-37714285D01*
X109988095Y-37523809D01*
X109988095Y-37380952D01*
X110035714Y-37190476D01*
X110083333Y-37095238D01*
X110178571Y-37000000D01*
X110321428Y-36952380D01*
X110416666Y-36952380D01*
X110559523Y-37000000D01*
X110607142Y-37047619D01*
X110988095Y-37047619D02*
X111035714Y-37000000D01*
X111130952Y-36952380D01*
X111369047Y-36952380D01*
X111464285Y-37000000D01*
X111511904Y-37047619D01*
X111559523Y-37142857D01*
X111559523Y-37238095D01*
X111511904Y-37380952D01*
X110940476Y-37952380D01*
X111559523Y-37952380D01*
X112178571Y-36952380D02*
X112273809Y-36952380D01*
X112369047Y-37000000D01*
X112416666Y-37047619D01*
X112464285Y-37142857D01*
X112511904Y-37333333D01*
X112511904Y-37571428D01*
X112464285Y-37761904D01*
X112416666Y-37857142D01*
X112369047Y-37904761D01*
X112273809Y-37952380D01*
X112178571Y-37952380D01*
X112083333Y-37904761D01*
X112035714Y-37857142D01*
X111988095Y-37761904D01*
X111940476Y-37571428D01*
X111940476Y-37333333D01*
X111988095Y-37142857D01*
X112035714Y-37047619D01*
X112083333Y-37000000D01*
X112178571Y-36952380D01*
%TO.C,C18*%
X109357142Y-39357142D02*
X109309523Y-39404761D01*
X109166666Y-39452380D01*
X109071428Y-39452380D01*
X108928571Y-39404761D01*
X108833333Y-39309523D01*
X108785714Y-39214285D01*
X108738095Y-39023809D01*
X108738095Y-38880952D01*
X108785714Y-38690476D01*
X108833333Y-38595238D01*
X108928571Y-38500000D01*
X109071428Y-38452380D01*
X109166666Y-38452380D01*
X109309523Y-38500000D01*
X109357142Y-38547619D01*
X110309523Y-39452380D02*
X109738095Y-39452380D01*
X110023809Y-39452380D02*
X110023809Y-38452380D01*
X109928571Y-38595238D01*
X109833333Y-38690476D01*
X109738095Y-38738095D01*
X110880952Y-38880952D02*
X110785714Y-38833333D01*
X110738095Y-38785714D01*
X110690476Y-38690476D01*
X110690476Y-38642857D01*
X110738095Y-38547619D01*
X110785714Y-38500000D01*
X110880952Y-38452380D01*
X111071428Y-38452380D01*
X111166666Y-38500000D01*
X111214285Y-38547619D01*
X111261904Y-38642857D01*
X111261904Y-38690476D01*
X111214285Y-38785714D01*
X111166666Y-38833333D01*
X111071428Y-38880952D01*
X110880952Y-38880952D01*
X110785714Y-38928571D01*
X110738095Y-38976190D01*
X110690476Y-39071428D01*
X110690476Y-39261904D01*
X110738095Y-39357142D01*
X110785714Y-39404761D01*
X110880952Y-39452380D01*
X111071428Y-39452380D01*
X111166666Y-39404761D01*
X111214285Y-39357142D01*
X111261904Y-39261904D01*
X111261904Y-39071428D01*
X111214285Y-38976190D01*
X111166666Y-38928571D01*
X111071428Y-38880952D01*
%TO.C,C5*%
X154333333Y-21857142D02*
X154285714Y-21904761D01*
X154142857Y-21952380D01*
X154047619Y-21952380D01*
X153904761Y-21904761D01*
X153809523Y-21809523D01*
X153761904Y-21714285D01*
X153714285Y-21523809D01*
X153714285Y-21380952D01*
X153761904Y-21190476D01*
X153809523Y-21095238D01*
X153904761Y-21000000D01*
X154047619Y-20952380D01*
X154142857Y-20952380D01*
X154285714Y-21000000D01*
X154333333Y-21047619D01*
X155238095Y-20952380D02*
X154761904Y-20952380D01*
X154714285Y-21428571D01*
X154761904Y-21380952D01*
X154857142Y-21333333D01*
X155095238Y-21333333D01*
X155190476Y-21380952D01*
X155238095Y-21428571D01*
X155285714Y-21523809D01*
X155285714Y-21761904D01*
X155238095Y-21857142D01*
X155190476Y-21904761D01*
X155095238Y-21952380D01*
X154857142Y-21952380D01*
X154761904Y-21904761D01*
X154714285Y-21857142D01*
%TO.C,C4*%
X109107142Y-25416666D02*
X109154761Y-25464285D01*
X109202380Y-25607142D01*
X109202380Y-25702380D01*
X109154761Y-25845238D01*
X109059523Y-25940476D01*
X108964285Y-25988095D01*
X108773809Y-26035714D01*
X108630952Y-26035714D01*
X108440476Y-25988095D01*
X108345238Y-25940476D01*
X108250000Y-25845238D01*
X108202380Y-25702380D01*
X108202380Y-25607142D01*
X108250000Y-25464285D01*
X108297619Y-25416666D01*
X108535714Y-24559523D02*
X109202380Y-24559523D01*
X108154761Y-24797619D02*
X108869047Y-25035714D01*
X108869047Y-24416666D01*
%TO.C,C3*%
X107833333Y-29357142D02*
X107785714Y-29404761D01*
X107642857Y-29452380D01*
X107547619Y-29452380D01*
X107404761Y-29404761D01*
X107309523Y-29309523D01*
X107261904Y-29214285D01*
X107214285Y-29023809D01*
X107214285Y-28880952D01*
X107261904Y-28690476D01*
X107309523Y-28595238D01*
X107404761Y-28500000D01*
X107547619Y-28452380D01*
X107642857Y-28452380D01*
X107785714Y-28500000D01*
X107833333Y-28547619D01*
X108166666Y-28452380D02*
X108785714Y-28452380D01*
X108452380Y-28833333D01*
X108595238Y-28833333D01*
X108690476Y-28880952D01*
X108738095Y-28928571D01*
X108785714Y-29023809D01*
X108785714Y-29261904D01*
X108738095Y-29357142D01*
X108690476Y-29404761D01*
X108595238Y-29452380D01*
X108309523Y-29452380D01*
X108214285Y-29404761D01*
X108166666Y-29357142D01*
%TO.C,C2*%
X104857142Y-36166666D02*
X104904761Y-36214285D01*
X104952380Y-36357142D01*
X104952380Y-36452380D01*
X104904761Y-36595238D01*
X104809523Y-36690476D01*
X104714285Y-36738095D01*
X104523809Y-36785714D01*
X104380952Y-36785714D01*
X104190476Y-36738095D01*
X104095238Y-36690476D01*
X104000000Y-36595238D01*
X103952380Y-36452380D01*
X103952380Y-36357142D01*
X104000000Y-36214285D01*
X104047619Y-36166666D01*
X104047619Y-35785714D02*
X104000000Y-35738095D01*
X103952380Y-35642857D01*
X103952380Y-35404761D01*
X104000000Y-35309523D01*
X104047619Y-35261904D01*
X104142857Y-35214285D01*
X104238095Y-35214285D01*
X104380952Y-35261904D01*
X104952380Y-35833333D01*
X104952380Y-35214285D01*
%TO.C,C16*%
X134287142Y-28392857D02*
X134334761Y-28440476D01*
X134382380Y-28583333D01*
X134382380Y-28678571D01*
X134334761Y-28821428D01*
X134239523Y-28916666D01*
X134144285Y-28964285D01*
X133953809Y-29011904D01*
X133810952Y-29011904D01*
X133620476Y-28964285D01*
X133525238Y-28916666D01*
X133430000Y-28821428D01*
X133382380Y-28678571D01*
X133382380Y-28583333D01*
X133430000Y-28440476D01*
X133477619Y-28392857D01*
X134382380Y-27440476D02*
X134382380Y-28011904D01*
X134382380Y-27726190D02*
X133382380Y-27726190D01*
X133525238Y-27821428D01*
X133620476Y-27916666D01*
X133668095Y-28011904D01*
X133382380Y-26583333D02*
X133382380Y-26773809D01*
X133430000Y-26869047D01*
X133477619Y-26916666D01*
X133620476Y-27011904D01*
X133810952Y-27059523D01*
X134191904Y-27059523D01*
X134287142Y-27011904D01*
X134334761Y-26964285D01*
X134382380Y-26869047D01*
X134382380Y-26678571D01*
X134334761Y-26583333D01*
X134287142Y-26535714D01*
X134191904Y-26488095D01*
X133953809Y-26488095D01*
X133858571Y-26535714D01*
X133810952Y-26583333D01*
X133763333Y-26678571D01*
X133763333Y-26869047D01*
X133810952Y-26964285D01*
X133858571Y-27011904D01*
X133953809Y-27059523D01*
%TO.C,C19*%
X133677142Y-32392857D02*
X133724761Y-32440476D01*
X133772380Y-32583333D01*
X133772380Y-32678571D01*
X133724761Y-32821428D01*
X133629523Y-32916666D01*
X133534285Y-32964285D01*
X133343809Y-33011904D01*
X133200952Y-33011904D01*
X133010476Y-32964285D01*
X132915238Y-32916666D01*
X132820000Y-32821428D01*
X132772380Y-32678571D01*
X132772380Y-32583333D01*
X132820000Y-32440476D01*
X132867619Y-32392857D01*
X133772380Y-31440476D02*
X133772380Y-32011904D01*
X133772380Y-31726190D02*
X132772380Y-31726190D01*
X132915238Y-31821428D01*
X133010476Y-31916666D01*
X133058095Y-32011904D01*
X133772380Y-30964285D02*
X133772380Y-30773809D01*
X133724761Y-30678571D01*
X133677142Y-30630952D01*
X133534285Y-30535714D01*
X133343809Y-30488095D01*
X132962857Y-30488095D01*
X132867619Y-30535714D01*
X132820000Y-30583333D01*
X132772380Y-30678571D01*
X132772380Y-30869047D01*
X132820000Y-30964285D01*
X132867619Y-31011904D01*
X132962857Y-31059523D01*
X133200952Y-31059523D01*
X133296190Y-31011904D01*
X133343809Y-30964285D01*
X133391428Y-30869047D01*
X133391428Y-30678571D01*
X133343809Y-30583333D01*
X133296190Y-30535714D01*
X133200952Y-30488095D01*
%TD*%
M02*
