%TF.GenerationSoftware,KiCad,Pcbnew,5.1.9-73d0e3b20d~88~ubuntu20.04.1*%
%TF.CreationDate,2021-02-21T12:43:02+01:00*%
%TF.ProjectId,input-board,696e7075-742d-4626-9f61-72642e6b6963,rev?*%
%TF.SameCoordinates,Original*%
%TF.FileFunction,Paste,Top*%
%TF.FilePolarity,Positive*%
%FSLAX46Y46*%
G04 Gerber Fmt 4.6, Leading zero omitted, Abs format (unit mm)*
G04 Created by KiCad (PCBNEW 5.1.9-73d0e3b20d~88~ubuntu20.04.1) date 2021-02-21 12:43:02*
%MOMM*%
%LPD*%
G01*
G04 APERTURE LIST*
%ADD10R,1.500000X2.000000*%
%ADD11R,3.800000X2.000000*%
%ADD12R,1.200000X0.900000*%
%ADD13R,0.650000X0.850000*%
%ADD14R,0.450000X0.600000*%
%ADD15R,0.600000X1.000000*%
%ADD16R,0.650000X0.350000*%
%ADD17R,2.000000X1.500000*%
%ADD18R,2.000000X3.800000*%
%ADD19R,0.800000X0.900000*%
G04 APERTURE END LIST*
D10*
%TO.C,U1*%
X151450000Y-46650000D03*
X156050000Y-46650000D03*
X153750000Y-46650000D03*
D11*
X153750000Y-40350000D03*
%TD*%
%TO.C,C4*%
G36*
G01*
X156543750Y-40200000D02*
X157456250Y-40200000D01*
G75*
G02*
X157700000Y-40443750I0J-243750D01*
G01*
X157700000Y-40931250D01*
G75*
G02*
X157456250Y-41175000I-243750J0D01*
G01*
X156543750Y-41175000D01*
G75*
G02*
X156300000Y-40931250I0J243750D01*
G01*
X156300000Y-40443750D01*
G75*
G02*
X156543750Y-40200000I243750J0D01*
G01*
G37*
G36*
G01*
X156543750Y-38325000D02*
X157456250Y-38325000D01*
G75*
G02*
X157700000Y-38568750I0J-243750D01*
G01*
X157700000Y-39056250D01*
G75*
G02*
X157456250Y-39300000I-243750J0D01*
G01*
X156543750Y-39300000D01*
G75*
G02*
X156300000Y-39056250I0J243750D01*
G01*
X156300000Y-38568750D01*
G75*
G02*
X156543750Y-38325000I243750J0D01*
G01*
G37*
%TD*%
%TO.C,C3*%
G36*
G01*
X148793750Y-43950000D02*
X149706250Y-43950000D01*
G75*
G02*
X149950000Y-44193750I0J-243750D01*
G01*
X149950000Y-44681250D01*
G75*
G02*
X149706250Y-44925000I-243750J0D01*
G01*
X148793750Y-44925000D01*
G75*
G02*
X148550000Y-44681250I0J243750D01*
G01*
X148550000Y-44193750D01*
G75*
G02*
X148793750Y-43950000I243750J0D01*
G01*
G37*
G36*
G01*
X148793750Y-42075000D02*
X149706250Y-42075000D01*
G75*
G02*
X149950000Y-42318750I0J-243750D01*
G01*
X149950000Y-42806250D01*
G75*
G02*
X149706250Y-43050000I-243750J0D01*
G01*
X148793750Y-43050000D01*
G75*
G02*
X148550000Y-42806250I0J243750D01*
G01*
X148550000Y-42318750D01*
G75*
G02*
X148793750Y-42075000I243750J0D01*
G01*
G37*
%TD*%
D12*
%TO.C,D9*%
X140000000Y-39600000D03*
X140000000Y-42900000D03*
%TD*%
D13*
%TO.C,X1*%
X137925000Y-44225000D03*
X139575000Y-44225000D03*
X139575000Y-45775000D03*
X137925000Y-45775000D03*
%TD*%
%TO.C,C17*%
G36*
G01*
X138425000Y-47000000D02*
X138425000Y-47500000D01*
G75*
G02*
X138200000Y-47725000I-225000J0D01*
G01*
X137750000Y-47725000D01*
G75*
G02*
X137525000Y-47500000I0J225000D01*
G01*
X137525000Y-47000000D01*
G75*
G02*
X137750000Y-46775000I225000J0D01*
G01*
X138200000Y-46775000D01*
G75*
G02*
X138425000Y-47000000I0J-225000D01*
G01*
G37*
G36*
G01*
X139975000Y-47000000D02*
X139975000Y-47500000D01*
G75*
G02*
X139750000Y-47725000I-225000J0D01*
G01*
X139300000Y-47725000D01*
G75*
G02*
X139075000Y-47500000I0J225000D01*
G01*
X139075000Y-47000000D01*
G75*
G02*
X139300000Y-46775000I225000J0D01*
G01*
X139750000Y-46775000D01*
G75*
G02*
X139975000Y-47000000I0J-225000D01*
G01*
G37*
%TD*%
D14*
%TO.C,D3*%
X111608000Y-33825000D03*
X111608000Y-35925000D03*
%TD*%
%TO.C,D5*%
X111608000Y-26713000D03*
X111608000Y-28813000D03*
%TD*%
D15*
%TO.C,U7*%
X149887500Y-38600000D03*
X149112500Y-38600000D03*
X149112500Y-37400000D03*
X149887500Y-37400000D03*
D16*
X147950000Y-38975000D03*
X147950000Y-38325000D03*
X147950000Y-37675000D03*
X147950000Y-37025000D03*
X151050000Y-37025000D03*
X151050000Y-37675000D03*
X151050000Y-38325000D03*
X151050000Y-38975000D03*
%TD*%
D17*
%TO.C,U4*%
X115600000Y-35450000D03*
X115600000Y-40050000D03*
X115600000Y-37750000D03*
D18*
X121900000Y-37750000D03*
%TD*%
%TO.C,U2*%
G36*
G01*
X130802000Y-45159000D02*
X130652000Y-45159000D01*
G75*
G02*
X130577000Y-45084000I0J75000D01*
G01*
X130577000Y-43759000D01*
G75*
G02*
X130652000Y-43684000I75000J0D01*
G01*
X130802000Y-43684000D01*
G75*
G02*
X130877000Y-43759000I0J-75000D01*
G01*
X130877000Y-45084000D01*
G75*
G02*
X130802000Y-45159000I-75000J0D01*
G01*
G37*
G36*
G01*
X131302000Y-45159000D02*
X131152000Y-45159000D01*
G75*
G02*
X131077000Y-45084000I0J75000D01*
G01*
X131077000Y-43759000D01*
G75*
G02*
X131152000Y-43684000I75000J0D01*
G01*
X131302000Y-43684000D01*
G75*
G02*
X131377000Y-43759000I0J-75000D01*
G01*
X131377000Y-45084000D01*
G75*
G02*
X131302000Y-45159000I-75000J0D01*
G01*
G37*
G36*
G01*
X131802000Y-45159000D02*
X131652000Y-45159000D01*
G75*
G02*
X131577000Y-45084000I0J75000D01*
G01*
X131577000Y-43759000D01*
G75*
G02*
X131652000Y-43684000I75000J0D01*
G01*
X131802000Y-43684000D01*
G75*
G02*
X131877000Y-43759000I0J-75000D01*
G01*
X131877000Y-45084000D01*
G75*
G02*
X131802000Y-45159000I-75000J0D01*
G01*
G37*
G36*
G01*
X132302000Y-45159000D02*
X132152000Y-45159000D01*
G75*
G02*
X132077000Y-45084000I0J75000D01*
G01*
X132077000Y-43759000D01*
G75*
G02*
X132152000Y-43684000I75000J0D01*
G01*
X132302000Y-43684000D01*
G75*
G02*
X132377000Y-43759000I0J-75000D01*
G01*
X132377000Y-45084000D01*
G75*
G02*
X132302000Y-45159000I-75000J0D01*
G01*
G37*
G36*
G01*
X132802000Y-45159000D02*
X132652000Y-45159000D01*
G75*
G02*
X132577000Y-45084000I0J75000D01*
G01*
X132577000Y-43759000D01*
G75*
G02*
X132652000Y-43684000I75000J0D01*
G01*
X132802000Y-43684000D01*
G75*
G02*
X132877000Y-43759000I0J-75000D01*
G01*
X132877000Y-45084000D01*
G75*
G02*
X132802000Y-45159000I-75000J0D01*
G01*
G37*
G36*
G01*
X133302000Y-45159000D02*
X133152000Y-45159000D01*
G75*
G02*
X133077000Y-45084000I0J75000D01*
G01*
X133077000Y-43759000D01*
G75*
G02*
X133152000Y-43684000I75000J0D01*
G01*
X133302000Y-43684000D01*
G75*
G02*
X133377000Y-43759000I0J-75000D01*
G01*
X133377000Y-45084000D01*
G75*
G02*
X133302000Y-45159000I-75000J0D01*
G01*
G37*
G36*
G01*
X133802000Y-45159000D02*
X133652000Y-45159000D01*
G75*
G02*
X133577000Y-45084000I0J75000D01*
G01*
X133577000Y-43759000D01*
G75*
G02*
X133652000Y-43684000I75000J0D01*
G01*
X133802000Y-43684000D01*
G75*
G02*
X133877000Y-43759000I0J-75000D01*
G01*
X133877000Y-45084000D01*
G75*
G02*
X133802000Y-45159000I-75000J0D01*
G01*
G37*
G36*
G01*
X134302000Y-45159000D02*
X134152000Y-45159000D01*
G75*
G02*
X134077000Y-45084000I0J75000D01*
G01*
X134077000Y-43759000D01*
G75*
G02*
X134152000Y-43684000I75000J0D01*
G01*
X134302000Y-43684000D01*
G75*
G02*
X134377000Y-43759000I0J-75000D01*
G01*
X134377000Y-45084000D01*
G75*
G02*
X134302000Y-45159000I-75000J0D01*
G01*
G37*
G36*
G01*
X134802000Y-45159000D02*
X134652000Y-45159000D01*
G75*
G02*
X134577000Y-45084000I0J75000D01*
G01*
X134577000Y-43759000D01*
G75*
G02*
X134652000Y-43684000I75000J0D01*
G01*
X134802000Y-43684000D01*
G75*
G02*
X134877000Y-43759000I0J-75000D01*
G01*
X134877000Y-45084000D01*
G75*
G02*
X134802000Y-45159000I-75000J0D01*
G01*
G37*
G36*
G01*
X135302000Y-45159000D02*
X135152000Y-45159000D01*
G75*
G02*
X135077000Y-45084000I0J75000D01*
G01*
X135077000Y-43759000D01*
G75*
G02*
X135152000Y-43684000I75000J0D01*
G01*
X135302000Y-43684000D01*
G75*
G02*
X135377000Y-43759000I0J-75000D01*
G01*
X135377000Y-45084000D01*
G75*
G02*
X135302000Y-45159000I-75000J0D01*
G01*
G37*
G36*
G01*
X135802000Y-45159000D02*
X135652000Y-45159000D01*
G75*
G02*
X135577000Y-45084000I0J75000D01*
G01*
X135577000Y-43759000D01*
G75*
G02*
X135652000Y-43684000I75000J0D01*
G01*
X135802000Y-43684000D01*
G75*
G02*
X135877000Y-43759000I0J-75000D01*
G01*
X135877000Y-45084000D01*
G75*
G02*
X135802000Y-45159000I-75000J0D01*
G01*
G37*
G36*
G01*
X136302000Y-45159000D02*
X136152000Y-45159000D01*
G75*
G02*
X136077000Y-45084000I0J75000D01*
G01*
X136077000Y-43759000D01*
G75*
G02*
X136152000Y-43684000I75000J0D01*
G01*
X136302000Y-43684000D01*
G75*
G02*
X136377000Y-43759000I0J-75000D01*
G01*
X136377000Y-45084000D01*
G75*
G02*
X136302000Y-45159000I-75000J0D01*
G01*
G37*
G36*
G01*
X138302000Y-43159000D02*
X136977000Y-43159000D01*
G75*
G02*
X136902000Y-43084000I0J75000D01*
G01*
X136902000Y-42934000D01*
G75*
G02*
X136977000Y-42859000I75000J0D01*
G01*
X138302000Y-42859000D01*
G75*
G02*
X138377000Y-42934000I0J-75000D01*
G01*
X138377000Y-43084000D01*
G75*
G02*
X138302000Y-43159000I-75000J0D01*
G01*
G37*
G36*
G01*
X138302000Y-42659000D02*
X136977000Y-42659000D01*
G75*
G02*
X136902000Y-42584000I0J75000D01*
G01*
X136902000Y-42434000D01*
G75*
G02*
X136977000Y-42359000I75000J0D01*
G01*
X138302000Y-42359000D01*
G75*
G02*
X138377000Y-42434000I0J-75000D01*
G01*
X138377000Y-42584000D01*
G75*
G02*
X138302000Y-42659000I-75000J0D01*
G01*
G37*
G36*
G01*
X138302000Y-42159000D02*
X136977000Y-42159000D01*
G75*
G02*
X136902000Y-42084000I0J75000D01*
G01*
X136902000Y-41934000D01*
G75*
G02*
X136977000Y-41859000I75000J0D01*
G01*
X138302000Y-41859000D01*
G75*
G02*
X138377000Y-41934000I0J-75000D01*
G01*
X138377000Y-42084000D01*
G75*
G02*
X138302000Y-42159000I-75000J0D01*
G01*
G37*
G36*
G01*
X138302000Y-41659000D02*
X136977000Y-41659000D01*
G75*
G02*
X136902000Y-41584000I0J75000D01*
G01*
X136902000Y-41434000D01*
G75*
G02*
X136977000Y-41359000I75000J0D01*
G01*
X138302000Y-41359000D01*
G75*
G02*
X138377000Y-41434000I0J-75000D01*
G01*
X138377000Y-41584000D01*
G75*
G02*
X138302000Y-41659000I-75000J0D01*
G01*
G37*
G36*
G01*
X138302000Y-41159000D02*
X136977000Y-41159000D01*
G75*
G02*
X136902000Y-41084000I0J75000D01*
G01*
X136902000Y-40934000D01*
G75*
G02*
X136977000Y-40859000I75000J0D01*
G01*
X138302000Y-40859000D01*
G75*
G02*
X138377000Y-40934000I0J-75000D01*
G01*
X138377000Y-41084000D01*
G75*
G02*
X138302000Y-41159000I-75000J0D01*
G01*
G37*
G36*
G01*
X138302000Y-40659000D02*
X136977000Y-40659000D01*
G75*
G02*
X136902000Y-40584000I0J75000D01*
G01*
X136902000Y-40434000D01*
G75*
G02*
X136977000Y-40359000I75000J0D01*
G01*
X138302000Y-40359000D01*
G75*
G02*
X138377000Y-40434000I0J-75000D01*
G01*
X138377000Y-40584000D01*
G75*
G02*
X138302000Y-40659000I-75000J0D01*
G01*
G37*
G36*
G01*
X138302000Y-40159000D02*
X136977000Y-40159000D01*
G75*
G02*
X136902000Y-40084000I0J75000D01*
G01*
X136902000Y-39934000D01*
G75*
G02*
X136977000Y-39859000I75000J0D01*
G01*
X138302000Y-39859000D01*
G75*
G02*
X138377000Y-39934000I0J-75000D01*
G01*
X138377000Y-40084000D01*
G75*
G02*
X138302000Y-40159000I-75000J0D01*
G01*
G37*
G36*
G01*
X138302000Y-39659000D02*
X136977000Y-39659000D01*
G75*
G02*
X136902000Y-39584000I0J75000D01*
G01*
X136902000Y-39434000D01*
G75*
G02*
X136977000Y-39359000I75000J0D01*
G01*
X138302000Y-39359000D01*
G75*
G02*
X138377000Y-39434000I0J-75000D01*
G01*
X138377000Y-39584000D01*
G75*
G02*
X138302000Y-39659000I-75000J0D01*
G01*
G37*
G36*
G01*
X138302000Y-39159000D02*
X136977000Y-39159000D01*
G75*
G02*
X136902000Y-39084000I0J75000D01*
G01*
X136902000Y-38934000D01*
G75*
G02*
X136977000Y-38859000I75000J0D01*
G01*
X138302000Y-38859000D01*
G75*
G02*
X138377000Y-38934000I0J-75000D01*
G01*
X138377000Y-39084000D01*
G75*
G02*
X138302000Y-39159000I-75000J0D01*
G01*
G37*
G36*
G01*
X138302000Y-38659000D02*
X136977000Y-38659000D01*
G75*
G02*
X136902000Y-38584000I0J75000D01*
G01*
X136902000Y-38434000D01*
G75*
G02*
X136977000Y-38359000I75000J0D01*
G01*
X138302000Y-38359000D01*
G75*
G02*
X138377000Y-38434000I0J-75000D01*
G01*
X138377000Y-38584000D01*
G75*
G02*
X138302000Y-38659000I-75000J0D01*
G01*
G37*
G36*
G01*
X138302000Y-38159000D02*
X136977000Y-38159000D01*
G75*
G02*
X136902000Y-38084000I0J75000D01*
G01*
X136902000Y-37934000D01*
G75*
G02*
X136977000Y-37859000I75000J0D01*
G01*
X138302000Y-37859000D01*
G75*
G02*
X138377000Y-37934000I0J-75000D01*
G01*
X138377000Y-38084000D01*
G75*
G02*
X138302000Y-38159000I-75000J0D01*
G01*
G37*
G36*
G01*
X138302000Y-37659000D02*
X136977000Y-37659000D01*
G75*
G02*
X136902000Y-37584000I0J75000D01*
G01*
X136902000Y-37434000D01*
G75*
G02*
X136977000Y-37359000I75000J0D01*
G01*
X138302000Y-37359000D01*
G75*
G02*
X138377000Y-37434000I0J-75000D01*
G01*
X138377000Y-37584000D01*
G75*
G02*
X138302000Y-37659000I-75000J0D01*
G01*
G37*
G36*
G01*
X136302000Y-36834000D02*
X136152000Y-36834000D01*
G75*
G02*
X136077000Y-36759000I0J75000D01*
G01*
X136077000Y-35434000D01*
G75*
G02*
X136152000Y-35359000I75000J0D01*
G01*
X136302000Y-35359000D01*
G75*
G02*
X136377000Y-35434000I0J-75000D01*
G01*
X136377000Y-36759000D01*
G75*
G02*
X136302000Y-36834000I-75000J0D01*
G01*
G37*
G36*
G01*
X135802000Y-36834000D02*
X135652000Y-36834000D01*
G75*
G02*
X135577000Y-36759000I0J75000D01*
G01*
X135577000Y-35434000D01*
G75*
G02*
X135652000Y-35359000I75000J0D01*
G01*
X135802000Y-35359000D01*
G75*
G02*
X135877000Y-35434000I0J-75000D01*
G01*
X135877000Y-36759000D01*
G75*
G02*
X135802000Y-36834000I-75000J0D01*
G01*
G37*
G36*
G01*
X135302000Y-36834000D02*
X135152000Y-36834000D01*
G75*
G02*
X135077000Y-36759000I0J75000D01*
G01*
X135077000Y-35434000D01*
G75*
G02*
X135152000Y-35359000I75000J0D01*
G01*
X135302000Y-35359000D01*
G75*
G02*
X135377000Y-35434000I0J-75000D01*
G01*
X135377000Y-36759000D01*
G75*
G02*
X135302000Y-36834000I-75000J0D01*
G01*
G37*
G36*
G01*
X134802000Y-36834000D02*
X134652000Y-36834000D01*
G75*
G02*
X134577000Y-36759000I0J75000D01*
G01*
X134577000Y-35434000D01*
G75*
G02*
X134652000Y-35359000I75000J0D01*
G01*
X134802000Y-35359000D01*
G75*
G02*
X134877000Y-35434000I0J-75000D01*
G01*
X134877000Y-36759000D01*
G75*
G02*
X134802000Y-36834000I-75000J0D01*
G01*
G37*
G36*
G01*
X134302000Y-36834000D02*
X134152000Y-36834000D01*
G75*
G02*
X134077000Y-36759000I0J75000D01*
G01*
X134077000Y-35434000D01*
G75*
G02*
X134152000Y-35359000I75000J0D01*
G01*
X134302000Y-35359000D01*
G75*
G02*
X134377000Y-35434000I0J-75000D01*
G01*
X134377000Y-36759000D01*
G75*
G02*
X134302000Y-36834000I-75000J0D01*
G01*
G37*
G36*
G01*
X133802000Y-36834000D02*
X133652000Y-36834000D01*
G75*
G02*
X133577000Y-36759000I0J75000D01*
G01*
X133577000Y-35434000D01*
G75*
G02*
X133652000Y-35359000I75000J0D01*
G01*
X133802000Y-35359000D01*
G75*
G02*
X133877000Y-35434000I0J-75000D01*
G01*
X133877000Y-36759000D01*
G75*
G02*
X133802000Y-36834000I-75000J0D01*
G01*
G37*
G36*
G01*
X133302000Y-36834000D02*
X133152000Y-36834000D01*
G75*
G02*
X133077000Y-36759000I0J75000D01*
G01*
X133077000Y-35434000D01*
G75*
G02*
X133152000Y-35359000I75000J0D01*
G01*
X133302000Y-35359000D01*
G75*
G02*
X133377000Y-35434000I0J-75000D01*
G01*
X133377000Y-36759000D01*
G75*
G02*
X133302000Y-36834000I-75000J0D01*
G01*
G37*
G36*
G01*
X132802000Y-36834000D02*
X132652000Y-36834000D01*
G75*
G02*
X132577000Y-36759000I0J75000D01*
G01*
X132577000Y-35434000D01*
G75*
G02*
X132652000Y-35359000I75000J0D01*
G01*
X132802000Y-35359000D01*
G75*
G02*
X132877000Y-35434000I0J-75000D01*
G01*
X132877000Y-36759000D01*
G75*
G02*
X132802000Y-36834000I-75000J0D01*
G01*
G37*
G36*
G01*
X132302000Y-36834000D02*
X132152000Y-36834000D01*
G75*
G02*
X132077000Y-36759000I0J75000D01*
G01*
X132077000Y-35434000D01*
G75*
G02*
X132152000Y-35359000I75000J0D01*
G01*
X132302000Y-35359000D01*
G75*
G02*
X132377000Y-35434000I0J-75000D01*
G01*
X132377000Y-36759000D01*
G75*
G02*
X132302000Y-36834000I-75000J0D01*
G01*
G37*
G36*
G01*
X131802000Y-36834000D02*
X131652000Y-36834000D01*
G75*
G02*
X131577000Y-36759000I0J75000D01*
G01*
X131577000Y-35434000D01*
G75*
G02*
X131652000Y-35359000I75000J0D01*
G01*
X131802000Y-35359000D01*
G75*
G02*
X131877000Y-35434000I0J-75000D01*
G01*
X131877000Y-36759000D01*
G75*
G02*
X131802000Y-36834000I-75000J0D01*
G01*
G37*
G36*
G01*
X131302000Y-36834000D02*
X131152000Y-36834000D01*
G75*
G02*
X131077000Y-36759000I0J75000D01*
G01*
X131077000Y-35434000D01*
G75*
G02*
X131152000Y-35359000I75000J0D01*
G01*
X131302000Y-35359000D01*
G75*
G02*
X131377000Y-35434000I0J-75000D01*
G01*
X131377000Y-36759000D01*
G75*
G02*
X131302000Y-36834000I-75000J0D01*
G01*
G37*
G36*
G01*
X130802000Y-36834000D02*
X130652000Y-36834000D01*
G75*
G02*
X130577000Y-36759000I0J75000D01*
G01*
X130577000Y-35434000D01*
G75*
G02*
X130652000Y-35359000I75000J0D01*
G01*
X130802000Y-35359000D01*
G75*
G02*
X130877000Y-35434000I0J-75000D01*
G01*
X130877000Y-36759000D01*
G75*
G02*
X130802000Y-36834000I-75000J0D01*
G01*
G37*
G36*
G01*
X129977000Y-37659000D02*
X128652000Y-37659000D01*
G75*
G02*
X128577000Y-37584000I0J75000D01*
G01*
X128577000Y-37434000D01*
G75*
G02*
X128652000Y-37359000I75000J0D01*
G01*
X129977000Y-37359000D01*
G75*
G02*
X130052000Y-37434000I0J-75000D01*
G01*
X130052000Y-37584000D01*
G75*
G02*
X129977000Y-37659000I-75000J0D01*
G01*
G37*
G36*
G01*
X129977000Y-38159000D02*
X128652000Y-38159000D01*
G75*
G02*
X128577000Y-38084000I0J75000D01*
G01*
X128577000Y-37934000D01*
G75*
G02*
X128652000Y-37859000I75000J0D01*
G01*
X129977000Y-37859000D01*
G75*
G02*
X130052000Y-37934000I0J-75000D01*
G01*
X130052000Y-38084000D01*
G75*
G02*
X129977000Y-38159000I-75000J0D01*
G01*
G37*
G36*
G01*
X129977000Y-38659000D02*
X128652000Y-38659000D01*
G75*
G02*
X128577000Y-38584000I0J75000D01*
G01*
X128577000Y-38434000D01*
G75*
G02*
X128652000Y-38359000I75000J0D01*
G01*
X129977000Y-38359000D01*
G75*
G02*
X130052000Y-38434000I0J-75000D01*
G01*
X130052000Y-38584000D01*
G75*
G02*
X129977000Y-38659000I-75000J0D01*
G01*
G37*
G36*
G01*
X129977000Y-39159000D02*
X128652000Y-39159000D01*
G75*
G02*
X128577000Y-39084000I0J75000D01*
G01*
X128577000Y-38934000D01*
G75*
G02*
X128652000Y-38859000I75000J0D01*
G01*
X129977000Y-38859000D01*
G75*
G02*
X130052000Y-38934000I0J-75000D01*
G01*
X130052000Y-39084000D01*
G75*
G02*
X129977000Y-39159000I-75000J0D01*
G01*
G37*
G36*
G01*
X129977000Y-39659000D02*
X128652000Y-39659000D01*
G75*
G02*
X128577000Y-39584000I0J75000D01*
G01*
X128577000Y-39434000D01*
G75*
G02*
X128652000Y-39359000I75000J0D01*
G01*
X129977000Y-39359000D01*
G75*
G02*
X130052000Y-39434000I0J-75000D01*
G01*
X130052000Y-39584000D01*
G75*
G02*
X129977000Y-39659000I-75000J0D01*
G01*
G37*
G36*
G01*
X129977000Y-40159000D02*
X128652000Y-40159000D01*
G75*
G02*
X128577000Y-40084000I0J75000D01*
G01*
X128577000Y-39934000D01*
G75*
G02*
X128652000Y-39859000I75000J0D01*
G01*
X129977000Y-39859000D01*
G75*
G02*
X130052000Y-39934000I0J-75000D01*
G01*
X130052000Y-40084000D01*
G75*
G02*
X129977000Y-40159000I-75000J0D01*
G01*
G37*
G36*
G01*
X129977000Y-40659000D02*
X128652000Y-40659000D01*
G75*
G02*
X128577000Y-40584000I0J75000D01*
G01*
X128577000Y-40434000D01*
G75*
G02*
X128652000Y-40359000I75000J0D01*
G01*
X129977000Y-40359000D01*
G75*
G02*
X130052000Y-40434000I0J-75000D01*
G01*
X130052000Y-40584000D01*
G75*
G02*
X129977000Y-40659000I-75000J0D01*
G01*
G37*
G36*
G01*
X129977000Y-41159000D02*
X128652000Y-41159000D01*
G75*
G02*
X128577000Y-41084000I0J75000D01*
G01*
X128577000Y-40934000D01*
G75*
G02*
X128652000Y-40859000I75000J0D01*
G01*
X129977000Y-40859000D01*
G75*
G02*
X130052000Y-40934000I0J-75000D01*
G01*
X130052000Y-41084000D01*
G75*
G02*
X129977000Y-41159000I-75000J0D01*
G01*
G37*
G36*
G01*
X129977000Y-41659000D02*
X128652000Y-41659000D01*
G75*
G02*
X128577000Y-41584000I0J75000D01*
G01*
X128577000Y-41434000D01*
G75*
G02*
X128652000Y-41359000I75000J0D01*
G01*
X129977000Y-41359000D01*
G75*
G02*
X130052000Y-41434000I0J-75000D01*
G01*
X130052000Y-41584000D01*
G75*
G02*
X129977000Y-41659000I-75000J0D01*
G01*
G37*
G36*
G01*
X129977000Y-42159000D02*
X128652000Y-42159000D01*
G75*
G02*
X128577000Y-42084000I0J75000D01*
G01*
X128577000Y-41934000D01*
G75*
G02*
X128652000Y-41859000I75000J0D01*
G01*
X129977000Y-41859000D01*
G75*
G02*
X130052000Y-41934000I0J-75000D01*
G01*
X130052000Y-42084000D01*
G75*
G02*
X129977000Y-42159000I-75000J0D01*
G01*
G37*
G36*
G01*
X129977000Y-42659000D02*
X128652000Y-42659000D01*
G75*
G02*
X128577000Y-42584000I0J75000D01*
G01*
X128577000Y-42434000D01*
G75*
G02*
X128652000Y-42359000I75000J0D01*
G01*
X129977000Y-42359000D01*
G75*
G02*
X130052000Y-42434000I0J-75000D01*
G01*
X130052000Y-42584000D01*
G75*
G02*
X129977000Y-42659000I-75000J0D01*
G01*
G37*
G36*
G01*
X129977000Y-43159000D02*
X128652000Y-43159000D01*
G75*
G02*
X128577000Y-43084000I0J75000D01*
G01*
X128577000Y-42934000D01*
G75*
G02*
X128652000Y-42859000I75000J0D01*
G01*
X129977000Y-42859000D01*
G75*
G02*
X130052000Y-42934000I0J-75000D01*
G01*
X130052000Y-43084000D01*
G75*
G02*
X129977000Y-43159000I-75000J0D01*
G01*
G37*
%TD*%
%TO.C,R49*%
G36*
G01*
X146925000Y-41275000D02*
X146925000Y-40725000D01*
G75*
G02*
X147125000Y-40525000I200000J0D01*
G01*
X147525000Y-40525000D01*
G75*
G02*
X147725000Y-40725000I0J-200000D01*
G01*
X147725000Y-41275000D01*
G75*
G02*
X147525000Y-41475000I-200000J0D01*
G01*
X147125000Y-41475000D01*
G75*
G02*
X146925000Y-41275000I0J200000D01*
G01*
G37*
G36*
G01*
X145275000Y-41275000D02*
X145275000Y-40725000D01*
G75*
G02*
X145475000Y-40525000I200000J0D01*
G01*
X145875000Y-40525000D01*
G75*
G02*
X146075000Y-40725000I0J-200000D01*
G01*
X146075000Y-41275000D01*
G75*
G02*
X145875000Y-41475000I-200000J0D01*
G01*
X145475000Y-41475000D01*
G75*
G02*
X145275000Y-41275000I0J200000D01*
G01*
G37*
%TD*%
%TO.C,R48*%
G36*
G01*
X143925000Y-41275000D02*
X143925000Y-40725000D01*
G75*
G02*
X144125000Y-40525000I200000J0D01*
G01*
X144525000Y-40525000D01*
G75*
G02*
X144725000Y-40725000I0J-200000D01*
G01*
X144725000Y-41275000D01*
G75*
G02*
X144525000Y-41475000I-200000J0D01*
G01*
X144125000Y-41475000D01*
G75*
G02*
X143925000Y-41275000I0J200000D01*
G01*
G37*
G36*
G01*
X142275000Y-41275000D02*
X142275000Y-40725000D01*
G75*
G02*
X142475000Y-40525000I200000J0D01*
G01*
X142875000Y-40525000D01*
G75*
G02*
X143075000Y-40725000I0J-200000D01*
G01*
X143075000Y-41275000D01*
G75*
G02*
X142875000Y-41475000I-200000J0D01*
G01*
X142475000Y-41475000D01*
G75*
G02*
X142275000Y-41275000I0J200000D01*
G01*
G37*
%TD*%
%TO.C,R25*%
G36*
G01*
X140000000Y-37725000D02*
X140000000Y-38275000D01*
G75*
G02*
X139800000Y-38475000I-200000J0D01*
G01*
X139400000Y-38475000D01*
G75*
G02*
X139200000Y-38275000I0J200000D01*
G01*
X139200000Y-37725000D01*
G75*
G02*
X139400000Y-37525000I200000J0D01*
G01*
X139800000Y-37525000D01*
G75*
G02*
X140000000Y-37725000I0J-200000D01*
G01*
G37*
G36*
G01*
X141650000Y-37725000D02*
X141650000Y-38275000D01*
G75*
G02*
X141450000Y-38475000I-200000J0D01*
G01*
X141050000Y-38475000D01*
G75*
G02*
X140850000Y-38275000I0J200000D01*
G01*
X140850000Y-37725000D01*
G75*
G02*
X141050000Y-37525000I200000J0D01*
G01*
X141450000Y-37525000D01*
G75*
G02*
X141650000Y-37725000I0J-200000D01*
G01*
G37*
%TD*%
%TO.C,R24*%
G36*
G01*
X134175000Y-46775000D02*
X134175000Y-46225000D01*
G75*
G02*
X134375000Y-46025000I200000J0D01*
G01*
X134775000Y-46025000D01*
G75*
G02*
X134975000Y-46225000I0J-200000D01*
G01*
X134975000Y-46775000D01*
G75*
G02*
X134775000Y-46975000I-200000J0D01*
G01*
X134375000Y-46975000D01*
G75*
G02*
X134175000Y-46775000I0J200000D01*
G01*
G37*
G36*
G01*
X132525000Y-46775000D02*
X132525000Y-46225000D01*
G75*
G02*
X132725000Y-46025000I200000J0D01*
G01*
X133125000Y-46025000D01*
G75*
G02*
X133325000Y-46225000I0J-200000D01*
G01*
X133325000Y-46775000D01*
G75*
G02*
X133125000Y-46975000I-200000J0D01*
G01*
X132725000Y-46975000D01*
G75*
G02*
X132525000Y-46775000I0J200000D01*
G01*
G37*
%TD*%
%TO.C,R23*%
G36*
G01*
X125075000Y-41975000D02*
X125075000Y-42525000D01*
G75*
G02*
X124875000Y-42725000I-200000J0D01*
G01*
X124475000Y-42725000D01*
G75*
G02*
X124275000Y-42525000I0J200000D01*
G01*
X124275000Y-41975000D01*
G75*
G02*
X124475000Y-41775000I200000J0D01*
G01*
X124875000Y-41775000D01*
G75*
G02*
X125075000Y-41975000I0J-200000D01*
G01*
G37*
G36*
G01*
X126725000Y-41975000D02*
X126725000Y-42525000D01*
G75*
G02*
X126525000Y-42725000I-200000J0D01*
G01*
X126125000Y-42725000D01*
G75*
G02*
X125925000Y-42525000I0J200000D01*
G01*
X125925000Y-41975000D01*
G75*
G02*
X126125000Y-41775000I200000J0D01*
G01*
X126525000Y-41775000D01*
G75*
G02*
X126725000Y-41975000I0J-200000D01*
G01*
G37*
%TD*%
%TO.C,R22*%
G36*
G01*
X125925000Y-41025000D02*
X125925000Y-40475000D01*
G75*
G02*
X126125000Y-40275000I200000J0D01*
G01*
X126525000Y-40275000D01*
G75*
G02*
X126725000Y-40475000I0J-200000D01*
G01*
X126725000Y-41025000D01*
G75*
G02*
X126525000Y-41225000I-200000J0D01*
G01*
X126125000Y-41225000D01*
G75*
G02*
X125925000Y-41025000I0J200000D01*
G01*
G37*
G36*
G01*
X124275000Y-41025000D02*
X124275000Y-40475000D01*
G75*
G02*
X124475000Y-40275000I200000J0D01*
G01*
X124875000Y-40275000D01*
G75*
G02*
X125075000Y-40475000I0J-200000D01*
G01*
X125075000Y-41025000D01*
G75*
G02*
X124875000Y-41225000I-200000J0D01*
G01*
X124475000Y-41225000D01*
G75*
G02*
X124275000Y-41025000I0J200000D01*
G01*
G37*
%TD*%
%TO.C,R21*%
G36*
G01*
X154227000Y-32143000D02*
X154227000Y-32693000D01*
G75*
G02*
X154027000Y-32893000I-200000J0D01*
G01*
X153627000Y-32893000D01*
G75*
G02*
X153427000Y-32693000I0J200000D01*
G01*
X153427000Y-32143000D01*
G75*
G02*
X153627000Y-31943000I200000J0D01*
G01*
X154027000Y-31943000D01*
G75*
G02*
X154227000Y-32143000I0J-200000D01*
G01*
G37*
G36*
G01*
X152577000Y-32143000D02*
X152577000Y-32693000D01*
G75*
G02*
X152377000Y-32893000I-200000J0D01*
G01*
X151977000Y-32893000D01*
G75*
G02*
X151777000Y-32693000I0J200000D01*
G01*
X151777000Y-32143000D01*
G75*
G02*
X151977000Y-31943000I200000J0D01*
G01*
X152377000Y-31943000D01*
G75*
G02*
X152577000Y-32143000I0J-200000D01*
G01*
G37*
%TD*%
%TO.C,R20*%
G36*
G01*
X154227000Y-28587000D02*
X154227000Y-29137000D01*
G75*
G02*
X154027000Y-29337000I-200000J0D01*
G01*
X153627000Y-29337000D01*
G75*
G02*
X153427000Y-29137000I0J200000D01*
G01*
X153427000Y-28587000D01*
G75*
G02*
X153627000Y-28387000I200000J0D01*
G01*
X154027000Y-28387000D01*
G75*
G02*
X154227000Y-28587000I0J-200000D01*
G01*
G37*
G36*
G01*
X152577000Y-28587000D02*
X152577000Y-29137000D01*
G75*
G02*
X152377000Y-29337000I-200000J0D01*
G01*
X151977000Y-29337000D01*
G75*
G02*
X151777000Y-29137000I0J200000D01*
G01*
X151777000Y-28587000D01*
G75*
G02*
X151977000Y-28387000I200000J0D01*
G01*
X152377000Y-28387000D01*
G75*
G02*
X152577000Y-28587000I0J-200000D01*
G01*
G37*
%TD*%
%TO.C,R19*%
G36*
G01*
X154227000Y-25031000D02*
X154227000Y-25581000D01*
G75*
G02*
X154027000Y-25781000I-200000J0D01*
G01*
X153627000Y-25781000D01*
G75*
G02*
X153427000Y-25581000I0J200000D01*
G01*
X153427000Y-25031000D01*
G75*
G02*
X153627000Y-24831000I200000J0D01*
G01*
X154027000Y-24831000D01*
G75*
G02*
X154227000Y-25031000I0J-200000D01*
G01*
G37*
G36*
G01*
X152577000Y-25031000D02*
X152577000Y-25581000D01*
G75*
G02*
X152377000Y-25781000I-200000J0D01*
G01*
X151977000Y-25781000D01*
G75*
G02*
X151777000Y-25581000I0J200000D01*
G01*
X151777000Y-25031000D01*
G75*
G02*
X151977000Y-24831000I200000J0D01*
G01*
X152377000Y-24831000D01*
G75*
G02*
X152577000Y-25031000I0J-200000D01*
G01*
G37*
%TD*%
%TO.C,R18*%
G36*
G01*
X111275000Y-25525000D02*
X111275000Y-24975000D01*
G75*
G02*
X111475000Y-24775000I200000J0D01*
G01*
X111875000Y-24775000D01*
G75*
G02*
X112075000Y-24975000I0J-200000D01*
G01*
X112075000Y-25525000D01*
G75*
G02*
X111875000Y-25725000I-200000J0D01*
G01*
X111475000Y-25725000D01*
G75*
G02*
X111275000Y-25525000I0J200000D01*
G01*
G37*
G36*
G01*
X112925000Y-25525000D02*
X112925000Y-24975000D01*
G75*
G02*
X113125000Y-24775000I200000J0D01*
G01*
X113525000Y-24775000D01*
G75*
G02*
X113725000Y-24975000I0J-200000D01*
G01*
X113725000Y-25525000D01*
G75*
G02*
X113525000Y-25725000I-200000J0D01*
G01*
X113125000Y-25725000D01*
G75*
G02*
X112925000Y-25525000I0J200000D01*
G01*
G37*
%TD*%
%TO.C,R17*%
G36*
G01*
X112923000Y-30705000D02*
X112923000Y-30155000D01*
G75*
G02*
X113123000Y-29955000I200000J0D01*
G01*
X113523000Y-29955000D01*
G75*
G02*
X113723000Y-30155000I0J-200000D01*
G01*
X113723000Y-30705000D01*
G75*
G02*
X113523000Y-30905000I-200000J0D01*
G01*
X113123000Y-30905000D01*
G75*
G02*
X112923000Y-30705000I0J200000D01*
G01*
G37*
G36*
G01*
X114573000Y-30705000D02*
X114573000Y-30155000D01*
G75*
G02*
X114773000Y-29955000I200000J0D01*
G01*
X115173000Y-29955000D01*
G75*
G02*
X115373000Y-30155000I0J-200000D01*
G01*
X115373000Y-30705000D01*
G75*
G02*
X115173000Y-30905000I-200000J0D01*
G01*
X114773000Y-30905000D01*
G75*
G02*
X114573000Y-30705000I0J200000D01*
G01*
G37*
%TD*%
%TO.C,R16*%
G36*
G01*
X125975000Y-45175000D02*
X126525000Y-45175000D01*
G75*
G02*
X126725000Y-45375000I0J-200000D01*
G01*
X126725000Y-45775000D01*
G75*
G02*
X126525000Y-45975000I-200000J0D01*
G01*
X125975000Y-45975000D01*
G75*
G02*
X125775000Y-45775000I0J200000D01*
G01*
X125775000Y-45375000D01*
G75*
G02*
X125975000Y-45175000I200000J0D01*
G01*
G37*
G36*
G01*
X125975000Y-43525000D02*
X126525000Y-43525000D01*
G75*
G02*
X126725000Y-43725000I0J-200000D01*
G01*
X126725000Y-44125000D01*
G75*
G02*
X126525000Y-44325000I-200000J0D01*
G01*
X125975000Y-44325000D01*
G75*
G02*
X125775000Y-44125000I0J200000D01*
G01*
X125775000Y-43725000D01*
G75*
G02*
X125975000Y-43525000I200000J0D01*
G01*
G37*
%TD*%
%TO.C,R15*%
G36*
G01*
X124475000Y-45175000D02*
X125025000Y-45175000D01*
G75*
G02*
X125225000Y-45375000I0J-200000D01*
G01*
X125225000Y-45775000D01*
G75*
G02*
X125025000Y-45975000I-200000J0D01*
G01*
X124475000Y-45975000D01*
G75*
G02*
X124275000Y-45775000I0J200000D01*
G01*
X124275000Y-45375000D01*
G75*
G02*
X124475000Y-45175000I200000J0D01*
G01*
G37*
G36*
G01*
X124475000Y-43525000D02*
X125025000Y-43525000D01*
G75*
G02*
X125225000Y-43725000I0J-200000D01*
G01*
X125225000Y-44125000D01*
G75*
G02*
X125025000Y-44325000I-200000J0D01*
G01*
X124475000Y-44325000D01*
G75*
G02*
X124275000Y-44125000I0J200000D01*
G01*
X124275000Y-43725000D01*
G75*
G02*
X124475000Y-43525000I200000J0D01*
G01*
G37*
%TD*%
%TO.C,R14*%
G36*
G01*
X137675000Y-29775000D02*
X137675000Y-29225000D01*
G75*
G02*
X137875000Y-29025000I200000J0D01*
G01*
X138275000Y-29025000D01*
G75*
G02*
X138475000Y-29225000I0J-200000D01*
G01*
X138475000Y-29775000D01*
G75*
G02*
X138275000Y-29975000I-200000J0D01*
G01*
X137875000Y-29975000D01*
G75*
G02*
X137675000Y-29775000I0J200000D01*
G01*
G37*
G36*
G01*
X136025000Y-29775000D02*
X136025000Y-29225000D01*
G75*
G02*
X136225000Y-29025000I200000J0D01*
G01*
X136625000Y-29025000D01*
G75*
G02*
X136825000Y-29225000I0J-200000D01*
G01*
X136825000Y-29775000D01*
G75*
G02*
X136625000Y-29975000I-200000J0D01*
G01*
X136225000Y-29975000D01*
G75*
G02*
X136025000Y-29775000I0J200000D01*
G01*
G37*
%TD*%
%TO.C,R13*%
G36*
G01*
X129575000Y-29725000D02*
X129575000Y-30275000D01*
G75*
G02*
X129375000Y-30475000I-200000J0D01*
G01*
X128975000Y-30475000D01*
G75*
G02*
X128775000Y-30275000I0J200000D01*
G01*
X128775000Y-29725000D01*
G75*
G02*
X128975000Y-29525000I200000J0D01*
G01*
X129375000Y-29525000D01*
G75*
G02*
X129575000Y-29725000I0J-200000D01*
G01*
G37*
G36*
G01*
X131225000Y-29725000D02*
X131225000Y-30275000D01*
G75*
G02*
X131025000Y-30475000I-200000J0D01*
G01*
X130625000Y-30475000D01*
G75*
G02*
X130425000Y-30275000I0J200000D01*
G01*
X130425000Y-29725000D01*
G75*
G02*
X130625000Y-29525000I200000J0D01*
G01*
X131025000Y-29525000D01*
G75*
G02*
X131225000Y-29725000I0J-200000D01*
G01*
G37*
%TD*%
%TO.C,R11*%
G36*
G01*
X112923000Y-34261000D02*
X112923000Y-33711000D01*
G75*
G02*
X113123000Y-33511000I200000J0D01*
G01*
X113523000Y-33511000D01*
G75*
G02*
X113723000Y-33711000I0J-200000D01*
G01*
X113723000Y-34261000D01*
G75*
G02*
X113523000Y-34461000I-200000J0D01*
G01*
X113123000Y-34461000D01*
G75*
G02*
X112923000Y-34261000I0J200000D01*
G01*
G37*
G36*
G01*
X114573000Y-34261000D02*
X114573000Y-33711000D01*
G75*
G02*
X114773000Y-33511000I200000J0D01*
G01*
X115173000Y-33511000D01*
G75*
G02*
X115373000Y-33711000I0J-200000D01*
G01*
X115373000Y-34261000D01*
G75*
G02*
X115173000Y-34461000I-200000J0D01*
G01*
X114773000Y-34461000D01*
G75*
G02*
X114573000Y-34261000I0J200000D01*
G01*
G37*
%TD*%
%TO.C,R10*%
G36*
G01*
X158381000Y-32693000D02*
X158381000Y-32143000D01*
G75*
G02*
X158581000Y-31943000I200000J0D01*
G01*
X158981000Y-31943000D01*
G75*
G02*
X159181000Y-32143000I0J-200000D01*
G01*
X159181000Y-32693000D01*
G75*
G02*
X158981000Y-32893000I-200000J0D01*
G01*
X158581000Y-32893000D01*
G75*
G02*
X158381000Y-32693000I0J200000D01*
G01*
G37*
G36*
G01*
X160031000Y-32693000D02*
X160031000Y-32143000D01*
G75*
G02*
X160231000Y-31943000I200000J0D01*
G01*
X160631000Y-31943000D01*
G75*
G02*
X160831000Y-32143000I0J-200000D01*
G01*
X160831000Y-32693000D01*
G75*
G02*
X160631000Y-32893000I-200000J0D01*
G01*
X160231000Y-32893000D01*
G75*
G02*
X160031000Y-32693000I0J200000D01*
G01*
G37*
%TD*%
%TO.C,R9*%
G36*
G01*
X158381000Y-29137000D02*
X158381000Y-28587000D01*
G75*
G02*
X158581000Y-28387000I200000J0D01*
G01*
X158981000Y-28387000D01*
G75*
G02*
X159181000Y-28587000I0J-200000D01*
G01*
X159181000Y-29137000D01*
G75*
G02*
X158981000Y-29337000I-200000J0D01*
G01*
X158581000Y-29337000D01*
G75*
G02*
X158381000Y-29137000I0J200000D01*
G01*
G37*
G36*
G01*
X160031000Y-29137000D02*
X160031000Y-28587000D01*
G75*
G02*
X160231000Y-28387000I200000J0D01*
G01*
X160631000Y-28387000D01*
G75*
G02*
X160831000Y-28587000I0J-200000D01*
G01*
X160831000Y-29137000D01*
G75*
G02*
X160631000Y-29337000I-200000J0D01*
G01*
X160231000Y-29337000D01*
G75*
G02*
X160031000Y-29137000I0J200000D01*
G01*
G37*
%TD*%
%TO.C,R8*%
G36*
G01*
X158381000Y-25581000D02*
X158381000Y-25031000D01*
G75*
G02*
X158581000Y-24831000I200000J0D01*
G01*
X158981000Y-24831000D01*
G75*
G02*
X159181000Y-25031000I0J-200000D01*
G01*
X159181000Y-25581000D01*
G75*
G02*
X158981000Y-25781000I-200000J0D01*
G01*
X158581000Y-25781000D01*
G75*
G02*
X158381000Y-25581000I0J200000D01*
G01*
G37*
G36*
G01*
X160031000Y-25581000D02*
X160031000Y-25031000D01*
G75*
G02*
X160231000Y-24831000I200000J0D01*
G01*
X160631000Y-24831000D01*
G75*
G02*
X160831000Y-25031000I0J-200000D01*
G01*
X160831000Y-25581000D01*
G75*
G02*
X160631000Y-25781000I-200000J0D01*
G01*
X160231000Y-25781000D01*
G75*
G02*
X160031000Y-25581000I0J200000D01*
G01*
G37*
%TD*%
%TO.C,R7*%
G36*
G01*
X108769000Y-26599000D02*
X108769000Y-27149000D01*
G75*
G02*
X108569000Y-27349000I-200000J0D01*
G01*
X108169000Y-27349000D01*
G75*
G02*
X107969000Y-27149000I0J200000D01*
G01*
X107969000Y-26599000D01*
G75*
G02*
X108169000Y-26399000I200000J0D01*
G01*
X108569000Y-26399000D01*
G75*
G02*
X108769000Y-26599000I0J-200000D01*
G01*
G37*
G36*
G01*
X107119000Y-26599000D02*
X107119000Y-27149000D01*
G75*
G02*
X106919000Y-27349000I-200000J0D01*
G01*
X106519000Y-27349000D01*
G75*
G02*
X106319000Y-27149000I0J200000D01*
G01*
X106319000Y-26599000D01*
G75*
G02*
X106519000Y-26399000I200000J0D01*
G01*
X106919000Y-26399000D01*
G75*
G02*
X107119000Y-26599000I0J-200000D01*
G01*
G37*
%TD*%
%TO.C,R6*%
G36*
G01*
X108769000Y-30155000D02*
X108769000Y-30705000D01*
G75*
G02*
X108569000Y-30905000I-200000J0D01*
G01*
X108169000Y-30905000D01*
G75*
G02*
X107969000Y-30705000I0J200000D01*
G01*
X107969000Y-30155000D01*
G75*
G02*
X108169000Y-29955000I200000J0D01*
G01*
X108569000Y-29955000D01*
G75*
G02*
X108769000Y-30155000I0J-200000D01*
G01*
G37*
G36*
G01*
X107119000Y-30155000D02*
X107119000Y-30705000D01*
G75*
G02*
X106919000Y-30905000I-200000J0D01*
G01*
X106519000Y-30905000D01*
G75*
G02*
X106319000Y-30705000I0J200000D01*
G01*
X106319000Y-30155000D01*
G75*
G02*
X106519000Y-29955000I200000J0D01*
G01*
X106919000Y-29955000D01*
G75*
G02*
X107119000Y-30155000I0J-200000D01*
G01*
G37*
%TD*%
%TO.C,R5*%
G36*
G01*
X108769000Y-33711000D02*
X108769000Y-34261000D01*
G75*
G02*
X108569000Y-34461000I-200000J0D01*
G01*
X108169000Y-34461000D01*
G75*
G02*
X107969000Y-34261000I0J200000D01*
G01*
X107969000Y-33711000D01*
G75*
G02*
X108169000Y-33511000I200000J0D01*
G01*
X108569000Y-33511000D01*
G75*
G02*
X108769000Y-33711000I0J-200000D01*
G01*
G37*
G36*
G01*
X107119000Y-33711000D02*
X107119000Y-34261000D01*
G75*
G02*
X106919000Y-34461000I-200000J0D01*
G01*
X106519000Y-34461000D01*
G75*
G02*
X106319000Y-34261000I0J200000D01*
G01*
X106319000Y-33711000D01*
G75*
G02*
X106519000Y-33511000I200000J0D01*
G01*
X106919000Y-33511000D01*
G75*
G02*
X107119000Y-33711000I0J-200000D01*
G01*
G37*
%TD*%
%TO.C,R4*%
G36*
G01*
X135975000Y-32175000D02*
X136525000Y-32175000D01*
G75*
G02*
X136725000Y-32375000I0J-200000D01*
G01*
X136725000Y-32775000D01*
G75*
G02*
X136525000Y-32975000I-200000J0D01*
G01*
X135975000Y-32975000D01*
G75*
G02*
X135775000Y-32775000I0J200000D01*
G01*
X135775000Y-32375000D01*
G75*
G02*
X135975000Y-32175000I200000J0D01*
G01*
G37*
G36*
G01*
X135975000Y-30525000D02*
X136525000Y-30525000D01*
G75*
G02*
X136725000Y-30725000I0J-200000D01*
G01*
X136725000Y-31125000D01*
G75*
G02*
X136525000Y-31325000I-200000J0D01*
G01*
X135975000Y-31325000D01*
G75*
G02*
X135775000Y-31125000I0J200000D01*
G01*
X135775000Y-30725000D01*
G75*
G02*
X135975000Y-30525000I200000J0D01*
G01*
G37*
%TD*%
%TO.C,R2*%
G36*
G01*
X131275000Y-27325000D02*
X130725000Y-27325000D01*
G75*
G02*
X130525000Y-27125000I0J200000D01*
G01*
X130525000Y-26725000D01*
G75*
G02*
X130725000Y-26525000I200000J0D01*
G01*
X131275000Y-26525000D01*
G75*
G02*
X131475000Y-26725000I0J-200000D01*
G01*
X131475000Y-27125000D01*
G75*
G02*
X131275000Y-27325000I-200000J0D01*
G01*
G37*
G36*
G01*
X131275000Y-28975000D02*
X130725000Y-28975000D01*
G75*
G02*
X130525000Y-28775000I0J200000D01*
G01*
X130525000Y-28375000D01*
G75*
G02*
X130725000Y-28175000I200000J0D01*
G01*
X131275000Y-28175000D01*
G75*
G02*
X131475000Y-28375000I0J-200000D01*
G01*
X131475000Y-28775000D01*
G75*
G02*
X131275000Y-28975000I-200000J0D01*
G01*
G37*
%TD*%
%TO.C,J7*%
G36*
G01*
X122200000Y-47525001D02*
X122200000Y-46224999D01*
G75*
G02*
X122449999Y-45975000I249999J0D01*
G01*
X123150001Y-45975000D01*
G75*
G02*
X123400000Y-46224999I0J-249999D01*
G01*
X123400000Y-47525001D01*
G75*
G02*
X123150001Y-47775000I-249999J0D01*
G01*
X122449999Y-47775000D01*
G75*
G02*
X122200000Y-47525001I0J249999D01*
G01*
G37*
G36*
G01*
X116600000Y-47525001D02*
X116600000Y-46224999D01*
G75*
G02*
X116849999Y-45975000I249999J0D01*
G01*
X117550001Y-45975000D01*
G75*
G02*
X117800000Y-46224999I0J-249999D01*
G01*
X117800000Y-47525001D01*
G75*
G02*
X117550001Y-47775000I-249999J0D01*
G01*
X116849999Y-47775000D01*
G75*
G02*
X116600000Y-47525001I0J249999D01*
G01*
G37*
G36*
G01*
X121200000Y-43625000D02*
X121200000Y-42375000D01*
G75*
G02*
X121350000Y-42225000I150000J0D01*
G01*
X121650000Y-42225000D01*
G75*
G02*
X121800000Y-42375000I0J-150000D01*
G01*
X121800000Y-43625000D01*
G75*
G02*
X121650000Y-43775000I-150000J0D01*
G01*
X121350000Y-43775000D01*
G75*
G02*
X121200000Y-43625000I0J150000D01*
G01*
G37*
G36*
G01*
X120200000Y-43625000D02*
X120200000Y-42375000D01*
G75*
G02*
X120350000Y-42225000I150000J0D01*
G01*
X120650000Y-42225000D01*
G75*
G02*
X120800000Y-42375000I0J-150000D01*
G01*
X120800000Y-43625000D01*
G75*
G02*
X120650000Y-43775000I-150000J0D01*
G01*
X120350000Y-43775000D01*
G75*
G02*
X120200000Y-43625000I0J150000D01*
G01*
G37*
G36*
G01*
X119200000Y-43625000D02*
X119200000Y-42375000D01*
G75*
G02*
X119350000Y-42225000I150000J0D01*
G01*
X119650000Y-42225000D01*
G75*
G02*
X119800000Y-42375000I0J-150000D01*
G01*
X119800000Y-43625000D01*
G75*
G02*
X119650000Y-43775000I-150000J0D01*
G01*
X119350000Y-43775000D01*
G75*
G02*
X119200000Y-43625000I0J150000D01*
G01*
G37*
G36*
G01*
X118200000Y-43625000D02*
X118200000Y-42375000D01*
G75*
G02*
X118350000Y-42225000I150000J0D01*
G01*
X118650000Y-42225000D01*
G75*
G02*
X118800000Y-42375000I0J-150000D01*
G01*
X118800000Y-43625000D01*
G75*
G02*
X118650000Y-43775000I-150000J0D01*
G01*
X118350000Y-43775000D01*
G75*
G02*
X118200000Y-43625000I0J150000D01*
G01*
G37*
%TD*%
D19*
%TO.C,D12*%
X145000000Y-36250000D03*
X145950000Y-38250000D03*
X144050000Y-38250000D03*
%TD*%
D14*
%TO.C,D8*%
X155542000Y-32257000D03*
X155542000Y-34357000D03*
%TD*%
%TO.C,D7*%
X155542000Y-28701000D03*
X155542000Y-30801000D03*
%TD*%
%TO.C,D6*%
X155542000Y-25145000D03*
X155542000Y-27245000D03*
%TD*%
%TO.C,D4*%
X111608000Y-30269000D03*
X111608000Y-32369000D03*
%TD*%
%TO.C,D2*%
X138000000Y-33050000D03*
X138000000Y-30950000D03*
%TD*%
%TO.C,D1*%
X129250000Y-26450000D03*
X129250000Y-28550000D03*
%TD*%
%TO.C,C45*%
G36*
G01*
X144675000Y-39250000D02*
X144675000Y-39750000D01*
G75*
G02*
X144450000Y-39975000I-225000J0D01*
G01*
X144000000Y-39975000D01*
G75*
G02*
X143775000Y-39750000I0J225000D01*
G01*
X143775000Y-39250000D01*
G75*
G02*
X144000000Y-39025000I225000J0D01*
G01*
X144450000Y-39025000D01*
G75*
G02*
X144675000Y-39250000I0J-225000D01*
G01*
G37*
G36*
G01*
X146225000Y-39250000D02*
X146225000Y-39750000D01*
G75*
G02*
X146000000Y-39975000I-225000J0D01*
G01*
X145550000Y-39975000D01*
G75*
G02*
X145325000Y-39750000I0J225000D01*
G01*
X145325000Y-39250000D01*
G75*
G02*
X145550000Y-39025000I225000J0D01*
G01*
X146000000Y-39025000D01*
G75*
G02*
X146225000Y-39250000I0J-225000D01*
G01*
G37*
%TD*%
%TO.C,C44*%
G36*
G01*
X152500000Y-37825000D02*
X153000000Y-37825000D01*
G75*
G02*
X153225000Y-38050000I0J-225000D01*
G01*
X153225000Y-38500000D01*
G75*
G02*
X153000000Y-38725000I-225000J0D01*
G01*
X152500000Y-38725000D01*
G75*
G02*
X152275000Y-38500000I0J225000D01*
G01*
X152275000Y-38050000D01*
G75*
G02*
X152500000Y-37825000I225000J0D01*
G01*
G37*
G36*
G01*
X152500000Y-36275000D02*
X153000000Y-36275000D01*
G75*
G02*
X153225000Y-36500000I0J-225000D01*
G01*
X153225000Y-36950000D01*
G75*
G02*
X153000000Y-37175000I-225000J0D01*
G01*
X152500000Y-37175000D01*
G75*
G02*
X152275000Y-36950000I0J225000D01*
G01*
X152275000Y-36500000D01*
G75*
G02*
X152500000Y-36275000I225000J0D01*
G01*
G37*
%TD*%
%TO.C,C43*%
G36*
G01*
X149075000Y-35750000D02*
X149075000Y-35250000D01*
G75*
G02*
X149300000Y-35025000I225000J0D01*
G01*
X149750000Y-35025000D01*
G75*
G02*
X149975000Y-35250000I0J-225000D01*
G01*
X149975000Y-35750000D01*
G75*
G02*
X149750000Y-35975000I-225000J0D01*
G01*
X149300000Y-35975000D01*
G75*
G02*
X149075000Y-35750000I0J225000D01*
G01*
G37*
G36*
G01*
X147525000Y-35750000D02*
X147525000Y-35250000D01*
G75*
G02*
X147750000Y-35025000I225000J0D01*
G01*
X148200000Y-35025000D01*
G75*
G02*
X148425000Y-35250000I0J-225000D01*
G01*
X148425000Y-35750000D01*
G75*
G02*
X148200000Y-35975000I-225000J0D01*
G01*
X147750000Y-35975000D01*
G75*
G02*
X147525000Y-35750000I0J225000D01*
G01*
G37*
%TD*%
%TO.C,C16*%
G36*
G01*
X128825000Y-45000000D02*
X128825000Y-44500000D01*
G75*
G02*
X129050000Y-44275000I225000J0D01*
G01*
X129500000Y-44275000D01*
G75*
G02*
X129725000Y-44500000I0J-225000D01*
G01*
X129725000Y-45000000D01*
G75*
G02*
X129500000Y-45225000I-225000J0D01*
G01*
X129050000Y-45225000D01*
G75*
G02*
X128825000Y-45000000I0J225000D01*
G01*
G37*
G36*
G01*
X127275000Y-45000000D02*
X127275000Y-44500000D01*
G75*
G02*
X127500000Y-44275000I225000J0D01*
G01*
X127950000Y-44275000D01*
G75*
G02*
X128175000Y-44500000I0J-225000D01*
G01*
X128175000Y-45000000D01*
G75*
G02*
X127950000Y-45225000I-225000J0D01*
G01*
X127500000Y-45225000D01*
G75*
G02*
X127275000Y-45000000I0J225000D01*
G01*
G37*
%TD*%
%TO.C,C15*%
G36*
G01*
X129250000Y-35350000D02*
X129750000Y-35350000D01*
G75*
G02*
X129975000Y-35575000I0J-225000D01*
G01*
X129975000Y-36025000D01*
G75*
G02*
X129750000Y-36250000I-225000J0D01*
G01*
X129250000Y-36250000D01*
G75*
G02*
X129025000Y-36025000I0J225000D01*
G01*
X129025000Y-35575000D01*
G75*
G02*
X129250000Y-35350000I225000J0D01*
G01*
G37*
G36*
G01*
X129250000Y-33800000D02*
X129750000Y-33800000D01*
G75*
G02*
X129975000Y-34025000I0J-225000D01*
G01*
X129975000Y-34475000D01*
G75*
G02*
X129750000Y-34700000I-225000J0D01*
G01*
X129250000Y-34700000D01*
G75*
G02*
X129025000Y-34475000I0J225000D01*
G01*
X129025000Y-34025000D01*
G75*
G02*
X129250000Y-33800000I225000J0D01*
G01*
G37*
%TD*%
%TO.C,C14*%
G36*
G01*
X138675000Y-36000000D02*
X138675000Y-36500000D01*
G75*
G02*
X138450000Y-36725000I-225000J0D01*
G01*
X138000000Y-36725000D01*
G75*
G02*
X137775000Y-36500000I0J225000D01*
G01*
X137775000Y-36000000D01*
G75*
G02*
X138000000Y-35775000I225000J0D01*
G01*
X138450000Y-35775000D01*
G75*
G02*
X138675000Y-36000000I0J-225000D01*
G01*
G37*
G36*
G01*
X140225000Y-36000000D02*
X140225000Y-36500000D01*
G75*
G02*
X140000000Y-36725000I-225000J0D01*
G01*
X139550000Y-36725000D01*
G75*
G02*
X139325000Y-36500000I0J225000D01*
G01*
X139325000Y-36000000D01*
G75*
G02*
X139550000Y-35775000I225000J0D01*
G01*
X140000000Y-35775000D01*
G75*
G02*
X140225000Y-36000000I0J-225000D01*
G01*
G37*
%TD*%
%TO.C,C13*%
G36*
G01*
X130825000Y-46750000D02*
X130825000Y-46250000D01*
G75*
G02*
X131050000Y-46025000I225000J0D01*
G01*
X131500000Y-46025000D01*
G75*
G02*
X131725000Y-46250000I0J-225000D01*
G01*
X131725000Y-46750000D01*
G75*
G02*
X131500000Y-46975000I-225000J0D01*
G01*
X131050000Y-46975000D01*
G75*
G02*
X130825000Y-46750000I0J225000D01*
G01*
G37*
G36*
G01*
X129275000Y-46750000D02*
X129275000Y-46250000D01*
G75*
G02*
X129500000Y-46025000I225000J0D01*
G01*
X129950000Y-46025000D01*
G75*
G02*
X130175000Y-46250000I0J-225000D01*
G01*
X130175000Y-46750000D01*
G75*
G02*
X129950000Y-46975000I-225000J0D01*
G01*
X129500000Y-46975000D01*
G75*
G02*
X129275000Y-46750000I0J225000D01*
G01*
G37*
%TD*%
%TO.C,C12*%
G36*
G01*
X157570000Y-34405000D02*
X157070000Y-34405000D01*
G75*
G02*
X156845000Y-34180000I0J225000D01*
G01*
X156845000Y-33730000D01*
G75*
G02*
X157070000Y-33505000I225000J0D01*
G01*
X157570000Y-33505000D01*
G75*
G02*
X157795000Y-33730000I0J-225000D01*
G01*
X157795000Y-34180000D01*
G75*
G02*
X157570000Y-34405000I-225000J0D01*
G01*
G37*
G36*
G01*
X157570000Y-32855000D02*
X157070000Y-32855000D01*
G75*
G02*
X156845000Y-32630000I0J225000D01*
G01*
X156845000Y-32180000D01*
G75*
G02*
X157070000Y-31955000I225000J0D01*
G01*
X157570000Y-31955000D01*
G75*
G02*
X157795000Y-32180000I0J-225000D01*
G01*
X157795000Y-32630000D01*
G75*
G02*
X157570000Y-32855000I-225000J0D01*
G01*
G37*
%TD*%
%TO.C,C11*%
G36*
G01*
X157570000Y-30849000D02*
X157070000Y-30849000D01*
G75*
G02*
X156845000Y-30624000I0J225000D01*
G01*
X156845000Y-30174000D01*
G75*
G02*
X157070000Y-29949000I225000J0D01*
G01*
X157570000Y-29949000D01*
G75*
G02*
X157795000Y-30174000I0J-225000D01*
G01*
X157795000Y-30624000D01*
G75*
G02*
X157570000Y-30849000I-225000J0D01*
G01*
G37*
G36*
G01*
X157570000Y-29299000D02*
X157070000Y-29299000D01*
G75*
G02*
X156845000Y-29074000I0J225000D01*
G01*
X156845000Y-28624000D01*
G75*
G02*
X157070000Y-28399000I225000J0D01*
G01*
X157570000Y-28399000D01*
G75*
G02*
X157795000Y-28624000I0J-225000D01*
G01*
X157795000Y-29074000D01*
G75*
G02*
X157570000Y-29299000I-225000J0D01*
G01*
G37*
%TD*%
%TO.C,C10*%
G36*
G01*
X113250000Y-36850000D02*
X113750000Y-36850000D01*
G75*
G02*
X113975000Y-37075000I0J-225000D01*
G01*
X113975000Y-37525000D01*
G75*
G02*
X113750000Y-37750000I-225000J0D01*
G01*
X113250000Y-37750000D01*
G75*
G02*
X113025000Y-37525000I0J225000D01*
G01*
X113025000Y-37075000D01*
G75*
G02*
X113250000Y-36850000I225000J0D01*
G01*
G37*
G36*
G01*
X113250000Y-35300000D02*
X113750000Y-35300000D01*
G75*
G02*
X113975000Y-35525000I0J-225000D01*
G01*
X113975000Y-35975000D01*
G75*
G02*
X113750000Y-36200000I-225000J0D01*
G01*
X113250000Y-36200000D01*
G75*
G02*
X113025000Y-35975000I0J225000D01*
G01*
X113025000Y-35525000D01*
G75*
G02*
X113250000Y-35300000I225000J0D01*
G01*
G37*
%TD*%
%TO.C,C9*%
G36*
G01*
X113075000Y-39250000D02*
X113075000Y-38750000D01*
G75*
G02*
X113300000Y-38525000I225000J0D01*
G01*
X113750000Y-38525000D01*
G75*
G02*
X113975000Y-38750000I0J-225000D01*
G01*
X113975000Y-39250000D01*
G75*
G02*
X113750000Y-39475000I-225000J0D01*
G01*
X113300000Y-39475000D01*
G75*
G02*
X113075000Y-39250000I0J225000D01*
G01*
G37*
G36*
G01*
X111525000Y-39250000D02*
X111525000Y-38750000D01*
G75*
G02*
X111750000Y-38525000I225000J0D01*
G01*
X112200000Y-38525000D01*
G75*
G02*
X112425000Y-38750000I0J-225000D01*
G01*
X112425000Y-39250000D01*
G75*
G02*
X112200000Y-39475000I-225000J0D01*
G01*
X111750000Y-39475000D01*
G75*
G02*
X111525000Y-39250000I0J225000D01*
G01*
G37*
%TD*%
%TO.C,C8*%
G36*
G01*
X157570000Y-27293000D02*
X157070000Y-27293000D01*
G75*
G02*
X156845000Y-27068000I0J225000D01*
G01*
X156845000Y-26618000D01*
G75*
G02*
X157070000Y-26393000I225000J0D01*
G01*
X157570000Y-26393000D01*
G75*
G02*
X157795000Y-26618000I0J-225000D01*
G01*
X157795000Y-27068000D01*
G75*
G02*
X157570000Y-27293000I-225000J0D01*
G01*
G37*
G36*
G01*
X157570000Y-25743000D02*
X157070000Y-25743000D01*
G75*
G02*
X156845000Y-25518000I0J225000D01*
G01*
X156845000Y-25068000D01*
G75*
G02*
X157070000Y-24843000I225000J0D01*
G01*
X157570000Y-24843000D01*
G75*
G02*
X157795000Y-25068000I0J-225000D01*
G01*
X157795000Y-25518000D01*
G75*
G02*
X157570000Y-25743000I-225000J0D01*
G01*
G37*
%TD*%
%TO.C,C7*%
G36*
G01*
X110080000Y-28861000D02*
X109580000Y-28861000D01*
G75*
G02*
X109355000Y-28636000I0J225000D01*
G01*
X109355000Y-28186000D01*
G75*
G02*
X109580000Y-27961000I225000J0D01*
G01*
X110080000Y-27961000D01*
G75*
G02*
X110305000Y-28186000I0J-225000D01*
G01*
X110305000Y-28636000D01*
G75*
G02*
X110080000Y-28861000I-225000J0D01*
G01*
G37*
G36*
G01*
X110080000Y-27311000D02*
X109580000Y-27311000D01*
G75*
G02*
X109355000Y-27086000I0J225000D01*
G01*
X109355000Y-26636000D01*
G75*
G02*
X109580000Y-26411000I225000J0D01*
G01*
X110080000Y-26411000D01*
G75*
G02*
X110305000Y-26636000I0J-225000D01*
G01*
X110305000Y-27086000D01*
G75*
G02*
X110080000Y-27311000I-225000J0D01*
G01*
G37*
%TD*%
%TO.C,C6*%
G36*
G01*
X110080000Y-32417000D02*
X109580000Y-32417000D01*
G75*
G02*
X109355000Y-32192000I0J225000D01*
G01*
X109355000Y-31742000D01*
G75*
G02*
X109580000Y-31517000I225000J0D01*
G01*
X110080000Y-31517000D01*
G75*
G02*
X110305000Y-31742000I0J-225000D01*
G01*
X110305000Y-32192000D01*
G75*
G02*
X110080000Y-32417000I-225000J0D01*
G01*
G37*
G36*
G01*
X110080000Y-30867000D02*
X109580000Y-30867000D01*
G75*
G02*
X109355000Y-30642000I0J225000D01*
G01*
X109355000Y-30192000D01*
G75*
G02*
X109580000Y-29967000I225000J0D01*
G01*
X110080000Y-29967000D01*
G75*
G02*
X110305000Y-30192000I0J-225000D01*
G01*
X110305000Y-30642000D01*
G75*
G02*
X110080000Y-30867000I-225000J0D01*
G01*
G37*
%TD*%
%TO.C,C5*%
G36*
G01*
X110080000Y-35973000D02*
X109580000Y-35973000D01*
G75*
G02*
X109355000Y-35748000I0J225000D01*
G01*
X109355000Y-35298000D01*
G75*
G02*
X109580000Y-35073000I225000J0D01*
G01*
X110080000Y-35073000D01*
G75*
G02*
X110305000Y-35298000I0J-225000D01*
G01*
X110305000Y-35748000D01*
G75*
G02*
X110080000Y-35973000I-225000J0D01*
G01*
G37*
G36*
G01*
X110080000Y-34423000D02*
X109580000Y-34423000D01*
G75*
G02*
X109355000Y-34198000I0J225000D01*
G01*
X109355000Y-33748000D01*
G75*
G02*
X109580000Y-33523000I225000J0D01*
G01*
X110080000Y-33523000D01*
G75*
G02*
X110305000Y-33748000I0J-225000D01*
G01*
X110305000Y-34198000D01*
G75*
G02*
X110080000Y-34423000I-225000J0D01*
G01*
G37*
%TD*%
%TO.C,C2*%
G36*
G01*
X132250000Y-28075000D02*
X132750000Y-28075000D01*
G75*
G02*
X132975000Y-28300000I0J-225000D01*
G01*
X132975000Y-28750000D01*
G75*
G02*
X132750000Y-28975000I-225000J0D01*
G01*
X132250000Y-28975000D01*
G75*
G02*
X132025000Y-28750000I0J225000D01*
G01*
X132025000Y-28300000D01*
G75*
G02*
X132250000Y-28075000I225000J0D01*
G01*
G37*
G36*
G01*
X132250000Y-26525000D02*
X132750000Y-26525000D01*
G75*
G02*
X132975000Y-26750000I0J-225000D01*
G01*
X132975000Y-27200000D01*
G75*
G02*
X132750000Y-27425000I-225000J0D01*
G01*
X132250000Y-27425000D01*
G75*
G02*
X132025000Y-27200000I0J225000D01*
G01*
X132025000Y-26750000D01*
G75*
G02*
X132250000Y-26525000I225000J0D01*
G01*
G37*
%TD*%
%TO.C,C1*%
G36*
G01*
X135000000Y-31425000D02*
X134500000Y-31425000D01*
G75*
G02*
X134275000Y-31200000I0J225000D01*
G01*
X134275000Y-30750000D01*
G75*
G02*
X134500000Y-30525000I225000J0D01*
G01*
X135000000Y-30525000D01*
G75*
G02*
X135225000Y-30750000I0J-225000D01*
G01*
X135225000Y-31200000D01*
G75*
G02*
X135000000Y-31425000I-225000J0D01*
G01*
G37*
G36*
G01*
X135000000Y-32975000D02*
X134500000Y-32975000D01*
G75*
G02*
X134275000Y-32750000I0J225000D01*
G01*
X134275000Y-32300000D01*
G75*
G02*
X134500000Y-32075000I225000J0D01*
G01*
X135000000Y-32075000D01*
G75*
G02*
X135225000Y-32300000I0J-225000D01*
G01*
X135225000Y-32750000D01*
G75*
G02*
X135000000Y-32975000I-225000J0D01*
G01*
G37*
%TD*%
M02*
